<svg xmlns="http://www.w3.org/2000/svg" width="477" height="213" viewBox="0 0 477 213">
  <g id="Grupo_155982" data-name="Grupo 155982" transform="translate(-810.001 -8314.273)">
    <path id="Trazado_190602" data-name="Trazado 190602" d="M0,0H477V33H0Z" transform="translate(810.001 8314.273)" fill="#dee4f0"/>
    <path id="Trazado_190603" data-name="Trazado 190603" d="M0,0H235V43H0Z" transform="translate(810.001 8349.273)" fill="#e8e8e8"/>
    <path id="Trazado_190604" data-name="Trazado 190604" d="M0,0H235V43H0Z" transform="translate(810.001 8394.273)" fill="#e8e8e8"/>
    <path id="Trazado_190612" data-name="Trazado 190612" d="M0,0H235V43H0Z" transform="translate(810.001 8439.273)" fill="#e8e8e8"/>
    <path id="Trazado_190617" data-name="Trazado 190617" d="M0,0H235V43H0Z" transform="translate(810.001 8484.273)" fill="#e8e8e8"/>
    <path id="Trazado_190605" data-name="Trazado 190605" d="M0,0H240V43H0Z" transform="translate(1047.001 8349.273)" fill="#e8e8e8"/>
    <path id="Trazado_190606" data-name="Trazado 190606" d="M0,0H240V43H0Z" transform="translate(1047.001 8394.273)" fill="#e8e8e8"/>
    <path id="Trazado_190613" data-name="Trazado 190613" d="M0,0H240V43H0Z" transform="translate(1047.001 8439.273)" fill="#e8e8e8"/>
    <path id="Trazado_190618" data-name="Trazado 190618" d="M0,0H240V43H0Z" transform="translate(1047.001 8484.273)" fill="#e8e8e8"/>
    <path id="Trazado_190607" data-name="Trazado 190607" d="M8.7-3.315A3.522,3.522,0,0,1,7.516-.786,4.165,4.165,0,0,1,4.7.137,3.745,3.745,0,0,1,1.685-1.152a5.284,5.284,0,0,1-1.1-3.538V-5.3a5.966,5.966,0,0,1,.506-2.529A3.791,3.791,0,0,1,2.54-9.505a4.05,4.05,0,0,1,2.184-.584A4.058,4.058,0,0,1,7.5-9.167,3.785,3.785,0,0,1,8.716-6.576H6.665a2.079,2.079,0,0,0-.537-1.4,1.987,1.987,0,0,0-1.4-.434,1.742,1.742,0,0,0-1.535.735,4.118,4.118,0,0,0-.523,2.28v.752a4.408,4.408,0,0,0,.489,2.358A1.71,1.71,0,0,0,4.7-1.538a2.025,2.025,0,0,0,1.418-.434,1.961,1.961,0,0,0,.537-1.343Zm.909-.451a4.387,4.387,0,0,1,.424-1.962,3.1,3.1,0,0,1,1.22-1.333A3.56,3.56,0,0,1,13.1-7.533a3.368,3.368,0,0,1,2.444.916A3.676,3.676,0,0,1,16.6-4.129l.014.506a3.866,3.866,0,0,1-.95,2.731A3.3,3.3,0,0,1,13.118.137,3.319,3.319,0,0,1,10.565-.889a3.934,3.934,0,0,1-.954-2.789Zm1.976.14a2.765,2.765,0,0,0,.4,1.612,1.308,1.308,0,0,0,1.135.558,1.311,1.311,0,0,0,1.121-.551,3.025,3.025,0,0,0,.4-1.763,2.737,2.737,0,0,0-.4-1.6A1.311,1.311,0,0,0,13.1-5.94a1.29,1.29,0,0,0-1.121.565A3.076,3.076,0,0,0,11.587-3.626ZM19.653-7.4l.062.854a2.582,2.582,0,0,1,2.126-.991,2.146,2.146,0,0,1,1.75.69,3.221,3.221,0,0,1,.588,2.064V0H22.2V-4.741a1.287,1.287,0,0,0-.273-.915,1.222,1.222,0,0,0-.909-.284,1.359,1.359,0,0,0-1.251.713V0H17.794V-7.4Zm9.1,5.94a1.3,1.3,0,0,0,.889-.3,1.054,1.054,0,0,0,.355-.8h1.853a2.534,2.534,0,0,1-.41,1.377,2.706,2.706,0,0,1-1.1.971,3.455,3.455,0,0,1-1.548.345,3.211,3.211,0,0,1-2.5-1.008,3.99,3.99,0,0,1-.916-2.786v-.13a3.944,3.944,0,0,1,.909-2.728,3.174,3.174,0,0,1,2.5-1.019A3.111,3.111,0,0,1,31-6.744a2.8,2.8,0,0,1,.851,2.1H30a1.358,1.358,0,0,0-.355-.938,1.185,1.185,0,0,0-.9-.361,1.19,1.19,0,0,0-1.042.5A2.916,2.916,0,0,0,27.344-3.8V-3.6a2.953,2.953,0,0,0,.349,1.643A1.2,1.2,0,0,0,28.752-1.456ZM36.381.137a3.631,3.631,0,0,1-2.649-1A3.548,3.548,0,0,1,32.71-3.521v-.191A4.468,4.468,0,0,1,33.141-5.7a3.161,3.161,0,0,1,1.22-1.354,3.425,3.425,0,0,1,1.8-.475,3.07,3.07,0,0,1,2.389.957,3.889,3.889,0,0,1,.872,2.714v.807h-4.71a1.835,1.835,0,0,0,.578,1.162,1.746,1.746,0,0,0,1.22.438,2.132,2.132,0,0,0,1.784-.827L39.266-1.2a2.966,2.966,0,0,1-1.2.981A3.947,3.947,0,0,1,36.381.137ZM36.155-5.94a1.234,1.234,0,0,0-.954.4,2.062,2.062,0,0,0-.468,1.14h2.748V-4.56a1.471,1.471,0,0,0-.355-1.02A1.274,1.274,0,0,0,36.155-5.94ZM47.2-3.63a4.436,4.436,0,0,1-.776,2.738,2.488,2.488,0,0,1-2.1,1.029A2.3,2.3,0,0,1,42.52-.643V2.844H40.544V-7.4h1.832l.068.725a2.322,2.322,0,0,1,1.873-.861,2.5,2.5,0,0,1,2.126,1.012A4.556,4.556,0,0,1,47.2-3.732ZM45.227-3.78a2.927,2.927,0,0,0-.366-1.6A1.19,1.19,0,0,0,43.8-5.94a1.293,1.293,0,0,0-1.278.713V-2.19a1.315,1.315,0,0,0,1.292.734Q45.227-1.456,45.227-3.78Zm5.564-5.434V-7.4h1.265v1.449H50.791v3.691a.881.881,0,0,0,.157.588.79.79,0,0,0,.6.178,3.151,3.151,0,0,0,.581-.048v1.5a4.067,4.067,0,0,1-1.2.178,1.886,1.886,0,0,1-2.119-2.1V-5.947h-1.08V-7.4h1.08V-9.215Zm1.853,5.448a4.387,4.387,0,0,1,.424-1.962,3.1,3.1,0,0,1,1.22-1.333,3.56,3.56,0,0,1,1.849-.472,3.368,3.368,0,0,1,2.444.916,3.676,3.676,0,0,1,1.056,2.488l.014.506A3.866,3.866,0,0,1,58.7-.892,3.3,3.3,0,0,1,56.15.137,3.319,3.319,0,0,1,53.6-.889a3.934,3.934,0,0,1-.954-2.789Zm1.976.14a2.765,2.765,0,0,0,.4,1.612,1.308,1.308,0,0,0,1.135.558,1.311,1.311,0,0,0,1.121-.551,3.025,3.025,0,0,0,.4-1.763,2.737,2.737,0,0,0-.4-1.6,1.311,1.311,0,0,0-1.135-.568,1.29,1.29,0,0,0-1.121.565A3.076,3.076,0,0,0,54.619-3.626Z" transform="translate(895.001 8335.273)" fill="#12263f"/>
    <path id="Trazado_190614" data-name="Trazado 190614" d="M.649-8.039a1.968,1.968,0,0,1,.595-1.487A2.157,2.157,0,0,1,2.8-10.1a2.191,2.191,0,0,1,1.572.564A2.005,2.005,0,0,1,4.97-8v.492a1.943,1.943,0,0,1-.595,1.483,2.18,2.18,0,0,1-1.559.561,2.194,2.194,0,0,1-1.569-.564,1.991,1.991,0,0,1-.6-1.521ZM1.962-7.5a.929.929,0,0,0,.236.663.81.81,0,0,0,.619.251.772.772,0,0,0,.608-.254.989.989,0,0,0,.226-.681v-.509A.968.968,0,0,0,3.425-8.7.788.788,0,0,0,2.8-8.955a.791.791,0,0,0-.608.251.988.988,0,0,0-.232.7ZM5.407-2.44a1.943,1.943,0,0,1,.6-1.487,2.187,2.187,0,0,1,1.559-.564,2.209,2.209,0,0,1,1.569.557,1.994,1.994,0,0,1,.6,1.535v.492a1.957,1.957,0,0,1-.588,1.48A2.167,2.167,0,0,1,7.581.137,2.193,2.193,0,0,1,6-.431a1.982,1.982,0,0,1-.595-1.5ZM6.72-1.9a.922.922,0,0,0,.246.646.8.8,0,0,0,.615.268q.834,0,.834-.928v-.523A.938.938,0,0,0,8.183-3.1a.8.8,0,0,0-.615-.251.8.8,0,0,0-.615.251.968.968,0,0,0-.232.684ZM3.206-.745l-.964-.52L7.1-9.044l.964.52ZM22.887-4.751a6.008,6.008,0,0,1-.52,2.577A3.913,3.913,0,0,1,20.88-.465a4.113,4.113,0,0,1-2.218.6,4.141,4.141,0,0,1-2.208-.595,3.951,3.951,0,0,1-1.5-1.7,5.837,5.837,0,0,1-.54-2.54v-.492a5.977,5.977,0,0,1,.53-2.587,3.945,3.945,0,0,1,1.5-1.716,4.118,4.118,0,0,1,2.211-.6,4.118,4.118,0,0,1,2.211.6,3.945,3.945,0,0,1,1.5,1.716,5.96,5.96,0,0,1,.53,2.581ZM20.809-5.2a4.188,4.188,0,0,0-.561-2.379,1.827,1.827,0,0,0-1.6-.813,1.827,1.827,0,0,0-1.593.8,4.141,4.141,0,0,0-.567,2.355v.485a4.241,4.241,0,0,0,.561,2.365,1.822,1.822,0,0,0,1.613.841,1.806,1.806,0,0,0,1.586-.81,4.216,4.216,0,0,0,.561-2.362Zm10.1,1.572a4.479,4.479,0,0,1-.759,2.772,2.513,2.513,0,0,1-2.119.995,2.309,2.309,0,0,1-1.921-.923L26.024,0H24.247V-10.5h1.976v3.767a2.25,2.25,0,0,1,1.8-.8,2.534,2.534,0,0,1,2.123.995,4.485,4.485,0,0,1,.769,2.8ZM28.937-3.78a2.959,2.959,0,0,0-.355-1.642,1.2,1.2,0,0,0-1.06-.518,1.3,1.3,0,0,0-1.3.775v2.928a1.32,1.32,0,0,0,1.313.782A1.22,1.22,0,0,0,28.793-2.4,4.9,4.9,0,0,0,28.937-3.78Zm5.558-5.434V-7.4h1.265v1.449H34.494v3.691a.881.881,0,0,0,.157.588.79.79,0,0,0,.6.178,3.151,3.151,0,0,0,.581-.048v1.5a4.067,4.067,0,0,1-1.2.178,1.886,1.886,0,0,1-2.119-2.1V-5.947h-1.08V-7.4h1.08V-9.215ZM40.264.137a3.631,3.631,0,0,1-2.649-1,3.548,3.548,0,0,1-1.022-2.659v-.191A4.468,4.468,0,0,1,37.023-5.7a3.161,3.161,0,0,1,1.22-1.354,3.425,3.425,0,0,1,1.8-.475,3.07,3.07,0,0,1,2.389.957,3.889,3.889,0,0,1,.872,2.714v.807H38.6a1.835,1.835,0,0,0,.578,1.162,1.746,1.746,0,0,0,1.22.438,2.132,2.132,0,0,0,1.784-.827L43.148-1.2a2.966,2.966,0,0,1-1.2.981A3.947,3.947,0,0,1,40.264.137ZM40.038-5.94a1.234,1.234,0,0,0-.954.4,2.062,2.062,0,0,0-.468,1.14h2.748V-4.56a1.471,1.471,0,0,0-.355-1.02A1.274,1.274,0,0,0,40.038-5.94ZM46.245-7.4l.062.854a2.582,2.582,0,0,1,2.126-.991,2.146,2.146,0,0,1,1.75.69,3.221,3.221,0,0,1,.588,2.064V0H48.795V-4.741a1.287,1.287,0,0,0-.273-.915,1.222,1.222,0,0,0-.909-.284,1.359,1.359,0,0,0-1.251.713V0H44.386V-7.4ZM54.353,0H52.37V-7.4h1.982Zm-2.1-9.311a.973.973,0,0,1,.3-.731,1.117,1.117,0,0,1,.81-.287,1.12,1.12,0,0,1,.807.287.967.967,0,0,1,.3.731.97.97,0,0,1-.3.738,1.122,1.122,0,0,1-.8.287,1.122,1.122,0,0,1-.8-.287A.97.97,0,0,1,52.254-9.311Zm3.418,5.558a4.457,4.457,0,0,1,.776-2.755A2.517,2.517,0,0,1,58.57-7.533a2.265,2.265,0,0,1,1.784.807V-10.5h1.982V0H60.553l-.1-.786a2.325,2.325,0,0,1-1.9.923,2.511,2.511,0,0,1-2.1-1.029A4.6,4.6,0,0,1,55.672-3.753Zm1.976.141a2.936,2.936,0,0,0,.362,1.6,1.179,1.179,0,0,0,1.053.556,1.321,1.321,0,0,0,1.292-.776V-5.164a1.3,1.3,0,0,0-1.278-.776Q57.647-5.94,57.647-3.612Zm5.913-.154a4.387,4.387,0,0,1,.424-1.962A3.1,3.1,0,0,1,65.2-7.062a3.56,3.56,0,0,1,1.849-.472,3.368,3.368,0,0,1,2.444.916,3.676,3.676,0,0,1,1.056,2.488l.014.506a3.866,3.866,0,0,1-.95,2.731A3.3,3.3,0,0,1,67.067.137,3.319,3.319,0,0,1,64.514-.889a3.934,3.934,0,0,1-.954-2.789Zm1.976.14a2.765,2.765,0,0,0,.4,1.612,1.308,1.308,0,0,0,1.135.558,1.311,1.311,0,0,0,1.121-.551,3.025,3.025,0,0,0,.4-1.763,2.737,2.737,0,0,0-.4-1.6,1.311,1.311,0,0,0-1.135-.568,1.29,1.29,0,0,0-1.121.565A3.076,3.076,0,0,0,65.536-3.626Z" transform="translate(1137.001 8335.273)" fill="#12263f"/>
    <path id="Trazado_190608" data-name="Trazado 190608" d="M6.508-2.051h-3.6L2.229,0H.048L3.753-9.953h1.9L9.379,0H7.2ZM3.466-3.712H5.954L4.7-7.437Zm13.043.082a4.436,4.436,0,0,1-.776,2.738,2.488,2.488,0,0,1-2.1,1.029,2.3,2.3,0,0,1-1.812-.779V2.844H9.851V-7.4h1.832l.068.725a2.322,2.322,0,0,1,1.873-.861A2.5,2.5,0,0,1,15.75-6.521a4.556,4.556,0,0,1,.759,2.789ZM14.533-3.78a2.927,2.927,0,0,0-.366-1.6A1.19,1.19,0,0,0,13.1-5.94a1.293,1.293,0,0,0-1.278.713V-2.19a1.315,1.315,0,0,0,1.292.734Q14.533-1.456,14.533-3.78Zm7.355-1.763a5.367,5.367,0,0,0-.711-.055,1.447,1.447,0,0,0-1.47.759V0H17.732V-7.4H19.6l.055.882A1.831,1.831,0,0,1,21.3-7.533a2.07,2.07,0,0,1,.615.089Zm.4,1.777a4.387,4.387,0,0,1,.424-1.962,3.1,3.1,0,0,1,1.22-1.333,3.56,3.56,0,0,1,1.849-.472,3.368,3.368,0,0,1,2.444.916,3.676,3.676,0,0,1,1.056,2.488l.014.506a3.866,3.866,0,0,1-.95,2.731A3.3,3.3,0,0,1,25.792.137,3.319,3.319,0,0,1,23.239-.889a3.934,3.934,0,0,1-.954-2.789Zm1.976.14a2.765,2.765,0,0,0,.4,1.612,1.308,1.308,0,0,0,1.135.558,1.311,1.311,0,0,0,1.121-.551,3.025,3.025,0,0,0,.4-1.763,2.737,2.737,0,0,0-.4-1.6,1.311,1.311,0,0,0-1.135-.568,1.29,1.29,0,0,0-1.121.565A3.076,3.076,0,0,0,24.261-3.626Zm12.913,0a4.479,4.479,0,0,1-.759,2.772A2.513,2.513,0,0,1,34.3.137a2.309,2.309,0,0,1-1.921-.923L32.286,0H30.509V-10.5h1.976v3.767a2.25,2.25,0,0,1,1.8-.8,2.534,2.534,0,0,1,2.123.995,4.485,4.485,0,0,1,.769,2.8ZM35.2-3.78a2.959,2.959,0,0,0-.355-1.642,1.2,1.2,0,0,0-1.06-.518,1.3,1.3,0,0,0-1.3.775v2.928a1.32,1.32,0,0,0,1.313.782A1.22,1.22,0,0,0,35.055-2.4,4.9,4.9,0,0,0,35.2-3.78ZM42.677,0a2.194,2.194,0,0,1-.2-.663,2.39,2.39,0,0,1-1.866.8,2.626,2.626,0,0,1-1.8-.629A2.023,2.023,0,0,1,38.1-2.078a2.09,2.09,0,0,1,.872-1.8,4.3,4.3,0,0,1,2.519-.636H42.4v-.424a1.219,1.219,0,0,0-.263-.82A1.035,1.035,0,0,0,41.3-6.07a1.177,1.177,0,0,0-.783.239.813.813,0,0,0-.284.656H38.261a1.984,1.984,0,0,1,.4-1.189,2.621,2.621,0,0,1,1.121-.858,4.086,4.086,0,0,1,1.627-.311,3.228,3.228,0,0,1,2.17.687,2.4,2.4,0,0,1,.8,1.931v3.206a3.536,3.536,0,0,0,.294,1.593V0ZM41.043-1.374a1.7,1.7,0,0,0,.807-.195,1.28,1.28,0,0,0,.547-.523V-3.363h-.738q-1.483,0-1.579,1.025l-.007.116a.791.791,0,0,0,.26.608A1.009,1.009,0,0,0,41.043-1.374Zm4.546-2.379a4.457,4.457,0,0,1,.776-2.755,2.517,2.517,0,0,1,2.123-1.025,2.265,2.265,0,0,1,1.784.807V-10.5h1.982V0H50.47l-.1-.786a2.325,2.325,0,0,1-1.9.923,2.511,2.511,0,0,1-2.1-1.029A4.6,4.6,0,0,1,45.589-3.753Zm1.976.141a2.936,2.936,0,0,0,.362,1.6,1.179,1.179,0,0,0,1.053.556,1.321,1.321,0,0,0,1.292-.776V-5.164a1.3,1.3,0,0,0-1.278-.776Q47.564-5.94,47.564-3.612Zm5.913-.154A4.387,4.387,0,0,1,53.9-5.729a3.1,3.1,0,0,1,1.22-1.333,3.56,3.56,0,0,1,1.849-.472,3.368,3.368,0,0,1,2.444.916,3.676,3.676,0,0,1,1.056,2.488l.014.506a3.866,3.866,0,0,1-.95,2.731A3.3,3.3,0,0,1,56.984.137,3.319,3.319,0,0,1,54.431-.889a3.934,3.934,0,0,1-.954-2.789Zm1.976.14a2.765,2.765,0,0,0,.4,1.612,1.308,1.308,0,0,0,1.135.558,1.311,1.311,0,0,0,1.121-.551,3.025,3.025,0,0,0,.4-1.763,2.737,2.737,0,0,0-.4-1.6,1.311,1.311,0,0,0-1.135-.568,1.29,1.29,0,0,0-1.121.565A3.076,3.076,0,0,0,55.453-3.626Z" transform="translate(832.001 8375.273)" fill="#12263f"/>
    <path id="Trazado_190609" data-name="Trazado 190609" d="M4.983,13H3.712V4.571l-2.55.937V4.359L4.785,3h.2ZM14.93,8.755a5.784,5.784,0,0,1-.759,3.3,2.7,2.7,0,0,1-2.372,1.08A2.718,2.718,0,0,1,9.44,12.081a5.49,5.49,0,0,1-.793-3.155V7.237a5.655,5.655,0,0,1,.759-3.261A2.719,2.719,0,0,1,11.785,2.91,2.744,2.744,0,0,1,14.15,3.939a5.458,5.458,0,0,1,.779,3.175ZM13.665,7.025a4.634,4.634,0,0,0-.451-2.341,1.553,1.553,0,0,0-1.429-.735,1.532,1.532,0,0,0-1.415.731A4.525,4.525,0,0,0,9.912,6.93V8.953a4.708,4.708,0,0,0,.468,2.382A1.55,1.55,0,0,0,11.8,12.1a1.529,1.529,0,0,0,1.391-.725A4.538,4.538,0,0,0,13.665,9.1Zm9.126,1.729a5.784,5.784,0,0,1-.759,3.3,2.7,2.7,0,0,1-2.372,1.08A2.718,2.718,0,0,1,17.3,12.081a5.49,5.49,0,0,1-.793-3.155V7.237a5.655,5.655,0,0,1,.759-3.261A2.719,2.719,0,0,1,19.646,2.91a2.744,2.744,0,0,1,2.365,1.029,5.458,5.458,0,0,1,.779,3.175ZM21.526,7.025a4.634,4.634,0,0,0-.451-2.341,1.553,1.553,0,0,0-1.429-.735,1.532,1.532,0,0,0-1.415.731,4.525,4.525,0,0,0-.458,2.249V8.953a4.708,4.708,0,0,0,.468,2.382,1.55,1.55,0,0,0,1.418.769,1.529,1.529,0,0,0,1.391-.725A4.538,4.538,0,0,0,21.526,9.1Zm6.241-2.064a2.02,2.02,0,0,1,.571-1.477,2.145,2.145,0,0,1,2.939,0A2.09,2.09,0,0,1,31.842,5v.485a1.994,1.994,0,0,1-.571,1.473,1.968,1.968,0,0,1-1.453.571,2.011,2.011,0,0,1-1.47-.571,2.036,2.036,0,0,1-.581-1.521Zm.943.524a1.294,1.294,0,0,0,.3.88,1.015,1.015,0,0,0,.807.346,1,1,0,0,0,.783-.336,1.336,1.336,0,0,0,.3-.918v-.5a1.326,1.326,0,0,0-.294-.884,1.09,1.09,0,0,0-1.6,0,1.368,1.368,0,0,0-.294.911Zm3.9,5.075a2.008,2.008,0,0,1,.571-1.473,2.159,2.159,0,0,1,2.936,0,2.06,2.06,0,0,1,.574,1.524v.485a2.008,2.008,0,0,1-.571,1.473,1.964,1.964,0,0,1-1.459.578,2.011,2.011,0,0,1-1.47-.571,2.036,2.036,0,0,1-.581-1.521Zm.943.53a1.3,1.3,0,0,0,.3.887,1.015,1.015,0,0,0,.807.346.988.988,0,0,0,.786-.339,1.359,1.359,0,0,0,.294-.922v-.507a1.3,1.3,0,0,0-.3-.884,1.093,1.093,0,0,0-1.586,0,1.319,1.319,0,0,0-.3.915Zm-3.452,1.158-.718-.451,4.86-7.779.718.451ZM41.925,13V3.047h3.254a3.777,3.777,0,0,1,2.437.67A2.414,2.414,0,0,1,48.433,5.7a2.022,2.022,0,0,1-.4,1.234,2.57,2.57,0,0,1-1.08.831,2.308,2.308,0,0,1,1.275.858,2.462,2.462,0,0,1,.468,1.507,2.662,2.662,0,0,1-.868,2.105A3.59,3.59,0,0,1,45.377,13Zm1.313-4.655v3.582H45.4a2.087,2.087,0,0,0,1.446-.475,1.669,1.669,0,0,0,.53-1.309q0-1.8-1.955-1.8Zm0-1.053H45.22A2.078,2.078,0,0,0,46.6,6.86a1.447,1.447,0,0,0,.516-1.171,1.423,1.423,0,0,0-.479-1.2,2.35,2.35,0,0,0-1.456-.373H43.237Zm11.771,4.977a2.686,2.686,0,0,1-2.167.868,2.3,2.3,0,0,1-1.8-.687,2.974,2.974,0,0,1-.625-2.034V5.6H51.68v4.778q0,1.682,1.367,1.682a1.893,1.893,0,0,0,1.928-1.08V5.6h1.265V13h-1.2Zm6.221.868a3.232,3.232,0,0,1-2.447-.988,3.666,3.666,0,0,1-.943-2.642V9.274a4.438,4.438,0,0,1,.42-1.965,3.28,3.28,0,0,1,1.176-1.354,2.956,2.956,0,0,1,1.637-.489,2.77,2.77,0,0,1,2.242.95,4.114,4.114,0,0,1,.8,2.721v.526H59.1a2.629,2.629,0,0,0,.639,1.767A2.009,2.009,0,0,0,61.3,12.1a2.2,2.2,0,0,0,1.135-.273,2.851,2.851,0,0,0,.813-.725l.772.6A3.106,3.106,0,0,1,61.229,13.137Zm-.157-6.631a1.687,1.687,0,0,0-1.285.557,2.708,2.708,0,0,0-.643,1.562H62.85v-.1a2.409,2.409,0,0,0-.52-1.494A1.588,1.588,0,0,0,61.072,6.506Zm5.7-.9.041.93a2.7,2.7,0,0,1,2.215-1.066q2.345,0,2.365,2.646V13H70.13V8.105a1.7,1.7,0,0,0-.366-1.183,1.466,1.466,0,0,0-1.118-.383,1.825,1.825,0,0,0-1.08.328,2.228,2.228,0,0,0-.725.861V13H65.577V5.6Zm6.193,3.63a4.369,4.369,0,0,1,.427-1.955,3.187,3.187,0,0,1,1.189-1.34,3.238,3.238,0,0,1,1.74-.472,3.119,3.119,0,0,1,2.444,1.046A4.024,4.024,0,0,1,79.7,9.295v.089a4.407,4.407,0,0,1-.414,1.938A3.14,3.14,0,0,1,78.1,12.658a3.275,3.275,0,0,1-1.767.479A3.111,3.111,0,0,1,73.9,12.091a4,4,0,0,1-.933-2.769Zm1.271.15a3.164,3.164,0,0,0,.571,1.976,1.934,1.934,0,0,0,3.059-.01,3.46,3.46,0,0,0,.567-2.116,3.159,3.159,0,0,0-.578-1.972,1.836,1.836,0,0,0-1.535-.755,1.816,1.816,0,0,0-1.511.745A3.435,3.435,0,0,0,74.238,9.384Z" transform="translate(1055.001 8364.273)" fill="#12263f"/>
    <path id="Trazado_190610" data-name="Trazado 190610" d="M5.435,8.557.916,6.786v-1.3L6.754,8.071v1L.916,11.66V10.348Zm8.62-1.121h-5.7v-1.1h5.7Zm0,2.837h-5.7V9.179h5.7Zm10.2-7.232V4.113h-.232a3.33,3.33,0,0,0-2.352.875,3.641,3.641,0,0,0-1.012,2.386,2.7,2.7,0,0,1,2.146-.9,2.581,2.581,0,0,1,2.075.916,3.533,3.533,0,0,1,.776,2.365,3.522,3.522,0,0,1-.837,2.461,2.883,2.883,0,0,1-2.246.923,2.841,2.841,0,0,1-2.317-1.1,4.348,4.348,0,0,1-.889-2.827V8.728a6.552,6.552,0,0,1,1.172-4.2,4.306,4.306,0,0,1,3.49-1.487ZM22.593,7.524a2.125,2.125,0,0,0-1.955,1.367v.465a3.265,3.265,0,0,0,.554,1.982,1.659,1.659,0,0,0,1.381.752,1.608,1.608,0,0,0,1.343-.629A2.61,2.61,0,0,0,24.4,9.814a2.61,2.61,0,0,0-.5-1.658A1.589,1.589,0,0,0,22.593,7.524Zm10.8,1.23a5.784,5.784,0,0,1-.759,3.3,2.7,2.7,0,0,1-2.372,1.08A2.718,2.718,0,0,1,27.9,12.081a5.49,5.49,0,0,1-.793-3.155V7.237a5.655,5.655,0,0,1,.759-3.261A2.719,2.719,0,0,1,30.249,2.91a2.744,2.744,0,0,1,2.365,1.029,5.458,5.458,0,0,1,.779,3.175ZM32.129,7.025a4.634,4.634,0,0,0-.451-2.341,1.553,1.553,0,0,0-1.429-.735,1.532,1.532,0,0,0-1.415.731,4.525,4.525,0,0,0-.458,2.249V8.953a4.708,4.708,0,0,0,.468,2.382,1.55,1.55,0,0,0,1.418.769,1.529,1.529,0,0,0,1.391-.725A4.538,4.538,0,0,0,32.129,9.1ZM38.37,4.961a2.02,2.02,0,0,1,.571-1.477,2.145,2.145,0,0,1,2.939,0A2.09,2.09,0,0,1,42.444,5v.485a1.994,1.994,0,0,1-.571,1.473,1.968,1.968,0,0,1-1.453.571,2.011,2.011,0,0,1-1.47-.571,2.036,2.036,0,0,1-.581-1.521Zm.943.524a1.294,1.294,0,0,0,.3.88,1.015,1.015,0,0,0,.807.346,1,1,0,0,0,.783-.336,1.336,1.336,0,0,0,.3-.918v-.5a1.326,1.326,0,0,0-.294-.884,1.09,1.09,0,0,0-1.6,0,1.368,1.368,0,0,0-.294.911Zm3.9,5.075a2.008,2.008,0,0,1,.571-1.473,2.159,2.159,0,0,1,2.936,0,2.06,2.06,0,0,1,.574,1.524v.485a2.008,2.008,0,0,1-.571,1.473,1.964,1.964,0,0,1-1.459.578,2.011,2.011,0,0,1-1.47-.571,2.036,2.036,0,0,1-.581-1.521Zm.943.53a1.3,1.3,0,0,0,.3.887,1.015,1.015,0,0,0,.807.346.988.988,0,0,0,.786-.339,1.359,1.359,0,0,0,.294-.922v-.507a1.3,1.3,0,0,0-.3-.884,1.093,1.093,0,0,0-1.586,0,1.319,1.319,0,0,0-.3.915Zm-3.452,1.158L39.99,11.8l4.86-7.779.718.451ZM52.527,13V3.047h3.254a3.777,3.777,0,0,1,2.437.67A2.414,2.414,0,0,1,59.035,5.7a2.022,2.022,0,0,1-.4,1.234,2.57,2.57,0,0,1-1.08.831,2.308,2.308,0,0,1,1.275.858,2.462,2.462,0,0,1,.468,1.507,2.662,2.662,0,0,1-.868,2.105A3.59,3.59,0,0,1,55.979,13ZM53.84,8.345v3.582h2.167a2.087,2.087,0,0,0,1.446-.475,1.669,1.669,0,0,0,.53-1.309q0-1.8-1.955-1.8Zm0-1.053h1.982A2.078,2.078,0,0,0,57.2,6.86a1.447,1.447,0,0,0,.516-1.171,1.423,1.423,0,0,0-.479-1.2,2.35,2.35,0,0,0-1.456-.373H53.84Zm11.771,4.977a2.686,2.686,0,0,1-2.167.868,2.3,2.3,0,0,1-1.8-.687,2.974,2.974,0,0,1-.625-2.034V5.6h1.265v4.778q0,1.682,1.367,1.682a1.893,1.893,0,0,0,1.928-1.08V5.6h1.265V13h-1.2Zm6.221.868a3.232,3.232,0,0,1-2.447-.988,3.666,3.666,0,0,1-.943-2.642V9.274a4.438,4.438,0,0,1,.42-1.965,3.28,3.28,0,0,1,1.176-1.354,2.956,2.956,0,0,1,1.637-.489,2.77,2.77,0,0,1,2.242.95,4.114,4.114,0,0,1,.8,2.721v.526H69.706a2.629,2.629,0,0,0,.639,1.767A2.009,2.009,0,0,0,71.9,12.1a2.2,2.2,0,0,0,1.135-.273,2.851,2.851,0,0,0,.813-.725l.772.6A3.106,3.106,0,0,1,71.832,13.137Zm-.157-6.631a1.687,1.687,0,0,0-1.285.557,2.708,2.708,0,0,0-.643,1.562h3.705v-.1a2.409,2.409,0,0,0-.52-1.494A1.588,1.588,0,0,0,71.675,6.506Zm5.7-.9.041.93a2.7,2.7,0,0,1,2.215-1.066q2.345,0,2.365,2.646V13H80.732V8.105a1.7,1.7,0,0,0-.366-1.183,1.466,1.466,0,0,0-1.118-.383,1.825,1.825,0,0,0-1.08.328,2.228,2.228,0,0,0-.725.861V13H76.18V5.6Zm6.193,3.63A4.369,4.369,0,0,1,84,7.278a3.187,3.187,0,0,1,1.189-1.34,3.238,3.238,0,0,1,1.74-.472A3.119,3.119,0,0,1,89.37,6.513,4.024,4.024,0,0,1,90.3,9.295v.089a4.407,4.407,0,0,1-.414,1.938,3.14,3.14,0,0,1-1.183,1.336,3.275,3.275,0,0,1-1.767.479A3.111,3.111,0,0,1,84.5,12.091a4,4,0,0,1-.933-2.769Zm1.271.15a3.164,3.164,0,0,0,.571,1.976,1.934,1.934,0,0,0,3.059-.01,3.46,3.46,0,0,0,.567-2.116,3.159,3.159,0,0,0-.578-1.972,1.836,1.836,0,0,0-1.535-.755,1.816,1.816,0,0,0-1.511.745A3.435,3.435,0,0,0,84.841,9.384Zm7.007,5.6-.718-.492a3.3,3.3,0,0,0,.67-1.846V11.5h1.237v.991a3.114,3.114,0,0,1-.338,1.381A3.233,3.233,0,0,1,91.848,14.982ZM104.494,13H97.973v-.909l3.445-3.828a8.185,8.185,0,0,0,1.056-1.412,2.356,2.356,0,0,0,.291-1.125,1.786,1.786,0,0,0-.472-1.278,1.649,1.649,0,0,0-1.258-.5,1.953,1.953,0,0,0-1.466.537,2.05,2.05,0,0,0-.523,1.494H97.781a2.936,2.936,0,0,1,.885-2.222,3.282,3.282,0,0,1,2.369-.848,3.153,3.153,0,0,1,2.194.728,2.483,2.483,0,0,1,.807,1.938q0,1.47-1.873,3.5L99.5,11.968h5Zm7.581-4.245a5.784,5.784,0,0,1-.759,3.3,3.153,3.153,0,0,1-4.73.024,5.49,5.49,0,0,1-.793-3.155V7.237a5.655,5.655,0,0,1,.759-3.261,3.21,3.21,0,0,1,4.744-.038,5.458,5.458,0,0,1,.779,3.175Zm-1.265-1.729a4.634,4.634,0,0,0-.451-2.341,1.553,1.553,0,0,0-1.429-.735,1.532,1.532,0,0,0-1.415.731,4.525,4.525,0,0,0-.458,2.249V8.953a4.708,4.708,0,0,0,.468,2.382,1.55,1.55,0,0,0,1.418.769,1.529,1.529,0,0,0,1.391-.725,4.538,4.538,0,0,0,.475-2.283ZM124.3,8.55h-6.85V7.518h6.85Zm7.358-1.142h.95a2.088,2.088,0,0,0,1.408-.472,1.576,1.576,0,0,0,.513-1.237,1.544,1.544,0,0,0-1.743-1.75,1.813,1.813,0,0,0-1.309.468,1.639,1.639,0,0,0-.489,1.241h-1.265a2.539,2.539,0,0,1,.865-1.965,3.15,3.15,0,0,1,2.2-.783,3.113,3.113,0,0,1,2.208.745,2.692,2.692,0,0,1,.8,2.071,2.185,2.185,0,0,1-.42,1.258,2.538,2.538,0,0,1-1.145.909,2.446,2.446,0,0,1,1.268.861,2.392,2.392,0,0,1,.448,1.47,2.715,2.715,0,0,1-.875,2.126,3.277,3.277,0,0,1-2.276.786,3.363,3.363,0,0,1-2.28-.759,2.517,2.517,0,0,1-.878-2H130.9a1.627,1.627,0,0,0,.513,1.258,1.95,1.95,0,0,0,1.374.472,1.914,1.914,0,0,0,1.4-.479,1.844,1.844,0,0,0,.485-1.374,1.673,1.673,0,0,0-.533-1.333A2.323,2.323,0,0,0,132.6,8.44h-.95Zm12.264,1.347a5.784,5.784,0,0,1-.759,3.3,3.153,3.153,0,0,1-4.73.024,5.49,5.49,0,0,1-.793-3.155V7.237a5.655,5.655,0,0,1,.759-3.261,3.21,3.21,0,0,1,4.744-.038,5.458,5.458,0,0,1,.779,3.175Zm-1.265-1.729a4.634,4.634,0,0,0-.451-2.341,1.553,1.553,0,0,0-1.429-.735,1.532,1.532,0,0,0-1.415.731A4.525,4.525,0,0,0,138.9,6.93V8.953a4.708,4.708,0,0,0,.468,2.382,1.55,1.55,0,0,0,1.418.769,1.529,1.529,0,0,0,1.391-.725,4.538,4.538,0,0,0,.475-2.283Zm6.241-2.064a2.02,2.02,0,0,1,.571-1.477,2.145,2.145,0,0,1,2.939,0A2.09,2.09,0,0,1,152.968,5v.485A1.994,1.994,0,0,1,152.4,6.96a1.968,1.968,0,0,1-1.453.571,2.011,2.011,0,0,1-1.47-.571,2.036,2.036,0,0,1-.581-1.521Zm.943.524a1.294,1.294,0,0,0,.3.88,1.015,1.015,0,0,0,.807.346,1,1,0,0,0,.783-.336,1.336,1.336,0,0,0,.3-.918v-.5a1.326,1.326,0,0,0-.294-.884,1.09,1.09,0,0,0-1.6,0,1.368,1.368,0,0,0-.294.911Zm3.9,5.075a2.008,2.008,0,0,1,.571-1.473,2.159,2.159,0,0,1,2.936,0,2.06,2.06,0,0,1,.574,1.524v.485a2.008,2.008,0,0,1-.571,1.473,1.964,1.964,0,0,1-1.459.578,2.011,2.011,0,0,1-1.47-.571,2.036,2.036,0,0,1-.581-1.521Zm.943.53a1.3,1.3,0,0,0,.3.887,1.015,1.015,0,0,0,.807.346.988.988,0,0,0,.786-.339,1.359,1.359,0,0,0,.294-.922v-.507a1.3,1.3,0,0,0-.3-.884,1.093,1.093,0,0,0-1.586,0,1.319,1.319,0,0,0-.3.915Zm-3.452,1.158-.718-.451,4.86-7.779.718.451ZM166.7,8.974h-2.338V13h-1.319V3.047h3.295a3.9,3.9,0,0,1,2.587.766,2.755,2.755,0,0,1,.906,2.229,2.68,2.68,0,0,1-.5,1.62,3,3,0,0,1-1.4,1.032l2.338,4.225V13h-1.408ZM164.363,7.9h2.017a2.275,2.275,0,0,0,1.555-.507,1.714,1.714,0,0,0,.578-1.356,1.8,1.8,0,0,0-.55-1.418,2.33,2.33,0,0,0-1.589-.5h-2.01Zm10.179,5.236a3.232,3.232,0,0,1-2.447-.988,3.666,3.666,0,0,1-.943-2.642V9.274a4.438,4.438,0,0,1,.42-1.965,3.279,3.279,0,0,1,1.176-1.354,2.956,2.956,0,0,1,1.637-.489,2.77,2.77,0,0,1,2.242.95,4.114,4.114,0,0,1,.8,2.721v.526h-5.011a2.629,2.629,0,0,0,.639,1.767,2.009,2.009,0,0,0,1.555.673,2.2,2.2,0,0,0,1.135-.273,2.851,2.851,0,0,0,.813-.725l.772.6A3.106,3.106,0,0,1,174.542,13.137Zm-.157-6.631a1.687,1.687,0,0,0-1.285.557,2.708,2.708,0,0,0-.643,1.562h3.705v-.1a2.409,2.409,0,0,0-.52-1.494A1.588,1.588,0,0,0,174.385,6.506Zm4.2,2.734a4.347,4.347,0,0,1,.8-2.751,2.757,2.757,0,0,1,4.231-.065l.062-.82h1.155v7.219a3.009,3.009,0,0,1-.851,2.263,3.141,3.141,0,0,1-2.287.827,3.8,3.8,0,0,1-1.565-.342,2.7,2.7,0,0,1-1.169-.937l.656-.759a2.473,2.473,0,0,0,1.989,1,1.938,1.938,0,0,0,1.439-.52,1.986,1.986,0,0,0,.516-1.463v-.636a2.6,2.6,0,0,1-2.071.875,2.526,2.526,0,0,1-2.1-1.046A4.571,4.571,0,0,1,178.589,9.24Zm1.271.144a3.316,3.316,0,0,0,.513,1.965,1.666,1.666,0,0,0,1.436.714,1.852,1.852,0,0,0,1.757-1.087V7.6a1.874,1.874,0,0,0-1.743-1.06,1.681,1.681,0,0,0-1.442.718A3.612,3.612,0,0,0,179.86,9.384Zm11.45,2.885a2.686,2.686,0,0,1-2.167.868,2.3,2.3,0,0,1-1.8-.687,2.974,2.974,0,0,1-.625-2.034V5.6h1.265v4.778q0,1.682,1.367,1.682a1.893,1.893,0,0,0,1.928-1.08V5.6h1.265V13h-1.2Zm4.525.731h-1.265V2.5h1.265Zm6.59,0a2.657,2.657,0,0,1-.178-.779,2.822,2.822,0,0,1-2.105.916,2.611,2.611,0,0,1-1.794-.619,2,2,0,0,1-.7-1.569,2.091,2.091,0,0,1,.878-1.794A4.142,4.142,0,0,1,201,8.516h1.23V7.935a1.42,1.42,0,0,0-.4-1.056,1.593,1.593,0,0,0-1.169-.393,1.844,1.844,0,0,0-1.135.342,1.007,1.007,0,0,0-.458.827H197.8a1.745,1.745,0,0,1,.393-1.07,2.683,2.683,0,0,1,1.066-.817,3.588,3.588,0,0,1,1.48-.3,2.924,2.924,0,0,1,2,.639,2.306,2.306,0,0,1,.752,1.76v3.4a4.162,4.162,0,0,0,.26,1.62V13Zm-2.1-.964a2.223,2.223,0,0,0,1.128-.308,1.861,1.861,0,0,0,.772-.8V9.411h-.991q-2.324,0-2.324,1.36a1.151,1.151,0,0,0,.4.93A1.524,1.524,0,0,0,200.327,12.036Zm8.723-5.3a3.79,3.79,0,0,0-.622-.048,1.667,1.667,0,0,0-1.688,1.06V13h-1.265V5.6h1.23l.021.854a1.969,1.969,0,0,1,1.764-.991,1.292,1.292,0,0,1,.561.1Z" transform="translate(1055.001 8406.273)" fill="#12263f"/>
    <path id="Trazado_190615" data-name="Trazado 190615" d="M5.435,8.557.916,6.786v-1.3L6.754,8.071v1L.916,11.66V10.348Zm8.62-1.121h-5.7v-1.1h5.7Zm0,2.837h-5.7V9.179h5.7ZM19.872,8.01l.506-4.963h5.1V4.216H21.451l-.3,2.714A3.212,3.212,0,0,1,22.812,6.5a2.746,2.746,0,0,1,2.16.9,3.523,3.523,0,0,1,.8,2.43,3.4,3.4,0,0,1-.831,2.423,3.027,3.027,0,0,1-2.321.885,3.146,3.146,0,0,1-2.153-.731,2.919,2.919,0,0,1-.95-2.023h1.2a2.009,2.009,0,0,0,.608,1.289,1.892,1.892,0,0,0,1.3.434A1.706,1.706,0,0,0,24,11.5a2.515,2.515,0,0,0,.5-1.661,2.308,2.308,0,0,0-.543-1.6,1.849,1.849,0,0,0-1.446-.6,2.085,2.085,0,0,0-1.3.362l-.335.273Zm13.521.745a5.784,5.784,0,0,1-.759,3.3,2.7,2.7,0,0,1-2.372,1.08A2.718,2.718,0,0,1,27.9,12.081a5.49,5.49,0,0,1-.793-3.155V7.237a5.655,5.655,0,0,1,.759-3.261A2.719,2.719,0,0,1,30.249,2.91a2.744,2.744,0,0,1,2.365,1.029,5.458,5.458,0,0,1,.779,3.175ZM32.129,7.025a4.634,4.634,0,0,0-.451-2.341,1.553,1.553,0,0,0-1.429-.735,1.532,1.532,0,0,0-1.415.731,4.525,4.525,0,0,0-.458,2.249V8.953a4.708,4.708,0,0,0,.468,2.382,1.55,1.55,0,0,0,1.418.769,1.529,1.529,0,0,0,1.391-.725A4.538,4.538,0,0,0,32.129,9.1ZM38.37,4.961a2.02,2.02,0,0,1,.571-1.477,2.145,2.145,0,0,1,2.939,0A2.09,2.09,0,0,1,42.444,5v.485a1.994,1.994,0,0,1-.571,1.473,1.968,1.968,0,0,1-1.453.571,2.011,2.011,0,0,1-1.47-.571,2.036,2.036,0,0,1-.581-1.521Zm.943.524a1.294,1.294,0,0,0,.3.88,1.015,1.015,0,0,0,.807.346,1,1,0,0,0,.783-.336,1.336,1.336,0,0,0,.3-.918v-.5a1.326,1.326,0,0,0-.294-.884,1.09,1.09,0,0,0-1.6,0,1.368,1.368,0,0,0-.294.911Zm3.9,5.075a2.008,2.008,0,0,1,.571-1.473,2.159,2.159,0,0,1,2.936,0,2.06,2.06,0,0,1,.574,1.524v.485a2.008,2.008,0,0,1-.571,1.473,1.964,1.964,0,0,1-1.459.578,2.011,2.011,0,0,1-1.47-.571,2.036,2.036,0,0,1-.581-1.521Zm.943.53a1.3,1.3,0,0,0,.3.887,1.015,1.015,0,0,0,.807.346.988.988,0,0,0,.786-.339,1.359,1.359,0,0,0,.294-.922v-.507a1.3,1.3,0,0,0-.3-.884,1.093,1.093,0,0,0-1.586,0,1.319,1.319,0,0,0-.3.915Zm-3.452,1.158L39.99,11.8l4.86-7.779.718.451ZM52.527,13V3.047h3.254a3.777,3.777,0,0,1,2.437.67A2.414,2.414,0,0,1,59.035,5.7a2.022,2.022,0,0,1-.4,1.234,2.57,2.57,0,0,1-1.08.831,2.308,2.308,0,0,1,1.275.858,2.462,2.462,0,0,1,.468,1.507,2.662,2.662,0,0,1-.868,2.105A3.59,3.59,0,0,1,55.979,13ZM53.84,8.345v3.582h2.167a2.087,2.087,0,0,0,1.446-.475,1.669,1.669,0,0,0,.53-1.309q0-1.8-1.955-1.8Zm0-1.053h1.982A2.078,2.078,0,0,0,57.2,6.86a1.447,1.447,0,0,0,.516-1.171,1.423,1.423,0,0,0-.479-1.2,2.35,2.35,0,0,0-1.456-.373H53.84Zm11.771,4.977a2.686,2.686,0,0,1-2.167.868,2.3,2.3,0,0,1-1.8-.687,2.974,2.974,0,0,1-.625-2.034V5.6h1.265v4.778q0,1.682,1.367,1.682a1.893,1.893,0,0,0,1.928-1.08V5.6h1.265V13h-1.2Zm6.221.868a3.232,3.232,0,0,1-2.447-.988,3.666,3.666,0,0,1-.943-2.642V9.274a4.438,4.438,0,0,1,.42-1.965,3.28,3.28,0,0,1,1.176-1.354,2.956,2.956,0,0,1,1.637-.489,2.77,2.77,0,0,1,2.242.95,4.114,4.114,0,0,1,.8,2.721v.526H69.706a2.629,2.629,0,0,0,.639,1.767A2.009,2.009,0,0,0,71.9,12.1a2.2,2.2,0,0,0,1.135-.273,2.851,2.851,0,0,0,.813-.725l.772.6A3.106,3.106,0,0,1,71.832,13.137Zm-.157-6.631a1.687,1.687,0,0,0-1.285.557,2.708,2.708,0,0,0-.643,1.562h3.705v-.1a2.409,2.409,0,0,0-.52-1.494A1.588,1.588,0,0,0,71.675,6.506Zm5.7-.9.041.93a2.7,2.7,0,0,1,2.215-1.066q2.345,0,2.365,2.646V13H80.732V8.105a1.7,1.7,0,0,0-.366-1.183,1.466,1.466,0,0,0-1.118-.383,1.825,1.825,0,0,0-1.08.328,2.228,2.228,0,0,0-.725.861V13H76.18V5.6Zm6.193,3.63A4.369,4.369,0,0,1,84,7.278a3.187,3.187,0,0,1,1.189-1.34,3.238,3.238,0,0,1,1.74-.472A3.119,3.119,0,0,1,89.37,6.513,4.024,4.024,0,0,1,90.3,9.295v.089a4.407,4.407,0,0,1-.414,1.938,3.14,3.14,0,0,1-1.183,1.336,3.275,3.275,0,0,1-1.767.479A3.111,3.111,0,0,1,84.5,12.091a4,4,0,0,1-.933-2.769Zm1.271.15a3.164,3.164,0,0,0,.571,1.976,1.934,1.934,0,0,0,3.059-.01,3.46,3.46,0,0,0,.567-2.116,3.159,3.159,0,0,0-.578-1.972,1.836,1.836,0,0,0-1.535-.755,1.816,1.816,0,0,0-1.511.745A3.435,3.435,0,0,0,84.841,9.384Zm7.007,5.6-.718-.492a3.3,3.3,0,0,0,.67-1.846V11.5h1.237v.991a3.114,3.114,0,0,1-.338,1.381A3.233,3.233,0,0,1,91.848,14.982ZM104.494,13H97.973v-.909l3.445-3.828a8.185,8.185,0,0,0,1.056-1.412,2.356,2.356,0,0,0,.291-1.125,1.786,1.786,0,0,0-.472-1.278,1.649,1.649,0,0,0-1.258-.5,1.953,1.953,0,0,0-1.466.537,2.05,2.05,0,0,0-.523,1.494H97.781a2.936,2.936,0,0,1,.885-2.222,3.282,3.282,0,0,1,2.369-.848,3.153,3.153,0,0,1,2.194.728,2.483,2.483,0,0,1,.807,1.938q0,1.47-1.873,3.5L99.5,11.968h5Zm7.581-4.245a5.784,5.784,0,0,1-.759,3.3,3.153,3.153,0,0,1-4.73.024,5.49,5.49,0,0,1-.793-3.155V7.237a5.655,5.655,0,0,1,.759-3.261,3.21,3.21,0,0,1,4.744-.038,5.458,5.458,0,0,1,.779,3.175Zm-1.265-1.729a4.634,4.634,0,0,0-.451-2.341,1.553,1.553,0,0,0-1.429-.735,1.532,1.532,0,0,0-1.415.731,4.525,4.525,0,0,0-.458,2.249V8.953a4.708,4.708,0,0,0,.468,2.382,1.55,1.55,0,0,0,1.418.769,1.529,1.529,0,0,0,1.391-.725,4.538,4.538,0,0,0,.475-2.283ZM124.3,8.55h-6.85V7.518h6.85Zm7.358-1.142h.95a2.088,2.088,0,0,0,1.408-.472,1.576,1.576,0,0,0,.513-1.237,1.544,1.544,0,0,0-1.743-1.75,1.813,1.813,0,0,0-1.309.468,1.639,1.639,0,0,0-.489,1.241h-1.265a2.539,2.539,0,0,1,.865-1.965,3.15,3.15,0,0,1,2.2-.783,3.113,3.113,0,0,1,2.208.745,2.692,2.692,0,0,1,.8,2.071,2.185,2.185,0,0,1-.42,1.258,2.538,2.538,0,0,1-1.145.909,2.446,2.446,0,0,1,1.268.861,2.392,2.392,0,0,1,.448,1.47,2.715,2.715,0,0,1-.875,2.126,3.277,3.277,0,0,1-2.276.786,3.363,3.363,0,0,1-2.28-.759,2.517,2.517,0,0,1-.878-2H130.9a1.627,1.627,0,0,0,.513,1.258,1.95,1.95,0,0,0,1.374.472,1.914,1.914,0,0,0,1.4-.479,1.844,1.844,0,0,0,.485-1.374,1.673,1.673,0,0,0-.533-1.333A2.323,2.323,0,0,0,132.6,8.44h-.95Zm12.264,1.347a5.784,5.784,0,0,1-.759,3.3,3.153,3.153,0,0,1-4.73.024,5.49,5.49,0,0,1-.793-3.155V7.237a5.655,5.655,0,0,1,.759-3.261,3.21,3.21,0,0,1,4.744-.038,5.458,5.458,0,0,1,.779,3.175Zm-1.265-1.729a4.634,4.634,0,0,0-.451-2.341,1.553,1.553,0,0,0-1.429-.735,1.532,1.532,0,0,0-1.415.731A4.525,4.525,0,0,0,138.9,6.93V8.953a4.708,4.708,0,0,0,.468,2.382,1.55,1.55,0,0,0,1.418.769,1.529,1.529,0,0,0,1.391-.725,4.538,4.538,0,0,0,.475-2.283Zm6.241-2.064a2.02,2.02,0,0,1,.571-1.477,2.145,2.145,0,0,1,2.939,0A2.09,2.09,0,0,1,152.968,5v.485A1.994,1.994,0,0,1,152.4,6.96a1.968,1.968,0,0,1-1.453.571,2.011,2.011,0,0,1-1.47-.571,2.036,2.036,0,0,1-.581-1.521Zm.943.524a1.294,1.294,0,0,0,.3.88,1.015,1.015,0,0,0,.807.346,1,1,0,0,0,.783-.336,1.336,1.336,0,0,0,.3-.918v-.5a1.326,1.326,0,0,0-.294-.884,1.09,1.09,0,0,0-1.6,0,1.368,1.368,0,0,0-.294.911Zm3.9,5.075a2.008,2.008,0,0,1,.571-1.473,2.159,2.159,0,0,1,2.936,0,2.06,2.06,0,0,1,.574,1.524v.485a2.008,2.008,0,0,1-.571,1.473,1.964,1.964,0,0,1-1.459.578,2.011,2.011,0,0,1-1.47-.571,2.036,2.036,0,0,1-.581-1.521Zm.943.53a1.3,1.3,0,0,0,.3.887,1.015,1.015,0,0,0,.807.346.988.988,0,0,0,.786-.339,1.359,1.359,0,0,0,.294-.922v-.507a1.3,1.3,0,0,0-.3-.884,1.093,1.093,0,0,0-1.586,0,1.319,1.319,0,0,0-.3.915Zm-3.452,1.158-.718-.451,4.86-7.779.718.451Zm13.515-9.2L168,11.168l3.254-8.121h1.7V13h-1.312V9.124l.123-4.184L168.5,13h-1l-3.261-8.039.13,4.163V13h-1.312V3.047ZM179.642,13a2.657,2.657,0,0,1-.178-.779,2.822,2.822,0,0,1-2.105.916,2.611,2.611,0,0,1-1.794-.619,2,2,0,0,1-.7-1.569,2.091,2.091,0,0,1,.878-1.794,4.142,4.142,0,0,1,2.471-.639h1.23V7.935a1.42,1.42,0,0,0-.4-1.056,1.593,1.593,0,0,0-1.169-.393,1.844,1.844,0,0,0-1.135.342,1.007,1.007,0,0,0-.458.827h-1.271a1.745,1.745,0,0,1,.393-1.07,2.683,2.683,0,0,1,1.066-.817,3.588,3.588,0,0,1,1.48-.3,2.924,2.924,0,0,1,2,.639,2.306,2.306,0,0,1,.752,1.76v3.4a4.162,4.162,0,0,0,.26,1.62V13Zm-2.1-.964a2.223,2.223,0,0,0,1.128-.308,1.861,1.861,0,0,0,.772-.8V9.411h-.991q-2.324,0-2.324,1.36a1.151,1.151,0,0,0,.4.93A1.524,1.524,0,0,0,177.543,12.036Zm6.521.964H182.8V2.5h1.265Zm1.688-3.767a4.369,4.369,0,0,1,.427-1.955,3.187,3.187,0,0,1,1.189-1.34,3.238,3.238,0,0,1,1.74-.472,3.119,3.119,0,0,1,2.444,1.046,4.024,4.024,0,0,1,.933,2.782v.089a4.407,4.407,0,0,1-.414,1.938,3.14,3.14,0,0,1-1.183,1.336,3.275,3.275,0,0,1-1.767.479,3.111,3.111,0,0,1-2.437-1.046,4,4,0,0,1-.933-2.769Zm1.271.15a3.164,3.164,0,0,0,.571,1.976,1.934,1.934,0,0,0,3.059-.01,3.46,3.46,0,0,0,.567-2.116,3.159,3.159,0,0,0-.578-1.972,1.836,1.836,0,0,0-1.535-.755,1.816,1.816,0,0,0-1.511.745A3.435,3.435,0,0,0,187.024,9.384Z" transform="translate(1055.001 8452.273)" fill="#12263f"/>
    <path id="Trazado_190619" data-name="Trazado 190619" d="M5.435,8.557.916,6.786v-1.3L6.754,8.071v1L.916,11.66V10.348ZM17.644,5.645a2.311,2.311,0,0,1-.393,1.326,2.674,2.674,0,0,1-1.063.909,2.853,2.853,0,0,1,1.234.978,2.46,2.46,0,0,1,.455,1.456A2.6,2.6,0,0,1,17,12.371a3.349,3.349,0,0,1-2.293.766,3.334,3.334,0,0,1-2.3-.769,2.613,2.613,0,0,1-.865-2.054,2.533,2.533,0,0,1,.441-1.456,2.744,2.744,0,0,1,1.22-.984,2.608,2.608,0,0,1-1.046-.909,2.344,2.344,0,0,1-.383-1.319,2.573,2.573,0,0,1,.807-2,3.026,3.026,0,0,1,2.126-.738,3.029,3.029,0,0,1,2.123.738A2.567,2.567,0,0,1,17.644,5.645Zm-1.032,4.642a1.834,1.834,0,0,0-.53-1.36A1.879,1.879,0,0,0,14.7,8.4a1.78,1.78,0,0,0-1.887,1.887,1.767,1.767,0,0,0,.5,1.333,1.929,1.929,0,0,0,1.4.485,1.923,1.923,0,0,0,1.395-.489A1.763,1.763,0,0,0,16.611,10.286Zm-1.9-6.337a1.632,1.632,0,0,0-1.207.461,1.7,1.7,0,0,0-.461,1.254A1.687,1.687,0,0,0,13.5,6.892a1.613,1.613,0,0,0,1.213.468,1.613,1.613,0,0,0,1.213-.468,1.687,1.687,0,0,0,.455-1.227,1.687,1.687,0,0,0-.472-1.237A1.609,1.609,0,0,0,14.711,3.949Zm11,4.806a5.784,5.784,0,0,1-.759,3.3,2.7,2.7,0,0,1-2.372,1.08,2.718,2.718,0,0,1-2.358-1.056,5.49,5.49,0,0,1-.793-3.155V7.237a5.655,5.655,0,0,1,.759-3.261A2.719,2.719,0,0,1,22.565,2.91a2.744,2.744,0,0,1,2.365,1.029,5.458,5.458,0,0,1,.779,3.175ZM24.445,7.025a4.634,4.634,0,0,0-.451-2.341,1.553,1.553,0,0,0-1.429-.735,1.532,1.532,0,0,0-1.415.731,4.525,4.525,0,0,0-.458,2.249V8.953a4.708,4.708,0,0,0,.468,2.382,1.55,1.55,0,0,0,1.418.769,1.529,1.529,0,0,0,1.391-.725A4.538,4.538,0,0,0,24.445,9.1Zm6.241-2.064a2.02,2.02,0,0,1,.571-1.477,2.145,2.145,0,0,1,2.939,0A2.09,2.09,0,0,1,34.761,5v.485A1.994,1.994,0,0,1,34.19,6.96a1.968,1.968,0,0,1-1.453.571,2.011,2.011,0,0,1-1.47-.571,2.036,2.036,0,0,1-.581-1.521Zm.943.524a1.294,1.294,0,0,0,.3.88,1.015,1.015,0,0,0,.807.346,1,1,0,0,0,.783-.336,1.336,1.336,0,0,0,.3-.918v-.5a1.326,1.326,0,0,0-.294-.884,1.09,1.09,0,0,0-1.6,0,1.368,1.368,0,0,0-.294.911Zm3.9,5.075A2.008,2.008,0,0,1,36.1,9.086a2.159,2.159,0,0,1,2.936,0,2.06,2.06,0,0,1,.574,1.524v.485a2.008,2.008,0,0,1-.571,1.473,1.964,1.964,0,0,1-1.459.578,2.011,2.011,0,0,1-1.47-.571,2.036,2.036,0,0,1-.581-1.521Zm.943.53a1.3,1.3,0,0,0,.3.887,1.015,1.015,0,0,0,.807.346.988.988,0,0,0,.786-.339,1.359,1.359,0,0,0,.294-.922v-.507a1.3,1.3,0,0,0-.3-.884,1.093,1.093,0,0,0-1.586,0,1.319,1.319,0,0,0-.3.915Zm-3.452,1.158-.718-.451,4.86-7.779.718.451Zm13.515-9.2,3.254,8.121,3.254-8.121h1.7V13H53.437V9.124L53.56,4.94,50.292,13h-1L46.026,4.961l.13,4.163V13H44.844V3.047ZM61.435,13a2.657,2.657,0,0,1-.178-.779,2.822,2.822,0,0,1-2.105.916,2.611,2.611,0,0,1-1.794-.619,2,2,0,0,1-.7-1.569,2.091,2.091,0,0,1,.878-1.794,4.142,4.142,0,0,1,2.471-.639h1.23V7.935a1.42,1.42,0,0,0-.4-1.056,1.593,1.593,0,0,0-1.169-.393,1.844,1.844,0,0,0-1.135.342,1.007,1.007,0,0,0-.458.827H56.807a1.745,1.745,0,0,1,.393-1.07,2.683,2.683,0,0,1,1.066-.817,3.588,3.588,0,0,1,1.48-.3,2.924,2.924,0,0,1,2,.639,2.306,2.306,0,0,1,.752,1.76v3.4a4.162,4.162,0,0,0,.26,1.62V13Zm-2.1-.964a2.223,2.223,0,0,0,1.128-.308,1.861,1.861,0,0,0,.772-.8V9.411h-.991q-2.324,0-2.324,1.36a1.151,1.151,0,0,0,.4.93A1.524,1.524,0,0,0,59.336,12.036ZM65.857,13H64.593V2.5h1.265Zm1.688-3.767a4.369,4.369,0,0,1,.427-1.955,3.187,3.187,0,0,1,1.189-1.34,3.238,3.238,0,0,1,1.74-.472,3.119,3.119,0,0,1,2.444,1.046,4.024,4.024,0,0,1,.933,2.782v.089a4.407,4.407,0,0,1-.414,1.938,3.14,3.14,0,0,1-1.183,1.336,3.275,3.275,0,0,1-1.767.479,3.111,3.111,0,0,1-2.437-1.046,4,4,0,0,1-.933-2.769Zm1.271.15a3.164,3.164,0,0,0,.571,1.976,1.934,1.934,0,0,0,3.059-.01,3.46,3.46,0,0,0,.567-2.116,3.159,3.159,0,0,0-.578-1.972A1.836,1.836,0,0,0,70.9,6.506a1.816,1.816,0,0,0-1.511.745A3.435,3.435,0,0,0,68.817,9.384Z" transform="translate(1059.001 8498.273)" fill="#12263f"/>
    <path id="Trazado_190611" data-name="Trazado 190611" d="M6.508-2.051h-3.6L2.229,0H.048L3.753-9.953h1.9L9.379,0H7.2ZM3.466-3.712H5.954L4.7-7.437Zm13.043.082a4.436,4.436,0,0,1-.776,2.738,2.488,2.488,0,0,1-2.1,1.029,2.3,2.3,0,0,1-1.812-.779V2.844H9.851V-7.4h1.832l.068.725a2.322,2.322,0,0,1,1.873-.861A2.5,2.5,0,0,1,15.75-6.521a4.556,4.556,0,0,1,.759,2.789ZM14.533-3.78a2.927,2.927,0,0,0-.366-1.6A1.19,1.19,0,0,0,13.1-5.94a1.293,1.293,0,0,0-1.278.713V-2.19a1.315,1.315,0,0,0,1.292.734Q14.533-1.456,14.533-3.78Zm7.355-1.763a5.367,5.367,0,0,0-.711-.055,1.447,1.447,0,0,0-1.47.759V0H17.732V-7.4H19.6l.055.882A1.831,1.831,0,0,1,21.3-7.533a2.07,2.07,0,0,1,.615.089Zm.4,1.777a4.387,4.387,0,0,1,.424-1.962,3.1,3.1,0,0,1,1.22-1.333,3.56,3.56,0,0,1,1.849-.472,3.368,3.368,0,0,1,2.444.916,3.676,3.676,0,0,1,1.056,2.488l.014.506a3.866,3.866,0,0,1-.95,2.731A3.3,3.3,0,0,1,25.792.137,3.319,3.319,0,0,1,23.239-.889a3.934,3.934,0,0,1-.954-2.789Zm1.976.14a2.765,2.765,0,0,0,.4,1.612,1.308,1.308,0,0,0,1.135.558,1.311,1.311,0,0,0,1.121-.551,3.025,3.025,0,0,0,.4-1.763,2.737,2.737,0,0,0-.4-1.6,1.311,1.311,0,0,0-1.135-.568,1.29,1.29,0,0,0-1.121.565A3.076,3.076,0,0,0,24.261-3.626Zm12.913,0a4.479,4.479,0,0,1-.759,2.772A2.513,2.513,0,0,1,34.3.137a2.309,2.309,0,0,1-1.921-.923L32.286,0H30.509V-10.5h1.976v3.767a2.25,2.25,0,0,1,1.8-.8,2.534,2.534,0,0,1,2.123.995,4.485,4.485,0,0,1,.769,2.8ZM35.2-3.78a2.959,2.959,0,0,0-.355-1.642,1.2,1.2,0,0,0-1.06-.518,1.3,1.3,0,0,0-1.3.775v2.928a1.32,1.32,0,0,0,1.313.782A1.22,1.22,0,0,0,35.055-2.4,4.9,4.9,0,0,0,35.2-3.78ZM42.677,0a2.194,2.194,0,0,1-.2-.663,2.39,2.39,0,0,1-1.866.8,2.626,2.626,0,0,1-1.8-.629A2.023,2.023,0,0,1,38.1-2.078a2.09,2.09,0,0,1,.872-1.8,4.3,4.3,0,0,1,2.519-.636H42.4v-.424a1.219,1.219,0,0,0-.263-.82A1.035,1.035,0,0,0,41.3-6.07a1.177,1.177,0,0,0-.783.239.813.813,0,0,0-.284.656H38.261a1.984,1.984,0,0,1,.4-1.189,2.621,2.621,0,0,1,1.121-.858,4.086,4.086,0,0,1,1.627-.311,3.228,3.228,0,0,1,2.17.687,2.4,2.4,0,0,1,.8,1.931v3.206a3.536,3.536,0,0,0,.294,1.593V0ZM41.043-1.374a1.7,1.7,0,0,0,.807-.195,1.28,1.28,0,0,0,.547-.523V-3.363h-.738q-1.483,0-1.579,1.025l-.007.116a.791.791,0,0,0,.26.608A1.009,1.009,0,0,0,41.043-1.374Zm4.546-2.379a4.457,4.457,0,0,1,.776-2.755,2.517,2.517,0,0,1,2.123-1.025,2.265,2.265,0,0,1,1.784.807V-10.5h1.982V0H50.47l-.1-.786a2.325,2.325,0,0,1-1.9.923,2.511,2.511,0,0,1-2.1-1.029A4.6,4.6,0,0,1,45.589-3.753Zm1.976.141a2.936,2.936,0,0,0,.362,1.6,1.179,1.179,0,0,0,1.053.556,1.321,1.321,0,0,0,1.292-.776V-5.164a1.3,1.3,0,0,0-1.278-.776Q47.564-5.94,47.564-3.612Zm5.913-.154A4.387,4.387,0,0,1,53.9-5.729a3.1,3.1,0,0,1,1.22-1.333,3.56,3.56,0,0,1,1.849-.472,3.368,3.368,0,0,1,2.444.916,3.676,3.676,0,0,1,1.056,2.488l.014.506a3.866,3.866,0,0,1-.95,2.731A3.3,3.3,0,0,1,56.984.137,3.319,3.319,0,0,1,54.431-.889a3.934,3.934,0,0,1-.954-2.789Zm1.976.14a2.765,2.765,0,0,0,.4,1.612,1.308,1.308,0,0,0,1.135.558,1.311,1.311,0,0,0,1.121-.551,3.025,3.025,0,0,0,.4-1.763,2.737,2.737,0,0,0-.4-1.6,1.311,1.311,0,0,0-1.135-.568,1.29,1.29,0,0,0-1.121.565A3.076,3.076,0,0,0,55.453-3.626Zm12.811,2.17a1.3,1.3,0,0,0,.889-.3,1.054,1.054,0,0,0,.355-.8H71.36a2.534,2.534,0,0,1-.41,1.377,2.706,2.706,0,0,1-1.1.971A3.455,3.455,0,0,1,68.3.137,3.211,3.211,0,0,1,65.8-.872a3.99,3.99,0,0,1-.916-2.786v-.13a3.944,3.944,0,0,1,.909-2.728,3.174,3.174,0,0,1,2.5-1.019,3.111,3.111,0,0,1,2.225.79,2.8,2.8,0,0,1,.851,2.1H69.508a1.358,1.358,0,0,0-.355-.938,1.185,1.185,0,0,0-.9-.361,1.19,1.19,0,0,0-1.042.5A2.916,2.916,0,0,0,66.855-3.8V-3.6A2.953,2.953,0,0,0,67.2-1.956,1.2,1.2,0,0,0,68.264-1.456Zm3.917-2.311A4.387,4.387,0,0,1,72.6-5.729a3.1,3.1,0,0,1,1.22-1.333,3.56,3.56,0,0,1,1.849-.472,3.368,3.368,0,0,1,2.444.916,3.676,3.676,0,0,1,1.056,2.488l.014.506a3.866,3.866,0,0,1-.95,2.731A3.3,3.3,0,0,1,75.688.137,3.319,3.319,0,0,1,73.134-.889a3.934,3.934,0,0,1-.954-2.789Zm1.976.14a2.765,2.765,0,0,0,.4,1.612,1.308,1.308,0,0,0,1.135.558,1.311,1.311,0,0,0,1.121-.551,3.025,3.025,0,0,0,.4-1.763,2.737,2.737,0,0,0-.4-1.6,1.311,1.311,0,0,0-1.135-.568,1.29,1.29,0,0,0-1.121.565A3.076,3.076,0,0,0,74.156-3.626ZM82.223-7.4l.062.854a2.582,2.582,0,0,1,2.126-.991,2.146,2.146,0,0,1,1.75.69,3.221,3.221,0,0,1,.588,2.064V0H84.772V-4.741a1.287,1.287,0,0,0-.273-.915,1.222,1.222,0,0,0-.909-.284,1.359,1.359,0,0,0-1.251.713V0H80.363V-7.4Zm5.715,3.644a4.457,4.457,0,0,1,.776-2.755,2.517,2.517,0,0,1,2.123-1.025,2.265,2.265,0,0,1,1.784.807V-10.5H94.6V0H92.818l-.1-.786a2.325,2.325,0,0,1-1.9.923,2.511,2.511,0,0,1-2.1-1.029A4.6,4.6,0,0,1,87.938-3.753Zm1.976.141a2.936,2.936,0,0,0,.362,1.6,1.179,1.179,0,0,0,1.053.556,1.321,1.321,0,0,0,1.292-.776V-5.164a1.3,1.3,0,0,0-1.278-.776Q89.913-5.94,89.913-3.612ZM98.219,0H96.236V-7.4h1.982Zm-2.1-9.311a.973.973,0,0,1,.3-.731,1.117,1.117,0,0,1,.81-.287,1.12,1.12,0,0,1,.807.287.967.967,0,0,1,.3.731.97.97,0,0,1-.3.738,1.122,1.122,0,0,1-.8.287,1.122,1.122,0,0,1-.8-.287A.97.97,0,0,1,96.12-9.311Zm6.8,7.854a1.3,1.3,0,0,0,.889-.3,1.054,1.054,0,0,0,.355-.8h1.853a2.534,2.534,0,0,1-.41,1.377,2.706,2.706,0,0,1-1.1.971,3.455,3.455,0,0,1-1.548.345,3.211,3.211,0,0,1-2.5-1.008,3.99,3.99,0,0,1-.916-2.786v-.13a3.944,3.944,0,0,1,.909-2.728,3.174,3.174,0,0,1,2.5-1.019,3.111,3.111,0,0,1,2.225.79,2.8,2.8,0,0,1,.851,2.1h-1.853a1.358,1.358,0,0,0-.355-.938,1.185,1.185,0,0,0-.9-.361,1.19,1.19,0,0,0-1.042.5,2.916,2.916,0,0,0-.352,1.633V-3.6a2.953,2.953,0,0,0,.349,1.643A1.2,1.2,0,0,0,102.922-1.456ZM109.231,0h-1.982V-7.4h1.982Zm-2.1-9.311a.973.973,0,0,1,.3-.731,1.117,1.117,0,0,1,.81-.287,1.12,1.12,0,0,1,.807.287.967.967,0,0,1,.3.731.97.97,0,0,1-.3.738,1.122,1.122,0,0,1-.8.287,1.122,1.122,0,0,1-.8-.287A.97.97,0,0,1,107.133-9.311Zm3.418,5.544a4.387,4.387,0,0,1,.424-1.962,3.1,3.1,0,0,1,1.22-1.333,3.56,3.56,0,0,1,1.849-.472,3.368,3.368,0,0,1,2.444.916,3.676,3.676,0,0,1,1.056,2.488l.014.506a3.866,3.866,0,0,1-.95,2.731,3.3,3.3,0,0,1-2.55,1.029A3.319,3.319,0,0,1,111.5-.889a3.934,3.934,0,0,1-.954-2.789Zm1.976.14a2.765,2.765,0,0,0,.4,1.612,1.308,1.308,0,0,0,1.135.558,1.311,1.311,0,0,0,1.121-.551,3.025,3.025,0,0,0,.4-1.763,2.737,2.737,0,0,0-.4-1.6,1.311,1.311,0,0,0-1.135-.568,1.29,1.29,0,0,0-1.121.565A3.076,3.076,0,0,0,112.526-3.626Zm8.066-3.77.062.854a2.582,2.582,0,0,1,2.126-.991,2.146,2.146,0,0,1,1.75.69,3.221,3.221,0,0,1,.588,2.064V0h-1.976V-4.741a1.287,1.287,0,0,0-.273-.915,1.222,1.222,0,0,0-.909-.284,1.359,1.359,0,0,0-1.251.713V0h-1.976V-7.4ZM130.9,0a2.194,2.194,0,0,1-.2-.663,2.39,2.39,0,0,1-1.866.8,2.626,2.626,0,0,1-1.8-.629,2.023,2.023,0,0,1-.714-1.586,2.09,2.09,0,0,1,.872-1.8,4.3,4.3,0,0,1,2.519-.636h.909v-.424a1.219,1.219,0,0,0-.263-.82,1.035,1.035,0,0,0-.831-.308,1.177,1.177,0,0,0-.783.239.813.813,0,0,0-.284.656h-1.976a1.985,1.985,0,0,1,.4-1.189A2.621,2.621,0,0,1,128-7.222a4.086,4.086,0,0,1,1.627-.311,3.228,3.228,0,0,1,2.17.687,2.4,2.4,0,0,1,.8,1.931v3.206A3.536,3.536,0,0,0,132.9-.116V0Zm-1.634-1.374a1.7,1.7,0,0,0,.807-.195,1.28,1.28,0,0,0,.547-.523V-3.363h-.738q-1.483,0-1.579,1.025l-.007.116a.791.791,0,0,0,.26.608A1.009,1.009,0,0,0,129.268-1.374Zm4.546-2.379a4.457,4.457,0,0,1,.776-2.755,2.517,2.517,0,0,1,2.123-1.025,2.265,2.265,0,0,1,1.784.807V-10.5h1.982V0h-1.784l-.1-.786a2.325,2.325,0,0,1-1.9.923,2.511,2.511,0,0,1-2.1-1.029A4.6,4.6,0,0,1,133.813-3.753Zm1.976.141a2.936,2.936,0,0,0,.362,1.6,1.179,1.179,0,0,0,1.053.556,1.321,1.321,0,0,0,1.292-.776V-5.164a1.3,1.3,0,0,0-1.278-.776Q135.789-5.94,135.789-3.612Zm5.913-.154a4.387,4.387,0,0,1,.424-1.962,3.1,3.1,0,0,1,1.22-1.333,3.56,3.56,0,0,1,1.849-.472,3.368,3.368,0,0,1,2.444.916A3.676,3.676,0,0,1,148.7-4.129l.014.506a3.866,3.866,0,0,1-.95,2.731,3.3,3.3,0,0,1-2.55,1.029,3.319,3.319,0,0,1-2.553-1.025,3.934,3.934,0,0,1-.954-2.789Zm1.976.14a2.765,2.765,0,0,0,.4,1.612,1.308,1.308,0,0,0,1.135.558,1.311,1.311,0,0,0,1.121-.551,3.025,3.025,0,0,0,.4-1.763,2.737,2.737,0,0,0-.4-1.6A1.311,1.311,0,0,0,145.2-5.94a1.29,1.29,0,0,0-1.121.565A3.076,3.076,0,0,0,143.678-3.626Z" transform="translate(832.001 8420.273)" fill="#12263f"/>
    <path id="Trazado_190616" data-name="Trazado 190616" d="M6.508-2.051h-3.6L2.229,0H.048L3.753-9.953h1.9L9.379,0H7.2ZM3.466-3.712H5.954L4.7-7.437Zm9.789,2.256a1.3,1.3,0,0,0,.889-.3,1.054,1.054,0,0,0,.355-.8h1.853a2.534,2.534,0,0,1-.41,1.377,2.706,2.706,0,0,1-1.1.971,3.455,3.455,0,0,1-1.548.345,3.211,3.211,0,0,1-2.5-1.008,3.99,3.99,0,0,1-.916-2.786v-.13a3.944,3.944,0,0,1,.909-2.728,3.174,3.174,0,0,1,2.5-1.019,3.111,3.111,0,0,1,2.225.79,2.8,2.8,0,0,1,.851,2.1H14.5a1.358,1.358,0,0,0-.355-.938,1.185,1.185,0,0,0-.9-.361,1.19,1.19,0,0,0-1.042.5A2.916,2.916,0,0,0,11.847-3.8V-3.6A2.953,2.953,0,0,0,12.2-1.956,1.2,1.2,0,0,0,13.255-1.456ZM20.884.137a3.631,3.631,0,0,1-2.649-1,3.548,3.548,0,0,1-1.022-2.659v-.191A4.468,4.468,0,0,1,17.644-5.7a3.161,3.161,0,0,1,1.22-1.354,3.425,3.425,0,0,1,1.8-.475,3.07,3.07,0,0,1,2.389.957,3.889,3.889,0,0,1,.872,2.714v.807h-4.71a1.835,1.835,0,0,0,.578,1.162,1.746,1.746,0,0,0,1.22.438A2.132,2.132,0,0,0,22.8-2.283L23.769-1.2a2.966,2.966,0,0,1-1.2.981A3.947,3.947,0,0,1,20.884.137ZM20.658-5.94a1.234,1.234,0,0,0-.954.4,2.062,2.062,0,0,0-.468,1.14h2.748V-4.56a1.471,1.471,0,0,0-.355-1.02A1.274,1.274,0,0,0,20.658-5.94ZM31.705-3.63a4.436,4.436,0,0,1-.776,2.738,2.488,2.488,0,0,1-2.1,1.029,2.3,2.3,0,0,1-1.812-.779V2.844H25.047V-7.4h1.832l.068.725a2.322,2.322,0,0,1,1.873-.861,2.5,2.5,0,0,1,2.126,1.012,4.556,4.556,0,0,1,.759,2.789ZM29.729-3.78a2.927,2.927,0,0,0-.366-1.6A1.19,1.19,0,0,0,28.3-5.94a1.293,1.293,0,0,0-1.278.713V-2.19a1.315,1.315,0,0,0,1.292.734Q29.729-1.456,29.729-3.78Zm5.564-5.434V-7.4h1.265v1.449H35.294v3.691a.881.881,0,0,0,.157.588.79.79,0,0,0,.6.178,3.151,3.151,0,0,0,.581-.048v1.5a4.067,4.067,0,0,1-1.2.178,1.886,1.886,0,0,1-2.119-2.1V-5.947h-1.08V-7.4h1.08V-9.215ZM41.945,0a2.194,2.194,0,0,1-.2-.663,2.39,2.39,0,0,1-1.866.8,2.626,2.626,0,0,1-1.8-.629,2.023,2.023,0,0,1-.714-1.586,2.09,2.09,0,0,1,.872-1.8,4.3,4.3,0,0,1,2.519-.636h.909v-.424a1.219,1.219,0,0,0-.263-.82,1.035,1.035,0,0,0-.831-.308,1.177,1.177,0,0,0-.783.239.813.813,0,0,0-.284.656H37.529a1.984,1.984,0,0,1,.4-1.189,2.621,2.621,0,0,1,1.121-.858,4.086,4.086,0,0,1,1.627-.311,3.228,3.228,0,0,1,2.17.687,2.4,2.4,0,0,1,.8,1.931v3.206a3.536,3.536,0,0,0,.294,1.593V0ZM40.312-1.374a1.7,1.7,0,0,0,.807-.195,1.28,1.28,0,0,0,.547-.523V-3.363h-.738q-1.483,0-1.579,1.025l-.007.116a.791.791,0,0,0,.26.608A1.009,1.009,0,0,0,40.312-1.374ZM51.83-3.63a4.479,4.479,0,0,1-.759,2.772,2.513,2.513,0,0,1-2.119.995,2.309,2.309,0,0,1-1.921-.923L46.942,0H45.165V-10.5h1.976v3.767a2.25,2.25,0,0,1,1.8-.8,2.534,2.534,0,0,1,2.123.995,4.485,4.485,0,0,1,.769,2.8ZM49.854-3.78A2.959,2.959,0,0,0,49.5-5.423a1.2,1.2,0,0,0-1.06-.518,1.3,1.3,0,0,0-1.3.775v2.928a1.32,1.32,0,0,0,1.313.782A1.22,1.22,0,0,0,49.711-2.4,4.9,4.9,0,0,0,49.854-3.78ZM55.132,0H53.149V-10.5h1.982Zm5.031.137a3.631,3.631,0,0,1-2.649-1,3.548,3.548,0,0,1-1.022-2.659v-.191A4.468,4.468,0,0,1,56.923-5.7a3.161,3.161,0,0,1,1.22-1.354,3.425,3.425,0,0,1,1.8-.475,3.07,3.07,0,0,1,2.389.957,3.889,3.889,0,0,1,.872,2.714v.807H58.5a1.835,1.835,0,0,0,.578,1.162,1.746,1.746,0,0,0,1.22.438,2.132,2.132,0,0,0,1.784-.827L63.048-1.2a2.966,2.966,0,0,1-1.2.981A3.947,3.947,0,0,1,60.163.137ZM59.938-5.94a1.234,1.234,0,0,0-.954.4,2.062,2.062,0,0,0-.468,1.14h2.748V-4.56a1.471,1.471,0,0,0-.355-1.02A1.274,1.274,0,0,0,59.938-5.94Z" transform="translate(832.001 8465.273)" fill="#12263f"/>
    <path id="Trazado_190620" data-name="Trazado 190620" d="M8.982,0H6.932L2.939-6.549V0H.889V-9.953H2.939l4,6.563V-9.953H8.982Zm1.354-3.767a4.387,4.387,0,0,1,.424-1.962,3.1,3.1,0,0,1,1.22-1.333,3.56,3.56,0,0,1,1.849-.472,3.368,3.368,0,0,1,2.444.916,3.676,3.676,0,0,1,1.056,2.488l.014.506a3.866,3.866,0,0,1-.95,2.731A3.3,3.3,0,0,1,13.843.137,3.319,3.319,0,0,1,11.29-.889a3.934,3.934,0,0,1-.954-2.789Zm1.976.14a2.765,2.765,0,0,0,.4,1.612,1.308,1.308,0,0,0,1.135.558,1.311,1.311,0,0,0,1.121-.551,3.025,3.025,0,0,0,.4-1.763,2.737,2.737,0,0,0-.4-1.6,1.311,1.311,0,0,0-1.135-.568,1.29,1.29,0,0,0-1.121.565A3.076,3.076,0,0,0,12.312-3.626ZM26.332,0a2.194,2.194,0,0,1-.2-.663,2.39,2.39,0,0,1-1.866.8,2.626,2.626,0,0,1-1.8-.629,2.023,2.023,0,0,1-.714-1.586,2.09,2.09,0,0,1,.872-1.8,4.3,4.3,0,0,1,2.519-.636h.909v-.424a1.219,1.219,0,0,0-.263-.82,1.035,1.035,0,0,0-.831-.308,1.177,1.177,0,0,0-.783.239.813.813,0,0,0-.284.656H21.916a1.984,1.984,0,0,1,.4-1.189,2.621,2.621,0,0,1,1.121-.858,4.086,4.086,0,0,1,1.627-.311,3.228,3.228,0,0,1,2.17.687,2.4,2.4,0,0,1,.8,1.931v3.206a3.536,3.536,0,0,0,.294,1.593V0ZM24.7-1.374a1.7,1.7,0,0,0,.807-.195,1.28,1.28,0,0,0,.547-.523V-3.363h-.738q-1.483,0-1.579,1.025l-.007.116a.791.791,0,0,0,.26.608A1.009,1.009,0,0,0,24.7-1.374ZM36.21-3.63a4.436,4.436,0,0,1-.776,2.738,2.488,2.488,0,0,1-2.1,1.029,2.3,2.3,0,0,1-1.812-.779V2.844H29.552V-7.4h1.832l.068.725a2.322,2.322,0,0,1,1.873-.861,2.5,2.5,0,0,1,2.126,1.012,4.556,4.556,0,0,1,.759,2.789ZM34.234-3.78a2.927,2.927,0,0,0-.366-1.6,1.19,1.19,0,0,0-1.063-.562,1.293,1.293,0,0,0-1.278.713V-2.19a1.315,1.315,0,0,0,1.292.734Q34.234-1.456,34.234-3.78ZM41.59-5.544a5.367,5.367,0,0,0-.711-.055,1.447,1.447,0,0,0-1.47.759V0H37.434V-7.4H39.3l.055.882A1.831,1.831,0,0,1,41-7.533a2.07,2.07,0,0,1,.615.089Zm.4,1.777a4.387,4.387,0,0,1,.424-1.962,3.1,3.1,0,0,1,1.22-1.333,3.56,3.56,0,0,1,1.849-.472,3.368,3.368,0,0,1,2.444.916,3.676,3.676,0,0,1,1.056,2.488l.014.506a3.866,3.866,0,0,1-.95,2.731A3.3,3.3,0,0,1,45.493.137,3.319,3.319,0,0,1,42.94-.889a3.934,3.934,0,0,1-.954-2.789Zm1.976.14a2.765,2.765,0,0,0,.4,1.612,1.308,1.308,0,0,0,1.135.558,1.311,1.311,0,0,0,1.121-.551,3.025,3.025,0,0,0,.4-1.763,2.737,2.737,0,0,0-.4-1.6,1.311,1.311,0,0,0-1.135-.568,1.29,1.29,0,0,0-1.121.565A3.076,3.076,0,0,0,43.962-3.626Zm12.913,0a4.479,4.479,0,0,1-.759,2.772A2.513,2.513,0,0,1,54,.137a2.309,2.309,0,0,1-1.921-.923L51.987,0H50.21V-10.5h1.976v3.767a2.25,2.25,0,0,1,1.8-.8,2.534,2.534,0,0,1,2.123.995,4.485,4.485,0,0,1,.769,2.8ZM54.9-3.78a2.959,2.959,0,0,0-.355-1.642,1.2,1.2,0,0,0-1.06-.518,1.3,1.3,0,0,0-1.3.775v2.928a1.32,1.32,0,0,0,1.313.782A1.22,1.22,0,0,0,54.756-2.4,4.9,4.9,0,0,0,54.9-3.78ZM62.378,0a2.194,2.194,0,0,1-.2-.663,2.39,2.39,0,0,1-1.866.8,2.626,2.626,0,0,1-1.8-.629A2.023,2.023,0,0,1,57.8-2.078a2.09,2.09,0,0,1,.872-1.8,4.3,4.3,0,0,1,2.519-.636H62.1v-.424a1.219,1.219,0,0,0-.263-.82A1.035,1.035,0,0,0,61-6.07a1.177,1.177,0,0,0-.783.239.813.813,0,0,0-.284.656H57.962a1.984,1.984,0,0,1,.4-1.189,2.621,2.621,0,0,1,1.121-.858,4.086,4.086,0,0,1,1.627-.311,3.228,3.228,0,0,1,2.17.687,2.4,2.4,0,0,1,.8,1.931v3.206a3.536,3.536,0,0,0,.294,1.593V0ZM60.744-1.374a1.7,1.7,0,0,0,.807-.195,1.28,1.28,0,0,0,.547-.523V-3.363h-.738q-1.483,0-1.579,1.025l-.007.116a.791.791,0,0,0,.26.608A1.009,1.009,0,0,0,60.744-1.374ZM65.29-3.753a4.457,4.457,0,0,1,.776-2.755,2.517,2.517,0,0,1,2.123-1.025,2.265,2.265,0,0,1,1.784.807V-10.5h1.982V0H70.171l-.1-.786a2.325,2.325,0,0,1-1.9.923,2.511,2.511,0,0,1-2.1-1.029A4.6,4.6,0,0,1,65.29-3.753Zm1.976.141a2.936,2.936,0,0,0,.362,1.6,1.179,1.179,0,0,0,1.053.556,1.321,1.321,0,0,0,1.292-.776V-5.164a1.3,1.3,0,0,0-1.278-.776Q67.266-5.94,67.266-3.612Zm5.913-.154A4.387,4.387,0,0,1,73.6-5.729a3.1,3.1,0,0,1,1.22-1.333,3.56,3.56,0,0,1,1.849-.472,3.368,3.368,0,0,1,2.444.916,3.676,3.676,0,0,1,1.056,2.488l.014.506a3.866,3.866,0,0,1-.95,2.731A3.3,3.3,0,0,1,76.686.137,3.319,3.319,0,0,1,74.132-.889a3.934,3.934,0,0,1-.954-2.789Zm1.976.14a2.765,2.765,0,0,0,.4,1.612,1.308,1.308,0,0,0,1.135.558,1.311,1.311,0,0,0,1.121-.551,3.025,3.025,0,0,0,.4-1.763,2.737,2.737,0,0,0-.4-1.6,1.311,1.311,0,0,0-1.135-.568,1.29,1.29,0,0,0-1.121.565A3.076,3.076,0,0,0,75.154-3.626Z" transform="translate(832.001 8510.273)" fill="#12263f"/>
  </g>
</svg>
