<svg xmlns="http://www.w3.org/2000/svg" width="295" height="159" viewBox="0 0 295 159">
  <g id="Grupo_151079" data-name="Grupo 151079" transform="translate(-180 -8933)">
    <g id="Rectángulo_44759" data-name="Rectángulo 44759" transform="translate(180 8933)" fill="#7e5ee3" stroke="#707070" stroke-width="1" opacity="0.1">
      <rect width="295" height="159" rx="23" stroke="none"/>
      <rect x="0.5" y="0.5" width="294" height="158" rx="22.5" fill="none"/>
    </g>
    <g id="handshake" transform="translate(-52.077 7369.632)">
      <g id="Grupo_151062" data-name="Grupo 151062" transform="translate(305.315 1647.989)">
        <g id="Grupo_151048" data-name="Grupo 151048" transform="translate(39.149 20.363)">
          <path id="Trazado_188065" data-name="Trazado 188065" d="M310.605,1636.56c2.042,4.8,4.617-2.354,5.251-3.938,1.217-3.051,2.361-5.893,3.8-8.908,1.061-2.23,2.644-3.344,1.252-5.91-1.109-2.048-2.773-2.773-4.557-.856-.948,1.025-1.242,4.239-1.625,5.545C313.987,1625.008,309.6,1634.149,310.605,1636.56Z" transform="translate(-310.457 -1615.831)" fill="#c7e0ff"/>
        </g>
        <g id="Grupo_151049" data-name="Grupo 151049" transform="translate(99.021 30.342)">
          <path id="Trazado_188066" data-name="Trazado 188066" d="M344.77,1633.814c-.183-2.171-1.159-3.782-2.086-6.035-.963-2.332-1.463-5.222-3.144-7.16l-.35,7.51C339.713,1629.709,341.847,1634.493,344.77,1633.814Z" transform="translate(-339.19 -1620.62)" fill="#c7e0ff"/>
        </g>
        <g id="Grupo_151050" data-name="Grupo 151050" transform="translate(68.425 20.489)">
          <path id="Trazado_188067" data-name="Trazado 188067" d="M324.682,1624.19c.515-3.2,2.475-5.53,5.809-5.741,2.757-.169,5.074,1.327,7.724.04,1.692-.827,1.555-2.153,3.732-2.523,2.807-.481,6.983,1.5,9.418,2.782,9.4,4.945,9.185,15.355,2.386,22.232-1.3,1.315-2.971,2.286-4.122,3.753-.706.9-.992,2.25-2.019,2.825-2.726,1.536-8.4-.531-10.971-1.571-4.255-1.719-5.832-5.885-8.412-9.21A16.6,16.6,0,0,1,324.682,1624.19Z" transform="translate(-324.507 -1615.891)" fill="#e8b864"/>
        </g>
        <g id="Grupo_151051" data-name="Grupo 151051" transform="translate(41.212 16.571)">
          <path id="Trazado_188068" data-name="Trazado 188068" d="M319.057,1618.72c4.247-.835,7.762-4.038,11.731-4.64,3.734-.569,9.1,2.565,11.963,4.313-6.66,3.344,1.113,7.635,4.059,9.489,3.809,2.4,6.928,5.247,10.617,7.677,3.492,2.3,8.056,3.544,10.392,7.262.748,1.186,1.763,2.911,1.208,4.392-.36.959-2.488,2.938-3.657,1.871,1.665,1.523,3.692,3.057,2.036,5.424-1.469,2.1-5.118,3.109-7.285,1.619,1.244,2.728.24,4.663-1.529,5.584-1.406.731-4.455.3-5.887-.033.571,4.851-5.491,4.053-8.289,2.553A134.9,134.9,0,0,1,329.8,1655.3c-7.345-5.22-19.914-8.983-18.191-20.223.485-3.165,1.5-6.028,1.5-9.781Z" transform="translate(-311.447 -1614.011)" fill="#ffd58c"/>
        </g>
        <g id="Grupo_151052" data-name="Grupo 151052" transform="translate(58.234 15.851)">
          <path id="Trazado_188069" data-name="Trazado 188069" d="M322.535,1623.285a27.226,27.226,0,0,0-2.919,11.877c.006,4.382,2.723,8.785,7.187,4.865,2.519-2.215,4.272-6.337,5.807-9.279.879-1.673,1.207-3.753,2.488-5.139a.476.476,0,0,0-.425.063c-1.319,3.376,5.224,6.116,7.837,6.576,11.035,1.948,10.681-3.255,12.632-2.89,1.486.281,6.074,1.965,6.518-2.878.55-6.03-1.165-9.4-7.689-10.254a43.135,43.135,0,0,0-7.224-.19c-2.39.1-5.42,1.511-7.647.606-3.126-1.267-7.1-4.076-10.575-2.521C325.523,1615.46,323.831,1620.5,322.535,1623.285Z" transform="translate(-319.616 -1613.666)" fill="#e8b864"/>
        </g>
        <g id="Grupo_151053" data-name="Grupo 151053" transform="translate(43.696 46.788)">
          <path id="Trazado_188070" data-name="Trazado 188070" d="M312.639,1636.967c.027,3.853,7.224,4.518,10.3,4.142-1.729,5.766,6.4,6.608,10.179,5.505-1.611,4.426,4.353,3.88,6.785,2.655.906,3.455,6.822,1.217,7.776-1.152,1.1-2.726-2.328-6.18-4.843-4.234,3.2-3.832-3.978-8.233-7.291-4.072.873-4.378-4.682-7.683-8.656-5.018,1.554-1.344.958-4.107-.588-5.291C321.97,1626.213,312.6,1631.735,312.639,1636.967Z" transform="translate(-312.639 -1628.512)" fill="#e8b864"/>
        </g>
        <g id="Grupo_151054" data-name="Grupo 151054" transform="translate(93.76 15.482)">
          <path id="Trazado_188071" data-name="Trazado 188071" d="M351.689,1634.529a23.941,23.941,0,0,0-1.252-5.178c-1.1-2.911-2.744-5.839-3.528-8.85-.527-2.023.2-4.818-1.577-6.282-2.213-1.832-6.76.2-8.666,1.544a67.435,67.435,0,0,1,5.7,11.886c1.709,4.661,2.93,9.433,5.143,13.894a15.334,15.334,0,0,1,1.827-.142l3.855-1.7A41.818,41.818,0,0,1,351.689,1634.529Z" transform="translate(-336.665 -1613.488)" fill="#c7e0ff"/>
        </g>
        <g id="Grupo_151055" data-name="Grupo 151055" transform="translate(33.219 16.498)">
          <path id="Trazado_188072" data-name="Trazado 188072" d="M314.45,1621.009c-.508,2.282-1.179,4.307-1.757,6.345-.7,2.511-2.648,10.223-5.082,11.619,2.676-.542,4.832.85,7.287.858.173-3.484,1.6-7.168,3.044-10.381,1.294-2.88,2.173-5.516,4.145-8.026.6-.756,2.157-2.123,3.284-3.459-2.9-2.088-5.657-3.922-9.027-3.989C315.335,1615.841,314.929,1618.865,314.45,1621.009Z" transform="translate(-307.611 -1613.976)" fill="#c7e0ff"/>
        </g>
        <g id="Grupo_151056" data-name="Grupo 151056" transform="translate(50.979 20.479)">
          <path id="Trazado_188073" data-name="Trazado 188073" d="M316.14,1615.887l-.006.006,0,0Z" transform="translate(-316.134 -1615.887)" fill="#c7e0ff"/>
        </g>
        <g id="Grupo_151057" data-name="Grupo 151057" transform="translate(50.985 20.374)">
          <path id="Trazado_188074" data-name="Trazado 188074" d="M316.2,1615.836a.7.7,0,0,1-.067.106c.027-.031.056-.06.081-.09Z" transform="translate(-316.137 -1615.836)" fill="#c7e0ff"/>
        </g>
        <g id="Grupo_151058" data-name="Grupo 151058">
          <path id="Trazado_188075" data-name="Trazado 188075" d="M338.022,1619.635c-5.053,8.918-9.268,24.8-11.569,34.93-12.082-3.492-31.294-15.828-34.784-19,0-.377,9.858-22.65,14.4-28.939C309.562,1602.786,338.022,1619.635,338.022,1619.635Z" transform="translate(-291.669 -1606.059)" fill="#00bcd4"/>
        </g>
        <g id="Grupo_151059" data-name="Grupo 151059" transform="translate(21.085 34.882)">
          <path id="Trazado_188076" data-name="Trazado 188076" d="M305.966,1624.889a2.089,2.089,0,1,0-2.086,2.088A2.089,2.089,0,0,0,305.966,1624.889Z" transform="translate(-301.788 -1622.799)" fill="#002f54"/>
        </g>
        <g id="Grupo_151060" data-name="Grupo 151060" transform="translate(98.95)">
          <path id="Trazado_188077" data-name="Trazado 188077" d="M339.156,1619.635c5.053,8.918,9.264,24.8,11.569,34.93,12.082-3.492,31.292-15.828,34.784-19,0-.377-9.86-22.65-14.4-28.939C367.614,1602.786,339.156,1619.635,339.156,1619.635Z" transform="translate(-339.156 -1606.059)" fill="#00bcd4"/>
        </g>
        <g id="Grupo_151061" data-name="Grupo 151061" transform="translate(120.04 34.882)">
          <path id="Trazado_188078" data-name="Trazado 188078" d="M349.277,1624.889a2.088,2.088,0,1,1,2.088,2.088A2.088,2.088,0,0,1,349.277,1624.889Z" transform="translate(-349.277 -1622.799)" fill="#002f54"/>
        </g>
      </g>
      <g id="Grupo_151070" data-name="Grupo 151070" transform="translate(422.077 1567.368)">
        <g id="Grupo_151064" data-name="Grupo 151064">
          <g id="Grupo_151063" data-name="Grupo 151063">
            <path id="Trazado_188079" data-name="Trazado 188079" d="M367.034,1567.368c20.481,0,37.13,16.6,37.9,37.355l21.865,1.49-24.744,15.042a37.992,37.992,0,0,1-35.019,23.8c-20.975,0-37.976-17.391-37.976-38.845S346.059,1567.368,367.034,1567.368Z" transform="translate(-329.058 -1567.368)" fill="#81d4fa"/>
          </g>
        </g>
        <g id="Grupo_151069" data-name="Grupo 151069" transform="translate(24.08 24.452)">
          <g id="Grupo_151068" data-name="Grupo 151068">
            <g id="Grupo_151065" data-name="Grupo 151065">
              <path id="Trazado_188080" data-name="Trazado 188080" d="M347.861,1593.529a7.249,7.249,0,0,1-5.126-12.373,7.425,7.425,0,0,1,10.252,0,7.249,7.249,0,0,1-5.126,12.373Zm0-10.327a3.08,3.08,0,0,0-2.177,5.257,3.151,3.151,0,0,0,4.355,0,3.078,3.078,0,0,0-2.177-5.257Z" transform="translate(-340.614 -1579.102)" fill="#12263f"/>
            </g>
            <g id="Grupo_151066" data-name="Grupo 151066" transform="translate(5.105 5.035)">
              <path id="Trazado_188081" data-name="Trazado 188081" d="M345.148,1600.235a2.084,2.084,0,0,1-1.473-3.557l14.551-14.548a2.083,2.083,0,1,1,2.946,2.946l-14.551,14.549A2.078,2.078,0,0,1,345.148,1600.235Z" transform="translate(-343.064 -1581.519)" fill="#12263f"/>
            </g>
            <g id="Grupo_151067" data-name="Grupo 151067" transform="translate(14.434 14.43)">
              <path id="Trazado_188082" data-name="Trazado 188082" d="M354.784,1600.452a7.245,7.245,0,0,1-5.124-12.369,7.417,7.417,0,0,1,10.248,0,7.246,7.246,0,0,1-5.124,12.371Zm0-10.325a3.081,3.081,0,0,0-2.18,5.257,3.155,3.155,0,0,0,4.355,0,3.079,3.079,0,0,0-2.175-5.257Z" transform="translate(-347.541 -1586.028)" fill="#12263f"/>
            </g>
          </g>
        </g>
      </g>
      <g id="Grupo_151078" data-name="Grupo 151078" transform="translate(239.339 1567.368)">
        <g id="Grupo_151072" data-name="Grupo 151072">
          <g id="Grupo_151071" data-name="Grupo 151071">
            <path id="Trazado_188083" data-name="Trazado 188083" d="M338.839,1567.368c-20.481,0-37.13,16.6-37.9,37.355l-21.863,1.49,24.744,15.042a37.989,37.989,0,0,0,35.017,23.8c20.975,0,37.976-17.391,37.976-38.845S359.813,1567.368,338.839,1567.368Z" transform="translate(-279.077 -1567.368)" fill="#81d4fa"/>
          </g>
        </g>
        <g id="Grupo_151077" data-name="Grupo 151077" transform="translate(36.616 13.273)">
          <g id="Grupo_151076" data-name="Grupo 151076">
            <g id="Grupo_151073" data-name="Grupo 151073" transform="translate(25.402 0.002)">
              <path id="Trazado_188084" data-name="Trazado 188084" d="M334.38,1594.972,309.1,1599.4l-.263-25.659a25.329,25.329,0,0,1,10.75,2.238A25.612,25.612,0,0,1,334.38,1594.972Z" transform="translate(-308.84 -1573.739)" fill="#7e5ee3"/>
            </g>
            <g id="Grupo_151074" data-name="Grupo 151074" transform="translate(0.929 25.663)">
              <path id="Trazado_188085" data-name="Trazado 188085" d="M317.324,1611.322a25.715,25.715,0,0,1-20.229-18.462l24.736-6.805Z" transform="translate(-297.095 -1586.054)" fill="#12263f"/>
            </g>
            <g id="Grupo_151075" data-name="Grupo 151075">
              <path id="Trazado_188086" data-name="Trazado 188086" d="M322.316,1599.4l-24.738,6.805a25.656,25.656,0,0,1,24.476-32.465Z" transform="translate(-296.649 -1573.738)" fill="#ff9d00"/>
            </g>
          </g>
        </g>
      </g>
    </g>
  </g>
</svg>
