<svg xmlns="http://www.w3.org/2000/svg" xmlns:xlink="http://www.w3.org/1999/xlink" width="610.999" height="318.932" viewBox="0 0 610.999 318.932">
  <defs>
    <filter id="Elipse_4436" x="131.999" y="89.93" width="141.934" height="141.934" filterUnits="userSpaceOnUse">
      <feOffset dy="3" input="SourceAlpha"/>
      <feGaussianBlur stdDeviation="3" result="blur"/>
      <feFlood flood-opacity="0.161"/>
      <feComposite operator="in" in2="blur"/>
      <feComposite in="SourceGraphic"/>
    </filter>
    <filter id="Elipse_4436-2" x="329.767" y="0" width="141.934" height="141.934" filterUnits="userSpaceOnUse">
      <feOffset dy="3" input="SourceAlpha"/>
      <feGaussianBlur stdDeviation="3" result="blur-2"/>
      <feFlood flood-opacity="0.161"/>
      <feComposite operator="in" in2="blur-2"/>
      <feComposite in="SourceGraphic"/>
    </filter>
    <filter id="Elipse_4436-3" x="329.767" y="176.998" width="141.934" height="141.934" filterUnits="userSpaceOnUse">
      <feOffset dy="3" input="SourceAlpha"/>
      <feGaussianBlur stdDeviation="3" result="blur-3"/>
      <feFlood flood-opacity="0.161"/>
      <feComposite operator="in" in2="blur-3"/>
      <feComposite in="SourceGraphic"/>
    </filter>
  </defs>
  <g id="Grupo_155980" data-name="Grupo 155980" transform="translate(-494.5 -2188)">
    <g id="Grupo_150934" data-name="Grupo 150934" transform="translate(140.5 4.999)">
      <rect id="Rectángulo_32981" data-name="Rectángulo 32981" width="177" height="83.648" rx="5" transform="translate(788 2209)" fill="#f6f6f6"/>
      <rect id="Rectángulo_44656" data-name="Rectángulo 44656" width="177" height="83.648" rx="5" transform="translate(354.001 2304.836)" fill="#f6f6f6"/>
      <rect id="Rectángulo_44655" data-name="Rectángulo 44655" width="177" height="83.648" rx="5" transform="translate(788 2386)" fill="#f6f6f6"/>
      <line id="Línea_144" data-name="Línea 144" x1="47.999" transform="translate(612.001 2340.897)" fill="none" stroke="#ff9d00" stroke-width="3"/>
      <g id="Grupo_73312" data-name="Grupo 73312" transform="translate(-55 -7480.16)">
        <g transform="matrix(1, 0, 0, 1, 409, 9663.16)" filter="url(#Elipse_4436)">
          <circle id="Elipse_4436-4" data-name="Elipse 4436" cx="61.967" cy="61.967" r="61.967" transform="translate(141 95.93)" fill="#fff"/>
        </g>
        <g id="Trazado_188008" data-name="Trazado 188008" transform="translate(563.046 9773.441)" fill="#00bcd4">
          <path d="M 47.94273376464844 95.38546752929688 C 41.53778457641602 95.38546752929688 35.3246955871582 94.13115692138672 29.47603416442871 91.65739440917969 C 23.82664680480957 89.26790618896484 18.75287055969238 85.84703063964844 14.39565849304199 81.48982238769531 C 10.03843402862549 77.13259887695312 6.617571353912354 72.05882263183594 4.228071212768555 66.40943145751953 C 1.754308819770813 60.56078338623047 0.4999962747097015 54.34768295288086 0.4999962747097015 47.94273376464844 C 0.4999962747097015 41.53778457641602 1.754308819770813 35.3246955871582 4.228071212768555 29.47603416442871 C 6.617571353912354 23.82664680480957 10.03843402862549 18.75287055969238 14.39565849304199 14.39565849304199 C 18.75287055969238 10.03843402862549 23.82664680480957 6.617571353912354 29.47603416442871 4.228071212768555 C 35.3246955871582 1.754308819770813 41.53778457641602 0.4999962747097015 47.94273376464844 0.4999962747097015 C 54.34768295288086 0.4999962747097015 60.56078338623047 1.754308819770813 66.40943145751953 4.228071212768555 C 72.05882263183594 6.617571353912354 77.13259887695312 10.03843402862549 81.48982238769531 14.39565849304199 C 85.84703063964844 18.75287055969238 89.26790618896484 23.82664680480957 91.65739440917969 29.47603416442871 C 94.13115692138672 35.3246955871582 95.38546752929688 41.53778457641602 95.38546752929688 47.94273376464844 C 95.38546752929688 54.34768295288086 94.13115692138672 60.56078338623047 91.65739440917969 66.40943145751953 C 89.26790618896484 72.05882263183594 85.84703063964844 77.13259887695312 81.48982238769531 81.48982238769531 C 77.13259887695312 85.84703063964844 72.05882263183594 89.26790618896484 66.40943145751953 91.65739440917969 C 60.56078338623047 94.13115692138672 54.34768295288086 95.38546752929688 47.94273376464844 95.38546752929688 Z" stroke="none"/>
          <path d="M 47.94273376464844 1 C 41.60506820678711 1 35.4575080871582 2.241012573242188 29.67081451416016 4.688583374023438 C 24.08102416992188 7.052864074707031 19.0606689453125 10.437744140625 14.74921417236328 14.74921417236328 C 10.437744140625 19.0606689453125 7.052864074707031 24.08102416992188 4.688583374023438 29.67081451416016 C 2.241012573242188 35.4575080871582 1 41.60506820678711 1 47.94273376464844 C 1 54.28039932250977 2.241012573242188 60.42795944213867 4.688583374023438 66.21465301513672 C 7.052864074707031 71.804443359375 10.437744140625 76.82479858398438 14.74921417236328 81.13625335693359 C 19.0606689453125 85.44772338867188 24.08102416992188 88.83260345458984 29.67081451416016 91.19688415527344 C 35.4575080871582 93.64445495605469 41.60506820678711 94.88546752929688 47.94273376464844 94.88546752929688 C 54.28039932250977 94.88546752929688 60.42795944213867 93.64445495605469 66.21465301513672 91.19688415527344 C 71.804443359375 88.83260345458984 76.82479858398438 85.44772338867188 81.13625335693359 81.13625335693359 C 85.44772338867188 76.82479858398438 88.83260345458984 71.804443359375 91.19688415527344 66.21465301513672 C 93.64445495605469 60.42795944213867 94.88546752929688 54.28039932250977 94.88546752929688 47.94273376464844 C 94.88546752929688 41.60506820678711 93.64445495605469 35.4575080871582 91.19688415527344 29.67081451416016 C 88.83260345458984 24.08102416992188 85.44772338867188 19.0606689453125 81.13625335693359 14.74921417236328 C 76.82479858398438 10.437744140625 71.804443359375 7.052864074707031 66.21465301513672 4.688583374023438 C 60.42795944213867 2.241012573242188 54.28039932250977 1 47.94273376464844 1 M 47.94273376464844 0 C 74.4207763671875 0 95.88546752929688 21.46469116210938 95.88546752929688 47.94273376464844 C 95.88546752929688 74.4207763671875 74.4207763671875 95.88546752929688 47.94273376464844 95.88546752929688 C 21.46469116210938 95.88546752929688 0 74.4207763671875 0 47.94273376464844 C 0 21.46469116210938 21.46469116210938 0 47.94273376464844 0 Z" stroke="none" fill="#707070"/>
        </g>
        <g id="Grupo_151020" data-name="Grupo 151020" transform="translate(570.001 9779.661)">
          <path id="Trazado_188003" data-name="Trazado 188003" d="M69.226,34.748a3.056,3.056,0,0,0,.225-1.143V11.073A3.076,3.076,0,0,0,66.379,8H41.8a3.076,3.076,0,0,0-3.073,3.073V33.6a3.056,3.056,0,0,0,.225,1.143A3.067,3.067,0,0,0,36.677,37.7v5.121H34.629v4.1H32.581v3.324l-6.913,1.976a22.321,22.321,0,0,0-1.28-2.039v-7.4a4.477,4.477,0,0,0,4.1-4.481v-1.91l3.073-1.024v-.738c0-2.118-1.233-4.967-2.267-6.984a4.163,4.163,0,0,0-.348-.556,5.63,5.63,0,0,0-1.994-10.9H21.684a13.685,13.685,0,0,0-6.121,25.924l.63.314v1.729l-.612.229A11.739,11.739,0,0,0,8.008,55.113H8V71.5H28.484V65.632l4.1-1.468V71.5H45.9a3.076,3.076,0,0,0,3.073-3.073V53.065H51.2a3.038,3.038,0,0,0-.188,1.024v12.29a3.076,3.076,0,0,0,3.073,3.073h12.29a3.076,3.076,0,0,0,3.073-3.073V54.089a3.056,3.056,0,0,0-.225-1.143A3.068,3.068,0,0,0,71.5,49.992V37.7A3.067,3.067,0,0,0,69.226,34.748Zm-18.21-24.7h6.145v4.1H51.016ZM40.774,11.073A1.026,1.026,0,0,1,41.8,10.048h7.169v6.145H59.21V10.048h7.169A1.026,1.026,0,0,1,67.4,11.073V33.6a1.026,1.026,0,0,1-1.024,1.024H41.8A1.026,1.026,0,0,1,40.774,33.6Zm20.484,25.6h2.048v2.048H61.258Zm-16.387,0h2.048v2.048H44.871Zm-8.194,8.194H45.9a1.024,1.024,0,1,1,0,2.048H36.677ZM19.8,61.145l14.6-4.173.737-2.21a1.873,1.873,0,0,1,3.1-.732l1.082,1.083h1.609A1.89,1.89,0,0,1,42.823,57a1.922,1.922,0,0,1-1.448,1.839L24.76,64.792a9.64,9.64,0,0,1-3.249.563H20.137a9.637,9.637,0,0,1-3.767-.777Zm12.778-8.771v2.991l-5,1.429a21.955,21.955,0,0,0-.978-2.71ZM29.451,33.91l-3.015,1.006V38.3a2.474,2.474,0,0,1-2.472,2.473l-3.673,0v2.048h2.048v4.882a21.971,21.971,0,0,0-4.1-3.379V36.253l-1.748-1.748a1.02,1.02,0,0,1-.3-.725V33.6a1.026,1.026,0,0,1,1.024-1.024h1.024V29.508A2.05,2.05,0,0,1,20.29,27.46H25.64a2.047,2.047,0,0,1,1.827,1.119,18.9,18.9,0,0,1,1.984,5.331Zm-19.4-4.032A11.65,11.65,0,0,1,21.684,18.242h5.263a3.585,3.585,0,0,1,0,7.169H20.29a4.1,4.1,0,0,0-4.1,4.1v1.2a3.079,3.079,0,0,0-2.048,2.9v.175a3.054,3.054,0,0,0,.9,2.173L16.194,37.1v3.014a11.557,11.557,0,0,1-6.145-10.238ZM16.3,46.309l.785-.295a20.174,20.174,0,0,1,8.525,11.342l-5.683,1.623-.4-1.21a8.676,8.676,0,0,0-6.155-5.7l-.5,1.987a6.64,6.64,0,0,1,4.709,4.361l.513,1.539-3.583,3.583c-.221-.159-.437-.327-.645-.5l-.453-.388A9.636,9.636,0,0,1,16.3,46.309ZM26.435,69.452H10.048v-7.54A11.667,11.667,0,0,0,12.08,64.2l.453.388a11.69,11.69,0,0,0,7.6,2.813h1.374a11.662,11.662,0,0,0,3.94-.684l.984-.352Zm19.46,0H34.629V63.43L42,60.791a3.936,3.936,0,0,0-1.061-7.727h-.761l-.482-.482a3.818,3.818,0,0,0-5.063-.381V48.968H45.9a3.038,3.038,0,0,0,1.024-.188V68.427A1.025,1.025,0,0,1,45.9,69.452ZM48.968,45.9A3.076,3.076,0,0,0,45.9,42.823H38.726V37.7a1.026,1.026,0,0,1,1.024-1.024h3.073v4.1h6.145v-4.1H52.04A1.026,1.026,0,0,1,53.065,37.7v12.29a1.025,1.025,0,0,1-1.024,1.024H48.968ZM67.4,66.379A1.025,1.025,0,0,1,66.379,67.4H54.089a1.025,1.025,0,0,1-1.024-1.024V54.089a1.025,1.025,0,0,1,1.024-1.024h3.073v4.1h6.145v-4.1h3.073A1.025,1.025,0,0,1,67.4,54.089ZM59.21,53.065h2.048v2.048H59.21Zm10.242-3.073a1.025,1.025,0,0,1-1.024,1.024H56.137a1.025,1.025,0,0,1-1.024-1.024V37.7a1.026,1.026,0,0,1,1.024-1.024H59.21v4.1h6.145v-4.1h3.073A1.026,1.026,0,0,1,69.452,37.7Z" fill="#fff"/>
          <path id="Trazado_188004" data-name="Trazado 188004" d="M408,184h2.048v2.048H408Z" transform="translate(-348.79 -153.468)" fill="#fff"/>
          <path id="Trazado_188005" data-name="Trazado 188005" d="M440,184h2.048v2.048H440Z" transform="translate(-376.694 -153.468)" fill="#fff"/>
          <path id="Trazado_188006" data-name="Trazado 188006" d="M376,184h2.048v2.048H376Z" transform="translate(-320.887 -153.468)" fill="#fff"/>
          <path id="Trazado_188007" data-name="Trazado 188007" d="M376,152h10.242v2.048H376Z" transform="translate(-320.887 -125.565)" fill="#fff"/>
        </g>
      </g>
      <path id="Trazado_187932" data-name="Trazado 187932" d="M-7321.933-9453.245H-7354.7V-9274.7h32.768" transform="translate(8014.701 11704.342)" fill="none" stroke="#ff9d00" stroke-width="3"/>
      <g id="Grupo_150932" data-name="Grupo 150932" transform="translate(142.768 -7570.09)">
        <g transform="matrix(1, 0, 0, 1, 211.23, 9753.09)" filter="url(#Elipse_4436-2)">
          <circle id="Elipse_4436-5" data-name="Elipse 4436" cx="61.967" cy="61.967" r="61.967" transform="translate(338.77 6)" fill="#fff"/>
        </g>
        <g id="Elipse_4437" data-name="Elipse 4437" transform="translate(563.046 9773.441)" fill="#00bcd4" stroke="#707070" stroke-width="1">
          <circle cx="47.943" cy="47.943" r="47.943" stroke="none"/>
          <circle cx="47.943" cy="47.943" r="47.443" fill="none"/>
        </g>
        <path id="Trazado_188014" data-name="Trazado 188014" d="M68.836,29.941h-1V9a1,1,0,0,0-1-1H44.9a1,1,0,0,0-1,1V29.941H38.168l.8-1.062a9.73,9.73,0,0,0-2.958-14.286c-.349-.2-.715-.364-1.081-.528V9a1,1,0,0,0-1-1H11.989a1,1,0,0,0-1,1V29.941H9a1,1,0,0,0-1,1v3.989a1,1,0,0,0,1,1h1V43.5c-.014.014-.031.024-.044.038A6.61,6.61,0,0,0,8,48.242v10.62a6.952,6.952,0,0,0,1.995,4.876v5.1a1,1,0,0,0,1,1h3.989a1,1,0,0,0,1-1V65.844h1v2.992a1,1,0,0,0,1,1H40.911a1,1,0,0,0,1-1V65.844h1a6.952,6.952,0,0,0,4.876-1.995H61.855v4.987a1,1,0,0,0,1,1h3.989a1,1,0,0,0,1-1V35.925h1a1,1,0,0,0,1-1V30.938A1,1,0,0,0,68.836,29.941ZM53.876,9.995h3.989v5.984H53.876Zm-7.978,0h5.984v6.981a1,1,0,0,0,1,1h5.984a1,1,0,0,0,1-1V9.995h5.984V29.941H45.9Zm2.04,33.541a6.7,6.7,0,0,0-3.766-1.884L32.933,40.046V37.969a9,9,0,0,0,2.682-2.044h26.24V57.865H49.887V48.242A6.614,6.614,0,0,0,47.937,43.535ZM24.954,40.045l-8.976,1.284v-5.4h6.294a9,9,0,0,0,2.682,2.044Zm3.989-3.123a6.989,6.989,0,0,1-6.981-6.981V27.946a2.992,2.992,0,0,1,2.992-2.992h2.66A11.041,11.041,0,0,0,34.2,22.76l.486-.364.4.606a4.974,4.974,0,0,1,.838,2.766v4.173A6.989,6.989,0,0,1,28.943,36.922Zm-1.995,1.763a8.709,8.709,0,0,0,3.989,0V41.34a4.38,4.38,0,0,1-3.989,0ZM38.916,23.04a7.772,7.772,0,0,1-1,3.769V25.768A6.958,6.958,0,0,0,36.746,21.9l-.989-1.485a1,1,0,0,0-1.383-.276l-.045.032-1.33,1a9.034,9.034,0,0,1-5.385,1.8H24.954a4.994,4.994,0,0,0-4.887,4.007A7.685,7.685,0,0,1,22.7,16.422l.167-.1a10.218,10.218,0,0,1,5.059-1.343H29.96a10.218,10.218,0,0,1,5.059,1.343A7.754,7.754,0,0,1,38.916,23.04ZM21.878,14.592a9.863,9.863,0,0,0-.914.606v-5.2h3.989v3.37A12.211,12.211,0,0,0,21.878,14.592Zm11.054-1.228a12.22,12.22,0,0,0-2.973-.378H27.927c-.328,0-.652.038-.978.064V9.995h5.984ZM12.986,9.995H18.97v7.154a9.716,9.716,0,0,0-.049,11.73l.8,1.062H12.986ZM9.994,31.935H20.2a8.884,8.884,0,0,0,.716,1.995H9.994Zm1.995,3.989h1.995v5.685l-.268.038a6.649,6.649,0,0,0-1.726.518Zm0,31.914V65.161a6.917,6.917,0,0,0,1.995.6v2.074Zm27.925,0H18.97V65.844h4.987a3.989,3.989,0,0,0,0-7.978H17.973V49.887h6.981v4.987a1,1,0,0,0,1,1h5.984a1,1,0,0,0,1-1V49.887h6.981v7.978H33.93a3.989,3.989,0,1,0,0,7.978h5.984ZM21.962,59.86h1.995a1.995,1.995,0,1,1,0,3.989H21.962Zm4.987-9.973h3.989v3.989H26.949ZM33.93,63.849a1.995,1.995,0,1,1,0-3.989h1.995v3.989Zm8.976,0H37.919V59.86h2.992a1,1,0,0,0,1-1V48.89a1,1,0,0,0-1-1H16.976a1,1,0,0,0-1,1v9.973a1,1,0,0,0,1,1h2.992v3.989H14.981a4.993,4.993,0,0,1-4.987-4.987V48.242a4.632,4.632,0,0,1,1.366-3.3A4.687,4.687,0,0,1,14,43.627l10.975-1.569a1,1,0,0,0,.425.68,6.374,6.374,0,0,0,7.091,0,.99.99,0,0,0,.425-.679l10.97,1.568a4.688,4.688,0,0,1,2.638,1.318,4.636,4.636,0,0,1,1.37,3.3v10.62A4.993,4.993,0,0,1,42.906,63.849Zm6.3-1.995a6.917,6.917,0,0,0,.6-1.995H61.855v1.995Zm16.64,5.984H63.849V35.925h1.995ZM67.838,33.93H36.972a8.884,8.884,0,0,0,.716-1.995H67.838Z" transform="translate(573.4 9784.118)" fill="#fff"/>
      </g>
      <g id="Grupo_150933" data-name="Grupo 150933" transform="translate(142.768 -7393.092)">
        <g transform="matrix(1, 0, 0, 1, 211.23, 9576.09)" filter="url(#Elipse_4436-3)">
          <circle id="Elipse_4436-6" data-name="Elipse 4436" cx="61.967" cy="61.967" r="61.967" transform="translate(338.77 183)" fill="#fff"/>
        </g>
        <g id="Elipse_4437-2" data-name="Elipse 4437" transform="translate(563.046 9773.441)" fill="#00bcd4" stroke="#707070" stroke-width="1">
          <circle cx="47.943" cy="47.943" r="47.943" stroke="none"/>
          <circle cx="47.943" cy="47.943" r="47.443" fill="none"/>
        </g>
        <g id="Grupo_151021" data-name="Grupo 151021" transform="translate(528.743 9785.391)">
          <path id="Trazado_188009" data-name="Trazado 188009" d="M221.24,72.193h3.352a1.016,1.016,0,1,0,0-2.031H221.24a1.016,1.016,0,0,0,0,2.031Z" transform="translate(-141.602 -60.661)" fill="#fff"/>
          <path id="Trazado_188010" data-name="Trazado 188010" d="M271.511,465.771H264.95a1.016,1.016,0,0,0,0,2.031h6.561a1.016,1.016,0,0,0,0-2.031Z" transform="translate(-179.393 -402.697)" fill="#fff"/>
          <path id="Trazado_188011" data-name="Trazado 188011" d="M271.511,440.884H264.95a1.016,1.016,0,0,0,0,2.031h6.561a1.016,1.016,0,0,0,0-2.031Z" transform="translate(-179.393 -381.18)" fill="#fff"/>
          <path id="Trazado_188012" data-name="Trazado 188012" d="M271.511,416H264.95a1.016,1.016,0,0,0,0,2.031h6.561a1.016,1.016,0,0,0,0-2.031Z" transform="translate(-179.393 -359.664)" fill="#fff"/>
          <path id="Trazado_188013" data-name="Trazado 188013" d="M59.141,69.334H93.285a1.016,1.016,0,0,0,0-2.031H83.026a.707.707,0,0,1-.7-.7V41.87a.706.706,0,0,1,.7-.7h6.759v9.659A1.821,1.821,0,0,0,92.6,52.354l2.794-1.828,2.794,1.828A1.82,1.82,0,0,0,101,50.832V48.267a1.016,1.016,0,1,0-2.031,0V50.44L96.39,48.75a1.819,1.819,0,0,0-1.992,0L91.816,50.44V41.173h7.155v2.354a1.016,1.016,0,0,0,2.031,0V41.173h6.759a.706.706,0,0,1,.7.7V66.605a.706.706,0,0,1-.7.7H98.025a1.016,1.016,0,0,0,0,2.031h9.737a2.732,2.732,0,0,0,2.728-2.729V41.87a2.731,2.731,0,0,0-2.728-2.728H89.3l-1.8-.7,0-2.479a10.226,10.226,0,0,0,4.1-6.974,4.648,4.648,0,0,0,3.642-7.183,5.009,5.009,0,0,0-.043-3.342V15.9A12.766,12.766,0,0,0,84.743,3.363V3.047A3.051,3.051,0,0,0,81.7,0h-.765a3.051,3.051,0,0,0-3.048,3.047v.316A12.767,12.767,0,0,0,67.439,15.9v2.564a4.992,4.992,0,0,0-.019,3.4,4.46,4.46,0,0,0,.748,5.9,4.956,4.956,0,0,0,2.869,1.221,10.114,10.114,0,0,0,4.092,6.963v2.487c-.018.008-12.97,5.029-12.988,5.036l-.02.008a9.609,9.609,0,0,0-5.679,8.771V66.636a2.7,2.7,0,0,0,2.7,2.7ZM83.026,39.141A2.731,2.731,0,0,0,80.3,41.87v2.1c-.091-.119.2.211-3.67-4.143a1.8,1.8,0,0,0,.533-1.333V37.1a11.144,11.144,0,0,0,4.286.848,10.166,10.166,0,0,0,4.012-.821V38.5a1.964,1.964,0,0,0,.107.638H83.026ZM91.67,26.933V24.359a3.851,3.851,0,0,0,2.189-.7,2.6,2.6,0,0,1-2.189,3.276ZM93.156,15.9v.794a19.341,19.341,0,0,0-4.11-1.8A22.362,22.362,0,0,0,87.029,6.22,10.727,10.727,0,0,1,93.156,15.9ZM80.931,2.031H81.7a1.024,1.024,0,0,1,1.016,1.126c-.214,0-2.586,0-2.8,0A1.026,1.026,0,0,1,80.931,2.031ZM78.539,5.313a11.441,11.441,0,0,1,1.645-.127h2.257a11.631,11.631,0,0,1,1.645.127c1.563,1.96,2.628,5.31,2.893,9.043a27.994,27.994,0,0,0-11.334,0c.265-3.733,1.33-7.083,2.893-9.043ZM69.47,15.9A10.727,10.727,0,0,1,75.6,6.22,22.368,22.368,0,0,0,73.581,14.9a19.718,19.718,0,0,0-4.11,1.8Zm1.487,11.033a2.575,2.575,0,0,1-2.179-3.259,3.83,3.83,0,0,0,2.179.685ZM69.5,21.519a2.788,2.788,0,0,1-.184-2.273c3.1-2.406,8-3.437,12-3.437,3.981,0,8.844.989,12,3.438a2.806,2.806,0,0,1-.163,2.236c-.73,1.233-2.278.927-3.523.228h0a18.506,18.506,0,0,0-8.814-2.36A19.665,19.665,0,0,0,73,21.71c-1.229.69-2.757,1-3.5-.192Zm3.488,6.206V23.962A8.269,8.269,0,0,0,74,23.482a17.819,17.819,0,0,1,7.318-2.127,17.619,17.619,0,0,1,7.316,2.127,8.1,8.1,0,0,0,1.008.48v3.763a8.206,8.206,0,0,1-8.183,8.191h-.017a8.247,8.247,0,0,1-8.45-8.191Zm1.756,13.043L78.6,45.111l-2.428,2.008-4.508-5.158ZM58.474,52.254a7.646,7.646,0,0,1,4.411-6.889l6.765-2.623,5.077,5.809a1.891,1.891,0,0,0,2.643.214L80,46.59a1.916,1.916,0,0,0,.3-.31V66.605a2.876,2.876,0,0,0,.09.7H66.85V53.589a1.016,1.016,0,1,0-2.031,0V67.3H59.141a.668.668,0,0,1-.667-.667Z" fill="#fff"/>
        </g>
      </g>
      <text id="Tipos_de_proveedores_" data-name="Tipos de proveedores
" transform="translate(370 2322.266)" fill="#12263f" font-size="16" font-family="Roboto-Bold, Roboto" font-weight="700"><tspan x="31.465" y="15">Tipos de </tspan><tspan x="17.801" y="39">proveedores</tspan></text>
      <text id="Según_lo_que_provean_" data-name="Según lo que provean
" transform="translate(810 2228)" fill="#12263f" font-size="16" font-family="Roboto-Regular, Roboto"><tspan x="16.543" y="15">Según lo que </tspan><tspan x="34.051" y="39">provean</tspan></text>
      <text id="Según_su_impacto_" data-name="Según su impacto
" transform="translate(810 2405)" fill="#12263f" font-size="16" font-family="Roboto-Regular, Roboto"><tspan x="29.688" y="15">Según su </tspan><tspan x="33.422" y="39">impacto</tspan></text>
    </g>
  </g>
</svg>
