<svg xmlns="http://www.w3.org/2000/svg" xmlns:xlink="http://www.w3.org/1999/xlink" width="610.999" height="350.108" viewBox="0 0 610.999 350.108">
  <defs>
    <filter id="Elipse_4436" x="131.999" y="103.658" width="141.934" height="141.934" filterUnits="userSpaceOnUse">
      <feOffset dy="3" input="SourceAlpha"/>
      <feGaussianBlur stdDeviation="3" result="blur"/>
      <feFlood flood-opacity="0.161"/>
      <feComposite operator="in" in2="blur"/>
      <feComposite in="SourceGraphic"/>
    </filter>
    <filter id="Elipse_4436-2" x="329.767" y="0" width="120.899" height="120.899" filterUnits="userSpaceOnUse">
      <feOffset dy="3" input="SourceAlpha"/>
      <feGaussianBlur stdDeviation="3" result="blur-2"/>
      <feFlood flood-opacity="0.161"/>
      <feComposite operator="in" in2="blur-2"/>
      <feComposite in="SourceGraphic"/>
    </filter>
    <filter id="Elipse_4436-3" x="329.767" y="122.691" width="120.899" height="120.899" filterUnits="userSpaceOnUse">
      <feOffset dy="3" input="SourceAlpha"/>
      <feGaussianBlur stdDeviation="3" result="blur-3"/>
      <feFlood flood-opacity="0.161"/>
      <feComposite operator="in" in2="blur-3"/>
      <feComposite in="SourceGraphic"/>
    </filter>
    <filter id="Elipse_4436-4" x="329.767" y="229.209" width="120.899" height="120.899" filterUnits="userSpaceOnUse">
      <feOffset dy="3" input="SourceAlpha"/>
      <feGaussianBlur stdDeviation="3" result="blur-4"/>
      <feFlood flood-opacity="0.161"/>
      <feComposite operator="in" in2="blur-4"/>
      <feComposite in="SourceGraphic"/>
    </filter>
  </defs>
  <g id="Grupo_155981" data-name="Grupo 155981" transform="translate(-495 -2835)">
    <g id="Grupo_150940" data-name="Grupo 150940" transform="translate(-339 146.659)">
      <rect id="Rectángulo_32981" data-name="Rectángulo 32981" width="177" height="45.579" rx="5" transform="translate(1267.999 2728)" fill="#f6f6f6"/>
      <rect id="Rectángulo_44657" data-name="Rectángulo 44657" width="177" height="45.579" rx="5" transform="translate(1267.999 2846)" fill="#f6f6f6"/>
      <rect id="Rectángulo_44658" data-name="Rectángulo 44658" width="177" height="45.579" rx="5" transform="translate(1267.999 2958)" fill="#f6f6f6"/>
      <rect id="Rectángulo_44656" data-name="Rectángulo 44656" width="177" height="83.648" rx="5" transform="translate(834 2819)" fill="#f6f6f6"/>
      <line id="Línea_144" data-name="Línea 144" x1="80.5" transform="translate(1092 2868.533)" fill="none" stroke="#ff9d00" stroke-width="3"/>
      <g id="Grupo_73312" data-name="Grupo 73312" transform="translate(424.999 -6961.092)">
        <g transform="matrix(1, 0, 0, 1, 409, 9649.43)" filter="url(#Elipse_4436)">
          <circle id="Elipse_4436-5" data-name="Elipse 4436" cx="61.967" cy="61.967" r="61.967" transform="translate(141 109.66)" fill="#fff"/>
        </g>
        <g id="Elipse_4437" data-name="Elipse 4437" transform="translate(563.046 9773.441)" fill="#00bcd4" stroke="#707070" stroke-width="1">
          <circle cx="47.943" cy="47.943" r="47.943" stroke="none"/>
          <circle cx="47.943" cy="47.943" r="47.443" fill="none"/>
        </g>
        <path id="Trazado_188015" data-name="Trazado 188015" d="M68.836,29.941h-1V9a1,1,0,0,0-1-1H44.9a1,1,0,0,0-1,1V29.941H38.168l.8-1.062a9.73,9.73,0,0,0-2.958-14.286c-.349-.2-.715-.364-1.081-.528V9a1,1,0,0,0-1-1H11.989a1,1,0,0,0-1,1V29.941H9a1,1,0,0,0-1,1v3.989a1,1,0,0,0,1,1h1V43.5c-.014.014-.031.024-.044.038A6.61,6.61,0,0,0,8,48.242v10.62a6.952,6.952,0,0,0,1.995,4.876v5.1a1,1,0,0,0,1,1h3.989a1,1,0,0,0,1-1V65.844h1v2.992a1,1,0,0,0,1,1H40.911a1,1,0,0,0,1-1V65.844h1a6.952,6.952,0,0,0,4.876-1.995H61.855v4.987a1,1,0,0,0,1,1h3.989a1,1,0,0,0,1-1V35.925h1a1,1,0,0,0,1-1V30.938A1,1,0,0,0,68.836,29.941ZM53.876,9.995h3.989v5.984H53.876Zm-7.978,0h5.984v6.981a1,1,0,0,0,1,1h5.984a1,1,0,0,0,1-1V9.995h5.984V29.941H45.9Zm2.04,33.541a6.7,6.7,0,0,0-3.766-1.884L32.933,40.046V37.969a9,9,0,0,0,2.682-2.044h26.24V57.865H49.887V48.242A6.614,6.614,0,0,0,47.937,43.535ZM24.954,40.045l-8.976,1.284v-5.4h6.294a9,9,0,0,0,2.682,2.044Zm3.989-3.123a6.989,6.989,0,0,1-6.981-6.981V27.946a2.992,2.992,0,0,1,2.992-2.992h2.66A11.041,11.041,0,0,0,34.2,22.76l.486-.364.4.606a4.974,4.974,0,0,1,.838,2.766v4.173A6.989,6.989,0,0,1,28.943,36.922Zm-1.995,1.763a8.709,8.709,0,0,0,3.989,0V41.34a4.38,4.38,0,0,1-3.989,0ZM38.916,23.04a7.772,7.772,0,0,1-1,3.769V25.768A6.958,6.958,0,0,0,36.746,21.9l-.989-1.485a1,1,0,0,0-1.383-.276l-.045.032-1.33,1a9.034,9.034,0,0,1-5.385,1.8H24.954a4.994,4.994,0,0,0-4.887,4.007A7.685,7.685,0,0,1,22.7,16.422l.167-.1a10.218,10.218,0,0,1,5.059-1.343H29.96a10.218,10.218,0,0,1,5.059,1.343A7.754,7.754,0,0,1,38.916,23.04ZM21.878,14.592a9.863,9.863,0,0,0-.914.606v-5.2h3.989v3.37A12.211,12.211,0,0,0,21.878,14.592Zm11.054-1.228a12.22,12.22,0,0,0-2.973-.378H27.927c-.328,0-.652.038-.978.064V9.995h5.984ZM12.986,9.995H18.97v7.154a9.716,9.716,0,0,0-.049,11.73l.8,1.062H12.986ZM9.994,31.935H20.2a8.884,8.884,0,0,0,.716,1.995H9.994Zm1.995,3.989h1.995v5.685l-.268.038a6.649,6.649,0,0,0-1.726.518Zm0,31.914V65.161a6.917,6.917,0,0,0,1.995.6v2.074Zm27.925,0H18.97V65.844h4.987a3.989,3.989,0,0,0,0-7.978H17.973V49.887h6.981v4.987a1,1,0,0,0,1,1h5.984a1,1,0,0,0,1-1V49.887h6.981v7.978H33.93a3.989,3.989,0,1,0,0,7.978h5.984ZM21.962,59.86h1.995a1.995,1.995,0,1,1,0,3.989H21.962Zm4.987-9.973h3.989v3.989H26.949ZM33.93,63.849a1.995,1.995,0,1,1,0-3.989h1.995v3.989Zm8.976,0H37.919V59.86h2.992a1,1,0,0,0,1-1V48.89a1,1,0,0,0-1-1H16.976a1,1,0,0,0-1,1v9.973a1,1,0,0,0,1,1h2.992v3.989H14.981a4.993,4.993,0,0,1-4.987-4.987V48.242a4.632,4.632,0,0,1,1.366-3.3A4.687,4.687,0,0,1,14,43.627l10.975-1.569a1,1,0,0,0,.425.68,6.374,6.374,0,0,0,7.091,0,.99.99,0,0,0,.425-.679l10.97,1.568a4.688,4.688,0,0,1,2.638,1.318,4.636,4.636,0,0,1,1.37,3.3v10.62A4.993,4.993,0,0,1,42.906,63.849Zm6.3-1.995a6.917,6.917,0,0,0,.6-1.995H61.855v1.995Zm16.64,5.984H63.849V35.925h1.995ZM67.838,33.93H36.972a8.884,8.884,0,0,0,.716-1.995H67.838Z" transform="translate(572.168 9783.461)" fill="#fff"/>
      </g>
      <path id="Trazado_187932" data-name="Trazado 187932" d="M-7321.933-9453.245H-7354.7v230.531h32.768" transform="translate(8494.699 12199.035)" fill="none" stroke="#ff9d00" stroke-width="3"/>
      <g id="Grupo_150932" data-name="Grupo 150932" transform="translate(622.767 -7064.75)">
        <g transform="matrix(1, 0, 0, 1, 211.23, 9753.09)" filter="url(#Elipse_4436-2)">
          <circle id="Elipse_4436-6" data-name="Elipse 4436" cx="51.45" cy="51.45" r="51.45" transform="translate(338.77 6)" fill="#fff"/>
        </g>
        <g id="Elipse_4437-2" data-name="Elipse 4437" transform="translate(560.832 9771.006)" fill="#00bcd4" stroke="#707070" stroke-width="1">
          <circle cx="39.806" cy="39.806" r="39.806" stroke="none"/>
          <circle cx="39.806" cy="39.806" r="39.306" fill="none"/>
        </g>
        <path id="Trazado_188002" data-name="Trazado 188002" d="M51.771,36.328h3.485a3.488,3.488,0,1,0,0-1.506H51.771A16.152,16.152,0,0,0,47.555,24.66l2.853-2.853a7.22,7.22,0,1,0-1.065-1.065L46.49,23.6a16.152,16.152,0,0,0-10.162-4.216V15.894a3.488,3.488,0,1,0-1.506,0v3.485A16.151,16.151,0,0,0,24.66,23.6l-2.853-2.853a7.219,7.219,0,1,0-1.065,1.065L23.6,24.66a16.151,16.151,0,0,0-4.216,10.162H15.894a3.489,3.489,0,1,0,0,1.506h3.485A16.152,16.152,0,0,0,23.6,46.49l-2.853,2.853a7.22,7.22,0,1,0,1.065,1.065l2.853-2.853a16.151,16.151,0,0,0,10.162,4.216v3.485a3.488,3.488,0,1,0,1.506,0V51.771A16.152,16.152,0,0,0,46.49,47.555l2.853,2.853a7.218,7.218,0,1,0,1.065-1.065L47.555,46.49a16.152,16.152,0,0,0,4.216-10.162Zm6.89-2.735a1.982,1.982,0,1,1-1.982,1.982A1.985,1.985,0,0,1,58.661,33.593ZM12.488,37.557a1.982,1.982,0,1,1,1.982-1.982A1.984,1.984,0,0,1,12.488,37.557ZM54.941,10.506a5.7,5.7,0,1,1-5.7,5.7A5.709,5.709,0,0,1,54.941,10.506ZM33.593,12.489a1.982,1.982,0,1,1,1.982,1.982,1.985,1.985,0,0,1-1.982-1.982ZM16.209,21.911a5.7,5.7,0,1,1,5.7-5.7A5.709,5.709,0,0,1,16.209,21.911Zm0,38.733a5.7,5.7,0,1,1,5.7-5.7A5.709,5.709,0,0,1,16.209,60.644Zm21.349-1.982a1.982,1.982,0,1,1-1.982-1.982A1.984,1.984,0,0,1,37.557,58.661Zm-1.982-8.379A14.708,14.708,0,1,1,50.283,35.575,14.724,14.724,0,0,1,35.575,50.283Zm19.366-1.044a5.7,5.7,0,1,1-5.7,5.7A5.709,5.709,0,0,1,54.941,49.239ZM44.231,34.281a2.493,2.493,0,0,0-2.113-2.46V28.135a2.25,2.25,0,0,0-4.5-.067,20.159,20.159,0,0,1-7.82,2.49.75.75,0,0,0-.554-.244h-2.91a3.967,3.967,0,0,0-.095,7.934l.689,5.8a1.381,1.381,0,0,0,.569.959,1.4,1.4,0,0,0,1.1.228l1.01-.219A1.389,1.389,0,0,0,30.7,43.49l-.631-5.449A19.955,19.955,0,0,1,37.617,40.5a2.25,2.25,0,0,0,4.5-.067V36.742a2.493,2.493,0,0,0,2.113-2.46ZM30,32.051A22.641,22.641,0,0,0,37.614,29.8v8.967A22.641,22.641,0,0,0,30,36.512Zm-6.125,2.23a2.465,2.465,0,0,1,2.462-2.462H28.49v4.924H26.333a2.465,2.465,0,0,1-2.462-2.462Zm4.536,9.454-.651-5.486h.817l.616,5.316Zm12.2-3.307a.745.745,0,0,1-1.491,0V28.134a.745.745,0,0,1,1.491,0Zm1.506-5.239V33.374a.982.982,0,0,1,0,1.815Zm6.668-.908a.753.753,0,0,1-.753.753H45.883a.753.753,0,1,1,0-1.506h2.149A.753.753,0,0,1,48.785,34.281ZM43.809,31.4a.753.753,0,0,1,.276-1.029l1.963-1.133a.753.753,0,0,1,.753,1.3l-1.963,1.133a.753.753,0,0,1-1.029-.276Zm3.267,7.647a.753.753,0,0,1-1.029.276L44.084,38.19a.753.753,0,0,1,.753-1.3L46.8,38.019a.753.753,0,0,1,.276,1.029ZM18.936,18a2.558,2.558,0,0,1-1.96,2.415l.008.352a.753.753,0,0,1-.735.771h-.019a.753.753,0,0,1-.753-.735l-.009-.375a3.2,3.2,0,0,1-1.43-.875.753.753,0,1,1,1.034-1.1,1.438,1.438,0,0,0,1.135.552A1.132,1.132,0,0,0,17.43,18a1.132,1.132,0,0,0-1.221-1.01,2.631,2.631,0,0,1-2.728-2.516,2.558,2.558,0,0,1,1.961-2.415l-.01-.417a.753.753,0,0,1,1.506-.036l.011.468a2.955,2.955,0,0,1,1.64,1.038.753.753,0,1,1-1.259.827,2,2,0,0,0-1.122-.475,1.132,1.132,0,0,0-1.221,1.01,1.132,1.132,0,0,0,1.221,1.01A2.631,2.631,0,0,1,18.936,18Zm33.278-3.526a2.558,2.558,0,0,1,1.961-2.415l-.01-.417a.753.753,0,0,1,1.506-.036l.011.468a2.955,2.955,0,0,1,1.64,1.038.753.753,0,0,1-1.259.827,2,2,0,0,0-1.122-.475,1.132,1.132,0,0,0-1.221,1.01,1.132,1.132,0,0,0,1.221,1.01A2.631,2.631,0,0,1,57.669,18a2.558,2.558,0,0,1-1.96,2.415l.008.352a.753.753,0,0,1-.735.771h-.019a.753.753,0,0,1-.753-.735l-.009-.375a3.2,3.2,0,0,1-1.43-.875.753.753,0,1,1,1.034-1.1,1.438,1.438,0,0,0,1.135.552A1.132,1.132,0,0,0,56.162,18a1.132,1.132,0,0,0-1.221-1.01,2.631,2.631,0,0,1-2.728-2.516ZM18.936,56.737a2.558,2.558,0,0,1-1.96,2.415l.008.352a.753.753,0,0,1-.735.771h-.019a.753.753,0,0,1-.753-.735l-.009-.375a3.2,3.2,0,0,1-1.43-.875.753.753,0,0,1,1.034-1.1,1.438,1.438,0,0,0,1.135.552,1.028,1.028,0,1,0,0-2.02,2.631,2.631,0,0,1-2.728-2.516A2.558,2.558,0,0,1,15.442,50.8l-.01-.417a.753.753,0,0,1,1.506-.036l.011.468a2.955,2.955,0,0,1,1.64,1.038.753.753,0,0,1-1.259.827,2,2,0,0,0-1.122-.475,1.028,1.028,0,1,0,0,2.02,2.631,2.631,0,0,1,2.728,2.516Zm33.278-3.526A2.558,2.558,0,0,1,54.175,50.8l-.01-.417a.753.753,0,1,1,1.506-.036l.011.468a2.955,2.955,0,0,1,1.64,1.038.753.753,0,0,1-1.259.827,2,2,0,0,0-1.122-.475,1.028,1.028,0,1,0,0,2.02,2.631,2.631,0,0,1,2.728,2.516,2.558,2.558,0,0,1-1.96,2.415l.008.352a.753.753,0,0,1-.735.771h-.019a.753.753,0,0,1-.753-.735l-.009-.375a3.2,3.2,0,0,1-1.43-.875.753.753,0,1,1,1.034-1.1,1.438,1.438,0,0,0,1.135.552,1.028,1.028,0,1,0,0-2.02,2.631,2.631,0,0,1-2.728-2.516Z" transform="translate(565.083 9776.09)" fill="#fff"/>
      </g>
      <g id="Grupo_150938" data-name="Grupo 150938" transform="translate(622.767 -6942.059)">
        <g transform="matrix(1, 0, 0, 1, 211.23, 9630.4)" filter="url(#Elipse_4436-3)">
          <circle id="Elipse_4436-7" data-name="Elipse 4436" cx="51.45" cy="51.45" r="51.45" transform="translate(338.77 128.69)" fill="#fff"/>
        </g>
        <g id="Elipse_4437-3" data-name="Elipse 4437" transform="translate(560.832 9771.006)" fill="#00bcd4" stroke="#707070" stroke-width="1">
          <circle cx="39.806" cy="39.806" r="39.806" stroke="none"/>
          <circle cx="39.806" cy="39.806" r="39.306" fill="none"/>
        </g>
        <g id="Grupo_151018" data-name="Grupo 151018" transform="translate(568.319 9784.41)">
          <g id="Grupo_151009" data-name="Grupo 151009" transform="translate(0.58 9.393)">
            <g id="Grupo_151008" data-name="Grupo 151008" transform="translate(0)">
              <path id="Trazado_188000" data-name="Trazado 188000" d="M47.773,121.329,45.6,114.8a6.575,6.575,0,0,0-5.062-4.389l-6.277-1.142v-.487a9.453,9.453,0,0,0,2.8-2.486h1.9a2.821,2.821,0,0,0,2.818-2.818V92.211a12.211,12.211,0,1,0-24.421,0v6.575a3.763,3.763,0,0,0,3,3.679,9.41,9.41,0,0,0,4.519,6.321v.487l-6.278,1.142a6.574,6.574,0,0,0-5.061,4.389l-.376,1.128-3.2-3.2a.941.941,0,0,1,0-1.329l3.71-3.709L6.7,100.731l-4.193,4.193a6.575,6.575,0,0,0,0,9.3L15.2,126.916a6.572,6.572,0,0,0,9.269.028l4.575-4.192-1.427-1.424Zm-7.878-17.846a.94.94,0,0,1-.939.939h-.79a9.329,9.329,0,0,0,.612-1.957,3.721,3.721,0,0,0,1.117-.444Zm-.939-3.079V97.168a1.862,1.862,0,0,1,0,3.235Zm-18.786,0a1.862,1.862,0,0,1,0-3.235Zm0-6.314v1.073a3.726,3.726,0,0,0-.939.389v-3.34a10.332,10.332,0,1,1,20.664,0v3.34a3.691,3.691,0,0,0-.939-.389V94.089h-.939a10.334,10.334,0,0,1-7.354-3.046l-1.1-1.1-1.1,1.1a10.334,10.334,0,0,1-7.354,3.046Zm1.879,6.575V95.932a12.178,12.178,0,0,0,7.514-3.338,12.173,12.173,0,0,0,7.514,3.338v4.732a7.458,7.458,0,0,1-1.016,3.757h-6.5V106.3h4.954a7.5,7.5,0,0,1-12.468-5.636Zm10.332,8.96v.044l-2.818,2.818-2.818-2.818v-.044a9.385,9.385,0,0,0,5.636,0ZM15.308,115.4a4.7,4.7,0,0,1,3.615-3.136l6.566-1.193,4.074,4.074,4.073-4.073,6.565,1.193a4.7,4.7,0,0,1,3.615,3.136l1.352,4.051H25.739l-3.659-3.659-4.065,3.677a.959.959,0,0,1-1.328,0l-2.051-2.051ZM6.7,103.387l4.308,4.308-1.02,1.02-4.308-4.308Zm16.47,22.2a4.7,4.7,0,0,1-6.642,0L3.832,112.895a4.7,4.7,0,0,1,0-6.642l.517-.517,4.308,4.308-.034.034a2.823,2.823,0,0,0,0,3.985l6.736,6.736a2.8,2.8,0,0,0,1.993.826,2.766,2.766,0,0,0,1.958-.793l.07-.063,4.327,4.327Zm1.926-1.766-4.318-4.318,1.241-1.122,4.31,4.31Z" transform="translate(-0.58 -80)" fill="#fff"/>
            </g>
          </g>
          <g id="Grupo_151011" data-name="Grupo 151011" transform="translate(39.895)">
            <g id="Grupo_151010" data-name="Grupo 151010">
              <path id="Trazado_188001" data-name="Trazado 188001" d="M351.4,0h-13.15a2.821,2.821,0,0,0-2.818,2.818v7.514a2.821,2.821,0,0,0,2.818,2.818h2.509l-.971,5.665,9.064-5.665H351.4a2.821,2.821,0,0,0,2.818-2.818V2.818A2.821,2.821,0,0,0,351.4,0Zm.939,10.332a.941.941,0,0,1-.939.939h-3.087L342.343,15l.64-3.728h-4.737a.941.941,0,0,1-.939-.939V2.818a.941.941,0,0,1,.939-.939H351.4a.941.941,0,0,1,.939.939Z" transform="translate(-335.428)" fill="#fff"/>
            </g>
          </g>
          <g id="Grupo_151013" data-name="Grupo 151013" transform="translate(43.652 3.757)">
            <g id="Grupo_151012" data-name="Grupo 151012">
              <rect id="Rectángulo_44747" data-name="Rectángulo 44747" width="11.271" height="1.879" fill="#fff"/>
            </g>
          </g>
          <g id="Grupo_151015" data-name="Grupo 151015" transform="translate(43.652 7.514)">
            <g id="Grupo_151014" data-name="Grupo 151014">
              <rect id="Rectángulo_44748" data-name="Rectángulo 44748" width="7.514" height="1.879" fill="#fff"/>
            </g>
          </g>
          <g id="Grupo_151017" data-name="Grupo 151017" transform="translate(53.045 7.514)">
            <g id="Grupo_151016" data-name="Grupo 151016">
              <rect id="Rectángulo_44749" data-name="Rectángulo 44749" width="1.879" height="1.879" fill="#fff"/>
            </g>
          </g>
        </g>
      </g>
      <g id="Grupo_150939" data-name="Grupo 150939" transform="translate(622.767 -6835.541)">
        <g transform="matrix(1, 0, 0, 1, 211.23, 9523.88)" filter="url(#Elipse_4436-4)">
          <circle id="Elipse_4436-8" data-name="Elipse 4436" cx="51.45" cy="51.45" r="51.45" transform="translate(338.77 235.21)" fill="#fff"/>
        </g>
        <g id="Elipse_4437-4" data-name="Elipse 4437" transform="translate(560.832 9771.006)" fill="#00bcd4" stroke="#707070" stroke-width="1">
          <circle cx="39.806" cy="39.806" r="39.806" stroke="none"/>
          <circle cx="39.806" cy="39.806" r="39.306" fill="none"/>
        </g>
        <g id="Grupo_151007" data-name="Grupo 151007" transform="translate(560.433 9763.883)">
          <path id="Trazado_187983" data-name="Trazado 187983" d="M17.927,74.147h5.78a1.929,1.929,0,0,0,1.927-1.927V70.294H47.411A25.8,25.8,0,0,0,72.816,48.979l.418-2.368a3.617,3.617,0,0,0-5.214-3.854V38.5h.963a.963.963,0,0,0,.681-1.644l-7.707-7.707a.962.962,0,0,0-1.362,0l-2.209,2.209V18.274a.963.963,0,0,0-.963-.963H47.79a.963.963,0,0,0-.963.963v10.6h-3.9a15.688,15.688,0,0,0-1.711-3.1l2.434-5.95a1.67,1.67,0,0,0-2.288-2.135l-1.822.91-1.147-1.53a1.671,1.671,0,0,0-2.518-.18l-1.465,1.464-.962-1.284a1.671,1.671,0,0,0-2.518-.18l-1.849,1.849L26.3,17.938a1.67,1.67,0,0,0-1.926,2.4l2.913,5.378c-2.045,1.848-4.543,7.039-4.543,11.757V40.43a5.786,5.786,0,0,0,5.78,5.78H65.5l-2.035,4.07-5.3,2.271a4.81,4.81,0,0,0-4.6-3.451H39.7a26.652,26.652,0,0,0-14.068,3.994V51.027A1.929,1.929,0,0,0,23.707,49.1h-5.78A1.929,1.929,0,0,0,16,51.027V72.221a1.929,1.929,0,0,0,1.927,1.927Zm10.767-53.52a1.668,1.668,0,0,0,1.64-.425l1.747-1.747.963,1.286a1.67,1.67,0,0,0,2.517.178l1.465-1.464,1.1,1.464a1.665,1.665,0,0,0,2.083.493l1.4-.7-2.173,5.305H36.825l1.229-2.459L36.331,21.7l-1.66,3.322H32.983L31.64,22.223l-1.737.835.941,1.958H29.1l-2.739-5.058Zm9.463,9.207v14.45H28.523A3.857,3.857,0,0,1,24.67,40.43V37.476c0-5.157,3.192-9.966,4.1-10.532H39.687a10.38,10.38,0,0,1,1.108,1.927H39.12a.963.963,0,0,0-.963.963Zm1.927.963h6.743V44.284H40.083Zm21.193.4,5.381,5.381H55.9ZM48.753,19.237H56.46V33.288l-3.571,3.571A.963.963,0,0,0,53.57,38.5h.963v5.78h-5.78ZM56.46,38.5h9.633v5.78H64.167V40.43a.963.963,0,0,0-.963-.963H59.35a.963.963,0,0,0-.963.963v3.853H56.46Zm5.78,5.78H60.314v-2.89H62.24ZM39.7,51.027H53.57a2.89,2.89,0,1,1,0,5.78H38.157v1.927H53.57a4.808,4.808,0,0,0,4.749-4.153l6.226-2.668a.957.957,0,0,0,.483-.455l3.117-6.236a1.7,1.7,0,0,1,3.193,1.055l-.418,2.368A23.872,23.872,0,0,1,47.411,68.367H25.633V55.4A24.745,24.745,0,0,1,39.7,51.027Zm-21.774,0h5.78V72.221H17.927Z" transform="translate(0 -0.347)" fill="#f6f6f6"/>
          <path id="Trazado_187984" data-name="Trazado 187984" d="M48,328h1.927v2.89H48Z" transform="translate(-28.147 -274.43)" fill="#f6f6f6"/>
          <path id="Trazado_187985" data-name="Trazado 187985" d="M304,56h.963v1.927H304Z" transform="translate(-253.32 -35.183)" fill="#f6f6f6"/>
          <path id="Trazado_187986" data-name="Trazado 187986" d="M328,56h.963v1.927H328Z" transform="translate(-274.43 -35.183)" fill="#f6f6f6"/>
          <path id="Trazado_187987" data-name="Trazado 187987" d="M304,88h.963v1.927H304Z" transform="translate(-253.32 -63.33)" fill="#f6f6f6"/>
          <path id="Trazado_187988" data-name="Trazado 187988" d="M328,88h.963v1.927H328Z" transform="translate(-274.43 -63.33)" fill="#f6f6f6"/>
          <path id="Trazado_187989" data-name="Trazado 187989" d="M304,120h.963v1.927H304Z" transform="translate(-253.32 -91.477)" fill="#f6f6f6"/>
          <path id="Trazado_187990" data-name="Trazado 187990" d="M328,120h.963v1.927H328Z" transform="translate(-274.43 -91.477)" fill="#f6f6f6"/>
          <path id="Trazado_187991" data-name="Trazado 187991" d="M232,152h.963v1.927H232Z" transform="translate(-189.99 -119.623)" fill="#f6f6f6"/>
          <path id="Trazado_187992" data-name="Trazado 187992" d="M256,152h.963v1.927H256Z" transform="translate(-211.1 -119.623)" fill="#f6f6f6"/>
          <path id="Trazado_187993" data-name="Trazado 187993" d="M232,184h.963v1.927H232Z" transform="translate(-189.99 -147.77)" fill="#f6f6f6"/>
          <path id="Trazado_187994" data-name="Trazado 187994" d="M256,184h.963v1.927H256Z" transform="translate(-211.1 -147.77)" fill="#f6f6f6"/>
          <path id="Trazado_187995" data-name="Trazado 187995" d="M232,216h.963v1.927H232Z" transform="translate(-189.99 -175.917)" fill="#f6f6f6"/>
          <path id="Trazado_187996" data-name="Trazado 187996" d="M256,216h.963v1.927H256Z" transform="translate(-211.1 -175.917)" fill="#f6f6f6"/>
          <path id="Trazado_187997" data-name="Trazado 187997" d="M304,152h.963v1.927H304Z" transform="translate(-253.32 -119.623)" fill="#f6f6f6"/>
          <path id="Trazado_187998" data-name="Trazado 187998" d="M328,152h.963v1.927H328Z" transform="translate(-274.43 -119.623)" fill="#f6f6f6"/>
          <path id="Trazado_187999" data-name="Trazado 187999" d="M140.817,136.963h-.963V136h-1.927v.963h-.963a.963.963,0,0,0-.963.963v2.89a.963.963,0,0,0,.963.963h2.89v.963H136v.963a.963.963,0,0,0,.963.963h.963v.963h1.927v-.963h.963a.963.963,0,0,0,.963-.963v-2.89a.963.963,0,0,0-.963-.963h-2.89v-.963h3.853v-.963A.963.963,0,0,0,140.817,136.963Z" transform="translate(-105.55 -105.55)" fill="#f6f6f6"/>
        </g>
      </g>
      <text id="Según_lo_que_provean_" data-name="Según lo que provean
" transform="translate(849.999 2836)" fill="#12263f" font-size="16" font-family="Roboto-Bold, Roboto" font-weight="700"><tspan x="15.785" y="15">Según lo que </tspan><tspan x="33.668" y="39">provean</tspan></text>
      <text id="Bienes_" data-name="Bienes
" transform="translate(1289.999 2743)" fill="#12263f" font-size="16" font-family="Roboto-Regular, Roboto"><tspan x="38.563" y="15">Bienes</tspan></text>
      <text id="Servicios_" data-name="Servicios
" transform="translate(1289.999 2863)" fill="#12263f" font-size="16" font-family="Roboto-Regular, Roboto"><tspan x="30.105" y="15">Servicios</tspan></text>
      <text id="Recursos_" data-name="Recursos
" transform="translate(1289.999 2973)" fill="#12263f" font-size="16" font-family="Roboto-Regular, Roboto"><tspan x="29.219" y="15">Recursos</tspan></text>
    </g>
  </g>
</svg>
