<svg xmlns="http://www.w3.org/2000/svg" width="551.001" height="185.736" viewBox="0 0 551.001 185.736">
  <g id="Grupo_151001" data-name="Grupo 151001" transform="translate(-237.5 -48.785)">
    <g id="Grupo_150952" data-name="Grupo 150952" transform="translate(167.195)">
      <g id="Grupo_150945" data-name="Grupo 150945">
        <path id="Rectángulo_44660" data-name="Rectángulo 44660" d="M.782,0H17.8a.782.782,0,0,1,.782.782v8.45a.782.782,0,0,1-.782.782H.942A.942.942,0,0,1,0,9.072V.782A.782.782,0,0,1,.782,0Z" transform="translate(385.425 113.223) rotate(180)" fill="#feffff"/>
        <g id="Grupo_150944" data-name="Grupo 150944">
          <rect id="Rectángulo_44661" data-name="Rectángulo 44661" width="5.878" height="5.5" transform="translate(384.033 110.966) rotate(180)" fill="#e95e51"/>
          <g id="Grupo_150943" data-name="Grupo 150943">
            <rect id="Rectángulo_44662" data-name="Rectángulo 44662" width="8.985" height="0.941" transform="translate(377.217 106.407) rotate(180)" fill="#c5d6e1"/>
            <rect id="Rectángulo_44663" data-name="Rectángulo 44663" width="8.985" height="0.941" transform="translate(377.217 107.927) rotate(180)" fill="#c5d6e1"/>
            <rect id="Rectángulo_44664" data-name="Rectángulo 44664" width="8.985" height="0.941" transform="translate(377.217 109.446) rotate(180)" fill="#c5d6e1"/>
            <rect id="Rectángulo_44665" data-name="Rectángulo 44665" width="8.985" height="0.941" transform="translate(377.217 110.966) rotate(180)" fill="#c5d6e1"/>
          </g>
        </g>
      </g>
      <g id="Grupo_150947" data-name="Grupo 150947">
        <g id="Grupo_150946" data-name="Grupo 150946">
          <rect id="Rectángulo_44666" data-name="Rectángulo 44666" width="2.183" height="2.477" transform="translate(399.592 105.686) rotate(180)" fill="#7e5ee3"/>
          <rect id="Rectángulo_44667" data-name="Rectángulo 44667" width="6.928" height="8.859" rx="0.914" transform="translate(401.964 113.223) rotate(180)" fill="#7e5ee3"/>
        </g>
        <rect id="Rectángulo_44668" data-name="Rectángulo 44668" width="3.002" height="1.39" rx="0.229" transform="translate(400.001 103.671) rotate(180)" fill="#7e5ee3"/>
      </g>
      <g id="Grupo_150949" data-name="Grupo 150949">
        <g id="Grupo_150948" data-name="Grupo 150948">
          <rect id="Rectángulo_44669" data-name="Rectángulo 44669" width="2.183" height="2.477" transform="translate(391.331 105.686) rotate(180)" fill="#7e5ee3"/>
          <path id="Rectángulo_44670" data-name="Rectángulo 44670" d="M.914,0h5.1a.914.914,0,0,1,.914.914V7.946a.914.914,0,0,1-.914.914H.913A.913.913,0,0,1,0,7.946V.914A.914.914,0,0,1,.914,0Z" transform="translate(393.704 113.223) rotate(180)" fill="#7e5ee3"/>
        </g>
        <rect id="Rectángulo_44671" data-name="Rectángulo 44671" width="3.002" height="1.39" rx="0.229" transform="translate(391.741 103.671) rotate(180)" fill="#7e5ee3"/>
      </g>
      <g id="Grupo_150951" data-name="Grupo 150951">
        <g id="Grupo_150950" data-name="Grupo 150950">
          <rect id="Rectángulo_44672" data-name="Rectángulo 44672" width="2.183" height="2.477" transform="translate(407.852 105.686) rotate(180)" fill="#7e5ee3"/>
          <rect id="Rectángulo_44673" data-name="Rectángulo 44673" width="6.928" height="8.859" rx="0.914" transform="translate(410.224 113.223) rotate(180)" fill="#7e5ee3"/>
        </g>
        <rect id="Rectángulo_44674" data-name="Rectángulo 44674" width="3.002" height="1.39" rx="0.229" transform="translate(408.261 103.671) rotate(180)" fill="#7e5ee3"/>
      </g>
      <rect id="Rectángulo_44675" data-name="Rectángulo 44675" width="46.253" height="1.823" transform="translate(411.306 115.046) rotate(180)" fill="#ff9d00"/>
    </g>
    <g id="Grupo_150962" data-name="Grupo 150962" transform="translate(167.195)">
      <g id="Grupo_150955" data-name="Grupo 150955">
        <path id="Rectángulo_44676" data-name="Rectángulo 44676" d="M.782,0H17.8a.782.782,0,0,1,.782.782v8.45a.782.782,0,0,1-.782.782H.942A.942.942,0,0,1,0,9.072V.782A.782.782,0,0,1,.782,0Z" transform="translate(315.205 69.748) rotate(180)" fill="#feffff"/>
        <g id="Grupo_150954" data-name="Grupo 150954">
          <rect id="Rectángulo_44677" data-name="Rectángulo 44677" width="5.878" height="5.5" transform="translate(313.812 67.491) rotate(180)" fill="#7e5ee3"/>
          <g id="Grupo_150953" data-name="Grupo 150953">
            <rect id="Rectángulo_44678" data-name="Rectángulo 44678" width="8.985" height="0.941" transform="translate(306.996 62.932) rotate(180)" fill="#c5d6e1"/>
            <rect id="Rectángulo_44679" data-name="Rectángulo 44679" width="8.985" height="0.941" transform="translate(306.996 64.452) rotate(180)" fill="#c5d6e1"/>
            <rect id="Rectángulo_44680" data-name="Rectángulo 44680" width="8.985" height="0.941" transform="translate(306.996 65.972) rotate(180)" fill="#c5d6e1"/>
            <rect id="Rectángulo_44681" data-name="Rectángulo 44681" width="8.985" height="0.941" transform="translate(306.996 67.491) rotate(180)" fill="#c5d6e1"/>
          </g>
        </g>
      </g>
      <g id="Grupo_150957" data-name="Grupo 150957">
        <g id="Grupo_150956" data-name="Grupo 150956">
          <rect id="Rectángulo_44682" data-name="Rectángulo 44682" width="2.183" height="2.477" transform="translate(329.371 62.211) rotate(180)" fill="#7e5ee3"/>
          <rect id="Rectángulo_44683" data-name="Rectángulo 44683" width="6.928" height="8.859" rx="0.914" transform="translate(331.743 69.748) rotate(180)" fill="#7e5ee3"/>
        </g>
        <rect id="Rectángulo_44684" data-name="Rectángulo 44684" width="3.002" height="1.39" rx="0.229" transform="translate(329.78 60.196) rotate(180)" fill="#7e5ee3"/>
      </g>
      <g id="Grupo_150959" data-name="Grupo 150959">
        <g id="Grupo_150958" data-name="Grupo 150958">
          <rect id="Rectángulo_44685" data-name="Rectángulo 44685" width="2.183" height="2.477" transform="translate(321.111 62.211) rotate(180)" fill="#7e5ee3"/>
          <path id="Rectángulo_44686" data-name="Rectángulo 44686" d="M.914,0h5.1a.913.913,0,0,1,.913.913V7.946a.914.914,0,0,1-.914.914H.914A.914.914,0,0,1,0,7.946V.914A.914.914,0,0,1,.914,0Z" transform="translate(323.483 69.748) rotate(180)" fill="#7e5ee3"/>
        </g>
        <rect id="Rectángulo_44687" data-name="Rectángulo 44687" width="3.002" height="1.39" rx="0.229" transform="translate(321.52 60.196) rotate(180)" fill="#7e5ee3"/>
      </g>
      <g id="Grupo_150961" data-name="Grupo 150961">
        <g id="Grupo_150960" data-name="Grupo 150960">
          <rect id="Rectángulo_44688" data-name="Rectángulo 44688" width="2.183" height="2.477" transform="translate(337.631 62.211) rotate(180)" fill="#7e5ee3"/>
          <rect id="Rectángulo_44689" data-name="Rectángulo 44689" width="6.928" height="8.859" rx="0.914" transform="translate(340.004 69.748) rotate(180)" fill="#7e5ee3"/>
        </g>
        <rect id="Rectángulo_44690" data-name="Rectángulo 44690" width="3.002" height="1.39" rx="0.229" transform="translate(338.041 60.196) rotate(180)" fill="#7e5ee3"/>
      </g>
      <rect id="Rectángulo_44691" data-name="Rectángulo 44691" width="46.253" height="1.823" transform="translate(341.086 71.571) rotate(180)" fill="#ff9d00"/>
    </g>
    <g id="Grupo_151003" data-name="Grupo 151003" transform="translate(105.416 34.766)">
      <g id="Grupo_150955-2" data-name="Grupo 150955">
        <path id="Rectángulo_44676-2" data-name="Rectángulo 44676" d="M.782,0H17.8a.782.782,0,0,1,.782.782v8.45a.782.782,0,0,1-.782.782H.942A.942.942,0,0,1,0,9.072V.782A.782.782,0,0,1,.782,0Z" transform="translate(315.205 69.748) rotate(180)" fill="#feffff"/>
        <g id="Grupo_150954-2" data-name="Grupo 150954">
          <rect id="Rectángulo_44677-2" data-name="Rectángulo 44677" width="5.878" height="5.5" transform="translate(313.812 67.491) rotate(180)" fill="#7e5ee3"/>
          <g id="Grupo_150953-2" data-name="Grupo 150953">
            <rect id="Rectángulo_44678-2" data-name="Rectángulo 44678" width="8.985" height="0.941" transform="translate(306.996 62.932) rotate(180)" fill="#c5d6e1"/>
            <rect id="Rectángulo_44679-2" data-name="Rectángulo 44679" width="8.985" height="0.941" transform="translate(306.996 64.452) rotate(180)" fill="#c5d6e1"/>
            <rect id="Rectángulo_44680-2" data-name="Rectángulo 44680" width="8.985" height="0.941" transform="translate(306.996 65.972) rotate(180)" fill="#c5d6e1"/>
            <rect id="Rectángulo_44681-2" data-name="Rectángulo 44681" width="8.985" height="0.941" transform="translate(306.996 67.491) rotate(180)" fill="#c5d6e1"/>
          </g>
        </g>
      </g>
      <g id="Grupo_150957-2" data-name="Grupo 150957">
        <g id="Grupo_150956-2" data-name="Grupo 150956">
          <rect id="Rectángulo_44682-2" data-name="Rectángulo 44682" width="2.183" height="2.477" transform="translate(329.371 62.211) rotate(180)" fill="#7e5ee3"/>
          <rect id="Rectángulo_44683-2" data-name="Rectángulo 44683" width="6.928" height="8.859" rx="0.914" transform="translate(331.743 69.748) rotate(180)" fill="#7e5ee3"/>
        </g>
        <rect id="Rectángulo_44684-2" data-name="Rectángulo 44684" width="3.002" height="1.39" rx="0.229" transform="translate(329.78 60.196) rotate(180)" fill="#7e5ee3"/>
      </g>
      <g id="Grupo_150959-2" data-name="Grupo 150959">
        <g id="Grupo_150958-2" data-name="Grupo 150958">
          <rect id="Rectángulo_44685-2" data-name="Rectángulo 44685" width="2.183" height="2.477" transform="translate(321.111 62.211) rotate(180)" fill="#7e5ee3"/>
          <path id="Rectángulo_44686-2" data-name="Rectángulo 44686" d="M.914,0h5.1a.913.913,0,0,1,.913.913V7.946a.914.914,0,0,1-.914.914H.914A.914.914,0,0,1,0,7.946V.914A.914.914,0,0,1,.914,0Z" transform="translate(323.483 69.748) rotate(180)" fill="#7e5ee3"/>
        </g>
        <rect id="Rectángulo_44687-2" data-name="Rectángulo 44687" width="3.002" height="1.39" rx="0.229" transform="translate(321.52 60.196) rotate(180)" fill="#7e5ee3"/>
      </g>
      <g id="Grupo_150961-2" data-name="Grupo 150961">
        <g id="Grupo_150960-2" data-name="Grupo 150960">
          <rect id="Rectángulo_44688-2" data-name="Rectángulo 44688" width="2.183" height="2.477" transform="translate(337.631 62.211) rotate(180)" fill="#7e5ee3"/>
          <rect id="Rectángulo_44689-2" data-name="Rectángulo 44689" width="6.928" height="8.859" rx="0.914" transform="translate(340.004 69.748) rotate(180)" fill="#7e5ee3"/>
        </g>
        <rect id="Rectángulo_44690-2" data-name="Rectángulo 44690" width="3.002" height="1.39" rx="0.229" transform="translate(338.041 60.196) rotate(180)" fill="#7e5ee3"/>
      </g>
      <rect id="Rectángulo_44691-2" data-name="Rectángulo 44691" width="46.253" height="1.823" transform="translate(341.086 71.571) rotate(180)" fill="#ff9d00"/>
    </g>
    <g id="Grupo_150973" data-name="Grupo 150973" transform="translate(167.195)">
      <g id="Grupo_150967" data-name="Grupo 150967">
        <g id="Grupo_150963" data-name="Grupo 150963">
          <rect id="Rectángulo_44692" data-name="Rectángulo 44692" width="21.723" height="14.826" rx="1.339" transform="translate(317.858 128.104) rotate(180)" fill="#c5d6e1"/>
        </g>
        <g id="Grupo_150964" data-name="Grupo 150964">
          <path id="Trazado_187936" data-name="Trazado 187936" d="M302.757,111.962a2.26,2.26,0,0,1,2.257-2.258h3.965a2.26,2.26,0,0,1,2.257,2.258v2.447h-8.479Zm7.522,0a1.3,1.3,0,0,0-1.3-1.3h-3.965a1.3,1.3,0,0,0-1.3,1.3v1.49h6.565Z" fill="#c5d6e1"/>
        </g>
        <g id="Grupo_150965" data-name="Grupo 150965">
          <rect id="Rectángulo_44693" data-name="Rectángulo 44693" width="2.77" height="9.775" transform="translate(308.381 125.443) rotate(180)" fill="#fff"/>
        </g>
        <g id="Grupo_150966" data-name="Grupo 150966">
          <rect id="Rectángulo_44694" data-name="Rectángulo 44694" width="2.77" height="9.775" transform="translate(311.884 119.171) rotate(90)" fill="#fff"/>
        </g>
      </g>
      <g id="Grupo_150972" data-name="Grupo 150972">
        <g id="Grupo_150968" data-name="Grupo 150968">
          <rect id="Rectángulo_44695" data-name="Rectángulo 44695" width="21.723" height="14.826" rx="1.339" transform="translate(341.616 128.104) rotate(180)" fill="#c5d6e1"/>
        </g>
        <g id="Grupo_150969" data-name="Grupo 150969">
          <path id="Trazado_187937" data-name="Trazado 187937" d="M326.515,111.962a2.26,2.26,0,0,1,2.257-2.258h3.965a2.26,2.26,0,0,1,2.257,2.258v2.447h-8.479Zm7.522,0a1.3,1.3,0,0,0-1.3-1.3h-3.965a1.3,1.3,0,0,0-1.3,1.3v1.49h6.565Z" fill="#c5d6e1"/>
        </g>
        <g id="Grupo_150970" data-name="Grupo 150970">
          <rect id="Rectángulo_44696" data-name="Rectángulo 44696" width="2.77" height="9.775" transform="translate(332.14 125.443) rotate(180)" fill="#fff"/>
        </g>
        <g id="Grupo_150971" data-name="Grupo 150971">
          <rect id="Rectángulo_44697" data-name="Rectángulo 44697" width="2.77" height="9.775" transform="translate(335.642 119.171) rotate(90)" fill="#fff"/>
        </g>
      </g>
      <rect id="Rectángulo_44698" data-name="Rectángulo 44698" width="46.253" height="1.823" transform="translate(341.086 129.927) rotate(180)" fill="#ff9d00"/>
    </g>
    <g id="Grupo_151004" data-name="Grupo 151004" transform="translate(333.195)">
      <g id="Grupo_150967-2" data-name="Grupo 150967">
        <g id="Grupo_150963-2" data-name="Grupo 150963">
          <rect id="Rectángulo_44692-2" data-name="Rectángulo 44692" width="21.723" height="14.826" rx="1.339" transform="translate(317.858 128.104) rotate(180)" fill="#c5d6e1"/>
        </g>
        <g id="Grupo_150964-2" data-name="Grupo 150964">
          <path id="Trazado_187936-2" data-name="Trazado 187936" d="M302.757,111.962a2.26,2.26,0,0,1,2.257-2.258h3.965a2.26,2.26,0,0,1,2.257,2.258v2.447h-8.479Zm7.522,0a1.3,1.3,0,0,0-1.3-1.3h-3.965a1.3,1.3,0,0,0-1.3,1.3v1.49h6.565Z" fill="#c5d6e1"/>
        </g>
        <g id="Grupo_150965-2" data-name="Grupo 150965">
          <rect id="Rectángulo_44693-2" data-name="Rectángulo 44693" width="2.77" height="9.775" transform="translate(308.381 125.443) rotate(180)" fill="#fff"/>
        </g>
        <g id="Grupo_150966-2" data-name="Grupo 150966">
          <rect id="Rectángulo_44694-2" data-name="Rectángulo 44694" width="2.77" height="9.775" transform="translate(311.884 119.171) rotate(90)" fill="#fff"/>
        </g>
      </g>
      <g id="Grupo_150972-2" data-name="Grupo 150972">
        <g id="Grupo_150968-2" data-name="Grupo 150968">
          <rect id="Rectángulo_44695-2" data-name="Rectángulo 44695" width="21.723" height="14.826" rx="1.339" transform="translate(341.616 128.104) rotate(180)" fill="#c5d6e1"/>
        </g>
        <g id="Grupo_150969-2" data-name="Grupo 150969">
          <path id="Trazado_187937-2" data-name="Trazado 187937" d="M326.515,111.962a2.26,2.26,0,0,1,2.257-2.258h3.965a2.26,2.26,0,0,1,2.257,2.258v2.447h-8.479Zm7.522,0a1.3,1.3,0,0,0-1.3-1.3h-3.965a1.3,1.3,0,0,0-1.3,1.3v1.49h6.565Z" fill="#c5d6e1"/>
        </g>
        <g id="Grupo_150970-2" data-name="Grupo 150970">
          <rect id="Rectángulo_44696-2" data-name="Rectángulo 44696" width="2.77" height="9.775" transform="translate(332.14 125.443) rotate(180)" fill="#fff"/>
        </g>
        <g id="Grupo_150971-2" data-name="Grupo 150971">
          <rect id="Rectángulo_44697-2" data-name="Rectángulo 44697" width="2.77" height="9.775" transform="translate(335.642 119.171) rotate(90)" fill="#fff"/>
        </g>
      </g>
      <rect id="Rectángulo_44698-2" data-name="Rectángulo 44698" width="46.253" height="1.823" transform="translate(341.086 129.927) rotate(180)" fill="#ff9d00"/>
    </g>
    <g id="Grupo_150986" data-name="Grupo 150986" transform="translate(167.195)">
      <g id="Grupo_150976" data-name="Grupo 150976">
        <rect id="Rectángulo_44699" data-name="Rectángulo 44699" width="12.977" height="14.027" transform="translate(395.212 69.838) rotate(180)" fill="#fff"/>
        <rect id="Rectángulo_44700" data-name="Rectángulo 44700" width="8.063" height="3.022" transform="translate(392.755 67.588) rotate(180)" fill="#c5d6e1"/>
        <g id="Grupo_150975" data-name="Grupo 150975">
          <rect id="Rectángulo_44701" data-name="Rectángulo 44701" width="4.803" height="4.803" transform="translate(394.004 62.229) rotate(180)" fill="#ff9d00"/>
          <g id="Grupo_150974" data-name="Grupo 150974">
            <rect id="Rectángulo_44702" data-name="Rectángulo 44702" width="5.184" height="0.716" transform="translate(388.628 58.292) rotate(180)" fill="#c5d6e1"/>
            <rect id="Rectángulo_44703" data-name="Rectángulo 44703" width="5.184" height="0.716" transform="translate(388.628 62.229) rotate(180)" fill="#c5d6e1"/>
            <rect id="Rectángulo_44704" data-name="Rectángulo 44704" width="5.184" height="0.716" transform="translate(388.628 60.917) rotate(180)" fill="#c5d6e1"/>
            <rect id="Rectángulo_44705" data-name="Rectángulo 44705" width="5.184" height="0.716" transform="translate(388.628 59.604) rotate(180)" fill="#c5d6e1"/>
          </g>
        </g>
      </g>
      <g id="Grupo_150979" data-name="Grupo 150979">
        <rect id="Rectángulo_44706" data-name="Rectángulo 44706" width="12.977" height="14.027" transform="translate(380.72 69.838) rotate(180)" fill="#fff"/>
        <rect id="Rectángulo_44707" data-name="Rectángulo 44707" width="8.063" height="3.022" transform="translate(378.263 67.588) rotate(180)" fill="#c5d6e1"/>
        <g id="Grupo_150978" data-name="Grupo 150978">
          <rect id="Rectángulo_44708" data-name="Rectángulo 44708" width="4.803" height="4.803" transform="translate(379.511 62.229) rotate(180)" fill="#ff9d00"/>
          <g id="Grupo_150977" data-name="Grupo 150977">
            <rect id="Rectángulo_44709" data-name="Rectángulo 44709" width="5.184" height="0.716" transform="translate(374.136 58.292) rotate(180)" fill="#c5d6e1"/>
            <rect id="Rectángulo_44710" data-name="Rectángulo 44710" width="5.184" height="0.716" transform="translate(374.136 62.229) rotate(180)" fill="#c5d6e1"/>
            <rect id="Rectángulo_44711" data-name="Rectángulo 44711" width="5.184" height="0.716" transform="translate(374.136 60.917) rotate(180)" fill="#c5d6e1"/>
            <rect id="Rectángulo_44712" data-name="Rectángulo 44712" width="5.184" height="0.716" transform="translate(374.136 59.604) rotate(180)" fill="#c5d6e1"/>
          </g>
        </g>
      </g>
      <rect id="Rectángulo_44713" data-name="Rectángulo 44713" width="46.253" height="1.823" transform="translate(411.306 71.571) rotate(180)" fill="#ff9d00"/>
      <g id="Grupo_150981" data-name="Grupo 150981">
        <g id="Grupo_150980" data-name="Grupo 150980">
          <rect id="Rectángulo_44714" data-name="Rectángulo 44714" width="3.403" height="8.906" transform="translate(399.97 69.587) rotate(180)" fill="#747cb6"/>
          <rect id="Rectángulo_44715" data-name="Rectángulo 44715" width="3.403" height="0.779" transform="translate(399.97 62.232) rotate(180)" fill="#feffff"/>
          <rect id="Rectángulo_44716" data-name="Rectángulo 44716" width="3.403" height="0.779" transform="translate(399.97 68.577) rotate(180)" fill="#feffff"/>
        </g>
        <rect id="Rectángulo_44717" data-name="Rectángulo 44717" width="4.32" height="1.558" rx="0.461" transform="translate(400.428 61.104) rotate(180)" fill="#505887"/>
      </g>
      <g id="Grupo_150983" data-name="Grupo 150983">
        <g id="Grupo_150982" data-name="Grupo 150982">
          <rect id="Rectángulo_44718" data-name="Rectángulo 44718" width="3.403" height="8.906" transform="translate(404.843 69.748) rotate(180)" fill="#747cb6"/>
          <rect id="Rectángulo_44719" data-name="Rectángulo 44719" width="3.403" height="0.779" transform="translate(404.843 62.393) rotate(180)" fill="#feffff"/>
          <rect id="Rectángulo_44720" data-name="Rectángulo 44720" width="3.403" height="0.779" transform="translate(404.843 68.738) rotate(180)" fill="#feffff"/>
        </g>
        <rect id="Rectángulo_44721" data-name="Rectángulo 44721" width="4.32" height="1.558" rx="0.461" transform="translate(405.301 61.264) rotate(180)" fill="#505887"/>
      </g>
      <g id="Grupo_150985" data-name="Grupo 150985">
        <g id="Grupo_150984" data-name="Grupo 150984">
          <rect id="Rectángulo_44722" data-name="Rectángulo 44722" width="3.403" height="8.906" transform="translate(409.716 69.748) rotate(180)" fill="#747cb6"/>
          <rect id="Rectángulo_44723" data-name="Rectángulo 44723" width="3.403" height="0.779" transform="translate(409.716 62.393) rotate(180)" fill="#feffff"/>
          <rect id="Rectángulo_44724" data-name="Rectángulo 44724" width="3.403" height="0.779" transform="translate(409.716 68.738) rotate(180)" fill="#feffff"/>
        </g>
        <rect id="Rectángulo_44725" data-name="Rectángulo 44725" width="4.32" height="1.558" rx="0.461" transform="translate(410.175 61.264) rotate(180)" fill="#505887"/>
      </g>
    </g>
    <g id="Grupo_151002" data-name="Grupo 151002" transform="translate(218.448 22)">
      <g id="Grupo_150976-2" data-name="Grupo 150976">
        <rect id="Rectángulo_44699-2" data-name="Rectángulo 44699" width="12.977" height="14.027" transform="translate(395.212 69.838) rotate(180)" fill="#fff"/>
        <rect id="Rectángulo_44700-2" data-name="Rectángulo 44700" width="8.063" height="3.022" transform="translate(392.755 67.588) rotate(180)" fill="#c5d6e1"/>
        <g id="Grupo_150975-2" data-name="Grupo 150975">
          <rect id="Rectángulo_44701-2" data-name="Rectángulo 44701" width="4.803" height="4.803" transform="translate(394.004 62.229) rotate(180)" fill="#ff9d00"/>
          <g id="Grupo_150974-2" data-name="Grupo 150974">
            <rect id="Rectángulo_44702-2" data-name="Rectángulo 44702" width="5.184" height="0.716" transform="translate(388.628 58.292) rotate(180)" fill="#c5d6e1"/>
            <rect id="Rectángulo_44703-2" data-name="Rectángulo 44703" width="5.184" height="0.716" transform="translate(388.628 62.229) rotate(180)" fill="#c5d6e1"/>
            <rect id="Rectángulo_44704-2" data-name="Rectángulo 44704" width="5.184" height="0.716" transform="translate(388.628 60.917) rotate(180)" fill="#c5d6e1"/>
            <rect id="Rectángulo_44705-2" data-name="Rectángulo 44705" width="5.184" height="0.716" transform="translate(388.628 59.604) rotate(180)" fill="#c5d6e1"/>
          </g>
        </g>
      </g>
      <g id="Grupo_150979-2" data-name="Grupo 150979">
        <rect id="Rectángulo_44706-2" data-name="Rectángulo 44706" width="12.977" height="14.027" transform="translate(380.72 69.838) rotate(180)" fill="#fff"/>
        <rect id="Rectángulo_44707-2" data-name="Rectángulo 44707" width="8.063" height="3.022" transform="translate(378.263 67.588) rotate(180)" fill="#c5d6e1"/>
        <g id="Grupo_150978-2" data-name="Grupo 150978">
          <rect id="Rectángulo_44708-2" data-name="Rectángulo 44708" width="4.803" height="4.803" transform="translate(379.511 62.229) rotate(180)" fill="#ff9d00"/>
          <g id="Grupo_150977-2" data-name="Grupo 150977">
            <rect id="Rectángulo_44709-2" data-name="Rectángulo 44709" width="5.184" height="0.716" transform="translate(374.136 58.292) rotate(180)" fill="#c5d6e1"/>
            <rect id="Rectángulo_44710-2" data-name="Rectángulo 44710" width="5.184" height="0.716" transform="translate(374.136 62.229) rotate(180)" fill="#c5d6e1"/>
            <rect id="Rectángulo_44711-2" data-name="Rectángulo 44711" width="5.184" height="0.716" transform="translate(374.136 60.917) rotate(180)" fill="#c5d6e1"/>
            <rect id="Rectángulo_44712-2" data-name="Rectángulo 44712" width="5.184" height="0.716" transform="translate(374.136 59.604) rotate(180)" fill="#c5d6e1"/>
          </g>
        </g>
      </g>
      <rect id="Rectángulo_44713-2" data-name="Rectángulo 44713" width="46.253" height="1.823" transform="translate(411.306 71.571) rotate(180)" fill="#ff9d00"/>
      <g id="Grupo_150981-2" data-name="Grupo 150981">
        <g id="Grupo_150980-2" data-name="Grupo 150980">
          <rect id="Rectángulo_44714-2" data-name="Rectángulo 44714" width="3.403" height="8.906" transform="translate(399.97 69.587) rotate(180)" fill="#747cb6"/>
          <rect id="Rectángulo_44715-2" data-name="Rectángulo 44715" width="3.403" height="0.779" transform="translate(399.97 62.232) rotate(180)" fill="#feffff"/>
          <rect id="Rectángulo_44716-2" data-name="Rectángulo 44716" width="3.403" height="0.779" transform="translate(399.97 68.577) rotate(180)" fill="#feffff"/>
        </g>
        <rect id="Rectángulo_44717-2" data-name="Rectángulo 44717" width="4.32" height="1.558" rx="0.461" transform="translate(400.428 61.104) rotate(180)" fill="#505887"/>
      </g>
      <g id="Grupo_150983-2" data-name="Grupo 150983">
        <g id="Grupo_150982-2" data-name="Grupo 150982">
          <rect id="Rectángulo_44718-2" data-name="Rectángulo 44718" width="3.403" height="8.906" transform="translate(404.843 69.748) rotate(180)" fill="#747cb6"/>
          <rect id="Rectángulo_44719-2" data-name="Rectángulo 44719" width="3.403" height="0.779" transform="translate(404.843 62.393) rotate(180)" fill="#feffff"/>
          <rect id="Rectángulo_44720-2" data-name="Rectángulo 44720" width="3.403" height="0.779" transform="translate(404.843 68.738) rotate(180)" fill="#feffff"/>
        </g>
        <rect id="Rectángulo_44721-2" data-name="Rectángulo 44721" width="4.32" height="1.558" rx="0.461" transform="translate(405.301 61.264) rotate(180)" fill="#505887"/>
      </g>
      <g id="Grupo_150985-2" data-name="Grupo 150985">
        <g id="Grupo_150984-2" data-name="Grupo 150984">
          <rect id="Rectángulo_44722-2" data-name="Rectángulo 44722" width="3.403" height="8.906" transform="translate(409.716 69.748) rotate(180)" fill="#747cb6"/>
          <rect id="Rectángulo_44723-2" data-name="Rectángulo 44723" width="3.403" height="0.779" transform="translate(409.716 62.393) rotate(180)" fill="#feffff"/>
          <rect id="Rectángulo_44724-2" data-name="Rectángulo 44724" width="3.403" height="0.779" transform="translate(409.716 68.738) rotate(180)" fill="#feffff"/>
        </g>
        <rect id="Rectángulo_44725-2" data-name="Rectángulo 44725" width="4.32" height="1.558" rx="0.461" transform="translate(410.175 61.264) rotate(180)" fill="#505887"/>
      </g>
    </g>
    <g id="Grupo_150992" data-name="Grupo 150992" transform="translate(167.195)">
      <path id="Trazado_187938" data-name="Trazado 187938" d="M344.92,175.355s16.147,4.134,36.8-.56l-17.495-14.27Z" fill="#e2eaed"/>
      <g id="Grupo_150991" data-name="Grupo 150991">
        <path id="Trazado_187939" data-name="Trazado 187939" d="M310.959,103.642c-.029-.647-.163-1.526-.266-2.436-.332-2.947,1.44-2.578,1.44-2.578L312.9,102l.633,2.544c.934,1.747,1.635,6.883,1.635,6.883l-2.282,1.2-2.076-.923a1.093,1.093,0,0,1-.263-.051l-3.629-1.68h0l-4.882-2.26c-.6-.249-1.1-.6-.854-1.209l.046-.111c.249-.6.839-.468,1.443-.218l2.159.775-3.993-1.848c-.6-.25-1.1-.606-.854-1.21l.046-.111c.249-.6.839-.467,1.443-.218l.427.154-2.147-1.137c-.589-.281-1.069-.664-.788-1.254l.052-.108c.281-.589.863-.422,1.452-.141l3.042,1.281-2.036-1.367c-.557-.341-.994-.771-.653-1.329l.062-.1c.341-.557.9-.33,1.459.011l7.239,3.979A7.545,7.545,0,0,0,310.959,103.642Z" fill="#e07b4d"/>
        <path id="Trazado_187940" data-name="Trazado 187940" d="M337.812,101.155c-.858,1.322-10.174,13.131-10.174,13.131-2.787-1.129-13.565-7.51-13.565-7.51-2.348,1.322-3.523,4.878-3.523,4.878a96.839,96.839,0,0,0,10.07,7.529,40.694,40.694,0,0,0,5.844,3.035c5.607,2.2,16.523-15.149,16.523-15.149Z" fill="#e07b4d"/>
        <path id="Trazado_187941" data-name="Trazado 187941" d="M348.794,146.155l12.878,1.143c-.007,4.254.29,9.02.061,14.987-.477,12.389-.578,27.476-.984,39.919-.273,8.368-.055,16.229.229,20.879L354.631,223C352.615,206.338,348.331,164.307,348.794,146.155Z" fill="#003862"/>
        <path id="Trazado_187942" data-name="Trazado 187942" d="M384.8,222.468h-5.758s-20.962-74.821-19.911-74.822l16.042-.329C375.18,149.744,384.8,222.468,384.8,222.468Z" fill="#003862"/>
        <path id="Trazado_187943" data-name="Trazado 187943" d="M346.65,146.451l17.022,1.12v.075l-5.807.166c-.366,0,1.979,9.06,5.189,20.864-.219,5.167-1.375,43.711-1.617,49.132,0,0-.54,2.1-7.932,0C352.031,203.212,346.422,155.411,346.65,146.451Z" fill="#003862"/>
        <path id="Trazado_187944" data-name="Trazado 187944" d="M348.794,146.155c0-5.76,6.107-10.43,13.639-10.43s13.64,4.67,13.64,10.43a8.06,8.06,0,0,1-.18,1.618c.295,3.17,6.623,53.413,8.91,70.319a23.208,23.208,0,0,1-7.814,0c-.76-2.728-11.036-38.851-11.792-41.594-.742-2.692-1.462-5.321-2.144-7.826-1.267-4.659-2.4-8.877-3.279-12.292C353.515,155.438,348.794,151.22,348.794,146.155Z" fill="#003862"/>
        <path id="Trazado_187945" data-name="Trazado 187945" d="M356.134,147.3c8.512,1.421,16.546-1.024,20.218-2.425l-.187,2.5a1.094,1.094,0,0,1-.77.967c-3.812,1.165-21.833,6.116-29.163-1.956a1.082,1.082,0,0,1-.275-.705c-.034-1.438-.078-2.927-.13-4.449A16.226,16.226,0,0,0,356.134,147.3Z" fill="#1a5789"/>
        <path id="Trazado_187946" data-name="Trazado 187946" d="M366.521,83.3c-.32,3.262-9.244,5.517-9,.261l.914-10.487,8.413-.446C366.131,77.165,365.915,81.01,366.521,83.3Z" fill="#e07b4d"/>
        <path id="Trazado_187947" data-name="Trazado 187947" d="M357.01,79.661s-1.171-9.773-.2-12.561l1.706-11.492c.976-2.788,3.332-5.223,5.991-4.768l6.526,1.115c2.66.454,4.57,3.808,3.6,6.6l-6.32,16.19C367.337,77.528,363.857,80.768,357.01,79.661Z" fill="#e07b4d"/>
        <path id="Trazado_187948" data-name="Trazado 187948" d="M356.922,79.654l-.177-.015c-3.841-.656-5.821-4.92-5.165-8.761l1.847-17.456a1.817,1.817,0,0,1,2.092-1.481l13.026,2.226c.982.168,2.85,1.323,2.682,2.305l-3.52,14.964C366.8,76.725,362.21,80.558,356.922,79.654Z" fill="#ec9b66"/>
        <path id="Trazado_187949" data-name="Trazado 187949" d="M353.7,64.223c-.231.988.084,1.9.7,2.05s1.306-.54,1.536-1.528-.084-1.906-.7-2.05S353.935,63.235,353.7,64.223Z" fill="#17213f"/>
        <path id="Trazado_187950" data-name="Trazado 187950" d="M362.553,66.115c-.28.975-.012,1.907.6,2.083s1.332-.474,1.611-1.449.012-1.907-.6-2.083S362.833,65.14,362.553,66.115Z" fill="#17213f"/>
        <path id="Trazado_187951" data-name="Trazado 187951" d="M354.094,60.289a9.932,9.932,0,0,1,2.662.5.655.655,0,0,0,.843-.474v0a.657.657,0,0,0-.383-.763,8.127,8.127,0,0,0-3.1-.587.655.655,0,0,0-.631.58h0A.656.656,0,0,0,354.094,60.289Z" fill="#603e1d"/>
        <path id="Trazado_187952" data-name="Trazado 187952" d="M363,62.422a10.684,10.684,0,0,1,2.929.711.656.656,0,0,0,.866-.433l.024-.085a.658.658,0,0,0-.343-.783,8.761,8.761,0,0,0-3.37-.815.657.657,0,0,0-.66.548l-.015.085A.656.656,0,0,0,363,62.422Z" fill="#603e1d"/>
        <path id="Trazado_187953" data-name="Trazado 187953" d="M365.135,68.681s-.2-.94-1.749-1.433a4.146,4.146,0,0,0-3.111.5l2.084,1.434Z" fill="#ec9b66"/>
        <path id="Trazado_187954" data-name="Trazado 187954" d="M357.181,66.758s-.2-.94-1.749-1.433a4.15,4.15,0,0,0-3.111.505l2.084,1.434Z" fill="#ec9b66"/>
        <path id="Trazado_187955" data-name="Trazado 187955" d="M369.6,57.934a60.4,60.4,0,0,1-11.371-.8c-4.547-.974-5.562-2.03-5.562-2.03a18.919,18.919,0,0,1,.542-2.38,5.5,5.5,0,0,1,6.2-3.86c1.1.189,2.5.426,4.248.716,5.643.934,9.831,1.479,11.563,5.562s-1.285,9.6-3.612,13.425l-1.57-.419S370.127,65.636,369.6,57.934Z" fill="#603e1d"/>
        <path id="Trazado_187956" data-name="Trazado 187956" d="M372.835,71.65c-1.2,1.685-3.049,2.43-4.122,1.664a1.6,1.6,0,0,1-.283-.261c-.758-.9-.565-2.661.52-4.18,1.2-1.686,3.049-2.431,4.122-1.664S374.039,69.964,372.835,71.65Z" fill="#e07b4d"/>
        <path id="Trazado_187957" data-name="Trazado 187957" d="M354.12,73.41c-.079-.346-.133-.666-.166-.915a.3.3,0,0,1,.413-.309,17.112,17.112,0,0,0,1.677.645,14.835,14.835,0,0,0,3.817.221.3.3,0,0,1,.272.437,8.89,8.89,0,0,1-.616.964,27.117,27.117,0,0,1-3.52-.415A15.371,15.371,0,0,1,354.12,73.41Z" fill="#fff"/>
        <path id="Trazado_187958" data-name="Trazado 187958" d="M357.013,75.19a5.281,5.281,0,0,1,1.766.1,3.118,3.118,0,0,1-2.453,1.01,1.67,1.67,0,0,1-.59-.184A2.383,2.383,0,0,1,357.013,75.19Z" fill="#fff"/>
        <path id="Trazado_187959" data-name="Trazado 187959" d="M354.12,73.41a15.371,15.371,0,0,0,1.877.628,27.117,27.117,0,0,0,3.52.415,6.616,6.616,0,0,1-.738.84,5.281,5.281,0,0,0-1.766-.1,2.383,2.383,0,0,0-1.277.929A3.965,3.965,0,0,1,354.12,73.41Z" fill="#fff"/>
        <g id="Grupo_150987" data-name="Grupo 150987">
          <path id="Trazado_187960" data-name="Trazado 187960" d="M377.686,222.59l-3.34-11.563a.728.728,0,0,1,.781-.645l10.217.184a.734.734,0,0,1,.731.569c.085.486,1.051,11.175,1.172,11.881a3.682,3.682,0,0,1,1.5,2.961l.008,2.257H375.463l-.008-2.257A3.63,3.63,0,0,1,377.686,222.59Z" fill="#1a5789"/>
          <path id="Trazado_187961" data-name="Trazado 187961" d="M375.468,229.414h13.289l-.009-1.31H375.458Z" fill="#003c61"/>
          <path id="Trazado_187962" data-name="Trazado 187962" d="M341.592,229.337h21.455a.275.275,0,0,0,.27-.326l-.188-.977H341.211l-.016.9A.4.4,0,0,0,341.592,229.337Z" fill="#003c61"/>
          <path id="Trazado_187963" data-name="Trazado 187963" d="M346.674,224.718l.347-.056c8.694-.761,3.258-13.119,5.685-14.281a3.227,3.227,0,0,1,1.062,0,10.345,10.345,0,0,0,8.477.034.735.735,0,0,1,.731.735L362.867,222c0,.165,0,.33.01.5l.3,5.768-21.934.074C340.877,224.973,343.663,224.718,346.674,224.718Z" fill="#1a5789"/>
        </g>
        <g id="Grupo_150988" data-name="Grupo 150988">
          <path id="Trazado_187964" data-name="Trazado 187964" d="M357.726,70.4a2.514,2.514,0,0,1-1.417-.85.823.823,0,0,1-.082-.653c.216-.745,1.155-.846,1.581-.853l.729-2.155.505.171-.857,2.535-.206-.015c-.011,0-1.087-.063-1.239.466a.278.278,0,0,0,.03.236,2.071,2.071,0,0,0,1.081.6Z" fill="#e07b4d"/>
        </g>
        <g id="Grupo_150989" data-name="Grupo 150989">
          <path id="Trazado_187965" data-name="Trazado 187965" d="M361.152,91.9c7.723-.542,10.63-5.263,11.65-7.85-1.252-.719-2.5-1.445-3.679-2.2a8.38,8.38,0,0,1-.231,3.175c-.812,3.045-6.571,4.669-9.375,4.141a6.052,6.052,0,0,1-.936-.258l.932-1.348-3.9-5.076a20.814,20.814,0,0,0-4.02,1.741C351.947,87.3,353.563,92.429,361.152,91.9Z" fill="#81d4fa"/>
          <path id="Trazado_187966" data-name="Trazado 187966" d="M389.6,108.007c-.846-4.954-4.35-15.345-9.522-19.313h0a55.154,55.154,0,0,0-7.278-4.648c-1.02,2.587-3.927,7.308-11.65,7.85-7.589.533-9.205-4.6-9.563-7.678-4.519,2.437-12.038,7.947-18.272,19.6-.792,1.481-1.525,2.588-2.253,3.8l7.73,6.277c1.185-1.714,1.711-2.209,3.14-4.409.419-.646,2.786-.594,3.093-1.238.039,11.379.479,23.54.8,32.981a16.226,16.226,0,0,0,10.307,6.065c8.512,1.421,16.546-1.024,20.218-2.425l.794-10.634,1.3-25.251c.383,3,2.1,6.047,2.219,8.9a12.976,12.976,0,0,0,9.234-.42A33.731,33.731,0,0,0,389.6,108.007Z" fill="#81d4fa"/>
        </g>
        <path id="Trazado_187967" data-name="Trazado 187967" d="M368.892,85.018c-.812,3.045-6.571,4.669-9.375,4.141a4.909,4.909,0,0,1-4.266-4.912,7.059,7.059,0,0,1,.358-1.77c1.163-.633,2.287-1.284,3.321-1.977a8.85,8.85,0,0,1,4.144-1.15,9.81,9.81,0,0,1,4.356,1.341c.542.395,1.11.777,1.693,1.152A8.38,8.38,0,0,1,368.892,85.018Z" fill="#e07b4d"/>
        <rect id="Rectángulo_44726" data-name="Rectángulo 44726" width="6.628" height="2.018" transform="translate(366.798 130.456)" fill="#003c61"/>
        <rect id="Rectángulo_44727" data-name="Rectángulo 44727" width="6.628" height="2.018" transform="translate(348.275 130.456)" fill="#003c61"/>
        <path id="Trazado_187968" data-name="Trazado 187968" d="M360.17,93.356l.4,82s-9.593,1.17-15.648,0c0,0-1.69-58.122-.916-65.519l-12.831,13.9a3.937,3.937,0,0,1-5.209.512l-12.83-9.339,3.786-6.99,10.186,5.014,8.332-13.143s5.88-10.452,16.151-15.569C351.589,84.218,349.041,91.619,360.17,93.356Z" fill="#d8edf6"/>
        <rect id="Rectángulo_44728" data-name="Rectángulo 44728" width="10.632" height="2.042" transform="translate(346.891 149.894)" fill="#e2eaed"/>
        <path id="Trazado_187969" data-name="Trazado 187969" d="M364.225,93.215l1.834,82.14a93.434,93.434,0,0,0,15.661-.56l-4.976-26s1.831-32.482,1.878-35.58l1.459-24.517a35.7,35.7,0,0,0-7.279-4.648S374.162,90.352,364.225,93.215Z" fill="#d8edf6"/>
        <rect id="Rectángulo_44729" data-name="Rectángulo 44729" width="10.632" height="2.042" transform="translate(369.601 149.894)" fill="#e2eaed"/>
        <g id="Grupo_150990" data-name="Grupo 150990">
          <path id="Trazado_187970" data-name="Trazado 187970" d="M366.983,116.156a1.11,1.11,0,1,1,1.11,1.11A1.11,1.11,0,0,1,366.983,116.156Z" fill="#e2eaed"/>
          <path id="Trazado_187971" data-name="Trazado 187971" d="M366.983,123.259a1.11,1.11,0,1,1,1.11,1.11A1.11,1.11,0,0,1,366.983,123.259Z" fill="#e2eaed"/>
          <path id="Trazado_187972" data-name="Trazado 187972" d="M366.983,130.593a1.11,1.11,0,1,1,1.11,1.11A1.11,1.11,0,0,1,366.983,130.593Z" fill="#e2eaed"/>
          <path id="Trazado_187973" data-name="Trazado 187973" d="M366.983,137.7a1.11,1.11,0,1,1,1.11,1.11A1.11,1.11,0,0,1,366.983,137.7Z" fill="#e2eaed"/>
          <path id="Trazado_187974" data-name="Trazado 187974" d="M366.983,144.8a1.11,1.11,0,1,1,1.11,1.11A1.11,1.11,0,0,1,366.983,144.8Z" fill="#e2eaed"/>
        </g>
        <path id="Trazado_187975" data-name="Trazado 187975" d="M373.061,159.17l1.956-8.024a7.461,7.461,0,0,0-.269-1.354c-.617.2-1.431.555-2.283.891-2.759,1.088-2.864-.718-2.864-.718l3.057-1.623,2.291-1.274a9.227,9.227,0,0,1,1.583-1.1c8.614-15.829,3.031-37.828,3.031-37.828l9.152-.819c3.643,21.25-3.795,35.705-5.964,39.359l-.18,1.152a1.139,1.139,0,0,1,.019.268l-.677,3.941v0h0l-.911,5.3c-.083.648-.3,1.223-.945,1.14l-.119-.016c-.648-.083-.67-.688-.587-1.336l.187-2.286-.745,4.337c-.083.648-.3,1.222-.945,1.139l-.119-.016c-.648-.083-.67-.688-.587-1.336l.037-.452-.538,2.368c-.118.643-.362,1.205-1.005,1.088l-.118-.022c-.643-.118-.632-.723-.514-1.366l.444-3.27-.79,2.322c-.184.627-.485,1.161-1.112.977l-.115-.034C372.8,160.4,372.877,159.8,373.061,159.17Z" fill="#e07b4d"/>
        <path id="Trazado_187976" data-name="Trazado 187976" d="M380.081,88.694s19.194,13.533,6.1,54.793l-7.675-3.38s3.685-18.682.493-25.488l-3.379-7.7Z" fill="#d8edf6"/>
        <path id="Trazado_187977" data-name="Trazado 187977" d="M377.753,140.107l8.7,3.837.81-1.693-8.7-3.729Z" fill="#e2eaed"/>
        <path id="Trazado_187978" data-name="Trazado 187978" d="M316.966,107.081l-5.042,8.057,1.559,1.044,4.936-8.078Z" fill="#e2eaed"/>
      </g>
    </g>
    <g id="Grupo_150997" data-name="Grupo 150997" transform="translate(39)">
      <g id="Grupo_150994" data-name="Grupo 150994" transform="translate(283.501 141.592)">
        <g id="Grupo_150993" data-name="Grupo 150993" transform="translate(10.129 3.044)">
          <path id="Trazado_187979" data-name="Trazado 187979" d="M672.548,229.79H330L293.63,144.636H672.548Z" transform="translate(-293.63 -144.636)" fill="#00bcd4"/>
          <path id="Trazado_187980" data-name="Trazado 187980" d="M305.6,229.79l389.85,1.113V144.636H305.6Z" transform="translate(-302.583 -144.636)" fill="#81d4fa"/>
        </g>
        <rect id="Rectángulo_44730" data-name="Rectángulo 44730" width="411.15" height="10.878" rx="3.162" fill="#58bdec"/>
      </g>
      <g id="Grupo_150995" data-name="Grupo 150995" transform="translate(465.29 167.019)">
        <rect id="Rectángulo_44731" data-name="Rectángulo 44731" width="10.446" height="47.573" rx="2.53" transform="translate(18.563)" fill="#00bcd4"/>
        <rect id="Rectángulo_44732" data-name="Rectángulo 44732" width="10.446" height="47.573" rx="2.53" transform="translate(47.573 18.563) rotate(90)" fill="#00bcd4"/>
      </g>
      <g id="Grupo_150996" data-name="Grupo 150996" transform="translate(465.29 163.426)">
        <rect id="Rectángulo_44733" data-name="Rectángulo 44733" width="10.446" height="47.573" rx="2.53" transform="translate(18.563)" fill="#fff"/>
        <rect id="Rectángulo_44734" data-name="Rectángulo 44734" width="10.446" height="47.573" rx="2.53" transform="translate(47.573 18.563) rotate(90)" fill="#fff"/>
      </g>
    </g>
    <g id="Grupo_151000" data-name="Grupo 151000" transform="translate(167.195)">
      <path id="Rectángulo_44735" data-name="Rectángulo 44735" d="M.782,0H17.8a.782.782,0,0,1,.782.782v8.45a.782.782,0,0,1-.782.782H.942A.942.942,0,0,1,0,9.072V.782A.782.782,0,0,1,.782,0Z" transform="translate(311.03 108.331) rotate(180)" fill="#feffff"/>
      <g id="Grupo_150999" data-name="Grupo 150999">
        <rect id="Rectángulo_44736" data-name="Rectángulo 44736" width="5.878" height="5.5" transform="translate(309.638 106.074) rotate(180)" fill="#7e5ee3"/>
        <g id="Grupo_150998" data-name="Grupo 150998">
          <rect id="Rectángulo_44737" data-name="Rectángulo 44737" width="8.985" height="0.941" transform="translate(302.822 101.515) rotate(180)" fill="#c5d6e1"/>
          <rect id="Rectángulo_44738" data-name="Rectángulo 44738" width="8.985" height="0.941" transform="translate(302.822 103.035) rotate(180)" fill="#c5d6e1"/>
          <rect id="Rectángulo_44739" data-name="Rectángulo 44739" width="8.985" height="0.941" transform="translate(302.822 104.555) rotate(180)" fill="#c5d6e1"/>
          <rect id="Rectángulo_44740" data-name="Rectángulo 44740" width="8.985" height="0.941" transform="translate(302.822 106.074) rotate(180)" fill="#c5d6e1"/>
        </g>
      </g>
    </g>
    <path id="Trazado_187981" data-name="Trazado 187981" d="M787.346,229.073c4.794,0,8.684.874,8.684,1.951h0Z" transform="translate(-7.529 0.342)" fill="#9cadb7"/>
    <rect id="Rectángulo_44742" data-name="Rectángulo 44742" width="505" height="5" rx="2.5" transform="translate(237.5 229.521)" fill="#afafaf"/>
  </g>
</svg>
