<svg xmlns="http://www.w3.org/2000/svg" xmlns:xlink="http://www.w3.org/1999/xlink" width="610.999" height="456.485" viewBox="0 0 610.999 456.485">
  <defs>
    <filter id="Elipse_4436" x="131.999" y="157.42" width="141.934" height="141.934" filterUnits="userSpaceOnUse">
      <feOffset dy="3" input="SourceAlpha"/>
      <feGaussianBlur stdDeviation="3" result="blur"/>
      <feFlood flood-opacity="0.161"/>
      <feComposite operator="in" in2="blur"/>
      <feComposite in="SourceGraphic"/>
    </filter>
    <filter id="Elipse_4436-2" x="329.767" y="0" width="120.899" height="120.899" filterUnits="userSpaceOnUse">
      <feOffset dy="3" input="SourceAlpha"/>
      <feGaussianBlur stdDeviation="3" result="blur-2"/>
      <feFlood flood-opacity="0.161"/>
      <feComposite operator="in" in2="blur-2"/>
      <feComposite in="SourceGraphic"/>
    </filter>
    <filter id="Elipse_4436-3" x="329.767" y="117.729" width="120.899" height="120.899" filterUnits="userSpaceOnUse">
      <feOffset dy="3" input="SourceAlpha"/>
      <feGaussianBlur stdDeviation="3" result="blur-3"/>
      <feFlood flood-opacity="0.161"/>
      <feComposite operator="in" in2="blur-3"/>
      <feComposite in="SourceGraphic"/>
    </filter>
    <filter id="Elipse_4436-4" x="329.767" y="224.244" width="120.899" height="120.899" filterUnits="userSpaceOnUse">
      <feOffset dy="3" input="SourceAlpha"/>
      <feGaussianBlur stdDeviation="3" result="blur-4"/>
      <feFlood flood-opacity="0.161"/>
      <feComposite operator="in" in2="blur-4"/>
      <feComposite in="SourceGraphic"/>
    </filter>
    <filter id="Elipse_4436-5" x="329.767" y="335.586" width="120.899" height="120.899" filterUnits="userSpaceOnUse">
      <feOffset dy="3" input="SourceAlpha"/>
      <feGaussianBlur stdDeviation="3" result="blur-5"/>
      <feFlood flood-opacity="0.161"/>
      <feComposite operator="in" in2="blur-5"/>
      <feComposite in="SourceGraphic"/>
    </filter>
  </defs>
  <g id="Grupo_155982" data-name="Grupo 155982" transform="translate(-494.5 -4248.577)">
    <g id="Grupo_150942" data-name="Grupo 150942" transform="translate(-420.5 404.996)">
      <rect id="Rectángulo_32981" data-name="Rectángulo 32981" width="177" height="45.579" rx="5" transform="translate(1348.999 3883.241)" fill="#f6f6f6"/>
      <rect id="Rectángulo_44657" data-name="Rectángulo 44657" width="177" height="45.579" rx="5" transform="translate(1348.999 3996.277)" fill="#f6f6f6"/>
      <rect id="Rectángulo_44658" data-name="Rectángulo 44658" width="177" height="45.579" rx="5" transform="translate(1348.999 4108.277)" fill="#f6f6f6"/>
      <rect id="Rectángulo_44659" data-name="Rectángulo 44659" width="177" height="45.579" rx="5" transform="translate(1348.999 4219.618)" fill="#f6f6f6"/>
      <rect id="Rectángulo_44656" data-name="Rectángulo 44656" width="177" height="83.648" rx="5" transform="translate(915 4027)" fill="#f6f6f6"/>
      <line id="Línea_144" data-name="Línea 144" x1="47.5" y2="0.034" transform="translate(1173 4069.5)" fill="none" stroke="#ff9d00" stroke-width="3"/>
      <line id="Línea_354" data-name="Línea 354" x1="47.5" y2="0.034" transform="translate(1220.5 4009.174)" fill="none" stroke="#ff9d00" stroke-width="3"/>
      <line id="Línea_355" data-name="Línea 355" x1="47.5" y2="0.034" transform="translate(1220.5 4125.241)" fill="none" stroke="#ff9d00" stroke-width="3"/>
      <g id="Grupo_73312" data-name="Grupo 73312" transform="translate(505.999 -5752.09)">
        <g transform="matrix(1, 0, 0, 1, 409, 9595.67)" filter="url(#Elipse_4436)">
          <circle id="Elipse_4436-6" data-name="Elipse 4436" cx="61.967" cy="61.967" r="61.967" transform="translate(141 163.42)" fill="#fff"/>
        </g>
        <g id="Elipse_4437" data-name="Elipse 4437" transform="translate(563.046 9773.441)" fill="#00bcd4" stroke="#707070" stroke-width="1">
          <circle cx="47.943" cy="47.943" r="47.943" stroke="none"/>
          <circle cx="47.943" cy="47.943" r="47.443" fill="none"/>
        </g>
        <g id="Grupo_151022" data-name="Grupo 151022" transform="translate(528.5 9782.392)">
          <path id="Trazado_188009" data-name="Trazado 188009" d="M221.24,72.193h3.352a1.016,1.016,0,1,0,0-2.031H221.24a1.016,1.016,0,0,0,0,2.031Z" transform="translate(-141.602 -60.661)" fill="#fff"/>
          <path id="Trazado_188010" data-name="Trazado 188010" d="M271.511,465.771H264.95a1.016,1.016,0,0,0,0,2.031h6.561a1.016,1.016,0,0,0,0-2.031Z" transform="translate(-179.393 -402.697)" fill="#fff"/>
          <path id="Trazado_188011" data-name="Trazado 188011" d="M271.511,440.884H264.95a1.016,1.016,0,0,0,0,2.031h6.561a1.016,1.016,0,0,0,0-2.031Z" transform="translate(-179.393 -381.18)" fill="#fff"/>
          <path id="Trazado_188012" data-name="Trazado 188012" d="M271.511,416H264.95a1.016,1.016,0,0,0,0,2.031h6.561a1.016,1.016,0,0,0,0-2.031Z" transform="translate(-179.393 -359.664)" fill="#fff"/>
          <path id="Trazado_188013" data-name="Trazado 188013" d="M59.141,69.334H93.285a1.016,1.016,0,0,0,0-2.031H83.026a.707.707,0,0,1-.7-.7V41.87a.706.706,0,0,1,.7-.7h6.759v9.659A1.821,1.821,0,0,0,92.6,52.354l2.794-1.828,2.794,1.828A1.82,1.82,0,0,0,101,50.832V48.267a1.016,1.016,0,1,0-2.031,0V50.44L96.39,48.75a1.819,1.819,0,0,0-1.992,0L91.816,50.44V41.173h7.155v2.354a1.016,1.016,0,0,0,2.031,0V41.173h6.759a.706.706,0,0,1,.7.7V66.605a.706.706,0,0,1-.7.7H98.025a1.016,1.016,0,0,0,0,2.031h9.737a2.732,2.732,0,0,0,2.728-2.729V41.87a2.731,2.731,0,0,0-2.728-2.728H89.3l-1.8-.7,0-2.479a10.226,10.226,0,0,0,4.1-6.974,4.648,4.648,0,0,0,3.642-7.183,5.009,5.009,0,0,0-.043-3.342V15.9A12.766,12.766,0,0,0,84.743,3.363V3.047A3.051,3.051,0,0,0,81.7,0h-.765a3.051,3.051,0,0,0-3.048,3.047v.316A12.767,12.767,0,0,0,67.439,15.9v2.564a4.992,4.992,0,0,0-.019,3.4,4.46,4.46,0,0,0,.748,5.9,4.956,4.956,0,0,0,2.869,1.221,10.114,10.114,0,0,0,4.092,6.963v2.487c-.018.008-12.97,5.029-12.988,5.036l-.02.008a9.609,9.609,0,0,0-5.679,8.771V66.636a2.7,2.7,0,0,0,2.7,2.7ZM83.026,39.141A2.731,2.731,0,0,0,80.3,41.87v2.1c-.091-.119.2.211-3.67-4.143a1.8,1.8,0,0,0,.533-1.333V37.1a11.144,11.144,0,0,0,4.286.848,10.166,10.166,0,0,0,4.012-.821V38.5a1.964,1.964,0,0,0,.107.638H83.026ZM91.67,26.933V24.359a3.851,3.851,0,0,0,2.189-.7,2.6,2.6,0,0,1-2.189,3.276ZM93.156,15.9v.794a19.341,19.341,0,0,0-4.11-1.8A22.362,22.362,0,0,0,87.029,6.22,10.727,10.727,0,0,1,93.156,15.9ZM80.931,2.031H81.7a1.024,1.024,0,0,1,1.016,1.126c-.214,0-2.586,0-2.8,0A1.026,1.026,0,0,1,80.931,2.031ZM78.539,5.313a11.441,11.441,0,0,1,1.645-.127h2.257a11.631,11.631,0,0,1,1.645.127c1.563,1.96,2.628,5.31,2.893,9.043a27.994,27.994,0,0,0-11.334,0c.265-3.733,1.33-7.083,2.893-9.043ZM69.47,15.9A10.727,10.727,0,0,1,75.6,6.22,22.368,22.368,0,0,0,73.581,14.9a19.718,19.718,0,0,0-4.11,1.8Zm1.487,11.033a2.575,2.575,0,0,1-2.179-3.259,3.83,3.83,0,0,0,2.179.685ZM69.5,21.519a2.788,2.788,0,0,1-.184-2.273c3.1-2.406,8-3.437,12-3.437,3.981,0,8.844.989,12,3.438a2.806,2.806,0,0,1-.163,2.236c-.73,1.233-2.278.927-3.523.228h0a18.506,18.506,0,0,0-8.814-2.36A19.665,19.665,0,0,0,73,21.71c-1.229.69-2.757,1-3.5-.192Zm3.488,6.206V23.962A8.269,8.269,0,0,0,74,23.482a17.819,17.819,0,0,1,7.318-2.127,17.619,17.619,0,0,1,7.316,2.127,8.1,8.1,0,0,0,1.008.48v3.763a8.206,8.206,0,0,1-8.183,8.191h-.017a8.247,8.247,0,0,1-8.45-8.191Zm1.756,13.043L78.6,45.111l-2.428,2.008-4.508-5.158ZM58.474,52.254a7.646,7.646,0,0,1,4.411-6.889l6.765-2.623,5.077,5.809a1.891,1.891,0,0,0,2.643.214L80,46.59a1.916,1.916,0,0,0,.3-.31V66.605a2.876,2.876,0,0,0,.09.7H66.85V53.589a1.016,1.016,0,1,0-2.031,0V67.3H59.141a.668.668,0,0,1-.667-.667Z" fill="#fff"/>
        </g>
      </g>
      <path id="Trazado_187932" data-name="Trazado 187932" d="M-7321.933-9453.245H-7354.7v330.258h32.768" transform="translate(8575.699 13359.314)" fill="none" stroke="#ff9d00" stroke-width="3"/>
      <g id="Grupo_150932" data-name="Grupo 150932" transform="translate(703.767 -5909.51)">
        <g transform="matrix(1, 0, 0, 1, 211.23, 9753.09)" filter="url(#Elipse_4436-2)">
          <circle id="Elipse_4436-7" data-name="Elipse 4436" cx="51.45" cy="51.45" r="51.45" transform="translate(338.77 6)" fill="#fff"/>
        </g>
        <g id="Elipse_4437-2" data-name="Elipse 4437" transform="translate(560.832 9771.006)" fill="#00bcd4" stroke="#707070" stroke-width="1">
          <circle cx="39.806" cy="39.806" r="39.806" stroke="none"/>
          <circle cx="39.806" cy="39.806" r="39.306" fill="none"/>
        </g>
        <g id="Grupo_151023" data-name="Grupo 151023" transform="translate(559.317 9766.912)">
          <path id="Trazado_188016" data-name="Trazado 188016" d="M33.97,65.234h-.162v5.238a1.047,1.047,0,0,0,1.048,1.048H35.9v7.333H38V71.519h6.285v7.333h2.1V71.519h1.048a1.047,1.047,0,0,0,1.048-1.048V65.188a25.146,25.146,0,1,0-14.5.046Zm12.408,4.19H35.9v-3.7a25.076,25.076,0,0,0,10.475,0ZM41.141,18.1A23.046,23.046,0,1,1,18.1,41.141,23.072,23.072,0,0,1,41.141,18.1Z" fill="#fff"/>
          <path id="Trazado_188017" data-name="Trazado 188017" d="M105.048,115.236H116.57v-2.1H106.1v-9.874a2.718,2.718,0,0,1,.8-1.948,2.54,2.54,0,0,1,1.8-.748h.022l1.375.012-.842,5.054a1.046,1.046,0,0,0,.161.753l2.1,3.143a1.049,1.049,0,0,0,1.744,0l2.1-3.143a1.046,1.046,0,0,0,.161-.753l-.836-5.016,1.346.012c1.511.013,2.6,1.362,2.646,3.255v2.969h2.1v-2.994c-.067-2.718-1.641-4.779-3.854-5.226a6.286,6.286,0,1,0-9.117-.071,4.625,4.625,0,0,0-2.365,1.266A4.8,4.8,0,0,0,104,103.267v10.922a1.047,1.047,0,0,0,1.048,1.048Zm7.333-8.174-.994-1.491.829-4.972.331,0,.829,4.97Zm0-16.967a4.184,4.184,0,0,1,4.027,3.1,5.333,5.333,0,0,1-3.242-1.705,1.081,1.081,0,0,0-1.549,0,5.33,5.33,0,0,1-3.263,1.709A4.184,4.184,0,0,1,112.38,90.1Zm.01,3.539a7.365,7.365,0,0,0,4.049,1.644,4.175,4.175,0,0,1-8.117,0A7.357,7.357,0,0,0,112.391,93.634Z" transform="translate(-76.477 -62.572)" fill="#fff"/>
          <path id="Trazado_188018" data-name="Trazado 188018" d="M68.951,89.9A20.951,20.951,0,1,0,48,68.951,20.975,20.975,0,0,0,68.951,89.9Zm13.618-9.428h-4.19v-4.19h4.19Zm-7.333-6.285V70h4.19v4.19Zm1.048,2.1v4.19h-4.19v-4.19ZM68.951,50.1A18.838,18.838,0,0,1,84.664,79.351V75.236a1.047,1.047,0,0,0-1.048-1.048h-2.1V68.951A1.047,1.047,0,0,0,80.474,67.9H74.188a1.047,1.047,0,0,0-1.048,1.048v5.238h-2.1A1.047,1.047,0,0,0,70,75.236v6.285a1.047,1.047,0,0,0,1.048,1.048H81.957A18.845,18.845,0,1,1,68.951,50.1Z" transform="translate(-27.81 -27.81)" fill="#fff"/>
        </g>
      </g>
      <g id="Grupo_150938" data-name="Grupo 150938" transform="translate(703.767 -5791.781)">
        <g transform="matrix(1, 0, 0, 1, 211.23, 9635.36)" filter="url(#Elipse_4436-3)">
          <circle id="Elipse_4436-8" data-name="Elipse 4436" cx="51.45" cy="51.45" r="51.45" transform="translate(338.77 123.73)" fill="#fff"/>
        </g>
        <g id="Elipse_4437-3" data-name="Elipse 4437" transform="translate(560.832 9771.006)" fill="#00bcd4" stroke="#707070" stroke-width="1">
          <circle cx="39.806" cy="39.806" r="39.806" stroke="none"/>
          <circle cx="39.806" cy="39.806" r="39.306" fill="none"/>
        </g>
        <g id="Grupo_151024" data-name="Grupo 151024" transform="translate(559.317 9766.184)">
          <path id="Trazado_188016-2" data-name="Trazado 188016" d="M33.97,65.234h-.162v5.238a1.047,1.047,0,0,0,1.048,1.048H35.9v7.333H38V71.519h6.285v7.333h2.1V71.519h1.048a1.047,1.047,0,0,0,1.048-1.048V65.188a25.146,25.146,0,1,0-14.5.046Zm12.408,4.19H35.9v-3.7a25.076,25.076,0,0,0,10.475,0ZM41.141,18.1A23.046,23.046,0,1,1,18.1,41.141,23.072,23.072,0,0,1,41.141,18.1Z" fill="#fff"/>
          <path id="Trazado_188017-2" data-name="Trazado 188017" d="M105.048,115.236H116.57v-2.1H106.1v-9.874a2.718,2.718,0,0,1,.8-1.948,2.54,2.54,0,0,1,1.8-.748h.022l1.375.012-.842,5.054a1.046,1.046,0,0,0,.161.753l2.1,3.143a1.049,1.049,0,0,0,1.744,0l2.1-3.143a1.046,1.046,0,0,0,.161-.753l-.836-5.016,1.346.012c1.511.013,2.6,1.362,2.646,3.255v2.969h2.1v-2.994c-.067-2.718-1.641-4.779-3.854-5.226a6.286,6.286,0,1,0-9.117-.071,4.625,4.625,0,0,0-2.365,1.266A4.8,4.8,0,0,0,104,103.267v10.922a1.047,1.047,0,0,0,1.048,1.048Zm7.333-8.174-.994-1.491.829-4.972.331,0,.829,4.97Zm0-16.967a4.184,4.184,0,0,1,4.027,3.1,5.333,5.333,0,0,1-3.242-1.705,1.081,1.081,0,0,0-1.549,0,5.33,5.33,0,0,1-3.263,1.709A4.184,4.184,0,0,1,112.38,90.1Zm.01,3.539a7.365,7.365,0,0,0,4.049,1.644,4.175,4.175,0,0,1-8.117,0A7.357,7.357,0,0,0,112.391,93.634Z" transform="translate(-76.477 -62.572)" fill="#fff"/>
          <path id="Trazado_188018-2" data-name="Trazado 188018" d="M68.951,89.9A20.951,20.951,0,1,0,48,68.951,20.975,20.975,0,0,0,68.951,89.9Zm13.618-9.428h-4.19v-4.19h4.19Zm-7.333-6.285V70h4.19v4.19Zm1.048,2.1v4.19h-4.19v-4.19ZM68.951,50.1A18.838,18.838,0,0,1,84.664,79.351V75.236a1.047,1.047,0,0,0-1.048-1.048h-2.1V68.951A1.047,1.047,0,0,0,80.474,67.9H74.188a1.047,1.047,0,0,0-1.048,1.048v5.238h-2.1A1.047,1.047,0,0,0,70,75.236v6.285a1.047,1.047,0,0,0,1.048,1.048H81.957A18.845,18.845,0,1,1,68.951,50.1Z" transform="translate(-27.81 -27.81)" fill="#fff"/>
        </g>
      </g>
      <g id="Grupo_150939" data-name="Grupo 150939" transform="translate(703.767 -5685.266)">
        <g transform="matrix(1, 0, 0, 1, 211.23, 9528.85)" filter="url(#Elipse_4436-4)">
          <circle id="Elipse_4436-9" data-name="Elipse 4436" cx="51.45" cy="51.45" r="51.45" transform="translate(338.77 230.24)" fill="#fff"/>
        </g>
        <g id="Elipse_4437-4" data-name="Elipse 4437" transform="translate(560.832 9771.006)" fill="#00bcd4" stroke="#707070" stroke-width="1">
          <circle cx="39.806" cy="39.806" r="39.806" stroke="none"/>
          <circle cx="39.806" cy="39.806" r="39.306" fill="none"/>
        </g>
        <g id="Grupo_151025" data-name="Grupo 151025" transform="translate(559.317 9766.668)">
          <path id="Trazado_188016-3" data-name="Trazado 188016" d="M33.97,65.234h-.162v5.238a1.047,1.047,0,0,0,1.048,1.048H35.9v7.333H38V71.519h6.285v7.333h2.1V71.519h1.048a1.047,1.047,0,0,0,1.048-1.048V65.188a25.146,25.146,0,1,0-14.5.046Zm12.408,4.19H35.9v-3.7a25.076,25.076,0,0,0,10.475,0ZM41.141,18.1A23.046,23.046,0,1,1,18.1,41.141,23.072,23.072,0,0,1,41.141,18.1Z" fill="#fff"/>
          <path id="Trazado_188017-3" data-name="Trazado 188017" d="M105.048,115.236H116.57v-2.1H106.1v-9.874a2.718,2.718,0,0,1,.8-1.948,2.54,2.54,0,0,1,1.8-.748h.022l1.375.012-.842,5.054a1.046,1.046,0,0,0,.161.753l2.1,3.143a1.049,1.049,0,0,0,1.744,0l2.1-3.143a1.046,1.046,0,0,0,.161-.753l-.836-5.016,1.346.012c1.511.013,2.6,1.362,2.646,3.255v2.969h2.1v-2.994c-.067-2.718-1.641-4.779-3.854-5.226a6.286,6.286,0,1,0-9.117-.071,4.625,4.625,0,0,0-2.365,1.266A4.8,4.8,0,0,0,104,103.267v10.922a1.047,1.047,0,0,0,1.048,1.048Zm7.333-8.174-.994-1.491.829-4.972.331,0,.829,4.97Zm0-16.967a4.184,4.184,0,0,1,4.027,3.1,5.333,5.333,0,0,1-3.242-1.705,1.081,1.081,0,0,0-1.549,0,5.33,5.33,0,0,1-3.263,1.709A4.184,4.184,0,0,1,112.38,90.1Zm.01,3.539a7.365,7.365,0,0,0,4.049,1.644,4.175,4.175,0,0,1-8.117,0A7.357,7.357,0,0,0,112.391,93.634Z" transform="translate(-76.477 -62.572)" fill="#fff"/>
          <path id="Trazado_188018-3" data-name="Trazado 188018" d="M68.951,89.9A20.951,20.951,0,1,0,48,68.951,20.975,20.975,0,0,0,68.951,89.9Zm13.618-9.428h-4.19v-4.19h4.19Zm-7.333-6.285V70h4.19v4.19Zm1.048,2.1v4.19h-4.19v-4.19ZM68.951,50.1A18.838,18.838,0,0,1,84.664,79.351V75.236a1.047,1.047,0,0,0-1.048-1.048h-2.1V68.951A1.047,1.047,0,0,0,80.474,67.9H74.188a1.047,1.047,0,0,0-1.048,1.048v5.238h-2.1A1.047,1.047,0,0,0,70,75.236v6.285a1.047,1.047,0,0,0,1.048,1.048H81.957A18.845,18.845,0,1,1,68.951,50.1Z" transform="translate(-27.81 -27.81)" fill="#fff"/>
        </g>
      </g>
      <g id="Grupo_150941" data-name="Grupo 150941" transform="translate(703.767 -5573.924)">
        <g transform="matrix(1, 0, 0, 1, 211.23, 9417.5)" filter="url(#Elipse_4436-5)">
          <circle id="Elipse_4436-10" data-name="Elipse 4436" cx="51.45" cy="51.45" r="51.45" transform="translate(338.77 341.59)" fill="#fff"/>
        </g>
        <g id="Elipse_4437-5" data-name="Elipse 4437" transform="translate(560.832 9771.006)" fill="#00bcd4" stroke="#707070" stroke-width="1">
          <circle cx="39.806" cy="39.806" r="39.806" stroke="none"/>
          <circle cx="39.806" cy="39.806" r="39.306" fill="none"/>
        </g>
        <g id="Grupo_151026" data-name="Grupo 151026" transform="translate(559.317 9765.326)">
          <path id="Trazado_188016-4" data-name="Trazado 188016" d="M33.97,65.234h-.162v5.238a1.047,1.047,0,0,0,1.048,1.048H35.9v7.333H38V71.519h6.285v7.333h2.1V71.519h1.048a1.047,1.047,0,0,0,1.048-1.048V65.188a25.146,25.146,0,1,0-14.5.046Zm12.408,4.19H35.9v-3.7a25.076,25.076,0,0,0,10.475,0ZM41.141,18.1A23.046,23.046,0,1,1,18.1,41.141,23.072,23.072,0,0,1,41.141,18.1Z" fill="#fff"/>
          <path id="Trazado_188017-4" data-name="Trazado 188017" d="M105.048,115.236H116.57v-2.1H106.1v-9.874a2.718,2.718,0,0,1,.8-1.948,2.54,2.54,0,0,1,1.8-.748h.022l1.375.012-.842,5.054a1.046,1.046,0,0,0,.161.753l2.1,3.143a1.049,1.049,0,0,0,1.744,0l2.1-3.143a1.046,1.046,0,0,0,.161-.753l-.836-5.016,1.346.012c1.511.013,2.6,1.362,2.646,3.255v2.969h2.1v-2.994c-.067-2.718-1.641-4.779-3.854-5.226a6.286,6.286,0,1,0-9.117-.071,4.625,4.625,0,0,0-2.365,1.266A4.8,4.8,0,0,0,104,103.267v10.922a1.047,1.047,0,0,0,1.048,1.048Zm7.333-8.174-.994-1.491.829-4.972.331,0,.829,4.97Zm0-16.967a4.184,4.184,0,0,1,4.027,3.1,5.333,5.333,0,0,1-3.242-1.705,1.081,1.081,0,0,0-1.549,0,5.33,5.33,0,0,1-3.263,1.709A4.184,4.184,0,0,1,112.38,90.1Zm.01,3.539a7.365,7.365,0,0,0,4.049,1.644,4.175,4.175,0,0,1-8.117,0A7.357,7.357,0,0,0,112.391,93.634Z" transform="translate(-76.477 -62.572)" fill="#fff"/>
          <path id="Trazado_188018-4" data-name="Trazado 188018" d="M68.951,89.9A20.951,20.951,0,1,0,48,68.951,20.975,20.975,0,0,0,68.951,89.9Zm13.618-9.428h-4.19v-4.19h4.19Zm-7.333-6.285V70h4.19v4.19Zm1.048,2.1v4.19h-4.19v-4.19ZM68.951,50.1A18.838,18.838,0,0,1,84.664,79.351V75.236a1.047,1.047,0,0,0-1.048-1.048h-2.1V68.951A1.047,1.047,0,0,0,80.474,67.9H74.188a1.047,1.047,0,0,0-1.048,1.048v5.238h-2.1A1.047,1.047,0,0,0,70,75.236v6.285a1.047,1.047,0,0,0,1.048,1.048H81.957A18.845,18.845,0,1,1,68.951,50.1Z" transform="translate(-27.81 -27.81)" fill="#fff"/>
        </g>
      </g>
      <text id="Según_su_impacto_" data-name="Según su impacto
" transform="translate(930.999 4045)" fill="#12263f" font-size="16" font-family="Roboto-Bold, Roboto" font-weight="700"><tspan x="29.152" y="15">Según su </tspan><tspan x="33.379" y="39">impacto</tspan></text>
      <text id="Básicos_" data-name="Básicos
" transform="translate(1370.999 3898.241)" fill="#12263f" font-size="16" font-family="Roboto-Regular, Roboto"><tspan x="34.227" y="15">Básicos</tspan></text>
      <text id="Estratégicos_" data-name="Estratégicos
" transform="translate(1370.999 4013.277)" fill="#12263f" font-size="16" font-family="Roboto-Regular, Roboto"><tspan x="18.156" y="15">Estratégicos</tspan></text>
      <text id="Críticos_" data-name="Críticos
" transform="translate(1370.999 4123.277)" fill="#12263f" font-size="16" font-family="Roboto-Regular, Roboto"><tspan x="35.18" y="15">Críticos</tspan></text>
      <text id="Poco_trascendentes_" data-name="Poco trascendentes
" transform="translate(1370.999 4219.618)" fill="#12263f" font-size="16" font-family="Roboto-Regular, Roboto"><tspan x="44.191" y="15">Poco </tspan><tspan x="11.879" y="39">trascendentes</tspan></text>
    </g>
  </g>
</svg>
