<svg xmlns="http://www.w3.org/2000/svg" width="85" height="85" viewBox="0 0 85 85">
  <g id="Grupo_155295" data-name="Grupo 155295" transform="translate(-390 -2851.756)">
    <circle id="Elipse_4087" data-name="Elipse 4087" cx="42.5" cy="42.5" r="42.5" transform="translate(390 2851.756)" fill="#7e5ee3"/>
    <g id="Grupo_155294" data-name="Grupo 155294" transform="translate(395.2 2770.1)">
      <path id="Trazado_190352" data-name="Trazado 190352" d="M264.386,175.362l4.152-4.152a8.061,8.061,0,0,1,5.7-2.361h9.16l-2.815,7.063a2.015,2.015,0,0,0,3.3,2.171l12.175-12.175a2.015,2.015,0,0,0,0-2.85l-12.175-12.175a2.015,2.015,0,0,0-3.3,2.171l2.815,7.063h-7.913" transform="translate(-222.373 -40.494)" fill="none" stroke="#fff" stroke-linecap="round" stroke-linejoin="round" stroke-width="3"/>
      <path id="Trazado_190353" data-name="Trazado 190353" d="M7.5,180v30.7H25.726a16.123,16.123,0,0,0,11.4-4.722l4.887-4.887" transform="translate(0 -66.222)" fill="none" stroke="#fff" stroke-linecap="round" stroke-linejoin="round" stroke-width="3"/>
      <path id="Trazado_190354" data-name="Trazado 190354" d="M224.928,220.038l4.832,4.832-4.832,4.832" transform="translate(-188.216 -100.881)" fill="none" stroke="#fff" stroke-linecap="round" stroke-linejoin="round" stroke-width="3"/>
      <line id="Línea_363" data-name="Línea 363" x2="32.7" transform="translate(7.5 123.989)" fill="none" stroke="#fff" stroke-linecap="round" stroke-linejoin="round" stroke-width="3"/>
      <path id="Trazado_190355" data-name="Trazado 190355" d="M154.928,290.038l4.832,4.832-4.832,4.832" transform="translate(-127.621 -161.476)" fill="none" stroke="#fff" stroke-linecap="round" stroke-linejoin="round" stroke-width="3"/>
      <line id="Línea_364" data-name="Línea 364" x2="23.295" transform="translate(7.5 133.394)" fill="none" stroke="#fff" stroke-linecap="round" stroke-linejoin="round" stroke-width="3"/>
      <path id="Trazado_190356" data-name="Trazado 190356" d="M154.928,159.7l4.832-4.832-4.832-4.832" transform="translate(-127.621 -40.285)" fill="none" stroke="#fff" stroke-linecap="round" stroke-linejoin="round" stroke-width="3"/>
      <path id="Trazado_190357" data-name="Trazado 190357" d="M53.792,119.622H51.865a8.061,8.061,0,0,1-5.7-2.361l-9.039-9.039a16.122,16.122,0,0,0-11.4-4.722H7.5v11.084H30.8" fill="none" stroke="#fff" stroke-linecap="round" stroke-linejoin="round" stroke-width="3"/>
    </g>
  </g>
</svg>
