<svg xmlns="http://www.w3.org/2000/svg" xmlns:xlink="http://www.w3.org/1999/xlink" width="85" height="85" viewBox="0 0 85 85">
  <defs>
    <clipPath id="clip-path">
      <rect id="Rectángulo_46010" data-name="Rectángulo 46010" width="54.666" height="54.666" fill="none" stroke="#fff" stroke-width="1"/>
    </clipPath>
  </defs>
  <g id="Grupo_155298" data-name="Grupo 155298" transform="translate(-705 -2851.756)">
    <circle id="Elipse_4087" data-name="Elipse 4087" cx="42.5" cy="42.5" r="42.5" transform="translate(705 2851.756)" fill="#7e5ee3"/>
    <g id="g6351" transform="translate(718.287 2864)">
      <g id="g6353" transform="translate(42.124 34.909)">
        <path id="path6355" d="M529.834,435.939l-3.792,3.792" transform="translate(-526.042 -435.939)" fill="none" stroke="#fff" stroke-linecap="round" stroke-linejoin="round" stroke-width="2"/>
      </g>
      <g id="g6357" transform="translate(8.75 34.909)">
        <path id="path6359" d="M113.112,439.778l-3.841-3.841" transform="translate(-109.271 -435.937)" fill="none" stroke="#fff" stroke-linecap="round" stroke-linejoin="round" stroke-width="2"/>
      </g>
      <g id="g6361" transform="translate(0 0)">
        <g id="Grupo_155297" data-name="Grupo 155297" transform="translate(0 0)">
          <g id="Grupo_155296" data-name="Grupo 155296" clip-path="url(#clip-path)">
            <g id="g6363" transform="translate(0.8 0.801)">
              <g id="g6369" transform="translate(0 26.518)">
                <path id="path6371" d="M50.066,367.706H62.2a.854.854,0,0,0,.855-.877,26.547,26.547,0,0,0-53.065,0,.854.854,0,0,0,.855.877h40.3" transform="translate(-9.994 -341.16)" fill="none" stroke="#fff" stroke-linecap="round" stroke-linejoin="round" stroke-width="2"/>
              </g>
              <g id="g6373" transform="translate(5.339 31.871)">
                <path id="path6375" d="M76.667,429.194a21.194,21.194,0,1,1,42.388,0" transform="translate(-76.667 -408)" fill="none" stroke="#fff" stroke-linecap="round" stroke-linejoin="round" stroke-width="2"/>
              </g>
              <g id="g6377" transform="translate(27.428 40.959)">
                <path id="path6379" d="M352.519,529.693l8.906-7.855a1.387,1.387,0,0,1,1.957,1.957l-7.855,8.906" transform="translate(-352.519 -521.49)" fill="none" stroke="#fff" stroke-linecap="round" stroke-linejoin="round" stroke-width="2"/>
              </g>
              <g id="g6381" transform="translate(26.533 26.532)">
                <path id="path6383" d="M341.333,341.333v5.339" transform="translate(-341.333 -341.333)" fill="none" stroke="#fff" stroke-linecap="round" stroke-linejoin="round" stroke-width="2"/>
              </g>
              <g id="g6385" transform="translate(22.529 49.061)">
                <path id="path6387" d="M291.333,626.671a4,4,0,0,1,8.008,0" transform="translate(-291.333 -622.667)" fill="none" stroke="#fff" stroke-linecap="round" stroke-linejoin="round" stroke-width="2"/>
              </g>
              <g id="g6389" transform="translate(0.001)">
                <path id="path6391" d="M52.644,22.448l6.735-6.7a.427.427,0,0,1,.728.3V19.52a1.48,1.48,0,0,0,2.961,0V11.472A1.476,1.476,0,0,0,61.588,10H53.495a1.472,1.472,0,1,0,0,2.944h3.484a.428.428,0,0,1,.3.73L43.93,26.951a.854.854,0,0,1-1.2,0L34.49,18.759a2.975,2.975,0,0,0-4.186,0L10.436,38.517a1.467,1.467,0,0,0,0,2.082,1.486,1.486,0,0,0,2.094,0L31.795,21.44a.854.854,0,0,1,1.2,0l8.236,8.19a2.971,2.971,0,0,0,4.187,0l7.222-7.183" transform="translate(-10.003 -10)" fill="none" stroke="#fff" stroke-linecap="round" stroke-linejoin="round" stroke-width="2"/>
              </g>
            </g>
          </g>
        </g>
      </g>
    </g>
  </g>
</svg>
