<svg xmlns="http://www.w3.org/2000/svg" width="85" height="85" viewBox="0 0 85 85">
  <g id="Grupo_155299" data-name="Grupo 155299" transform="translate(-1019.676 -2852.029)">
    <circle id="Elipse_4087" data-name="Elipse 4087" cx="42.5" cy="42.5" r="42.5" transform="translate(1019.676 2852.029)" fill="#7e5ee3"/>
    <g id="OUTLINE" transform="translate(1018.85 2852.541)">
      <path id="Trazado_190358" data-name="Trazado 190358" d="M66.979,26.547a1.76,1.76,0,0,0,1.758-1.758V19.516A3.52,3.52,0,0,0,65.221,16H23.911a2.64,2.64,0,0,0-2.637,2.637V61.706H17.758A1.76,1.76,0,0,0,16,63.463v1.758a3.52,3.52,0,0,0,3.516,3.516h33.73V66.979H19.516a1.76,1.76,0,0,1-1.758-1.758V63.463H37.768a2.631,2.631,0,0,0,1.963.879H49.857l3.938,4.923,3.938-4.923H66.1a2.64,2.64,0,0,0,2.637-2.637V42.369A2.64,2.64,0,0,0,66.1,39.732H63.463V26.547Zm-3.516-7.032a1.758,1.758,0,1,1,3.516,0V24.79H63.463ZM37.095,42.369V61.706H23.032V18.637a.88.88,0,0,1,.879-.879H62.178a3.493,3.493,0,0,0-.473,1.758V39.732H39.732A2.64,2.64,0,0,0,37.095,42.369ZM66.1,41.49a.88.88,0,0,1,.879.879V61.706a.88.88,0,0,1-.879.879H56.888l-3.093,3.867L50.7,62.584H39.732a.88.88,0,0,1-.879-.879V42.369a.88.88,0,0,1,.879-.879Z" fill="#fff"/>
      <path id="Trazado_190359" data-name="Trazado 190359" d="M240.879,283.272h5.274v-4.883l.879-.793v-4.56a2.623,2.623,0,0,0-1.534-2.4,2.627,2.627,0,0,0,.655-1.743v-.36a2.622,2.622,0,0,0-1.458-2.359,2.65,2.65,0,0,0-2.358,0,2.623,2.623,0,0,0-1.458,2.359v.36a2.627,2.627,0,0,0,.655,1.743,2.623,2.623,0,0,0-1.534,2.4v4.56l.879.793Zm1.758-14.735a.879.879,0,0,1,1.758,0v.36a.875.875,0,0,1-.553.816l-.326.131-.326-.131a.875.875,0,0,1-.553-.816Zm-.879,4.5a.875.875,0,0,1,.553-.816l1.205-.482,1.205.482a.875.875,0,0,1,.553.816v3.778l-.879.793v3.907h-1.758v-3.907l-.879-.793Z" transform="translate(-199.389 -222.446)" fill="#fff"/>
      <path id="Trazado_190360" data-name="Trazado 190360" d="M320.879,283.272h5.274v-4.883l.879-.793v-4.56a2.623,2.623,0,0,0-1.534-2.4,2.627,2.627,0,0,0,.655-1.743v-.36a2.623,2.623,0,0,0-1.458-2.359,2.65,2.65,0,0,0-2.358,0,2.623,2.623,0,0,0-1.458,2.359v.36a2.627,2.627,0,0,0,.655,1.743,2.623,2.623,0,0,0-1.534,2.4v4.56l.879.793Zm1.758-14.735a.879.879,0,0,1,1.758,0v.36a.875.875,0,0,1-.553.816l-.326.131-.326-.131a.875.875,0,0,1-.553-.816Zm-.879,4.5a.875.875,0,0,1,.553-.816l1.205-.482,1.205.482a.875.875,0,0,1,.553.816v3.778l-.879.793v3.907h-1.758v-3.907l-.879-.793Z" transform="translate(-270.6 -222.446)" fill="#fff"/>
      <path id="Trazado_190361" data-name="Trazado 190361" d="M400.879,283.272h5.274v-4.883l.879-.793v-4.56a2.623,2.623,0,0,0-1.534-2.4,2.627,2.627,0,0,0,.655-1.743v-.36a2.623,2.623,0,0,0-1.458-2.359,2.65,2.65,0,0,0-2.358,0,2.623,2.623,0,0,0-1.458,2.359v.36a2.627,2.627,0,0,0,.655,1.743,2.623,2.623,0,0,0-1.534,2.4v4.56l.879.793Zm1.758-14.735a.879.879,0,0,1,1.758,0v.36a.875.875,0,0,1-.553.816l-.326.131-.326-.131a.875.875,0,0,1-.553-.816Zm-.879,4.5a.875.875,0,0,1,.553-.816l1.205-.482,1.205.482a.875.875,0,0,1,.553.816v3.778l-.879.793v3.907h-1.758v-3.907l-.879-.793Z" transform="translate(-341.81 -222.446)" fill="#fff"/>
      <path id="Trazado_190362" data-name="Trazado 190362" d="M264.79,73.579A8.79,8.79,0,1,0,256,64.79,8.789,8.789,0,0,0,264.79,73.579Zm.879-15.764a7.025,7.025,0,0,1,5.5,9.926l-5.5-3.438Zm4.568,11.416a7.022,7.022,0,0,1-10.894,0l5.447-3.4ZM257.758,64.79a7.041,7.041,0,0,1,6.153-6.975V64.3l-5.5,3.438A6.989,6.989,0,0,1,257.758,64.79Z" transform="translate(-213.631 -35.605)" fill="#fff"/>
      <path id="Trazado_190363" data-name="Trazado 190363" d="M111.821,100.305h-1.758V88h-1.758v12.305h-1.758V90.637H104.79v9.668h-1.758V93.274h-1.758v7.032H99.516V95.911H97.758v4.395H96v1.758h15.821Z" transform="translate(-71.21 -64.089)" fill="#fff"/>
      <path id="Trazado_190364" data-name="Trazado 190364" d="M96,64h10.547v1.758H96Z" transform="translate(-71.21 -42.726)" fill="#fff"/>
      <path id="Trazado_190365" data-name="Trazado 190365" d="M96,240h1.758v1.758H96Z" transform="translate(-71.21 -199.389)" fill="#fff"/>
      <path id="Trazado_190366" data-name="Trazado 190366" d="M128,240h7.032v1.758H128Z" transform="translate(-99.695 -199.389)" fill="#fff"/>
      <path id="Trazado_190367" data-name="Trazado 190367" d="M96,288h1.758v1.758H96Z" transform="translate(-71.21 -242.116)" fill="#fff"/>
      <path id="Trazado_190368" data-name="Trazado 190368" d="M128,288h7.032v1.758H128Z" transform="translate(-99.695 -242.116)" fill="#fff"/>
      <path id="Trazado_190369" data-name="Trazado 190369" d="M96,336h1.758v1.758H96Z" transform="translate(-71.21 -284.842)" fill="#fff"/>
      <path id="Trazado_190370" data-name="Trazado 190370" d="M128,336h7.032v1.758H128Z" transform="translate(-99.695 -284.842)" fill="#fff"/>
      <path id="Trazado_190371" data-name="Trazado 190371" d="M96,384h1.758v1.758H96Z" transform="translate(-71.21 -327.568)" fill="#fff"/>
      <path id="Trazado_190372" data-name="Trazado 190372" d="M128,384h7.032v1.758H128Z" transform="translate(-99.695 -327.568)" fill="#fff"/>
    </g>
  </g>
</svg>
