<svg xmlns="http://www.w3.org/2000/svg" xmlns:xlink="http://www.w3.org/1999/xlink" width="820" height="375" viewBox="0 0 820 375">
  <defs>
    <clipPath id="clip-path">
      <rect id="Rectángulo_44792" data-name="Rectángulo 44792" width="180.019" height="61.674" fill="none"/>
    </clipPath>
    <clipPath id="clip-path-4">
      <rect id="Rectángulo_44796" data-name="Rectángulo 44796" width="458.717" height="61.674" fill="none"/>
    </clipPath>
    <clipPath id="clip-path-8">
      <rect id="Rectángulo_44798" data-name="Rectángulo 44798" width="79.487" height="19.591" fill="none"/>
    </clipPath>
    <clipPath id="clip-path-10">
      <rect id="Rectángulo_44804" data-name="Rectángulo 44804" width="78.036" height="19.591" fill="none"/>
    </clipPath>
  </defs>
  <g id="Grupo_155986" data-name="Grupo 155986" transform="translate(2880 5604.882)">
    <rect id="Rectángulo_45390" data-name="Rectángulo 45390" width="820" height="375" transform="translate(-2880 -5604.882)" fill="#fff"/>
    <g id="Grupo_152583" data-name="Grupo 152583" transform="translate(-3262 -11448.992)">
      <g id="Grupo_152573" data-name="Grupo 152573" transform="translate(391.089 5999.383)">
        <g id="Grupo_152179" data-name="Grupo 152179" clip-path="url(#clip-path)">
          <g id="Grupo_152175" data-name="Grupo 152175">
            <g id="Grupo_152174" data-name="Grupo 152174" clip-path="url(#clip-path)">
              <g id="Grupo_152173" data-name="Grupo 152173" transform="translate(14.947 23.196)">
                <path id="Trazado_188786" data-name="Trazado 188786" d="M55.992,81.231V70.325h1.48L63.2,78.888V70.325h1.385V81.231H63.1L57.375,72.66v8.571Z" transform="translate(-55.992 -70.325)"/>
                <path id="Trazado_188787" data-name="Trazado 188787" d="M62.757,76.325a4.067,4.067,0,0,1,1.221-3.252,3.674,3.674,0,0,1,2.484-.878,3.546,3.546,0,0,1,2.665,1.067,4.062,4.062,0,0,1,1.034,2.951,5.221,5.221,0,0,1-.458,2.4,3.238,3.238,0,0,1-1.332,1.357,3.883,3.883,0,0,1-1.909.484,3.548,3.548,0,0,1-2.682-1.064A4.249,4.249,0,0,1,62.757,76.325Zm1.377,0A3.364,3.364,0,0,0,64.8,78.6a2.2,2.2,0,0,0,3.326,0,3.447,3.447,0,0,0,.662-2.314,3.267,3.267,0,0,0-.665-2.221,2.208,2.208,0,0,0-3.323,0A3.354,3.354,0,0,0,64.134,76.325Z" transform="translate(-52.531 -69.368)"/>
                <path id="Trazado_188788" data-name="Trazado 188788" d="M68.613,80.275v-7.9h1.2v1.108a2.807,2.807,0,0,1,.99-.933,2.775,2.775,0,0,1,1.406-.354,2.6,2.6,0,0,1,1.439.364,1.948,1.948,0,0,1,.792,1.019,2.839,2.839,0,0,1,2.441-1.383,2.407,2.407,0,0,1,1.808.65,2.786,2.786,0,0,1,.632,2.006v5.424H77.987V75.3a3.639,3.639,0,0,0-.13-1.156,1.129,1.129,0,0,0-.472-.57,1.48,1.48,0,0,0-.8-.215,1.865,1.865,0,0,0-1.383.555,2.436,2.436,0,0,0-.552,1.773v4.591H73.307V75.141A2.263,2.263,0,0,0,72.98,73.8a1.241,1.241,0,0,0-1.072-.446,1.929,1.929,0,0,0-1.045.3,1.676,1.676,0,0,0-.7.869,4.876,4.876,0,0,0-.216,1.652v4.1Z" transform="translate(-49.535 -69.368)"/>
                <path id="Trazado_188789" data-name="Trazado 188789" d="M78.468,81.231H77.227V70.325h1.338v3.891a2.652,2.652,0,0,1,2.165-1.064,3.339,3.339,0,0,1,1.382.293,2.83,2.83,0,0,1,1.072.827,3.983,3.983,0,0,1,.658,1.283,5.289,5.289,0,0,1,.237,1.607,4.513,4.513,0,0,1-1,3.14,3.14,3.14,0,0,1-2.411,1.108,2.517,2.517,0,0,1-2.195-1.168Zm-.014-4.01a4.117,4.117,0,0,0,.385,2.054,1.915,1.915,0,0,0,3.23.271,3.465,3.465,0,0,0,.639-2.273A3.526,3.526,0,0,0,82.1,74.99a1.87,1.87,0,0,0-1.484-.738,1.924,1.924,0,0,0-1.518.763A3.346,3.346,0,0,0,78.454,77.221Z" transform="translate(-45.128 -70.325)"/>
                <path id="Trazado_188790" data-name="Trazado 188790" d="M82.747,80.275v-7.9h1.2v1.2a3.291,3.291,0,0,1,.853-1.108,1.487,1.487,0,0,1,.859-.268,2.618,2.618,0,0,1,1.377.431l-.461,1.243a1.917,1.917,0,0,0-.983-.29,1.273,1.273,0,0,0-.789.265,1.433,1.433,0,0,0-.5.733,5.235,5.235,0,0,0-.222,1.563v4.136Z" transform="translate(-42.304 -69.368)"/>
                <path id="Trazado_188791" data-name="Trazado 188791" d="M91.673,77.731l1.385.171a3.381,3.381,0,0,1-1.212,1.882,4.109,4.109,0,0,1-5.011-.4,4.171,4.171,0,0,1-1.016-2.995,4.366,4.366,0,0,1,1.026-3.1,3.478,3.478,0,0,1,2.663-1.1A3.378,3.378,0,0,1,92.1,73.274a4.283,4.283,0,0,1,1,3.035c0,.079,0,.2-.008.357H87.2a3.038,3.038,0,0,0,.738,1.994,2.192,2.192,0,0,0,1.651.692,2.054,2.054,0,0,0,1.258-.387A2.562,2.562,0,0,0,91.673,77.731Zm-4.4-2.166h4.411a2.683,2.683,0,0,0-.5-1.495,2.058,2.058,0,0,0-1.66-.774,2.128,2.128,0,0,0-1.551.618A2.432,2.432,0,0,0,87.277,75.564Z" transform="translate(-40.732 -69.368)"/>
                <path id="Trazado_188792" data-name="Trazado 188792" d="M100.07,77.731l1.383.171a3.373,3.373,0,0,1-1.212,1.882,4.109,4.109,0,0,1-5.011-.4,4.171,4.171,0,0,1-1.016-2.995,4.367,4.367,0,0,1,1.028-3.1,3.476,3.476,0,0,1,2.663-1.1,3.382,3.382,0,0,1,2.589,1.079,4.283,4.283,0,0,1,1,3.035c0,.079,0,.2-.008.357H95.6a3.038,3.038,0,0,0,.736,1.994,2.193,2.193,0,0,0,1.652.692,2.057,2.057,0,0,0,1.258-.387A2.583,2.583,0,0,0,100.07,77.731Zm-4.4-2.166h4.412a2.683,2.683,0,0,0-.506-1.495,2.053,2.053,0,0,0-1.658-.774,2.134,2.134,0,0,0-1.552.618A2.439,2.439,0,0,0,95.673,75.564Z" transform="translate(-36.437 -69.368)"/>
                <path id="Trazado_188793" data-name="Trazado 188793" d="M99.681,77.917l1.324-.209a1.848,1.848,0,0,0,.621,1.22,2.163,2.163,0,0,0,1.424.425,2.092,2.092,0,0,0,1.37-.376,1.121,1.121,0,0,0,.446-.881.817.817,0,0,0-.393-.715,5.949,5.949,0,0,0-1.37-.454,12.419,12.419,0,0,1-2.042-.644A1.951,1.951,0,0,1,99.9,74.472a2.043,2.043,0,0,1,.242-.978,2.163,2.163,0,0,1,.659-.748,2.779,2.779,0,0,1,.851-.39,4.03,4.03,0,0,1,1.158-.16,4.575,4.575,0,0,1,1.633.268,2.223,2.223,0,0,1,1.038.726,2.855,2.855,0,0,1,.461,1.224l-1.311.178a1.433,1.433,0,0,0-.515-.952,1.894,1.894,0,0,0-1.209-.343,2.194,2.194,0,0,0-1.317.305.885.885,0,0,0-.395.715.743.743,0,0,0,.163.469,1.181,1.181,0,0,0,.514.357q.2.075,1.182.342a16.859,16.859,0,0,1,1.983.621,2.008,2.008,0,0,1,.881.7,1.96,1.96,0,0,1,.32,1.144,2.242,2.242,0,0,1-.392,1.262,2.518,2.518,0,0,1-1.126.915,4.1,4.1,0,0,1-1.667.323,3.716,3.716,0,0,1-2.348-.639A2.973,2.973,0,0,1,99.681,77.917Z" transform="translate(-33.64 -69.368)"/>
                <path id="Trazado_188794" data-name="Trazado 188794" d="M108.016,79.951l.193,1.182a4.906,4.906,0,0,1-1.011.119,2.3,2.3,0,0,1-1.131-.23,1.3,1.3,0,0,1-.565-.608,4.787,4.787,0,0,1-.165-1.581V74.289h-.981V73.247h.981V71.291l1.333-.8v2.76h1.345v1.042H106.67V78.91a2.292,2.292,0,0,0,.071.736.546.546,0,0,0,.23.26.883.883,0,0,0,.458.1A4.3,4.3,0,0,0,108.016,79.951Z" transform="translate(-31.248 -70.242)"/>
                <path id="Trazado_188795" data-name="Trazado 188795" d="M113.024,79.3a5.023,5.023,0,0,1-1.432.892,4.141,4.141,0,0,1-1.477.26,2.873,2.873,0,0,1-2-.636,2.1,2.1,0,0,1-.7-1.625,2.159,2.159,0,0,1,.265-1.061,2.193,2.193,0,0,1,.691-.769,3.281,3.281,0,0,1,.964-.438,9.35,9.35,0,0,1,1.19-.2,12.324,12.324,0,0,0,2.388-.461c.006-.183.008-.3.008-.351a1.47,1.47,0,0,0-.379-1.152,2.234,2.234,0,0,0-1.525-.455,2.358,2.358,0,0,0-1.394.331,2.021,2.021,0,0,0-.667,1.171l-1.311-.178a3.264,3.264,0,0,1,.59-1.357,2.564,2.564,0,0,1,1.182-.8,5.279,5.279,0,0,1,1.793-.278,4.743,4.743,0,0,1,1.645.239,2.15,2.15,0,0,1,.93.6,2.118,2.118,0,0,1,.417.912,7.623,7.623,0,0,1,.067,1.233v1.787a18.856,18.856,0,0,0,.086,2.363,2.971,2.971,0,0,0,.339.948h-1.4A2.823,2.823,0,0,1,113.024,79.3Zm-.112-2.992a9.772,9.772,0,0,1-2.187.5,5.028,5.028,0,0,0-1.167.269,1.16,1.16,0,0,0-.529.434,1.185,1.185,0,0,0,.219,1.53,1.75,1.75,0,0,0,1.187.357,2.755,2.755,0,0,0,1.377-.339,2.079,2.079,0,0,0,.886-.927,3.236,3.236,0,0,0,.215-1.338Z" transform="translate(-29.683 -69.368)"/>
                <path id="Trazado_188796" data-name="Trazado 188796" d="M114.478,81.231h-1.243V70.325h1.339v3.891a2.65,2.65,0,0,1,2.165-1.064,3.327,3.327,0,0,1,1.38.293,2.831,2.831,0,0,1,1.072.827,3.983,3.983,0,0,1,.658,1.283,5.29,5.29,0,0,1,.239,1.607,4.52,4.52,0,0,1-1,3.14,3.144,3.144,0,0,1-2.411,1.108,2.517,2.517,0,0,1-2.195-1.168Zm-.015-4.01a4.1,4.1,0,0,0,.387,2.054,1.914,1.914,0,0,0,3.229.271,3.465,3.465,0,0,0,.639-2.273,3.517,3.517,0,0,0-.614-2.283,1.868,1.868,0,0,0-1.484-.738,1.924,1.924,0,0,0-1.518.763A3.346,3.346,0,0,0,114.462,77.221Z" transform="translate(-26.705 -70.325)"/>
                <path id="Trazado_188797" data-name="Trazado 188797" d="M118.745,81.231V70.325h1.339V81.231Z" transform="translate(-23.886 -70.325)"/>
                <path id="Trazado_188798" data-name="Trazado 188798" d="M126.706,77.731l1.383.171a3.373,3.373,0,0,1-1.212,1.882,4.109,4.109,0,0,1-5.011-.4,4.171,4.171,0,0,1-1.016-2.995,4.373,4.373,0,0,1,1.026-3.1,3.479,3.479,0,0,1,2.665-1.1,3.377,3.377,0,0,1,2.588,1.079,4.283,4.283,0,0,1,1,3.035c0,.079,0,.2-.006.357h-5.892a3.03,3.03,0,0,0,.736,1.994,2.193,2.193,0,0,0,1.652.692,2.052,2.052,0,0,0,1.256-.387A2.574,2.574,0,0,0,126.706,77.731Zm-4.4-2.166h4.411a2.671,2.671,0,0,0-.5-1.495,2.056,2.056,0,0,0-1.66-.774,2.131,2.131,0,0,0-1.551.618A2.439,2.439,0,0,0,122.309,75.564Z" transform="translate(-22.809 -69.368)"/>
                <path id="Trazado_188799" data-name="Trazado 188799" d="M131.966,77.38l1.317.172a3.426,3.426,0,0,1-1.1,2.131,3.224,3.224,0,0,1-2.184.769,3.4,3.4,0,0,1-2.608-1.06,4.3,4.3,0,0,1-.986-3.04,5.5,5.5,0,0,1,.425-2.239,2.958,2.958,0,0,1,1.291-1.441A3.837,3.837,0,0,1,130,72.195a3.279,3.279,0,0,1,2.106.65,2.984,2.984,0,0,1,1.049,1.85l-1.3.2a2.154,2.154,0,0,0-.659-1.2,1.7,1.7,0,0,0-1.141-.4,2.08,2.08,0,0,0-1.645.726,3.442,3.442,0,0,0-.632,2.295,3.559,3.559,0,0,0,.609,2.314,1.983,1.983,0,0,0,1.593.723,1.88,1.88,0,0,0,1.317-.484A2.4,2.4,0,0,0,131.966,77.38Z" transform="translate(-19.97 -69.368)"/>
                <path id="Trazado_188800" data-name="Trazado 188800" d="M131.484,71.864V70.325h1.339v1.539Zm0,9.368v-7.9h1.339v7.9Z" transform="translate(-17.369 -70.325)"/>
                <path id="Trazado_188801" data-name="Trazado 188801" d="M133.638,80.275v-7.9h1.2v1.108a2.785,2.785,0,0,1,2.394-1.286,2.6,2.6,0,0,1,1.441.364,1.963,1.963,0,0,1,.792,1.019,2.835,2.835,0,0,1,2.44-1.383,2.4,2.4,0,0,1,1.808.65,2.787,2.787,0,0,1,.633,2.006v5.424h-1.332V75.3a3.631,3.631,0,0,0-.131-1.156,1.121,1.121,0,0,0-.472-.57,1.477,1.477,0,0,0-.8-.215,1.867,1.867,0,0,0-1.383.555,2.436,2.436,0,0,0-.55,1.773v4.591h-1.339V75.141a2.262,2.262,0,0,0-.328-1.339,1.239,1.239,0,0,0-1.072-.446,1.933,1.933,0,0,0-1.045.3,1.69,1.69,0,0,0-.7.869,4.914,4.914,0,0,0-.216,1.652v4.1Z" transform="translate(-16.266 -69.368)"/>
                <path id="Trazado_188802" data-name="Trazado 188802" d="M147.816,77.731l1.385.171a3.381,3.381,0,0,1-1.212,1.882,4.109,4.109,0,0,1-5.011-.4,4.171,4.171,0,0,1-1.016-2.995,4.366,4.366,0,0,1,1.026-3.1,3.478,3.478,0,0,1,2.663-1.1,3.378,3.378,0,0,1,2.589,1.079,4.283,4.283,0,0,1,1,3.035c0,.079,0,.2-.008.357h-5.892a3.038,3.038,0,0,0,.738,1.994,2.193,2.193,0,0,0,1.652.692,2.052,2.052,0,0,0,1.256-.387A2.562,2.562,0,0,0,147.816,77.731Zm-4.4-2.166h4.411a2.684,2.684,0,0,0-.5-1.495,2.056,2.056,0,0,0-1.66-.774,2.128,2.128,0,0,0-1.551.618A2.432,2.432,0,0,0,143.42,75.564Z" transform="translate(-12.008 -69.368)"/>
                <path id="Trazado_188803" data-name="Trazado 188803" d="M147.545,71.864V70.325h1.339v1.539Zm0,9.368v-7.9h1.339v7.9Z" transform="translate(-9.151 -70.325)"/>
                <path id="Trazado_188804" data-name="Trazado 188804" d="M149.92,80.275v-7.9h1.206V73.5a2.84,2.84,0,0,1,2.514-1.3,3.28,3.28,0,0,1,1.314.257,2.058,2.058,0,0,1,.9.673,2.6,2.6,0,0,1,.417.99,7.809,7.809,0,0,1,.074,1.3v4.858H155V75.468a3.608,3.608,0,0,0-.156-1.223,1.287,1.287,0,0,0-.555-.647,1.759,1.759,0,0,0-.934-.242,2.174,2.174,0,0,0-1.477.543,2.681,2.681,0,0,0-.621,2.062v4.314Z" transform="translate(-7.936 -69.368)"/>
                <path id="Trazado_188805" data-name="Trazado 188805" d="M158.619,79.951l.193,1.182a4.908,4.908,0,0,1-1.013.119,2.308,2.308,0,0,1-1.131-.23,1.308,1.308,0,0,1-.565-.608,4.8,4.8,0,0,1-.163-1.581V74.289h-.983V73.247h.983V71.291l1.332-.8v2.76h1.347v1.042h-1.347V78.91a2.339,2.339,0,0,0,.071.736.562.562,0,0,0,.23.26.89.89,0,0,0,.458.1A4.324,4.324,0,0,0,158.619,79.951Z" transform="translate(-5.359 -70.242)"/>
                <path id="Trazado_188806" data-name="Trazado 188806" d="M157.987,76.325a4.072,4.072,0,0,1,1.22-3.252,3.681,3.681,0,0,1,2.485-.878,3.543,3.543,0,0,1,2.663,1.067,4.062,4.062,0,0,1,1.034,2.951,5.242,5.242,0,0,1-.457,2.4,3.238,3.238,0,0,1-1.332,1.357,3.887,3.887,0,0,1-1.909.484,3.548,3.548,0,0,1-2.682-1.064A4.242,4.242,0,0,1,157.987,76.325Zm1.376,0a3.364,3.364,0,0,0,.662,2.272,2.206,2.206,0,0,0,3.327,0,3.447,3.447,0,0,0,.662-2.314,3.26,3.26,0,0,0-.667-2.221,2.208,2.208,0,0,0-3.323,0A3.354,3.354,0,0,0,159.363,76.325Z" transform="translate(-3.809 -69.368)"/>
              </g>
            </g>
          </g>
          <g id="Grupo_152178" data-name="Grupo 152178">
            <g id="Grupo_152177" data-name="Grupo 152177" clip-path="url(#clip-path)">
              <g id="Grupo_152176" data-name="Grupo 152176" transform="translate(22.637 40.424)">
                <path id="Trazado_188807" data-name="Trazado 188807" d="M61.079,87.845a4.074,4.074,0,0,1,1.22-3.251,3.676,3.676,0,0,1,2.485-.878,3.543,3.543,0,0,1,2.663,1.067,4.062,4.062,0,0,1,1.034,2.951,5.221,5.221,0,0,1-.458,2.4,3.221,3.221,0,0,1-1.332,1.357,3.877,3.877,0,0,1-1.908.484A3.551,3.551,0,0,1,62.1,90.909,4.248,4.248,0,0,1,61.079,87.845Zm1.376,0a3.364,3.364,0,0,0,.662,2.272,2.2,2.2,0,0,0,3.326,0A3.447,3.447,0,0,0,67.1,87.8a3.27,3.27,0,0,0-.665-2.221,2.208,2.208,0,0,0-3.323,0A3.354,3.354,0,0,0,62.455,87.845Z" transform="translate(-61.079 -80.702)"/>
                <path id="Trazado_188808" data-name="Trazado 188808" d="M69.451,89.437l1.324-.209a1.847,1.847,0,0,0,.621,1.22,2.163,2.163,0,0,0,1.424.425,2.092,2.092,0,0,0,1.37-.376,1.121,1.121,0,0,0,.446-.881.813.813,0,0,0-.393-.713,5.85,5.85,0,0,0-1.37-.455,12.418,12.418,0,0,1-2.042-.644,1.951,1.951,0,0,1-1.158-1.811,2.042,2.042,0,0,1,.242-.978,2.163,2.163,0,0,1,.659-.748,2.779,2.779,0,0,1,.851-.39,4.03,4.03,0,0,1,1.158-.16,4.575,4.575,0,0,1,1.633.268,2.223,2.223,0,0,1,1.038.726,2.836,2.836,0,0,1,.461,1.224l-1.309.178a1.441,1.441,0,0,0-.517-.952,1.894,1.894,0,0,0-1.209-.343,2.194,2.194,0,0,0-1.317.305.889.889,0,0,0-.395.715.743.743,0,0,0,.163.469,1.181,1.181,0,0,0,.514.357q.2.075,1.182.342a16.853,16.853,0,0,1,1.983.621,2.008,2.008,0,0,1,.881.7,1.96,1.96,0,0,1,.32,1.144,2.242,2.242,0,0,1-.392,1.262,2.518,2.518,0,0,1-1.126.915,4.1,4.1,0,0,1-1.667.323,3.716,3.716,0,0,1-2.348-.639A2.973,2.973,0,0,1,69.451,89.437Z" transform="translate(-56.796 -80.702)"/>
                <path id="Trazado_188809" data-name="Trazado 188809" d="M80.173,89.251l1.385.171A3.381,3.381,0,0,1,80.345,91.3a4.109,4.109,0,0,1-5.011-.4,4.171,4.171,0,0,1-1.016-2.995,4.366,4.366,0,0,1,1.026-3.1,3.478,3.478,0,0,1,2.663-1.1A3.378,3.378,0,0,1,80.6,84.794a4.283,4.283,0,0,1,1,3.035c0,.079,0,.2-.008.357H75.7a3.038,3.038,0,0,0,.738,1.994,2.192,2.192,0,0,0,1.651.692,2.054,2.054,0,0,0,1.258-.387A2.562,2.562,0,0,0,80.173,89.251Zm-4.4-2.166h4.411a2.683,2.683,0,0,0-.5-1.5,2.058,2.058,0,0,0-1.66-.774,2.129,2.129,0,0,0-1.551.618A2.432,2.432,0,0,0,75.777,87.084Z" transform="translate(-54.306 -80.702)"/>
                <path id="Trazado_188810" data-name="Trazado 188810" d="M80.129,91.795v-7.9h1.2v1.2a3.253,3.253,0,0,1,.853-1.108,1.487,1.487,0,0,1,.859-.268,2.622,2.622,0,0,1,1.377.431l-.461,1.243a1.922,1.922,0,0,0-.983-.29,1.27,1.27,0,0,0-.789.265,1.432,1.432,0,0,0-.5.733,5.236,5.236,0,0,0-.222,1.563v4.136Z" transform="translate(-51.333 -80.702)"/>
                <path id="Trazado_188811" data-name="Trazado 188811" d="M85.732,91.734l-3.005-7.9H84.14l1.7,4.731q.274.766.5,1.593.179-.626.5-1.5L88.6,83.833h1.377l-2.992,7.9Z" transform="translate(-50.003 -80.642)"/>
                <path id="Trazado_188812" data-name="Trazado 188812" d="M88.772,83.384V81.845h1.339v1.539Zm0,9.368v-7.9h1.339v7.9Z" transform="translate(-46.911 -81.659)"/>
                <path id="Trazado_188813" data-name="Trazado 188813" d="M96.443,88.9l1.317.171A3.425,3.425,0,0,1,96.654,91.2a3.224,3.224,0,0,1-2.184.769,3.4,3.4,0,0,1-2.608-1.06,4.3,4.3,0,0,1-.986-3.04,5.5,5.5,0,0,1,.425-2.239,2.958,2.958,0,0,1,1.291-1.441,3.837,3.837,0,0,1,1.885-.479,3.271,3.271,0,0,1,2.106.652,2.976,2.976,0,0,1,1.049,1.849l-1.3.2a2.154,2.154,0,0,0-.659-1.2,1.7,1.7,0,0,0-1.141-.4,2.085,2.085,0,0,0-1.645.726,3.445,3.445,0,0,0-.632,2.295,3.559,3.559,0,0,0,.609,2.314,1.985,1.985,0,0,0,1.593.723,1.88,1.88,0,0,0,1.317-.484A2.4,2.4,0,0,0,96.443,88.9Z" transform="translate(-45.834 -80.702)"/>
                <path id="Trazado_188814" data-name="Trazado 188814" d="M95.961,83.384V81.845H97.3v1.539Zm0,9.368v-7.9H97.3v7.9Z" transform="translate(-43.233 -81.659)"/>
                <path id="Trazado_188815" data-name="Trazado 188815" d="M98.006,87.845a4.069,4.069,0,0,1,1.221-3.251,3.676,3.676,0,0,1,2.485-.878,3.545,3.545,0,0,1,2.663,1.067,4.062,4.062,0,0,1,1.034,2.951,5.221,5.221,0,0,1-.458,2.4,3.238,3.238,0,0,1-1.332,1.357,3.881,3.881,0,0,1-1.908.484,3.549,3.549,0,0,1-2.683-1.064A4.249,4.249,0,0,1,98.006,87.845Zm1.377,0a3.364,3.364,0,0,0,.662,2.272,2.2,2.2,0,0,0,3.326,0,3.447,3.447,0,0,0,.662-2.314,3.27,3.27,0,0,0-.665-2.221,2.208,2.208,0,0,0-3.323,0A3.354,3.354,0,0,0,99.383,87.845Z" transform="translate(-42.186 -80.702)"/>
                <path id="Trazado_188816" data-name="Trazado 188816" d="M107.124,92.814v-6.86H105.94V84.913h1.184v-.84a3.707,3.707,0,0,1,.141-1.184,1.715,1.715,0,0,1,.682-.843,2.447,2.447,0,0,1,1.365-.323,6.566,6.566,0,0,1,1.25.133l-.2,1.168a4.473,4.473,0,0,0-.789-.074,1.174,1.174,0,0,0-.863.26,1.418,1.418,0,0,0-.252.975v.729H110v1.042h-1.54v6.86Z" transform="translate(-38.127 -81.722)"/>
                <path id="Trazado_188817" data-name="Trazado 188817" d="M114.692,90.821a5.023,5.023,0,0,1-1.432.892,4.141,4.141,0,0,1-1.477.26,2.873,2.873,0,0,1-2-.636,2.1,2.1,0,0,1-.7-1.625,2.159,2.159,0,0,1,.265-1.061,2.193,2.193,0,0,1,.691-.769,3.282,3.282,0,0,1,.964-.438,9.352,9.352,0,0,1,1.19-.2,12.349,12.349,0,0,0,2.388-.461c.006-.183.008-.3.008-.351a1.47,1.47,0,0,0-.379-1.152,2.234,2.234,0,0,0-1.525-.455,2.358,2.358,0,0,0-1.394.331,2.021,2.021,0,0,0-.667,1.172l-1.311-.178a3.245,3.245,0,0,1,.59-1.357,2.564,2.564,0,0,1,1.182-.8,5.279,5.279,0,0,1,1.793-.278,4.742,4.742,0,0,1,1.645.239,2.159,2.159,0,0,1,.93.6,2.118,2.118,0,0,1,.417.912,7.625,7.625,0,0,1,.066,1.233v1.787a18.856,18.856,0,0,0,.086,2.363,2.934,2.934,0,0,0,.339.948h-1.4A2.824,2.824,0,0,1,114.692,90.821Zm-.112-2.992a9.771,9.771,0,0,1-2.187.5,5.028,5.028,0,0,0-1.167.269,1.161,1.161,0,0,0-.529.434,1.185,1.185,0,0,0,.219,1.53,1.75,1.75,0,0,0,1.187.357,2.755,2.755,0,0,0,1.377-.339,2.079,2.079,0,0,0,.886-.927,3.236,3.236,0,0,0,.215-1.338Z" transform="translate(-36.52 -80.702)"/>
                <path id="Trazado_188818" data-name="Trazado 188818" d="M114.9,91.795v-7.9h1.2v1.2a3.253,3.253,0,0,1,.853-1.108,1.487,1.487,0,0,1,.859-.268,2.622,2.622,0,0,1,1.377.431l-.461,1.243a1.917,1.917,0,0,0-.983-.29,1.273,1.273,0,0,0-.789.265,1.433,1.433,0,0,0-.5.733,5.235,5.235,0,0,0-.222,1.563v4.136Z" transform="translate(-33.544 -80.702)"/>
                <path id="Trazado_188819" data-name="Trazado 188819" d="M118.033,91.795v-7.9h1.2V85a2.815,2.815,0,0,1,.989-.933,2.784,2.784,0,0,1,1.407-.354,2.6,2.6,0,0,1,1.439.364,1.948,1.948,0,0,1,.792,1.019,2.839,2.839,0,0,1,2.441-1.383,2.4,2.4,0,0,1,1.808.652,2.78,2.78,0,0,1,.632,2v5.424h-1.332V86.817a3.639,3.639,0,0,0-.13-1.156,1.124,1.124,0,0,0-.473-.57,1.471,1.471,0,0,0-.8-.215,1.865,1.865,0,0,0-1.383.555,2.436,2.436,0,0,0-.552,1.773v4.591h-1.339V86.661a2.263,2.263,0,0,0-.327-1.339,1.241,1.241,0,0,0-1.072-.446,1.938,1.938,0,0,0-1.046.3,1.681,1.681,0,0,0-.694.869,4.871,4.871,0,0,0-.218,1.652v4.1Z" transform="translate(-31.94 -80.702)"/>
                <path id="Trazado_188820" data-name="Trazado 188820" d="M131.946,88.9l1.317.171a3.425,3.425,0,0,1-1.1,2.131,3.224,3.224,0,0,1-2.184.769,3.4,3.4,0,0,1-2.608-1.06,4.3,4.3,0,0,1-.986-3.04,5.5,5.5,0,0,1,.425-2.239,2.958,2.958,0,0,1,1.291-1.441,3.833,3.833,0,0,1,1.885-.479,3.271,3.271,0,0,1,2.106.652,2.976,2.976,0,0,1,1.049,1.849l-1.3.2a2.154,2.154,0,0,0-.659-1.2,1.7,1.7,0,0,0-1.141-.4,2.085,2.085,0,0,0-1.645.726,3.445,3.445,0,0,0-.632,2.295,3.559,3.559,0,0,0,.609,2.314,1.983,1.983,0,0,0,1.593.723,1.88,1.88,0,0,0,1.317-.484A2.4,2.4,0,0,0,131.946,88.9Z" transform="translate(-27.669 -80.702)"/>
                <path id="Trazado_188821" data-name="Trazado 188821" d="M137.251,90.228l1.385.171a3.383,3.383,0,0,1-1.214,1.882,4.109,4.109,0,0,1-5.011-.4,4.177,4.177,0,0,1-1.014-2.995,4.366,4.366,0,0,1,1.026-3.1,3.476,3.476,0,0,1,2.663-1.1,3.38,3.38,0,0,1,2.589,1.079,4.283,4.283,0,0,1,1,3.035c0,.079,0,.2-.008.357h-5.892a3.038,3.038,0,0,0,.736,1.994,2.2,2.2,0,0,0,1.652.692,2.057,2.057,0,0,0,1.258-.387A2.583,2.583,0,0,0,137.251,90.228Zm-4.4-2.166h4.412a2.683,2.683,0,0,0-.506-1.5,2.053,2.053,0,0,0-1.658-.774,2.134,2.134,0,0,0-1.552.618A2.446,2.446,0,0,0,132.853,88.062Zm1.444-4.174.99-2.083h1.755L135.4,83.888Z" transform="translate(-25.103 -81.68)"/>
                <path id="Trazado_188822" data-name="Trazado 188822" d="M142.405,91.734V90.573a2.892,2.892,0,0,1-2.508,1.339,3.2,3.2,0,0,1-1.306-.268,2.153,2.153,0,0,1-.9-.673,2.528,2.528,0,0,1-.414-.995,6.8,6.8,0,0,1-.082-1.249v-4.9h1.341v4.382a7.826,7.826,0,0,0,.082,1.413,1.4,1.4,0,0,0,.535.83,1.658,1.658,0,0,0,1.011.3,2.216,2.216,0,0,0,1.132-.31,1.712,1.712,0,0,0,.747-.84,4.214,4.214,0,0,0,.219-1.543V83.833H143.6v7.9Z" transform="translate(-22.136 -80.642)"/>
                <path id="Trazado_188823" data-name="Trazado 188823" d="M145.915,91.471l.194,1.182a4.91,4.91,0,0,1-1.013.119,2.3,2.3,0,0,1-1.131-.23,1.294,1.294,0,0,1-.565-.608,4.8,4.8,0,0,1-.163-1.581V85.809h-.983V84.767h.983V82.811l1.332-.8v2.76h1.347v1.042h-1.347V90.43a2.338,2.338,0,0,0,.071.736.562.562,0,0,0,.23.26.89.89,0,0,0,.458.1A4.325,4.325,0,0,0,145.915,91.471Z" transform="translate(-19.548 -81.576)"/>
                <path id="Trazado_188824" data-name="Trazado 188824" d="M145.4,83.384V81.845h1.339v1.539Zm0,9.368v-7.9h1.339v7.9Z" transform="translate(-17.94 -81.659)"/>
                <path id="Trazado_188825" data-name="Trazado 188825" d="M153.066,88.9l1.317.171a3.424,3.424,0,0,1-1.1,2.131,3.227,3.227,0,0,1-2.184.769,3.394,3.394,0,0,1-2.608-1.06,4.3,4.3,0,0,1-.987-3.04,5.5,5.5,0,0,1,.425-2.239,2.965,2.965,0,0,1,1.291-1.441,3.842,3.842,0,0,1,1.886-.479,3.271,3.271,0,0,1,2.106.652,2.983,2.983,0,0,1,1.049,1.849l-1.3.2a2.162,2.162,0,0,0-.658-1.2,1.71,1.71,0,0,0-1.143-.4,2.08,2.08,0,0,0-1.643.726,3.445,3.445,0,0,0-.633,2.295,3.558,3.558,0,0,0,.611,2.314,1.982,1.982,0,0,0,1.592.723,1.877,1.877,0,0,0,1.317-.484A2.4,2.4,0,0,0,153.066,88.9Z" transform="translate(-16.864 -80.702)"/>
                <path id="Trazado_188826" data-name="Trazado 188826" d="M152.481,87.845a4.069,4.069,0,0,1,1.221-3.251,3.676,3.676,0,0,1,2.485-.878,3.545,3.545,0,0,1,2.664,1.067,4.063,4.063,0,0,1,1.034,2.951,5.221,5.221,0,0,1-.458,2.4,3.221,3.221,0,0,1-1.332,1.357,3.878,3.878,0,0,1-1.908.484,3.549,3.549,0,0,1-2.683-1.064A4.249,4.249,0,0,1,152.481,87.845Zm1.377,0a3.364,3.364,0,0,0,.662,2.272,2.2,2.2,0,0,0,3.326,0,3.447,3.447,0,0,0,.662-2.314,3.27,3.27,0,0,0-.665-2.221,2.208,2.208,0,0,0-3.323,0A3.354,3.354,0,0,0,153.858,87.845Z" transform="translate(-14.316 -80.702)"/>
              </g>
            </g>
          </g>
        </g>
      </g>
      <g id="Grupo_152574" data-name="Grupo 152574" transform="translate(572.553 5999.383)">
        <g id="Grupo_152190" data-name="Grupo 152190" clip-path="url(#clip-path-4)">
          <g id="Grupo_152183" data-name="Grupo 152183">
            <g id="Grupo_152182" data-name="Grupo 152182" clip-path="url(#clip-path-4)">
              <g id="Grupo_152181" data-name="Grupo 152181" transform="translate(100.301 23.403)">
                <path id="Trazado_188827" data-name="Trazado 188827" d="M232.5,82.543V70.6h8.858v2.021h-6.446v2.648h6V77.28h-6v3.25h6.674v2.013Z" transform="translate(-232.503 -70.393)"/>
                <path id="Trazado_188828" data-name="Trazado 188828" d="M243.394,82.543,239.125,70.6h2.615l3.023,8.841,2.925-8.841h2.559L245.97,82.543Z" transform="translate(-229.115 -70.393)"/>
                <path id="Trazado_188829" data-name="Trazado 188829" d="M258.547,82.543h-2.624L254.88,79.83H250.1l-.986,2.713H246.56L251.213,70.6h2.55Zm-4.441-4.725-1.646-4.434-1.613,4.434Z" transform="translate(-225.311 -70.393)"/>
                <path id="Trazado_188830" data-name="Trazado 188830" d="M254.849,82.51V70.662h2.411V80.5h6V82.51Z" transform="translate(-221.07 -70.36)"/>
                <path id="Trazado_188831" data-name="Trazado 188831" d="M261.737,70.6h2.413v6.47a13.551,13.551,0,0,0,.089,2,1.935,1.935,0,0,0,.738,1.178,2.567,2.567,0,0,0,1.593.444,2.43,2.43,0,0,0,1.548-.42,1.652,1.652,0,0,0,.627-1.029,13.4,13.4,0,0,0,.106-2.03V70.6h2.413v6.275a16.177,16.177,0,0,1-.195,3.04,3.386,3.386,0,0,1-.721,1.5,3.639,3.639,0,0,1-1.407.975,6.106,6.106,0,0,1-2.3.363,6.646,6.646,0,0,1-2.594-.395,3.7,3.7,0,0,1-1.4-1.028A3.27,3.27,0,0,1,261.974,80a14.411,14.411,0,0,1-.237-3.031Z" transform="translate(-217.546 -70.393)"/>
                <path id="Trazado_188832" data-name="Trazado 188832" d="M280.849,82.543h-2.624l-1.043-2.713h-4.775l-.986,2.713h-2.559L273.515,70.6h2.55Zm-4.441-4.725-1.646-4.434-1.613,4.434Z" transform="translate(-213.901 -70.393)"/>
                <path id="Trazado_188833" data-name="Trazado 188833" d="M285.139,78.22l2.338.742a5.255,5.255,0,0,1-1.788,2.905,5.631,5.631,0,0,1-7.086-.676,6.229,6.229,0,0,1-1.531-4.446,6.532,6.532,0,0,1,1.54-4.633,5.284,5.284,0,0,1,4.05-1.651,4.967,4.967,0,0,1,3.561,1.3,4.724,4.724,0,0,1,1.223,2.2l-2.388.57a2.469,2.469,0,0,0-2.518-2,2.718,2.718,0,0,0-2.154.954,4.671,4.671,0,0,0-.828,3.088,5.013,5.013,0,0,0,.815,3.227,2.649,2.649,0,0,0,2.119.961,2.417,2.417,0,0,0,1.654-.611A3.55,3.55,0,0,0,285.139,78.22Z" transform="translate(-209.701 -70.462)"/>
                <path id="Trazado_188834" data-name="Trazado 188834" d="M285.441,82.543V70.6h2.413V82.543Z" transform="translate(-205.419 -70.393)"/>
                <path id="Trazado_188835" data-name="Trazado 188835" d="M288.057,76.713a7.6,7.6,0,0,1,.546-3.064,5.638,5.638,0,0,1,1.112-1.637,4.663,4.663,0,0,1,1.543-1.076,6.574,6.574,0,0,1,2.576-.473,5.612,5.612,0,0,1,4.225,1.639,7.322,7.322,0,0,1,.012,9.082,5.571,5.571,0,0,1-4.205,1.634,5.628,5.628,0,0,1-4.237-1.625A6.178,6.178,0,0,1,288.057,76.713Zm2.485-.082a4.476,4.476,0,0,0,.937,3.076,3.22,3.22,0,0,0,4.746.008,4.562,4.562,0,0,0,.925-3.117,4.489,4.489,0,0,0-.9-3.063,3.333,3.333,0,0,0-4.795.012A4.508,4.508,0,0,0,290.542,76.631Z" transform="translate(-204.08 -70.462)"/>
                <path id="Trazado_188836" data-name="Trazado 188836" d="M297.26,82.543V70.6h2.346l4.89,7.978V70.6h2.24V82.543h-2.42L299.5,74.754v7.789Z" transform="translate(-199.372 -70.393)"/>
              </g>
            </g>
          </g>
          <g id="Grupo_152186" data-name="Grupo 152186">
            <g id="Grupo_152185" data-name="Grupo 152185" clip-path="url(#clip-path-4)">
              <g id="Grupo_152184" data-name="Grupo 152184" transform="translate(213.033 23.607)">
                <path id="Trazado_188837" data-name="Trazado 188837" d="M319.067,82.543h-2.626L315.4,79.83h-4.775l-.987,2.713H307.08L311.733,70.6h2.552Zm-4.441-4.725-1.648-4.434-1.611,4.434Z" transform="translate(-307.08 -70.597)"/>
              </g>
            </g>
          </g>
          <g id="Grupo_152189" data-name="Grupo 152189">
            <g id="Grupo_152188" data-name="Grupo 152188" clip-path="url(#clip-path-4)">
              <g id="Grupo_152187" data-name="Grupo 152187" transform="translate(229.484 23.403)">
                <path id="Trazado_188838" data-name="Trazado 188838" d="M317.963,82.543V70.6h3.87a14.051,14.051,0,0,1,2.871.18,3.132,3.132,0,0,1,1.719,1.168,3.717,3.717,0,0,1,.692,2.326,3.9,3.9,0,0,1-.4,1.85A3.263,3.263,0,0,1,325.7,77.3a3.489,3.489,0,0,1-1.252.567,13.837,13.837,0,0,1-2.5.171h-1.574v4.506Zm2.413-9.925v3.391H321.7a6.252,6.252,0,0,0,1.9-.187,1.586,1.586,0,0,0,.754-.587,1.611,1.611,0,0,0,.274-.93,1.546,1.546,0,0,0-.384-1.076,1.679,1.679,0,0,0-.967-.529,11.615,11.615,0,0,0-1.737-.082Z" transform="translate(-317.963 -70.393)"/>
                <path id="Trazado_188839" data-name="Trazado 188839" d="M325.4,82.543V70.6h5.077a8.686,8.686,0,0,1,2.783.322,2.751,2.751,0,0,1,1.389,1.146,3.439,3.439,0,0,1,.52,1.882,3.191,3.191,0,0,1-.789,2.221,3.8,3.8,0,0,1-2.364,1.1,5.634,5.634,0,0,1,1.292,1,13.78,13.78,0,0,1,1.373,1.939l1.459,2.331h-2.884l-1.744-2.6a17.288,17.288,0,0,0-1.27-1.755,1.857,1.857,0,0,0-.726-.5,3.947,3.947,0,0,0-1.215-.135h-.488v4.987Zm2.412-6.895H329.6a9.175,9.175,0,0,0,2.166-.147,1.287,1.287,0,0,0,.677-.5,1.551,1.551,0,0,0,.245-.895,1.441,1.441,0,0,0-.322-.975,1.48,1.48,0,0,0-.91-.469q-.293-.041-1.759-.041h-1.882Z" transform="translate(-314.159 -70.393)"/>
                <path id="Trazado_188840" data-name="Trazado 188840" d="M332.987,76.713a7.6,7.6,0,0,1,.547-3.064,5.582,5.582,0,0,1,1.113-1.637,4.663,4.663,0,0,1,1.543-1.076,6.574,6.574,0,0,1,2.576-.473,5.609,5.609,0,0,1,4.224,1.639A7.316,7.316,0,0,1,343,81.182a5.565,5.565,0,0,1-4.2,1.634,5.628,5.628,0,0,1-4.237-1.625A6.173,6.173,0,0,1,332.987,76.713Zm2.487-.082a4.468,4.468,0,0,0,.937,3.076,3.22,3.22,0,0,0,4.747.008,4.563,4.563,0,0,0,.925-3.117,4.489,4.489,0,0,0-.9-3.063,3.335,3.335,0,0,0-4.8.012A4.516,4.516,0,0,0,335.474,76.631Z" transform="translate(-310.276 -70.462)"/>
                <path id="Trazado_188841" data-name="Trazado 188841" d="M345.4,82.543,341.133,70.6h2.615l3.023,8.841L349.7,70.6h2.558l-4.278,11.946Z" transform="translate(-306.109 -70.393)"/>
                <path id="Trazado_188842" data-name="Trazado 188842" d="M349.371,82.543V70.6h8.858v2.021h-6.445v2.648h6V77.28h-6v3.25h6.674v2.013Z" transform="translate(-301.894 -70.393)"/>
                <path id="Trazado_188843" data-name="Trazado 188843" d="M356.8,82.543V70.6h8.858v2.021h-6.447v2.648h6V77.28h-6v3.25h6.674v2.013Z" transform="translate(-298.092 -70.393)"/>
                <path id="Trazado_188844" data-name="Trazado 188844" d="M364.227,70.6h4.408a8.625,8.625,0,0,1,2.272.228,3.991,3.991,0,0,1,1.8,1.1,5.224,5.224,0,0,1,1.141,1.935,8.8,8.8,0,0,1,.392,2.824,7.845,7.845,0,0,1-.367,2.543,5.283,5.283,0,0,1-1.279,2.11,4.243,4.243,0,0,1-1.695.954,7.335,7.335,0,0,1-2.136.252h-4.538Zm2.411,2.021V80.53h1.8a6.537,6.537,0,0,0,1.459-.113,2.232,2.232,0,0,0,.973-.5,2.524,2.524,0,0,0,.63-1.153,7.776,7.776,0,0,0,.245-2.187,7.125,7.125,0,0,0-.245-2.127,2.731,2.731,0,0,0-.683-1.156,2.281,2.281,0,0,0-1.117-.562,10.821,10.821,0,0,0-1.98-.115Z" transform="translate(-294.293 -70.393)"/>
                <path id="Trazado_188845" data-name="Trazado 188845" d="M371.594,76.713a7.623,7.623,0,0,1,.546-3.064,5.637,5.637,0,0,1,1.113-1.637,4.665,4.665,0,0,1,1.545-1.076,6.561,6.561,0,0,1,2.574-.473A5.612,5.612,0,0,1,381.6,72.1a7.317,7.317,0,0,1,.012,9.082,5.568,5.568,0,0,1-4.205,1.634,5.625,5.625,0,0,1-4.236-1.625A6.167,6.167,0,0,1,371.594,76.713Zm2.485-.082a4.469,4.469,0,0,0,.937,3.076,3.22,3.22,0,0,0,4.746.008,4.562,4.562,0,0,0,.925-3.117,4.5,4.5,0,0,0-.9-3.063,3.335,3.335,0,0,0-4.8.012A4.509,4.509,0,0,0,374.079,76.631Z" transform="translate(-290.524 -70.462)"/>
                <path id="Trazado_188846" data-name="Trazado 188846" d="M380.554,82.543V70.6h5.076a8.687,8.687,0,0,1,2.783.322,2.746,2.746,0,0,1,1.389,1.146,3.441,3.441,0,0,1,.522,1.882,3.185,3.185,0,0,1-.791,2.221,3.792,3.792,0,0,1-2.363,1.1,5.624,5.624,0,0,1,1.291,1,13.651,13.651,0,0,1,1.373,1.939l1.459,2.331h-2.884l-1.743-2.6a17.208,17.208,0,0,0-1.271-1.755,1.857,1.857,0,0,0-.726-.5,3.943,3.943,0,0,0-1.214-.135h-.49v4.987Zm2.411-6.895h1.785a9.191,9.191,0,0,0,2.168-.147,1.282,1.282,0,0,0,.676-.5,1.552,1.552,0,0,0,.245-.895,1.434,1.434,0,0,0-.322-.975,1.476,1.476,0,0,0-.909-.469c-.195-.027-.783-.041-1.759-.041h-1.883Z" transform="translate(-285.94 -70.393)"/>
                <path id="Trazado_188847" data-name="Trazado 188847" d="M388.466,82.543V70.6h8.858v2.021h-6.446v2.648h6V77.28h-6v3.25h6.674v2.013Z" transform="translate(-281.892 -70.393)"/>
                <path id="Trazado_188848" data-name="Trazado 188848" d="M395.491,78.726l2.348-.228a2.863,2.863,0,0,0,.86,1.735,2.6,2.6,0,0,0,1.749.553,2.682,2.682,0,0,0,1.755-.493,1.465,1.465,0,0,0,.59-1.152,1.083,1.083,0,0,0-.248-.721,1.97,1.97,0,0,0-.868-.518c-.283-.1-.925-.271-1.93-.522a6.562,6.562,0,0,1-2.722-1.181,3.113,3.113,0,0,1-1.1-2.405,3.074,3.074,0,0,1,.518-1.707,3.252,3.252,0,0,1,1.49-1.211,5.983,5.983,0,0,1,2.351-.416,5.043,5.043,0,0,1,3.386.987,3.474,3.474,0,0,1,1.193,2.632l-2.409.106a2.052,2.052,0,0,0-.665-1.324,2.426,2.426,0,0,0-1.527-.4,2.746,2.746,0,0,0-1.646.432.87.87,0,0,0-.384.742.916.916,0,0,0,.358.724,6.327,6.327,0,0,0,2.217.8,11.8,11.8,0,0,1,2.6.86,3.358,3.358,0,0,1,1.32,1.214,3.559,3.559,0,0,1,.476,1.9,3.522,3.522,0,0,1-.57,1.923,3.413,3.413,0,0,1-1.613,1.333,6.779,6.779,0,0,1-2.6.435,5.173,5.173,0,0,1-3.48-1.048A4.558,4.558,0,0,1,395.491,78.726Z" transform="translate(-278.298 -70.462)"/>
              </g>
            </g>
          </g>
        </g>
      </g>
      <g id="Grupo_152575" data-name="Grupo 152575" transform="translate(1032.721 5999.383)">
        <g id="Grupo_152195" data-name="Grupo 152195" clip-path="url(#clip-path-8)">
          <g id="Grupo_152194" data-name="Grupo 152194">
            <g id="Grupo_152193" data-name="Grupo 152193" clip-path="url(#clip-path-8)">
              <g id="Grupo_152192" data-name="Grupo 152192" transform="translate(21.524 6.09)">
                <path id="Trazado_188849" data-name="Trazado 188849" d="M489.689,63.338l.859.218a2.9,2.9,0,0,1-.971,1.613,2.679,2.679,0,0,1-1.717.556,3.084,3.084,0,0,1-1.708-.428,2.68,2.68,0,0,1-1-1.237,4.435,4.435,0,0,1-.342-1.741,3.842,3.842,0,0,1,.385-1.769A2.658,2.658,0,0,1,486.3,59.4a3.209,3.209,0,0,1,1.573-.392,2.658,2.658,0,0,1,1.639.5,2.572,2.572,0,0,1,.925,1.4l-.845.2a2,2,0,0,0-.656-1.032,1.742,1.742,0,0,0-1.081-.323,2.1,2.1,0,0,0-1.252.358,1.9,1.9,0,0,0-.706.964,3.862,3.862,0,0,0-.2,1.246,3.914,3.914,0,0,0,.242,1.447,1.788,1.788,0,0,0,.75.924,2.114,2.114,0,0,0,1.1.305,1.846,1.846,0,0,0,1.223-.417A2.123,2.123,0,0,0,489.689,63.338Z" transform="translate(-484.809 -59.007)"/>
                <path id="Trazado_188850" data-name="Trazado 188850" d="M489.133,62.454a3.524,3.524,0,0,1,.868-2.53,2.948,2.948,0,0,1,2.24-.915,3.12,3.12,0,0,1,1.622.429,2.8,2.8,0,0,1,1.1,1.2,4.159,4.159,0,0,1-.018,3.51,2.72,2.72,0,0,1-1.131,1.181,3.216,3.216,0,0,1-1.575.4,3.07,3.07,0,0,1-1.639-.443,2.841,2.841,0,0,1-1.094-1.209A3.665,3.665,0,0,1,489.133,62.454Zm.886.014a2.6,2.6,0,0,0,.63,1.849,2.2,2.2,0,0,0,3.179-.006,2.756,2.756,0,0,0,.627-1.936,3.355,3.355,0,0,0-.266-1.383,2.08,2.08,0,0,0-.786-.918,2.13,2.13,0,0,0-1.158-.325,2.2,2.2,0,0,0-1.571.627A2.8,2.8,0,0,0,490.019,62.468Z" transform="translate(-482.597 -59.009)"/>
                <path id="Trazado_188851" data-name="Trazado 188851" d="M493.858,65.577V59.085H496.1a5.442,5.442,0,0,1,1.156.092,2.2,2.2,0,0,1,.951.466,2.652,2.652,0,0,1,.769,1.11,4.366,4.366,0,0,1,.254,1.543,4.547,4.547,0,0,1-.172,1.311,3.183,3.183,0,0,1-.443.946,2.322,2.322,0,0,1-.593.588,2.4,2.4,0,0,1-.772.327,4.519,4.519,0,0,1-1.044.11Zm.86-.766H496.1a3.364,3.364,0,0,0,1.008-.119,1.454,1.454,0,0,0,.582-.337,2.049,2.049,0,0,0,.475-.821,4.034,4.034,0,0,0,.171-1.252,3.04,3.04,0,0,0-.333-1.565,1.69,1.69,0,0,0-.815-.733,3.336,3.336,0,0,0-1.111-.133h-1.364Z" transform="translate(-480.179 -58.97)"/>
                <path id="Trazado_188852" data-name="Trazado 188852" d="M498.288,65.577V59.085h.859v6.492Z" transform="translate(-477.913 -58.97)"/>
                <path id="Trazado_188853" data-name="Trazado 188853" d="M502.97,63.068v-.762l2.75,0v2.41a4.864,4.864,0,0,1-1.306.76,3.881,3.881,0,0,1-1.382.254,3.682,3.682,0,0,1-1.738-.41,2.7,2.7,0,0,1-1.179-1.185,3.718,3.718,0,0,1-.4-1.731,3.989,3.989,0,0,1,.4-1.769,2.619,2.619,0,0,1,1.138-1.221,3.591,3.591,0,0,1,1.714-.4,3.392,3.392,0,0,1,1.274.228,2.109,2.109,0,0,1,.892.635,2.831,2.831,0,0,1,.491,1.063l-.775.213a2.374,2.374,0,0,0-.363-.78,1.485,1.485,0,0,0-.62-.453,2.281,2.281,0,0,0-.895-.171,2.639,2.639,0,0,0-1.019.18,1.917,1.917,0,0,0-.694.472,2.224,2.224,0,0,0-.408.642,3.373,3.373,0,0,0-.248,1.306,3.146,3.146,0,0,0,.3,1.453,1.9,1.9,0,0,0,.869.868,2.7,2.7,0,0,0,1.214.283,2.88,2.88,0,0,0,1.09-.215,2.767,2.767,0,0,0,.806-.458V63.068Z" transform="translate(-477.183 -59.007)"/>
                <path id="Trazado_188854" data-name="Trazado 188854" d="M504.251,62.454a3.524,3.524,0,0,1,.868-2.53,2.949,2.949,0,0,1,2.242-.915,3.114,3.114,0,0,1,1.62.429,2.8,2.8,0,0,1,1.1,1.2,3.875,3.875,0,0,1,.379,1.743,3.82,3.82,0,0,1-.4,1.767,2.726,2.726,0,0,1-1.129,1.181,3.226,3.226,0,0,1-1.577.4,3.07,3.07,0,0,1-1.639-.443,2.842,2.842,0,0,1-1.094-1.209A3.665,3.665,0,0,1,504.251,62.454Zm.886.014a2.611,2.611,0,0,0,.63,1.849,2.2,2.2,0,0,0,3.179-.006,2.755,2.755,0,0,0,.627-1.936,3.354,3.354,0,0,0-.266-1.383,2.07,2.07,0,0,0-.786-.918,2.124,2.124,0,0,0-1.156-.325,2.2,2.2,0,0,0-1.572.627A2.8,2.8,0,0,0,505.137,62.468Z" transform="translate(-474.862 -59.009)"/>
                <path id="Trazado_188855" data-name="Trazado 188855" d="M509.067,61.176v-.907h.909v.907Zm0,3.8v-.908h.909v.908Z" transform="translate(-472.398 -58.364)"/>
              </g>
            </g>
          </g>
        </g>
      </g>
      <g id="Grupo_152576" data-name="Grupo 152576" transform="translate(1113.654 5999.383)">
        <g id="Grupo_152212" data-name="Grupo 152212" clip-path="url(#clip-path-10)">
          <g id="Grupo_152199" data-name="Grupo 152199">
            <g id="Grupo_152198" data-name="Grupo 152198" clip-path="url(#clip-path-10)">
              <g id="Grupo_152197" data-name="Grupo 152197" transform="translate(17.069 6.205)">
                <path id="Trazado_188856" data-name="Trazado 188856" d="M535.4,65.577V59.085h4.381v.766h-3.521v2.01h3.046v.766h-3.046v2.949Z" transform="translate(-535.402 -59.085)"/>
                <path id="Trazado_188857" data-name="Trazado 188857" d="M541.029,65.577V59.851H538.89v-.766h5.146v.766h-2.148v5.726Z" transform="translate(-533.617 -59.085)"/>
              </g>
            </g>
          </g>
          <g id="Grupo_152202" data-name="Grupo 152202">
            <g id="Grupo_152201" data-name="Grupo 152201" clip-path="url(#clip-path-10)">
              <g id="Grupo_152200" data-name="Grupo 152200" transform="translate(27.498 9.948)">
                <path id="Trazado_188858" data-name="Trazado 188858" d="M542.3,62.362v-.8h2.449v.8Z" transform="translate(-542.301 -61.561)"/>
              </g>
            </g>
          </g>
          <g id="Grupo_152205" data-name="Grupo 152205">
            <g id="Grupo_152204" data-name="Grupo 152204" clip-path="url(#clip-path-10)">
              <g id="Grupo_152203" data-name="Grupo 152203" transform="translate(30.595 6.095)">
                <path id="Trazado_188859" data-name="Trazado 188859" d="M547.6,63.068v-.762l2.75,0v2.41a4.865,4.865,0,0,1-1.306.76,3.888,3.888,0,0,1-1.382.254,3.678,3.678,0,0,1-1.738-.41,2.711,2.711,0,0,1-1.181-1.185,3.719,3.719,0,0,1-.4-1.731,4.01,4.01,0,0,1,.4-1.769,2.63,2.63,0,0,1,1.14-1.221,3.586,3.586,0,0,1,1.714-.4,3.394,3.394,0,0,1,1.274.228,2.109,2.109,0,0,1,.892.635,2.828,2.828,0,0,1,.491,1.063l-.776.213a2.374,2.374,0,0,0-.363-.78,1.5,1.5,0,0,0-.62-.453,2.281,2.281,0,0,0-.895-.171,2.639,2.639,0,0,0-1.019.18,1.9,1.9,0,0,0-.694.472,2.224,2.224,0,0,0-.408.642,3.372,3.372,0,0,0-.248,1.306,3.148,3.148,0,0,0,.3,1.453,1.9,1.9,0,0,0,.869.868,2.7,2.7,0,0,0,1.214.283,2.868,2.868,0,0,0,1.088-.215,2.759,2.759,0,0,0,.807-.458V63.068Z" transform="translate(-544.35 -59.012)"/>
                <path id="Trazado_188860" data-name="Trazado 188860" d="M549.041,65.577V59.085h1.292l1.537,4.6q.213.642.31.961c.074-.237.189-.583.346-1.042l1.554-4.517h1.156v6.492h-.828V60.143l-1.886,5.434h-.775l-1.878-5.527v5.527Z" transform="translate(-541.95 -58.975)"/>
                <path id="Trazado_188861" data-name="Trazado 188861" d="M554.086,65.577V59.085h2.236a5.446,5.446,0,0,1,1.156.092,2.217,2.217,0,0,1,.952.466,2.667,2.667,0,0,1,.769,1.11,4.4,4.4,0,0,1,.254,1.543,4.49,4.49,0,0,1-.174,1.311,3.146,3.146,0,0,1-.443.946,2.34,2.34,0,0,1-.591.588,2.425,2.425,0,0,1-.774.327,4.5,4.5,0,0,1-1.043.11Zm.859-.766h1.386a3.365,3.365,0,0,0,1.008-.119,1.455,1.455,0,0,0,.582-.337,2.033,2.033,0,0,0,.475-.821,3.985,3.985,0,0,0,.172-1.252,3.024,3.024,0,0,0-.334-1.565,1.681,1.681,0,0,0-.813-.733,3.334,3.334,0,0,0-1.111-.133h-1.365Z" transform="translate(-539.369 -58.975)"/>
              </g>
            </g>
          </g>
          <g id="Grupo_152208" data-name="Grupo 152208">
            <g id="Grupo_152207" data-name="Grupo 152207" clip-path="url(#clip-path-10)">
              <g id="Grupo_152206" data-name="Grupo 152206" transform="translate(51.849 9.948)">
                <path id="Trazado_188862" data-name="Trazado 188862" d="M558.41,62.362v-.8h2.449v.8Z" transform="translate(-558.41 -61.561)"/>
              </g>
            </g>
          </g>
          <g id="Grupo_152211" data-name="Grupo 152211">
            <g id="Grupo_152210" data-name="Grupo 152210" clip-path="url(#clip-path-10)">
              <g id="Grupo_152209" data-name="Grupo 152209" transform="translate(55.451 6.178)">
                <path id="Trazado_188863" data-name="Trazado 188863" d="M563.184,65.587h-.8V60.508a4.171,4.171,0,0,1-.754.549,5.353,5.353,0,0,1-.84.411V60.7a4.81,4.81,0,0,0,1.168-.762,3.005,3.005,0,0,0,.709-.869h.514Z" transform="translate(-560.793 -59.067)"/>
                <path id="Trazado_188864" data-name="Trazado 188864" d="M563.863,64.086l.766-.071A1.329,1.329,0,0,0,565,64.8a1.02,1.02,0,0,0,.7.245,1.218,1.218,0,0,0,.644-.169,1.386,1.386,0,0,0,.455-.449,2.672,2.672,0,0,0,.3-.76,3.973,3.973,0,0,0,.119-.973c0-.036,0-.089,0-.16a1.816,1.816,0,0,1-.654.618,1.758,1.758,0,0,1-.895.237A1.814,1.814,0,0,1,564.3,62.8a2.141,2.141,0,0,1-.558-1.54,2.181,2.181,0,0,1,.584-1.59,1.94,1.94,0,0,1,1.459-.6,2.077,2.077,0,0,1,1.156.342,2.107,2.107,0,0,1,.8.972,4.758,4.758,0,0,1,.272,1.828,5.926,5.926,0,0,1-.269,1.982,2.322,2.322,0,0,1-.8,1.122,2.081,2.081,0,0,1-1.252.385,1.716,1.716,0,0,1-1.825-1.611Zm3.264-2.866a1.563,1.563,0,0,0-.364-1.088,1.147,1.147,0,0,0-.88-.4,1.216,1.216,0,0,0-.925.434,1.6,1.6,0,0,0-.394,1.125,1.385,1.385,0,0,0,.375,1.008,1.228,1.228,0,0,0,.924.387,1.183,1.183,0,0,0,.91-.387A1.536,1.536,0,0,0,567.126,61.22Z" transform="translate(-559.284 -59.067)"/>
              </g>
            </g>
          </g>
        </g>
      </g>
      <rect id="Rectángulo_45336" data-name="Rectángulo 45336" width="1.451" height="1.451" transform="translate(390 5997.932)"/>
      <rect id="Rectángulo_45337" data-name="Rectángulo 45337" width="1.451" height="1.451" transform="translate(390 5997.932)"/>
      <rect id="Rectángulo_45338" data-name="Rectángulo 45338" width="179.656" height="1.451" transform="translate(391.451 5997.932)"/>
      <rect id="Rectángulo_45339" data-name="Rectángulo 45339" width="1.451" height="1.451" transform="translate(571.102 5997.932)"/>
      <rect id="Rectángulo_45340" data-name="Rectángulo 45340" width="458.717" height="1.451" transform="translate(572.553 5997.932)"/>
      <rect id="Rectángulo_45341" data-name="Rectángulo 45341" width="1.451" height="1.451" transform="translate(1031.27 5997.932)"/>
      <rect id="Rectángulo_45342" data-name="Rectángulo 45342" width="79.487" height="1.451" transform="translate(1032.721 5997.932)"/>
      <rect id="Rectángulo_45343" data-name="Rectángulo 45343" width="1.451" height="1.451" transform="translate(1112.202 5997.932)"/>
      <rect id="Rectángulo_45344" data-name="Rectángulo 45344" width="78.399" height="1.451" transform="translate(1113.654 5997.932)"/>
      <rect id="Rectángulo_45345" data-name="Rectángulo 45345" width="1.451" height="1.451" transform="translate(1192.062 5997.932)"/>
      <rect id="Rectángulo_45346" data-name="Rectángulo 45346" width="1.451" height="1.451" transform="translate(1192.062 5997.932)"/>
      <rect id="Rectángulo_45347" data-name="Rectángulo 45347" width="1.451" height="19.591" transform="translate(390 5999.383)"/>
      <rect id="Rectángulo_45348" data-name="Rectángulo 45348" width="1.451" height="19.591" transform="translate(571.102 5999.383)"/>
      <rect id="Rectángulo_45349" data-name="Rectángulo 45349" width="1.451" height="19.591" transform="translate(1031.27 5999.383)"/>
      <rect id="Rectángulo_45350" data-name="Rectángulo 45350" width="1.451" height="19.591" transform="translate(1112.202 5999.383)"/>
      <rect id="Rectángulo_45351" data-name="Rectángulo 45351" width="1.451" height="19.591" transform="translate(1192.062 5999.383)"/>
      <g id="Grupo_152577" data-name="Grupo 152577" transform="translate(1032.721 6020.424)">
        <g id="Grupo_152217" data-name="Grupo 152217" clip-path="url(#clip-path-8)">
          <g id="Grupo_152216" data-name="Grupo 152216">
            <g id="Grupo_152215" data-name="Grupo 152215" clip-path="url(#clip-path-8)">
              <g id="Grupo_152214" data-name="Grupo 152214" transform="translate(19.267 6.09)">
                <path id="Trazado_188865" data-name="Trazado 188865" d="M485.831,79.5l-2.515-6.492h.931l1.687,4.716q.2.567.34,1.063c.1-.354.218-.709.351-1.063l1.754-4.716h.877L486.713,79.5Z" transform="translate(-483.316 -72.89)"/>
                <path id="Trazado_188866" data-name="Trazado 188866" d="M487.839,79.5V73.005h4.694v.766H488.7v1.988h3.592v.762H488.7v2.21h3.986V79.5Z" transform="translate(-481.002 -72.89)"/>
                <path id="Trazado_188867" data-name="Trazado 188867" d="M491.909,79.5V73.005h2.878a3.811,3.811,0,0,1,1.321.175,1.441,1.441,0,0,1,.721.617,1.849,1.849,0,0,1,.271.98,1.635,1.635,0,0,1-.447,1.164,2.266,2.266,0,0,1-1.382.6,2.227,2.227,0,0,1,.519.323,4.4,4.4,0,0,1,.712.863L497.63,79.5H496.55l-.859-1.351q-.377-.585-.62-.895a2,2,0,0,0-.435-.434,1.357,1.357,0,0,0-.393-.172,2.548,2.548,0,0,0-.478-.03h-1V79.5Zm.86-3.628h1.846a2.769,2.769,0,0,0,.922-.121.992.992,0,0,0,.5-.39,1.056,1.056,0,0,0,.172-.582.966.966,0,0,0-.336-.757,1.56,1.56,0,0,0-1.055-.3h-2.054Z" transform="translate(-478.92 -72.89)"/>
                <path id="Trazado_188868" data-name="Trazado 188868" d="M496.04,77.449l.81-.071a1.8,1.8,0,0,0,.268.8,1.46,1.46,0,0,0,.655.5,2.471,2.471,0,0,0,1,.192,2.4,2.4,0,0,0,.868-.145,1.214,1.214,0,0,0,.561-.4.935.935,0,0,0,.183-.555.843.843,0,0,0-.177-.534,1.313,1.313,0,0,0-.585-.384,11.576,11.576,0,0,0-1.155-.316,5.958,5.958,0,0,1-1.255-.405,1.774,1.774,0,0,1-.694-.6,1.486,1.486,0,0,1-.227-.809,1.653,1.653,0,0,1,.28-.919,1.729,1.729,0,0,1,.815-.648,3.079,3.079,0,0,1,1.191-.221,3.269,3.269,0,0,1,1.273.231,1.838,1.838,0,0,1,.848.685,1.968,1.968,0,0,1,.319,1.023l-.824.062a1.323,1.323,0,0,0-.45-.93,1.745,1.745,0,0,0-1.131-.314,1.823,1.823,0,0,0-1.137.286.854.854,0,0,0-.355.688.742.742,0,0,0,.253.576,3.381,3.381,0,0,0,1.3.463,8.718,8.718,0,0,1,1.438.414,1.958,1.958,0,0,1,.836.662,1.615,1.615,0,0,1,.271.924,1.765,1.765,0,0,1-.3.977,1.97,1.97,0,0,1-.854.713,2.971,2.971,0,0,1-1.25.254,3.737,3.737,0,0,1-1.477-.257,2.064,2.064,0,0,1-.934-.772A2.188,2.188,0,0,1,496.04,77.449Z" transform="translate(-476.806 -72.927)"/>
                <path id="Trazado_188869" data-name="Trazado 188869" d="M500.393,79.5V73.005h.859V79.5Z" transform="translate(-474.579 -72.89)"/>
                <path id="Trazado_188870" data-name="Trazado 188870" d="M501.568,76.374a3.525,3.525,0,0,1,.869-2.53,2.945,2.945,0,0,1,2.24-.915,3.1,3.1,0,0,1,1.62.429,2.792,2.792,0,0,1,1.1,1.2,3.874,3.874,0,0,1,.379,1.743,3.821,3.821,0,0,1-.4,1.767,2.726,2.726,0,0,1-1.129,1.181,3.222,3.222,0,0,1-1.577.4,3.074,3.074,0,0,1-1.639-.443,2.862,2.862,0,0,1-1.094-1.209A3.665,3.665,0,0,1,501.568,76.374Zm.886.014a2.61,2.61,0,0,0,.63,1.849,2.2,2.2,0,0,0,3.18-.006,2.763,2.763,0,0,0,.627-1.936,3.35,3.35,0,0,0-.268-1.383,2.076,2.076,0,0,0-.784-.918,2.134,2.134,0,0,0-1.158-.325,2.2,2.2,0,0,0-1.571.627A2.8,2.8,0,0,0,502.454,76.388Z" transform="translate(-473.978 -72.929)"/>
                <path id="Trazado_188871" data-name="Trazado 188871" d="M506.3,79.5V73.005h.881l3.41,5.1v-5.1h.824V79.5h-.881l-3.41-5.1v5.1Z" transform="translate(-471.557 -72.89)"/>
                <path id="Trazado_188872" data-name="Trazado 188872" d="M510.718,75.1v-.908h.907V75.1Zm0,3.8v-.908h.907v.908Z" transform="translate(-469.297 -72.285)"/>
              </g>
            </g>
          </g>
        </g>
      </g>
      <g id="Grupo_152578" data-name="Grupo 152578" transform="translate(1113.654 6020.424)">
        <g id="Grupo_152222" data-name="Grupo 152222" clip-path="url(#clip-path-10)">
          <g id="Grupo_152221" data-name="Grupo 152221">
            <g id="Grupo_152220" data-name="Grupo 152220" clip-path="url(#clip-path-10)">
              <g id="Grupo_152219" data-name="Grupo 152219" transform="translate(38.672 6.178)">
                <path id="Trazado_188873" data-name="Trazado 188873" d="M551.868,79.507h-.726V74.426a3.674,3.674,0,0,1-.686.55,4.573,4.573,0,0,1-.764.411v-.771a4.294,4.294,0,0,0,1.063-.76,2.953,2.953,0,0,0,.645-.869h.467Z" transform="translate(-549.693 -72.987)"/>
              </g>
            </g>
          </g>
        </g>
      </g>
      <rect id="Rectángulo_45352" data-name="Rectángulo 45352" width="1.451" height="1.451" transform="translate(390 6018.973)"/>
      <rect id="Rectángulo_45353" data-name="Rectángulo 45353" width="1.451" height="1.451" transform="translate(571.102 6018.973)"/>
      <rect id="Rectángulo_45354" data-name="Rectángulo 45354" width="1.451" height="1.451" transform="translate(1031.27 6018.973)"/>
      <rect id="Rectángulo_45355" data-name="Rectángulo 45355" width="79.487" height="1.451" transform="translate(1032.721 6018.973)"/>
      <rect id="Rectángulo_45356" data-name="Rectángulo 45356" width="1.451" height="1.451" transform="translate(1112.202 6018.973)"/>
      <rect id="Rectángulo_45357" data-name="Rectángulo 45357" width="78.399" height="1.451" transform="translate(1113.654 6018.973)"/>
      <rect id="Rectángulo_45358" data-name="Rectángulo 45358" width="1.451" height="1.451" transform="translate(1192.062 6018.973)"/>
      <rect id="Rectángulo_45359" data-name="Rectángulo 45359" width="1.451" height="19.591" transform="translate(390 6020.424)"/>
      <rect id="Rectángulo_45360" data-name="Rectángulo 45360" width="1.451" height="19.591" transform="translate(571.102 6020.424)"/>
      <rect id="Rectángulo_45361" data-name="Rectángulo 45361" width="1.451" height="19.591" transform="translate(1031.27 6020.424)"/>
      <rect id="Rectángulo_45362" data-name="Rectángulo 45362" width="1.451" height="19.591" transform="translate(1112.202 6020.424)"/>
      <rect id="Rectángulo_45363" data-name="Rectángulo 45363" width="1.451" height="19.591" transform="translate(1192.062 6020.424)"/>
      <g id="Grupo_152579" data-name="Grupo 152579" transform="translate(1032.721 6041.466)">
        <g id="Grupo_152230" data-name="Grupo 152230" clip-path="url(#clip-path-8)">
          <g id="Grupo_152226" data-name="Grupo 152226">
            <g id="Grupo_152225" data-name="Grupo 152225" clip-path="url(#clip-path-8)">
              <g id="Grupo_152224" data-name="Grupo 152224" transform="translate(10.902 6.095)">
                <path id="Trazado_188874" data-name="Trazado 188874" d="M477.782,93.417V86.925h4.381v.766h-3.521V89.7h3.046v.766h-3.046v2.949Z" transform="translate(-477.782 -86.815)"/>
                <path id="Trazado_188875" data-name="Trazado 188875" d="M481.37,93.417V86.925h4.7v.766h-3.837v1.988h3.592v.762h-3.592v2.21h3.986v.766Z" transform="translate(-475.946 -86.815)"/>
                <path id="Trazado_188876" data-name="Trazado 188876" d="M490.147,91.178l.859.216a2.9,2.9,0,0,1-.97,1.614,2.688,2.688,0,0,1-1.717.556,3.084,3.084,0,0,1-1.708-.428,2.676,2.676,0,0,1-1-1.238,4.42,4.42,0,0,1-.342-1.74,3.84,3.84,0,0,1,.385-1.769,2.65,2.65,0,0,1,1.1-1.147,3.21,3.21,0,0,1,1.574-.392,2.658,2.658,0,0,1,1.639.5,2.566,2.566,0,0,1,.925,1.4l-.845.2a2.011,2.011,0,0,0-.656-1.031,1.742,1.742,0,0,0-1.081-.323,2.1,2.1,0,0,0-1.252.358,1.894,1.894,0,0,0-.706.963,3.876,3.876,0,0,0-.2,1.247A3.919,3.919,0,0,0,486.4,91.6a1.778,1.778,0,0,0,.75.922,2.1,2.1,0,0,0,1.1.307,1.846,1.846,0,0,0,1.223-.417A2.123,2.123,0,0,0,490.147,91.178Z" transform="translate(-473.952 -86.852)"/>
                <path id="Trazado_188877" data-name="Trazado 188877" d="M489.782,93.417V86.925h.86V89.59h3.374V86.925h.859v6.492h-.859V90.356h-3.374v3.061Z" transform="translate(-471.643 -86.815)"/>
                <path id="Trazado_188878" data-name="Trazado 188878" d="M493.6,93.417l2.493-6.492h.925l2.657,6.492H498.7l-.757-1.967h-2.715l-.714,1.967Zm1.873-2.666h2.2l-.677-1.8q-.311-.821-.461-1.347a8.273,8.273,0,0,1-.351,1.24Z" transform="translate(-469.688 -86.815)"/>
              </g>
            </g>
          </g>
          <g id="Grupo_152229" data-name="Grupo 152229">
            <g id="Grupo_152228" data-name="Grupo 152228" clip-path="url(#clip-path-8)">
              <g id="Grupo_152227" data-name="Grupo 152227" transform="translate(43.92 6.205)">
                <path id="Trazado_188879" data-name="Trazado 188879" d="M499.625,93.417V86.925h4.694v.766h-3.835v1.988h3.592v.762h-3.592v2.21h3.986v.766Z" transform="translate(-499.625 -86.925)"/>
                <path id="Trazado_188880" data-name="Trazado 188880" d="M503.664,93.417V86.925h.859v5.726h3.2v.766Z" transform="translate(-497.559 -86.925)"/>
                <path id="Trazado_188881" data-name="Trazado 188881" d="M506.564,93.417l2.494-6.492h.925l2.658,6.492h-.978l-.757-1.967H508.19l-.714,1.967Zm1.874-2.666h2.2l-.677-1.8q-.311-.821-.461-1.347a8.259,8.259,0,0,1-.351,1.24Z" transform="translate(-496.075 -86.925)"/>
                <path id="Trazado_188882" data-name="Trazado 188882" d="M511.087,93.417V86.925h2.435a3.008,3.008,0,0,1,1.193.2,1.538,1.538,0,0,1,.706.608,1.609,1.609,0,0,1,.254.856,1.48,1.48,0,0,1-.225.785,1.62,1.62,0,0,1-.683.594,1.7,1.7,0,0,1,.905.588,1.579,1.579,0,0,1,.318.984,1.877,1.877,0,0,1-.193.848,1.639,1.639,0,0,1-.475.6,2.024,2.024,0,0,1-.712.32,4.3,4.3,0,0,1-1.046.109Zm.859-3.765h1.4a3.155,3.155,0,0,0,.819-.074.9.9,0,0,0,.493-.323.927.927,0,0,0,.166-.567,1.052,1.052,0,0,0-.154-.57.783.783,0,0,0-.443-.336,3.7,3.7,0,0,0-.987-.091h-1.3Zm0,3h1.617a3.623,3.623,0,0,0,.583-.032,1.368,1.368,0,0,0,.5-.177.921.921,0,0,0,.328-.361,1.12,1.12,0,0,0,.129-.546,1.078,1.078,0,0,0-.186-.632.984.984,0,0,0-.517-.376,3.179,3.179,0,0,0-.949-.109h-1.5Z" transform="translate(-493.761 -86.925)"/>
                <path id="Trazado_188883" data-name="Trazado 188883" d="M515.263,89.016v-.908h.907v.908Zm0,3.8V91.9h.907v.908Z" transform="translate(-491.624 -86.32)"/>
              </g>
            </g>
          </g>
        </g>
      </g>
      <g id="Grupo_152580" data-name="Grupo 152580" transform="translate(1113.654 6041.466)">
        <g id="Grupo_152241" data-name="Grupo 152241" clip-path="url(#clip-path-10)">
          <g id="Grupo_152234" data-name="Grupo 152234">
            <g id="Grupo_152233" data-name="Grupo 152233" clip-path="url(#clip-path-10)">
              <g id="Grupo_152232" data-name="Grupo 152232" transform="translate(11.195 6.205)">
                <path id="Trazado_188884" data-name="Trazado 188884" d="M531.516,93.417V86.925h1.292l1.537,4.6c.141.428.245.748.31.961.074-.237.189-.583.345-1.042l1.555-4.517h1.155v6.492h-.828V87.983L535,93.417h-.774l-1.879-5.528v5.528Z" transform="translate(-531.516 -86.925)"/>
                <path id="Trazado_188885" data-name="Trazado 188885" d="M539.654,92.268a2.982,2.982,0,0,1-.852.532,2.474,2.474,0,0,1-.878.154,1.707,1.707,0,0,1-1.191-.378,1.251,1.251,0,0,1-.417-.969,1.308,1.308,0,0,1,.57-1.088,1.944,1.944,0,0,1,.573-.262,5.715,5.715,0,0,1,.709-.119,7.318,7.318,0,0,0,1.421-.275q0-.163,0-.209a.879.879,0,0,0-.225-.686,1.336,1.336,0,0,0-.908-.269,1.4,1.4,0,0,0-.828.2,1.2,1.2,0,0,0-.4.7l-.78-.106a1.925,1.925,0,0,1,.351-.809,1.528,1.528,0,0,1,.7-.473,3.145,3.145,0,0,1,1.067-.166,2.8,2.8,0,0,1,.978.142,1.277,1.277,0,0,1,.553.357,1.243,1.243,0,0,1,.248.543,4.361,4.361,0,0,1,.041.735v1.063a10.8,10.8,0,0,0,.051,1.406,1.7,1.7,0,0,0,.2.565h-.833A1.706,1.706,0,0,1,539.654,92.268Zm-.067-1.781a5.785,5.785,0,0,1-1.3.3,3.066,3.066,0,0,0-.7.16.693.693,0,0,0-.314.258.7.7,0,0,0,.132.91,1.034,1.034,0,0,0,.706.213,1.641,1.641,0,0,0,.819-.2,1.254,1.254,0,0,0,.528-.552,1.942,1.942,0,0,0,.127-.8Z" transform="translate(-529.061 -86.356)"/>
                <path id="Trazado_188886" data-name="Trazado 188886" d="M539.96,94.623l-.088-.748a1.793,1.793,0,0,0,.455.071.88.88,0,0,0,.426-.089.732.732,0,0,0,.261-.248,3.946,3.946,0,0,0,.243-.594c.013-.044.038-.109.071-.193l-1.785-4.713h.859l.98,2.724q.19.519.34,1.09a10.847,10.847,0,0,1,.328-1.072l1.005-2.742h.8l-1.79,4.783a9.5,9.5,0,0,1-.448,1.069,1.586,1.586,0,0,1-.487.577,1.153,1.153,0,0,1-.656.183A1.6,1.6,0,0,1,539.96,94.623Z" transform="translate(-527.409 -86.32)"/>
                <path id="Trazado_188887" data-name="Trazado 188887" d="M542.532,90.5a2.42,2.42,0,0,1,.727-1.935,2.181,2.181,0,0,1,1.478-.523,2.11,2.11,0,0,1,1.586.635,2.417,2.417,0,0,1,.615,1.757,3.1,3.1,0,0,1-.272,1.428,1.936,1.936,0,0,1-.792.809,2.309,2.309,0,0,1-1.137.287,2.115,2.115,0,0,1-1.6-.633A2.527,2.527,0,0,1,542.532,90.5Zm.819,0a2,2,0,0,0,.395,1.353,1.315,1.315,0,0,0,1.98,0,2.061,2.061,0,0,0,.393-1.379,1.956,1.956,0,0,0-.395-1.321,1.316,1.316,0,0,0-1.979,0A1.991,1.991,0,0,0,543.351,90.5Z" transform="translate(-525.88 -86.356)"/>
              </g>
            </g>
          </g>
          <g id="Grupo_152237" data-name="Grupo 152237">
            <g id="Grupo_152236" data-name="Grupo 152236" clip-path="url(#clip-path-10)">
              <g id="Grupo_152235" data-name="Grupo 152235" transform="translate(35.5 6.205)">
                <path id="Trazado_188888" data-name="Trazado 188888" d="M550.934,93.417v-.594a1.464,1.464,0,0,1-1.315.7,1.849,1.849,0,0,1-1.036-.31,2.036,2.036,0,0,1-.729-.866,2.953,2.953,0,0,1-.26-1.277,3.327,3.327,0,0,1,.234-1.277,1.841,1.841,0,0,1,1.753-1.185,1.574,1.574,0,0,1,1.3.647V86.925h.792v6.492Zm-2.52-2.348a2.048,2.048,0,0,0,.381,1.351,1.148,1.148,0,0,0,.9.446,1.131,1.131,0,0,0,.889-.426,1.981,1.981,0,0,0,.364-1.3,2.216,2.216,0,0,0-.372-1.418,1.143,1.143,0,0,0-.916-.45,1.1,1.1,0,0,0-.889.434A2.142,2.142,0,0,0,548.414,91.07Z" transform="translate(-547.595 -86.925)"/>
                <path id="Trazado_188889" data-name="Trazado 188889" d="M554.45,91.333l.822.1a2,2,0,0,1-.721,1.12,2.447,2.447,0,0,1-2.984-.236,2.5,2.5,0,0,1-.6-1.784,2.6,2.6,0,0,1,.611-1.841,2.07,2.07,0,0,1,1.586-.656,2.015,2.015,0,0,1,1.542.642,2.556,2.556,0,0,1,.6,1.806q0,.07,0,.213h-3.507a1.8,1.8,0,0,0,.439,1.187,1.3,1.3,0,0,0,.982.411,1.21,1.21,0,0,0,.748-.23A1.535,1.535,0,0,0,554.45,91.333Zm-2.618-1.289h2.626a1.584,1.584,0,0,0-.3-.89,1.221,1.221,0,0,0-.987-.46,1.268,1.268,0,0,0-.924.367A1.451,1.451,0,0,0,551.832,90.044Z" transform="translate(-545.871 -86.356)"/>
              </g>
            </g>
          </g>
          <g id="Grupo_152240" data-name="Grupo 152240">
            <g id="Grupo_152239" data-name="Grupo 152239" clip-path="url(#clip-path-10)">
              <g id="Grupo_152238" data-name="Grupo 152238" transform="translate(48.208 6.178)">
                <path id="Trazado_188890" data-name="Trazado 188890" d="M560.294,92.66v.766H556a1.431,1.431,0,0,1,.092-.553,2.962,2.962,0,0,1,.525-.865,8.26,8.26,0,0,1,1.044-.983,8.864,8.864,0,0,0,1.43-1.376,1.645,1.645,0,0,0,.372-.958,1.06,1.06,0,0,0-.34-.8,1.218,1.218,0,0,0-.883-.325,1.244,1.244,0,0,0-.921.345,1.313,1.313,0,0,0-.349.957l-.819-.085a2.011,2.011,0,0,1,.633-1.4,2.157,2.157,0,0,1,1.474-.481,2.059,2.059,0,0,1,1.48.519,1.7,1.7,0,0,1,.544,1.285,1.932,1.932,0,0,1-.16.765,2.98,2.98,0,0,1-.529.794,13.123,13.123,0,0,1-1.229,1.143c-.478.4-.785.674-.921.816a2.656,2.656,0,0,0-.337.432Z" transform="translate(-556.002 -86.907)"/>
                <path id="Trazado_188891" data-name="Trazado 188891" d="M559.424,90.225a5.933,5.933,0,0,1,.237-1.855,2.3,2.3,0,0,1,.7-1.082,1.8,1.8,0,0,1,1.176-.381,1.935,1.935,0,0,1,.918.21,1.76,1.76,0,0,1,.65.608,3.244,3.244,0,0,1,.4.964,6.46,6.46,0,0,1,.147,1.536,5.939,5.939,0,0,1-.236,1.844,2.3,2.3,0,0,1-.7,1.085,1.8,1.8,0,0,1-1.179.382,1.778,1.778,0,0,1-1.474-.673A4.273,4.273,0,0,1,559.424,90.225Zm.819,0a4.049,4.049,0,0,0,.375,2.127,1.069,1.069,0,0,0,1.846,0,6.228,6.228,0,0,0,0-4.257,1.112,1.112,0,0,0-.933-.526,1.022,1.022,0,0,0-.877.464A4.131,4.131,0,0,0,560.243,90.225Z" transform="translate(-554.25 -86.907)"/>
                <path id="Trazado_188892" data-name="Trazado 188892" d="M565.575,93.427h-.8V88.346a4.176,4.176,0,0,1-.754.55,5.355,5.355,0,0,1-.839.411v-.771a4.753,4.753,0,0,0,1.168-.762,2.982,2.982,0,0,0,.709-.868h.514Z" transform="translate(-552.327 -86.907)"/>
                <path id="Trazado_188893" data-name="Trazado 188893" d="M566.134,91.687l.836-.071a1.517,1.517,0,0,0,.432.919,1.173,1.173,0,0,0,.818.307,1.268,1.268,0,0,0,.974-.434,1.632,1.632,0,0,0,.4-1.15,1.477,1.477,0,0,0-.384-1.076,1.335,1.335,0,0,0-1-.395,1.379,1.379,0,0,0-.7.175,1.341,1.341,0,0,0-.487.453l-.748-.1.629-3.335h3.228v.762h-2.591l-.349,1.746a2.111,2.111,0,0,1,1.228-.408,1.942,1.942,0,0,1,1.435.59,2.053,2.053,0,0,1,.583,1.515,2.365,2.365,0,0,1-.512,1.522,2.059,2.059,0,0,1-1.705.789,2.1,2.1,0,0,1-1.447-.5A1.937,1.937,0,0,1,566.134,91.687Z" transform="translate(-550.818 -86.868)"/>
              </g>
            </g>
          </g>
        </g>
      </g>
      <rect id="Rectángulo_45364" data-name="Rectángulo 45364" width="1.451" height="1.451" transform="translate(390 6040.015)"/>
      <rect id="Rectángulo_45365" data-name="Rectángulo 45365" width="1.451" height="1.451" transform="translate(571.102 6040.015)"/>
      <rect id="Rectángulo_45366" data-name="Rectángulo 45366" width="1.451" height="1.451" transform="translate(1031.27 6040.015)"/>
      <rect id="Rectángulo_45367" data-name="Rectángulo 45367" width="79.487" height="1.451" transform="translate(1032.721 6040.015)"/>
      <rect id="Rectángulo_45368" data-name="Rectángulo 45368" width="1.451" height="1.451" transform="translate(1112.202 6040.015)"/>
      <rect id="Rectángulo_45369" data-name="Rectángulo 45369" width="78.399" height="1.451" transform="translate(1113.654 6040.015)"/>
      <rect id="Rectángulo_45370" data-name="Rectángulo 45370" width="1.451" height="1.451" transform="translate(1192.062 6040.015)"/>
      <rect id="Rectángulo_45371" data-name="Rectángulo 45371" width="1.451" height="19.591" transform="translate(390 6041.466)"/>
      <rect id="Rectángulo_45372" data-name="Rectángulo 45372" width="1.451" height="1.451" transform="translate(390 6061.057)"/>
      <rect id="Rectángulo_45373" data-name="Rectángulo 45373" width="1.451" height="1.451" transform="translate(390 6061.057)"/>
      <rect id="Rectángulo_45374" data-name="Rectángulo 45374" width="179.656" height="1.451" transform="translate(391.451 6061.057)"/>
      <rect id="Rectángulo_45375" data-name="Rectángulo 45375" width="1.451" height="19.591" transform="translate(571.102 6041.466)"/>
      <rect id="Rectángulo_45376" data-name="Rectángulo 45376" width="1.451" height="1.451" transform="translate(571.102 6061.057)"/>
      <rect id="Rectángulo_45377" data-name="Rectángulo 45377" width="458.717" height="1.451" transform="translate(572.553 6061.057)"/>
      <rect id="Rectángulo_45378" data-name="Rectángulo 45378" width="1.451" height="19.591" transform="translate(1031.27 6041.466)"/>
      <rect id="Rectángulo_45379" data-name="Rectángulo 45379" width="1.451" height="1.451" transform="translate(1031.27 6061.057)"/>
      <rect id="Rectángulo_45380" data-name="Rectángulo 45380" width="79.487" height="1.451" transform="translate(1032.721 6061.057)"/>
      <rect id="Rectángulo_45381" data-name="Rectángulo 45381" width="1.451" height="19.591" transform="translate(1112.202 6041.466)"/>
      <rect id="Rectángulo_45382" data-name="Rectángulo 45382" width="1.451" height="1.451" transform="translate(1112.202 6061.057)"/>
      <rect id="Rectángulo_45383" data-name="Rectángulo 45383" width="78.399" height="1.451" transform="translate(1113.654 6061.057)"/>
      <rect id="Rectángulo_45384" data-name="Rectángulo 45384" width="1.451" height="19.591" transform="translate(1192.062 6041.466)"/>
      <rect id="Rectángulo_45385" data-name="Rectángulo 45385" width="1.451" height="1.451" transform="translate(1192.062 6061.057)"/>
      <rect id="Rectángulo_45386" data-name="Rectángulo 45386" width="1.451" height="1.451" transform="translate(1192.062 6061.057)"/>
      <g id="Rectángulo_45387" data-name="Rectángulo 45387" transform="translate(1022.713 5984.11)" fill="none" stroke="#7e5ee3" stroke-width="3">
        <rect width="179" height="92" stroke="none"/>
        <rect x="1.5" y="1.5" width="176" height="89" fill="none"/>
      </g>
    </g>
  </g>
</svg>
