<svg xmlns="http://www.w3.org/2000/svg" width="294.643" height="176.257" viewBox="0 0 294.643 176.257">
  <g id="Grupo_75707" data-name="Grupo 75707" transform="translate(-39.372 -96.651)">
    <path id="Trazado_147593" data-name="Trazado 147593" d="M333.808,296.931c4.377-47.557-61.891-45.179-84.306-64.854-25.418-22.31-20.055-57.443-47.232-86.3C172.257,113.9,106.79,123.735,85.6,183.3c-9.547,26.832-24.836,30.127-38.261,47.29-15.939,20.376-7.461,66.217,21.026,65.961Z" transform="translate(0 -24.023)" fill="#d9eff8"/>
    <g id="Grupo_152965" data-name="Grupo 152965" transform="translate(-199.698 -148.309)">
      <g id="Grupo_152934" data-name="Grupo 152934" transform="translate(253.649 295.57)">
        <g id="Grupo_152933" data-name="Grupo 152933" transform="translate(1.897 0)">
          <path id="Trazado_189371" data-name="Trazado 189371" d="M633.9,773.3c13.7,24.521-6.126,72.632-131.88,39.2-63.051-16.764-110.148,21-119.853-5.359-22.606-61.4,69.715-132.43,121.053-82.841C550.145,769.624,608.959,728.674,633.9,773.3Z" transform="translate(-378.665 -707.631)" fill="none" stroke="#e4e4e4" stroke-miterlimit="10" stroke-width="2" stroke-dasharray="32.088 32.088"/>
        </g>
        <path id="Trazado_189372" data-name="Trazado 189372" d="M617.729,945.35H361.32c8.025-59.287,62.359-105.146,128.2-105.146S609.7,886.063,617.729,945.35Z" transform="translate(-361.32 -825.702)" fill="#f6f5f5"/>
      </g>
      <g id="Grupo_152960" data-name="Grupo 152960" transform="translate(372.061 244.96)">
        <rect id="Rectángulo_45864" data-name="Rectángulo 45864" width="112.703" height="154.601" rx="4" transform="translate(0 15.135)" fill="#a9bae6"/>
        <g id="Grupo_152958" data-name="Grupo 152958" transform="translate(5.05 21.365)">
          <g id="Grupo_152935" data-name="Grupo 152935">
            <rect id="Rectángulo_45865" data-name="Rectángulo 45865" width="92.763" height="134.75" transform="translate(5.136)" fill="#f6f5f5"/>
            <path id="Trazado_189373" data-name="Trazado 189373" d="M1629.714,440.287c.029,52.545,1.725,115.917-4.177,129.948-26,2.533-56.438,3.346-88.588,3.5l12.221-133.04Z" transform="translate(-1531.814 -440.286)" fill="#e4e4e4"/>
            <path id="Trazado_189374" data-name="Trazado 189374" d="M1579.571,566.039c-40.521,6.485-67.6,6.827-89.568,5.2,2.846-30.3,3.987-80.637,5.135-130.892l48.828.108,44.192,2.917C1588.8,495.529,1588.873,543.71,1579.571,566.039Z" transform="translate(-1490.003 -440.336)" fill="#fff"/>
          </g>
          <g id="Grupo_152957" data-name="Grupo 152957" transform="translate(14.472 12.427)">
            <rect id="Rectángulo_45866" data-name="Rectángulo 45866" width="48.813" height="7.435" transform="translate(11.98 0) rotate(1.348)" fill="#708cd5"/>
            <g id="Grupo_152956" data-name="Grupo 152956" transform="translate(0 14.505)">
              <g id="Grupo_152939" data-name="Grupo 152939" transform="translate(1.634)">
                <g id="Grupo_152936" data-name="Grupo 152936" transform="translate(24.281 3.797)">
                  <rect id="Rectángulo_45867" data-name="Rectángulo 45867" width="44.029" height="3.403" transform="matrix(1, 0.024, -0.024, 1, 0.255, 0)" fill="#708cd5"/>
                  <rect id="Rectángulo_45868" data-name="Rectángulo 45868" width="29.927" height="3.403" transform="translate(0.08 7.418) rotate(1.348)" fill="#d3dfff"/>
                </g>
                <g id="Grupo_152938" data-name="Grupo 152938" transform="translate(0)">
                  <rect id="Rectángulo_45869" data-name="Rectángulo 45869" width="10.423" height="10.423" transform="matrix(1, 0.024, -0.024, 1, 0.245, 3.425)" fill="#fff" stroke="#708cd5" stroke-miterlimit="10" stroke-width="2"/>
                  <g id="Grupo_152937" data-name="Grupo 152937" transform="translate(1.923)">
                    <path id="Trazado_189375" data-name="Trazado 189375" d="M1654.843,692.662c.322,1.232.916,6.391,3.5,4.948a7.869,7.869,0,0,0,1.546-1.718l2.4-2.729,4.807-5.458c.411-.466-1.4-1.635-1.918-1.05l-4.273,4.851-2.136,2.426c-.494.561-1.637,2.371-2.37,2.531l1.2.386c.282.231-.242-1.408-.253-1.452l-.6-2.283c-.164-.629-2.148-1.384-1.9-.453Z" transform="translate(-1654.822 -686.495)" fill="#00bcd4"/>
                  </g>
                </g>
              </g>
              <g id="Grupo_152943" data-name="Grupo 152943" transform="translate(1.188 19.239)">
                <g id="Grupo_152940" data-name="Grupo 152940" transform="translate(24.281 3.503)">
                  <rect id="Rectángulo_45870" data-name="Rectángulo 45870" width="36.257" height="3.403" transform="translate(0.255 0) rotate(1.348)" fill="#708cd5"/>
                  <rect id="Rectángulo_45871" data-name="Rectángulo 45871" width="44.029" height="3.403" transform="translate(0.08 7.418) rotate(1.348)" fill="#d3dfff"/>
                </g>
                <g id="Grupo_152942" data-name="Grupo 152942" transform="translate(0)">
                  <rect id="Rectángulo_45872" data-name="Rectángulo 45872" width="10.423" height="10.423" transform="matrix(1, 0.024, -0.024, 1, 0.245, 3.131)" fill="#fff" stroke="#708cd5" stroke-miterlimit="10" stroke-width="2"/>
                  <g id="Grupo_152941" data-name="Grupo 152941" transform="translate(1.916)">
                    <path id="Trazado_189376" data-name="Trazado 189376" d="M1650.7,868.54c.322,1.232.916,6.391,3.5,4.948a7.867,7.867,0,0,0,1.546-1.718l2.4-2.729,4.807-5.458c.411-.466-1.4-1.635-1.918-1.05l-4.273,4.851-2.136,2.426c-.494.561-1.637,2.371-2.37,2.531l1.2.386c.282.231-.242-1.408-.253-1.452l-.6-2.283c-.164-.629-2.148-1.384-1.9-.453Z" transform="translate(-1650.682 -862.373)" fill="#00bcd4"/>
                  </g>
                </g>
              </g>
              <g id="Grupo_152947" data-name="Grupo 152947" transform="translate(0.743 38.318)">
                <g id="Grupo_152944" data-name="Grupo 152944" transform="translate(24.281 3.368)">
                  <rect id="Rectángulo_45873" data-name="Rectángulo 45873" width="44.029" height="3.403" transform="translate(0.255 0) rotate(1.348)" fill="#708cd5"/>
                  <rect id="Rectángulo_45874" data-name="Rectángulo 45874" width="19.69" height="3.403" transform="translate(0.08 7.418) rotate(1.348)" fill="#d3dfff"/>
                </g>
                <g id="Grupo_152946" data-name="Grupo 152946" transform="translate(0)">
                  <rect id="Rectángulo_45875" data-name="Rectángulo 45875" width="10.423" height="10.423" transform="matrix(1, 0.024, -0.024, 1, 0.245, 2.997)" fill="#fff" stroke="#708cd5" stroke-miterlimit="10" stroke-width="2"/>
                  <g id="Grupo_152945" data-name="Grupo 152945" transform="translate(2.057)">
                    <path id="Trazado_189377" data-name="Trazado 189377" d="M1647.92,1042.961c.322,1.232.916,6.391,3.5,4.948a7.872,7.872,0,0,0,1.546-1.718l2.4-2.729,4.807-5.458c.411-.466-1.4-1.636-1.918-1.05l-4.273,4.851-2.137,2.426c-.494.561-1.637,2.371-2.37,2.531l1.2.386c.282.231-.242-1.408-.253-1.452l-.6-2.283c-.164-.629-2.148-1.384-1.9-.453Z" transform="translate(-1647.899 -1036.794)" fill="#00bcd4"/>
                  </g>
                </g>
              </g>
              <g id="Grupo_152951" data-name="Grupo 152951" transform="translate(0.297 57.138)">
                <g id="Grupo_152948" data-name="Grupo 152948" transform="translate(24.281 3.493)">
                  <rect id="Rectángulo_45876" data-name="Rectángulo 45876" width="44.029" height="3.403" transform="translate(0.255 0) rotate(1.348)" fill="#708cd5"/>
                  <rect id="Rectángulo_45877" data-name="Rectángulo 45877" width="34.781" height="3.403" transform="matrix(1, 0.024, -0.024, 1, 0.08, 7.418)" fill="#d3dfff"/>
                </g>
                <g id="Grupo_152950" data-name="Grupo 152950" transform="translate(0)">
                  <rect id="Rectángulo_45878" data-name="Rectángulo 45878" width="10.423" height="10.423" transform="matrix(1, 0.024, -0.024, 1, 0.245, 3.121)" fill="#fff" stroke="#708cd5" stroke-miterlimit="10" stroke-width="2"/>
                  <g id="Grupo_152949" data-name="Grupo 152949" transform="translate(2.06)">
                    <path id="Trazado_189378" data-name="Trazado 189378" d="M1643.871,1215.016c.322,1.232.916,6.391,3.5,4.948a7.873,7.873,0,0,0,1.546-1.718l2.4-2.729,4.807-5.458c.411-.466-1.4-1.635-1.918-1.05l-4.273,4.851-2.136,2.426c-.494.561-1.637,2.371-2.37,2.531l1.2.386c.282.231-.242-1.408-.253-1.452l-.6-2.283c-.164-.629-2.148-1.384-1.9-.453Z" transform="translate(-1643.85 -1208.849)" fill="#00bcd4"/>
                  </g>
                </g>
              </g>
              <g id="Grupo_152955" data-name="Grupo 152955" transform="translate(0 75.794)">
                <g id="Grupo_152952" data-name="Grupo 152952" transform="translate(24.135 3.638)">
                  <rect id="Rectángulo_45879" data-name="Rectángulo 45879" width="17.453" height="3.403" transform="matrix(1, 0.024, -0.024, 1, 0.255, 0)" fill="#708cd5"/>
                  <path id="Trazado_189379" data-name="Trazado 189379" d="M1887.039,1481.511l-44.017-1.036-.08,3.4c17.03.4,38.713,1.2,43.137.518A3.82,3.82,0,0,0,1887.039,1481.511Z" transform="translate(-1842.942 -1473.057)" fill="#d3dfff"/>
                </g>
                <g id="Grupo_152954" data-name="Grupo 152954">
                  <rect id="Rectángulo_45880" data-name="Rectángulo 45880" width="10.423" height="10.423" transform="translate(0.245 3.27) rotate(1.348)" fill="#fff" stroke="#708cd5" stroke-miterlimit="10" stroke-width="2"/>
                  <g id="Grupo_152953" data-name="Grupo 152953" transform="translate(1.918)">
                    <path id="Trazado_189380" data-name="Trazado 189380" d="M1639.857,1385.564c.322,1.232.916,6.391,3.5,4.948a7.859,7.859,0,0,0,1.546-1.718l2.4-2.729,4.807-5.458c.411-.466-1.4-1.636-1.918-1.05l-4.273,4.851-2.136,2.426c-.494.561-1.637,2.371-2.37,2.531l1.2.386c.282.231-.242-1.408-.253-1.452l-.6-2.283c-.164-.629-2.148-1.384-1.9-.453Z" transform="translate(-1639.836 -1379.397)" fill="#00bcd4"/>
                  </g>
                </g>
              </g>
            </g>
          </g>
        </g>
        <g id="Grupo_152959" data-name="Grupo 152959" transform="translate(32.067 0)">
          <path id="Trazado_189381" data-name="Trazado 189381" d="M1809.785,261.031v10.4H1768v-10.4a6,6,0,0,1,1.759-4.249,4.987,4.987,0,0,1,.424-.381,5.964,5.964,0,0,1,3.824-1.378,7.076,7.076,0,0,0,3.072-.7,7.362,7.362,0,0,0,1.155-.7,7.071,7.071,0,0,0,2.564-3.636,7.1,7.1,0,0,1,6.791-5.032h2.608a7.1,7.1,0,0,1,6.791,5.032,7.07,7.07,0,0,0,2.564,3.636,7.366,7.366,0,0,0,1.155.7,7.076,7.076,0,0,0,3.072.7,6.015,6.015,0,0,1,6.007,6.007Z" transform="translate(-1764.609 -244.96)" fill="#00bcd4"/>
          <path id="Trazado_189382" data-name="Trazado 189382" d="M1785.567,440.28v7.731H1737V440.28h3.391v5.106h41.785V440.28Z" transform="translate(-1737 -418.915)" fill="#e4e4e4"/>
          <ellipse id="Elipse_4932" data-name="Elipse 4932" cx="3.706" cy="3.523" rx="3.706" ry="3.523" transform="translate(20.578 2.712)" fill="#fff"/>
        </g>
      </g>
      <g id="Grupo_152964" data-name="Grupo 152964" transform="translate(267.958 275.206)">
        <g id="Grupo_152961" data-name="Grupo 152961" transform="translate(76.899 11.613)">
          <path id="Trazado_189383" data-name="Trazado 189383" d="M1198.62,640.7c-1.482-.281-2.867-2.757-3.349-3.706a1.178,1.178,0,0,1-.107-.754l.59-3.126s1.361.231,1.256,2.044a1.337,1.337,0,0,0,.095.552l.521,1.363,1.54-1.193-.845-2.385a4.1,4.1,0,0,1-1.714.124c-1.2-.383.373-1.317.87-1.416s1.59-.5,2.087.348.8,1.342.8,1.342a18.7,18.7,0,0,0,.174-6.112c-.017-.19.459-.186.593-.05.4.407,1.038,1.647,1.071,5.416,0,0,.067-4.393.82-4.845.621-.373.935,1.777.5,5.424,0,0,.811-3.157,1.391-3.163.979-.01.013,8.431-2.448,10.947Z" transform="translate(-1195.144 -627.631)" fill="#f9b384"/>
          <path id="Trazado_189384" data-name="Trazado 189384" d="M1211.477,735.28q-.066.63-.144,1.221v0a35.48,35.48,0,0,1-.647,3.724c-.013.052-.022.1-.035.149-.748,3.067-.884,4.568-3.439,4.165l-2.63-2.993-.026-.031-.193-.219.534-1.575.07-.206.394-1.146.048-.149.674-1.973.271-.8Z" transform="translate(-1203.355 -723.505)" fill="#f9b384"/>
        </g>
        <g id="Grupo_152962" data-name="Grupo 152962" transform="translate(28.061 126.836)">
          <path id="Trazado_189385" data-name="Trazado 189385" d="M756.777,1731.542l-.669,2.092c-4.59,1.508-7.267,3.235-7.438,5.251h13.272l1.064-7A10.3,10.3,0,0,1,756.777,1731.542Z" transform="translate(-748.669 -1726.013)" fill="#1f3c88"/>
          <path id="Trazado_189386" data-name="Trazado 189386" d="M824.453,1684l-1.664,5.2a10.3,10.3,0,0,0,6.229.338l.686-4.518Z" transform="translate(-814.681 -1683.672)" fill="#f9b384"/>
          <path id="Trazado_189387" data-name="Trazado 189387" d="M995.074,1686.3l.39-5.3-6.235.328-.341,4.883A10.2,10.2,0,0,0,995.074,1686.3Z" transform="translate(-962.612 -1681)" fill="#f9b384"/>
          <path id="Trazado_189388" data-name="Trazado 189388" d="M998.223,1736.3c-.172-2.015-2.516-4.776-7.657-5.433l.157-2.141a10.2,10.2,0,0,1-6.186-.086L984,1736.3Z" transform="translate(-958.261 -1723.428)" fill="#1f3c88"/>
        </g>
        <path id="Trazado_189389" data-name="Trazado 189389" d="M938,667.324l-7.521.052V656h7.294l0,.7.035,3.605.052,5.789Z" transform="translate(-882.534 -641.284)" fill="#f9b384"/>
        <path id="Trazado_189390" data-name="Trazado 189390" d="M945.689,670.965c-1.352,1.422-4.879-.184-6.366-1.75l6.331-1.855Z" transform="translate(-890.407 -651.401)" fill="#e28b6d"/>
        <path id="Trazado_189391" data-name="Trazado 189391" d="M916.576,570.3a16.263,16.263,0,0,1-.2,2.56c-.368,2.293-1.339,4.275-3.579,4.336-5.294.153-6.8-2.875-7.8-5.351s.621-8.445.621-8.445l6.852-.678,3.763,3.085A28.07,28.07,0,0,1,916.576,570.3Z" transform="translate(-859.548 -558.208)" fill="#f9b384"/>
        <path id="Trazado_189392" data-name="Trazado 189392" d="M878.114,533.684s1.51-.07,1.768-3.968A5.338,5.338,0,0,0,886.121,528a3.611,3.611,0,0,0,6.331-1.294c.912-2.607-1.6-6.49-5.269-4.138-3.591-1.814-9.038-1.69-10.606,2.761,0,0-5.449,2.512.321,8.044A6.673,6.673,0,0,0,878.114,533.684Z" transform="translate(-832.45 -521.467)" fill="#102048"/>
        <path id="Trazado_189393" data-name="Trazado 189393" d="M986.6,1133.3l-4.157,62.864h-9.772l2.443-61,1.495-.693Z" transform="translate(-920.106 -1066.374)" fill="#102048"/>
        <path id="Trazado_189394" data-name="Trazado 189394" d="M811.524,1016.667l-6.855,71.465h10.647l10.136-59.36,11.522-3.5.51-12.689L811.816,1012Z" transform="translate(-770.483 -958.343)" fill="#1f3c88"/>
        <path id="Trazado_189395" data-name="Trazado 189395" d="M863.7,997.211c5.815,2.088,19.459-.3,22.292-3.206l-2.013-4.026-22.442,2.982Z" transform="translate(-821.134 -938.731)" fill="#102048" opacity="0.6"/>
        <path id="Trazado_189396" data-name="Trazado 189396" d="M913.992,755.26c-.188.079-.381.162-.578.236a39.5,39.5,0,0,1-7.289,2.17,33.45,33.45,0,0,1-4.887.6,28.238,28.238,0,0,1-7.674-.621l3.26-30.392.4-3.706s4.266,5.25,8.97-.547Z" transform="translate(-849.653 -700.955)" fill="#fff"/>
        <path id="Trazado_189397" data-name="Trazado 189397" d="M901.237,779.2a28.238,28.238,0,0,1-7.674-.621l3.26-30.392,1.164-1.682C900.861,753.492,903.806,768.974,901.237,779.2Z" transform="translate(-849.653 -721.885)" fill="#1f3c88" opacity="0.3"/>
        <path id="Trazado_189398" data-name="Trazado 189398" d="M635.858,717c3.241,13.761,4.574,27.921-.2,43.645a17.878,17.878,0,0,1-11.522.146l1.021-28.586-24.028,16.517-1.459-9.006C608.906,730.884,624.876,717.541,635.858,717Z" transform="translate(-587.906 -695.612)" fill="#708cd5"/>
        <path id="Trazado_189399" data-name="Trazado 189399" d="M1005.033,808.933a39.493,39.493,0,0,1-7.289,2.17c-1.448-8.3-1.768-21.947-.591-28.1Z" transform="translate(-941.272 -754.392)" fill="#1f3c88" opacity="0.3"/>
        <path id="Trazado_189400" data-name="Trazado 189400" d="M1212.253,764.2c-.013.052-.022.1-.035.149-.748,3.067-.884,4.568-3.439,4.165l-2.63-2.993-.026-.031.341-1.794.07-.206.394-1.146.048-.149Z" transform="translate(-1128.023 -735.867)" fill="#e28b6d" opacity="0.6"/>
        <path id="Trazado_189401" data-name="Trazado 189401" d="M1025.775,725.4s-6.454,13.673-10.282,14c-3.711.318-5.469-3.282-5.469-3.282l2.625,19.983a16.755,16.755,0,0,1-10.357,1.457c-3.47-11.267-4.781-25.835-5.039-42.059,2.809.175,8.372.415,10.364,1.7,3.573,2.3,7.985,10.5,7.985,10.5l5.141-7Z" transform="translate(-942 -694.276)" fill="#708cd5"/>
        <g id="Grupo_152963" data-name="Grupo 152963" transform="translate(1.056 5.615)">
          <path id="Trazado_189402" data-name="Trazado 189402" d="M538.744,579.044s.391-6.541,1.056-6.232,2,6,2,6l-1.428,2.3Z" transform="translate(-534.702 -572.801)" fill="#12263f"/>
          <path id="Trazado_189403" data-name="Trazado 189403" d="M601.743,1709.667l.193,2.153a6.909,6.909,0,0,1-6.263,7.5l-.554.05a6.909,6.909,0,0,1-7.5-6.263l-.193-2.153Z" transform="translate(-578.06 -1585.31)" fill="#ee6f57"/>
          <rect id="Rectángulo_45881" data-name="Rectángulo 45881" width="14.373" height="104.66" transform="translate(0.002 21.403) rotate(-5.134)" fill="#ff9d00"/>
          <path id="Trazado_189404" data-name="Trazado 189404" d="M589.963,1578.688l-14.312,1.286-.376-4.2-.263-2.918-.809-8.97,14.316-1.286.805,8.97.263,2.918Z" transform="translate(-566.282 -1454.33)" fill="#102048"/>
          <rect id="Rectángulo_45883" data-name="Rectángulo 45883" width="14.37" height="2.93" transform="translate(8.73 118.526) rotate(-5.136)" fill="#fbc343"/>
          <path id="Trazado_189405" data-name="Trazado 189405" d="M501.793,635.3l3.977-15.937a3.418,3.418,0,0,0,3.037-.419l7.3,15.07Z" transform="translate(-501.793 -613.894)" fill="#81d4fa"/>
        </g>
        <path id="Trazado_189406" data-name="Trazado 189406" d="M888.763,621.291c-.064-.235-1.132-.558-1.368-.623a1.639,1.639,0,0,0-1.116.01c-1.292.584-1.119,2.434-.45,3.406a2.914,2.914,0,0,0,1.58,1.16c.235.067,2.457.094,2.36-.263Z" transform="translate(-842.307 -609.733)" fill="#f9b384"/>
        <path id="Trazado_189407" data-name="Trazado 189407" d="M497.919,955.678a1.946,1.946,0,0,0-2.486-1.284c-1.628.562-3.047,1.516-3.267,3.139-.2,1.478.539,6.2,3.84,6.8l-.27-2.426s2.021-.472,2.426-1.348A10.165,10.165,0,0,0,497.919,955.678Z" transform="translate(-492.136 -906.943)" fill="#f9b384"/>
        <path id="Trazado_189408" data-name="Trazado 189408" d="M1103.4,818.576c.174,1.033.321,2.069.463,3.106s.263,2.076.4,3.114l.339,3.121c.1,1.042.2,2.084.26,3.13l-.17.02c-.179-1.032-.325-2.069-.47-3.105l-.39-3.115c-.11-1.04-.237-2.079-.333-3.121s-.2-2.084-.266-3.129Z" transform="translate(-1036.381 -786.077)" fill="#1f3c88"/>
        <path id="Trazado_189409" data-name="Trazado 189409" d="M829.047,816.971c0,1.16-.031,2.319-.065,3.478s-.089,2.316-.132,3.475l-.19,3.472c-.078,1.157-.157,2.313-.27,3.468l-.171-.008c0-1.16.027-2.319.059-3.478l.138-3.474c.066-1.157.116-2.315.2-3.472s.156-2.313.263-3.468Z" transform="translate(-791.457 -784.64)" fill="#1f3c88"/>
        <path id="Trazado_189410" data-name="Trazado 189410" d="M956.266,620.961a.688.688,0,0,1-.38.87c-.3.068-.622-.212-.714-.625a.688.688,0,0,1,.38-.87C955.853,620.269,956.173,620.549,956.266,620.961Z" transform="translate(-904.5 -609.513)" fill="#102048"/>
        <path id="Trazado_189411" data-name="Trazado 189411" d="M996.12,615.042c-.018.422-.283.754-.592.741s-.546-.366-.528-.789.283-.754.593-.741S996.137,614.619,996.12,615.042Z" transform="translate(-939.992 -604.103)" fill="#102048"/>
        <path id="Trazado_189412" data-name="Trazado 189412" d="M981.657,624.635a9.922,9.922,0,0,1,.223,1.048.819.819,0,0,0,.212.364,1.383,1.383,0,0,0,.41.2,1.143,1.143,0,0,1,.519.391.679.679,0,0,1,.053.716,1.349,1.349,0,0,1-.427.432c-.15.1-.295.209-.451.3l-.112-.129c.115-.142.241-.27.362-.405a1.279,1.279,0,0,0,.283-.368c.093-.2-.106-.424-.393-.538a1.526,1.526,0,0,1-.533-.3,1.068,1.068,0,0,1-.281-.578c-.072-.406.01-.752-.029-1.089Z" transform="translate(-927.961 -613.35)" fill="#e28b6d"/>
        <path id="Trazado_189413" data-name="Trazado 189413" d="M946.294,608.011a1.273,1.273,0,0,1,.447-.682,1.36,1.36,0,0,1,.793-.3,1.468,1.468,0,0,1,1.38.775l-.134.106a1.879,1.879,0,0,0-1.225-.447,1.43,1.43,0,0,0-1.106.616Z" transform="translate(-896.616 -597.67)" fill="#102048"/>
        <path id="Trazado_189414" data-name="Trazado 189414" d="M987.579,603.981a1.319,1.319,0,0,1,.344-.553,1.144,1.144,0,0,1,.621-.307,1.089,1.089,0,0,1,1.16.579l-.137.1a1.388,1.388,0,0,0-.959-.251,1.231,1.231,0,0,0-.457.167,3.016,3.016,0,0,0-.424.349Z" transform="translate(-933.385 -594.177)" fill="#102048"/>
        <path id="Trazado_189415" data-name="Trazado 189415" d="M965.452,663.373c.764,1.2,1.782,1.326,2.568.067Z" transform="translate(-913.678 -647.851)" fill="#fff"/>
        <path id="Trazado_189416" data-name="Trazado 189416" d="M1004.455,629.333a20.182,20.182,0,0,1-.217,2.851,1.318,1.318,0,0,1-.914-1.256A1.684,1.684,0,0,1,1004.455,629.333Z" transform="translate(-947.406 -617.534)" fill="#fc8879" opacity="0.4"/>
        <circle id="Elipse_4933" data-name="Elipse 4933" cx="1.411" cy="1.411" r="1.411" transform="translate(48.498 12.765)" fill="#fc8879" opacity="0.4"/>
        <path id="Trazado_189417" data-name="Trazado 189417" d="M894.99,631.678a7.056,7.056,0,0,0-.789-.519.689.689,0,0,0-.348-.09.779.779,0,0,0-.364.167l-.144-.093a.681.681,0,0,1,.416-.447.812.812,0,0,1,.633.073,1.639,1.639,0,0,1,.732.806Z" transform="translate(-849.459 -618.715)" fill="#e28b6d"/>
        <path id="Trazado_189418" data-name="Trazado 189418" d="M527.283,1011.674l-2.031,6.17-.419-4.822A4.21,4.21,0,0,0,527.283,1011.674Z" transform="translate(-521.256 -958.052)" fill="#6f3428" opacity="0.6"/>
      </g>
      <line id="Línea_358" data-name="Línea 358" x2="282.857" transform="translate(240.425 414.953)" fill="none" stroke="#102048" stroke-miterlimit="10" stroke-width="8"/>
    </g>
  </g>
</svg>
