<svg xmlns="http://www.w3.org/2000/svg" width="420" height="288.564" viewBox="0 0 420 288.564">
  <g id="Grupo_153372" data-name="Grupo 153372" transform="translate(-370 -7319.3)">
    <g id="Grupo_73091" data-name="Grupo 73091" transform="translate(-1754.308 1511.392)">
      <path id="Trazado_144852" data-name="Trazado 144852" d="M2543.17,7547.3H2387.408c-.543-.02-1.1-.034-1.683-.034H2139.032a1.1,1.1,0,0,0-.113-.023h-13.456a1.157,1.157,0,0,0-1.148,1.126s-.007.007-.007.01v.07c0,.007.013.013.013.021a1.153,1.153,0,0,0,1.142,1.092h260.262c.37,0,.725-.008,1.081-.017H2543.17a1.118,1.118,0,0,0,1.138-1.089v-.067A1.118,1.118,0,0,0,2543.17,7547.3Z" transform="translate(0 -1453.088)" fill="#b7bed4"/>
    </g>
    <g id="Grupo_153369" data-name="Grupo 153369" transform="translate(376.81 7270.952)">
      <g id="Grupo_153362" data-name="Grupo 153362" transform="translate(47.825 78.114)">
        <g id="Grupo_153361" data-name="Grupo 153361">
          <g id="Grupo_153322" data-name="Grupo 153322" transform="translate(0 38.785)">
            <g id="Grupo_153310" data-name="Grupo 153310" transform="translate(42.914 101.748)">
              <g id="Grupo_153306" data-name="Grupo 153306" transform="translate(0 0.003)">
                <g id="Grupo_153305" data-name="Grupo 153305" transform="translate(29.494 85.475)">
                  <path id="Trazado_189551" data-name="Trazado 189551" d="M157.165,393.333l-8.427-13.151-6.138,4.346,9.016,12.734Z" transform="translate(-142.6 -380.182)" fill="#e1838e"/>
                  <path id="Trazado_189552" data-name="Trazado 189552" d="M157.694,397.243l-6.876,4.868s-8.29,5.3-5.233,12.448l16.232-11.493Z" transform="translate(-143.129 -384.093)" fill="#1c1c1a"/>
                </g>
                <path id="Trazado_189553" data-name="Trazado 189553" d="M118.329,269.291,104.6,322.618a8.471,8.471,0,0,0,1.307,7.03l27.408,38.43,13.918-13.318-20.122-27.912,1.3-57.491Z" transform="translate(-104.336 -269.291)" fill="#7e5ee3"/>
              </g>
              <g id="Grupo_153309" data-name="Grupo 153309" transform="translate(3.477)">
                <g id="Grupo_153307" data-name="Grupo 153307" transform="translate(0 93.077)">
                  <path id="Trazado_189554" data-name="Trazado 189554" d="M132.616,405.644l.708-15.6-7.521.006.013,15.6Z" transform="translate(-112.733 -390.041)" fill="#e1838e"/>
                  <path id="Trazado_189555" data-name="Trazado 189555" d="M128.73,410.283l-8.425.008s-9.826-.459-11.458,7.145l19.889-.017Z" transform="translate(-108.847 -394.68)" fill="#1c1c1a"/>
                </g>
                <g id="Grupo_153308" data-name="Grupo 153308" transform="translate(10.311)">
                  <path id="Trazado_189556" data-name="Trazado 189556" d="M125.8,269.287l-3.58,98.8,15.195-.013,6.916-57.043s11.3-30.824-.332-41.561Z" transform="translate(-122.224 -269.287)" fill="#7e5ee3"/>
                  <line id="Línea_359" data-name="Línea 359" y1="66.678" x2="2.416" transform="translate(0.735 11.837)" fill="none" stroke="#1c1c1a" stroke-miterlimit="10" stroke-width="0.912"/>
                  <line id="Línea_360" data-name="Línea 360" x1="3.386" y2="27.927" transform="translate(15.195 70.863)" fill="none" stroke="#1c1c1a" stroke-miterlimit="10" stroke-width="0.912"/>
                </g>
              </g>
            </g>
            <g id="Grupo_153317" data-name="Grupo 153317">
              <g id="Grupo_153313" data-name="Grupo 153313">
                <g id="Grupo_153311" data-name="Grupo 153311" transform="translate(24.362 74.154)">
                  <path id="Trazado_189557" data-name="Trazado 189557" d="M117.187,261.754s-3.408,1.992-30.623-15.971l2.881-4.368,21.383,10.422,22.581,7.925Z" transform="translate(-81.711 -235.304)" fill="#e1838e"/>
                  <path id="Trazado_189558" data-name="Trazado 189558" d="M83.2,243.571a5.326,5.326,0,1,1,7.151-2.365A5.325,5.325,0,0,1,83.2,243.571Z" transform="translate(-80.268 -233.487)" fill="#e1838e"/>
                </g>
                <g id="Grupo_153312" data-name="Grupo 153312">
                  <path id="Trazado_189559" data-name="Trazado 189559" d="M69.2,192.161l-.524-3.936a17.6,17.6,0,0,1,1-9.171q1.679-4.068,6.909-9.093,5.054-4.732,6.5-7.468a9.482,9.482,0,0,0,1.039-5.822,6.1,6.1,0,0,0-3.254-4.925,12.288,12.288,0,0,0-7.368-.86q-7.977,1.063-17.495,7.633l-7.348-10.876a51.129,51.129,0,0,1,24.272-10q10.955-1.458,18.118,2.947a17.343,17.343,0,0,1,8.33,13.181,18.837,18.837,0,0,1-1.313,10.459q-2.094,4.61-8.831,10.918-4.6,4.457-5.7,6.6a9,9,0,0,0-.67,5.339l.425,3.191Zm.718,18.415q-.594-4.468,1.495-7.074t6.662-3.213a9.51,9.51,0,0,1,7.147,1.431q2.731,2.019,3.311,6.379a8.969,8.969,0,0,1-1.565,6.946,9.343,9.343,0,0,1-6.486,3.326,9.621,9.621,0,0,1-7.229-1.446A8.933,8.933,0,0,1,69.92,210.576Z" transform="translate(-48.661 -137.284)" fill="#4d52d7"/>
                </g>
              </g>
              <g id="Grupo_153314" data-name="Grupo 153314" transform="translate(53.574 66.118)">
                <path id="Trazado_189560" data-name="Trazado 189560" d="M144.231,259.557c.005-.474-1.189-34.02-1.189-34.02l-6.187-2.475-7.594.006s-8.37.707-9,8.678L121.98,258.7Z" transform="translate(-118.646 -223.062)" fill="#ff9d00"/>
                <path id="Trazado_189561" data-name="Trazado 189561" d="M121.472,228.176s-8.176,10.017,1.184,16.9,7.967-4.038,7.967-4.038Z" transform="translate(-118.165 -224.234)" fill="#ff9d00"/>
              </g>
              <g id="Grupo_153316" data-name="Grupo 153316" transform="translate(71.782 66.026)">
                <g id="Grupo_153315" data-name="Grupo 153315" transform="translate(2.073 10.96)">
                  <path id="Trazado_189562" data-name="Trazado 189562" d="M155.032,237.161s3.834,16.953.042,49.34l-5.2-.607-.317-23.785-3.086-23.731Z" transform="translate(-144.935 -237.161)" fill="#e1838e"/>
                  <path id="Trazado_189563" data-name="Trazado 189563" d="M155.129,302.045a5.325,5.325,0,1,1-5.33-5.321A5.325,5.325,0,0,1,155.129,302.045Z" transform="translate(-144.478 -250.813)" fill="#e1838e"/>
                </g>
                <path id="Trazado_189564" data-name="Trazado 189564" d="M141.788,223.035s13.453-2.035,13.94,12.99l-10.582,4.438Z" transform="translate(-141.788 -222.942)" fill="#e28f36"/>
                <line id="Línea_361" data-name="Línea 361" x2="2.89" y2="22.834" transform="translate(3.612 13.753)" fill="none" stroke="#1c1c1a" stroke-miterlimit="10" stroke-width="0.912"/>
              </g>
            </g>
            <g id="Grupo_153321" data-name="Grupo 153321" transform="translate(51.433 28.986)">
              <g id="Grupo_153320" data-name="Grupo 153320">
                <g id="Grupo_153319" data-name="Grupo 153319" transform="translate(0 8.968)">
                  <path id="Trazado_189565" data-name="Trazado 189565" d="M139.732,195.871c-1,5.844-5.392,12.29-11.236,11.29a10.735,10.735,0,0,1-8.772-12.392c1-5.844,5.393-9.064,11.237-8.065S140.732,190.026,139.732,195.871Z" transform="translate(-116.346 -186.523)" fill="#040901"/>
                  <g id="Grupo_153318" data-name="Grupo 153318" transform="translate(8.809 14.379)">
                    <path id="Trazado_189566" data-name="Trazado 189566" d="M133.681,205.178l4.676,13.785-7,4.053-4.542-15.335Z" transform="translate(-126.817 -205.178)" fill="#e1838e"/>
                  </g>
                  <path id="Trazado_189567" data-name="Trazado 189567" d="M126.473,187.475s-5.747-1.315-7.071,3.124c-1.081,3.625,4.38,5.506,4.38,5.506Z" transform="translate(-116.275 -186.7)" fill="#040901"/>
                  <path id="Trazado_189568" data-name="Trazado 189568" d="M125.68,189.863c-5.1-.873-5.855,2.9-5.855,2.9l-2.395,8.707c-.4,2.836-.188,5.385,2.013,7.048a6.473,6.473,0,0,0,4.639,1.145l2.1-.244a3.961,3.961,0,0,0,3.119-3.307l.688-8.723S130.78,190.735,125.68,189.863Z" transform="translate(-115.818 -187.259)" fill="#e1838e"/>
                  <path id="Trazado_189569" data-name="Trazado 189569" d="M118.477,200.372l-2.8,2.373a.924.924,0,0,0-.068,1.274l1.679,1.243Z" transform="translate(-115.388 -189.697)" fill="#e1838e"/>
                  <path id="Trazado_189570" data-name="Trazado 189570" d="M128.84,214.361a6.225,6.225,0,0,0,3.136-3.032,10,10,0,0,1-2.477,5.251Z" transform="translate(-118.471 -192.209)" fill="#040901"/>
                  <path id="Trazado_189571" data-name="Trazado 189571" d="M122.046,189.318s4.5,1.317,5.865,9.05l5.91.19s0-9.016-1.662-9.359S123.247,187.15,122.046,189.318Z" transform="translate(-116.914 -186.916)" fill="#040901"/>
                  <path id="Trazado_189572" data-name="Trazado 189572" d="M129.195,197.654l.71,5.744,2.215-4.216Z" transform="translate(-118.552 -189.074)" fill="#040901"/>
                  <path id="Trazado_189573" data-name="Trazado 189573" d="M132.423,206.685s1.615,4.434,4.5,5.379l1.586-6.2Z" transform="translate(-119.292 -190.956)" fill="#040901"/>
                  <path id="Trazado_189574" data-name="Trazado 189574" d="M129.944,202.883a2.876,2.876,0,1,0,3.627-1.841A2.877,2.877,0,0,0,129.944,202.883Z" transform="translate(-118.691 -189.818)" fill="#e1838e"/>
                </g>
                <path id="Trazado_189575" data-name="Trazado 189575" d="M122.421,189.794s-.29,5.078,5.917,7.849c4.784,2.137,3.808-4.867,3.808-4.867Z" transform="translate(-116.999 -178.305)" fill="#040901"/>
                <path id="Trazado_189576" data-name="Trazado 189576" d="M156.035,186.191a9.235,9.235,0,1,1-6.936-11.066A9.234,9.234,0,0,1,156.035,186.191Z" transform="translate(-120.524 -174.889)" fill="#040901"/>
              </g>
              <path id="Trazado_189577" data-name="Trazado 189577" d="M138.908,222.666s-3.918,8.123-8.2,5.924,2.026-7.254,2.026-7.254Z" transform="translate(-118.558 -185.535)" fill="#e1838e"/>
            </g>
          </g>
          <g id="Grupo_153341" data-name="Grupo 153341" transform="translate(112.638)">
            <g id="Grupo_153328" data-name="Grupo 153328" transform="translate(0 144.489)">
              <g id="Grupo_153324" data-name="Grupo 153324" transform="translate(25.076)">
                <g id="Grupo_153323" data-name="Grupo 153323" transform="translate(3.771 88.572)">
                  <path id="Trazado_189578" data-name="Trazado 189578" d="M232.78,404.938l.9-15.6,7.521-.006-1.623,15.6Z" transform="translate(-232.346 -389.329)" fill="#e1838e"/>
                  <path id="Trazado_189579" data-name="Trazado 189579" d="M232.651,409.576l8.424-.007s9.826-.476,11.47,7.126l-20.328.017Z" transform="translate(-232.217 -393.966)" fill="#1c1c1a"/>
                </g>
                <path id="Trazado_189580" data-name="Trazado 189580" d="M247.778,274.419,242.69,371.5l-15.364.013,3-97.078Z" transform="translate(-227.325 -274.419)" fill="#311293"/>
              </g>
              <g id="Grupo_153327" data-name="Grupo 153327" transform="translate(0 0.173)">
                <g id="Grupo_153325" data-name="Grupo 153325" transform="translate(2.385 88.421)">
                  <path id="Trazado_189581" data-name="Trazado 189581" d="M198.941,404.967l2.538-15.6,7.521-.006-3.259,15.605Z" transform="translate(-198.128 -389.356)" fill="#e1838e"/>
                  <path id="Trazado_189582" data-name="Trazado 189582" d="M198.7,409.605l8.424-.007s9.826-.476,11.47,7.126l-20.707.018Z" transform="translate(-197.887 -393.994)" fill="#1c1c1a"/>
                </g>
                <g id="Grupo_153326" data-name="Grupo 153326">
                  <path id="Trazado_189583" data-name="Trazado 189583" d="M208.769,275.121s-14.792,96.219-13.941,96.388,16.474-.015,16.474-.015l19.875-96.852Z" transform="translate(-194.793 -274.643)" fill="#311293"/>
                  <line id="Línea_362" data-name="Línea 362" y1="32.565" x2="6.807" transform="translate(26.629 15.809)" fill="none" stroke="#1c1c1a" stroke-miterlimit="10" stroke-width="0.912"/>
                </g>
              </g>
            </g>
            <g id="Grupo_153336" data-name="Grupo 153336" transform="translate(4.287)">
              <path id="Trazado_189584" data-name="Trazado 189584" d="M240.146,221.674a7.708,7.708,0,0,0-7.1-5.948,62.6,62.6,0,0,0-6.433-.052,25.269,25.269,0,0,0-15.312,7.508l1.25,38.41,31.553-.651Z" transform="translate(-202.864 -116.451)" fill="#fdfbf6"/>
              <g id="Grupo_153331" data-name="Grupo 153331" transform="translate(0 105.669)">
                <g id="Grupo_153329" data-name="Grupo 153329" transform="translate(29.001 38.559)">
                  <path id="Trazado_189585" data-name="Trazado 189585" d="M254.094,288.514a6.154,6.154,0,1,1,2.6-8.3A6.154,6.154,0,0,1,254.094,288.514Z" transform="translate(-239.609 -274.728)" fill="#e1838e"/>
                  <path id="Trazado_189586" data-name="Trazado 189586" d="M248.945,277.84l-8.692-3.76-2.273,5.8,8.9,4.372Z" transform="translate(-237.979 -274.08)" fill="#e1838e"/>
                </g>
                <g id="Grupo_153330" data-name="Grupo 153330">
                  <path id="Trazado_189587" data-name="Trazado 189587" d="M222.294,225.434l-8.089,25.435,22.447,12.98-4.322,8.221-28.57-13.645a5.982,5.982,0,0,1-3.136-7.171s2.161-17.941,8.109-26.136C210.6,222.554,222.294,225.434,222.294,225.434Z" transform="translate(-200.355 -224.055)" fill="#fdfbf6"/>
                  <path id="Trazado_189588" data-name="Trazado 189588" d="M222.014,243.79l-3.689,11.6,22.447,12.98" transform="translate(-204.474 -228.579)" fill="none" stroke="#1c1c1a" stroke-miterlimit="10" stroke-width="0.912"/>
                </g>
              </g>
              <g id="Grupo_153335" data-name="Grupo 153335" transform="translate(25.631)">
                <g id="Grupo_153333" data-name="Grupo 153333" transform="translate(6.189 74.817)">
                  <g id="Grupo_153332" data-name="Grupo 153332" transform="translate(28.922)">
                    <path id="Trazado_189589" data-name="Trazado 189589" d="M289.61,185.777a6.154,6.154,0,1,1-8.7.11A6.154,6.154,0,0,1,289.61,185.777Z" transform="translate(-279.16 -184.03)" fill="#e1838e"/>
                    <path id="Trazado_189590" data-name="Trazado 189590" d="M281.517,194.676l-.869,9.431,6.215.358,1.388-9.814Z" transform="translate(-279.501 -186.464)" fill="#e1838e"/>
                  </g>
                  <path id="Trazado_189591" data-name="Trazado 189591" d="M241.637,212.38l26.188,9.516,2.877-22.134,8.878,1.581L276.3,232.309a5.984,5.984,0,0,1-7.158,3.166l-22.871-8Z" transform="translate(-241.637 -187.635)" fill="#fdfbf6"/>
                </g>
                <g id="Grupo_153334" data-name="Grupo 153334">
                  <path id="Trazado_189592" data-name="Trazado 189592" d="M259.871,144.543l-1-3.979a18.19,18.19,0,0,1-.043-9.53q1.25-4.369,6.033-10.137,4.636-5.446,5.8-8.423a9.8,9.8,0,0,0,.388-6.1,6.3,6.3,0,0,0-3.913-4.677q-3.038-1.182-7.663-.025-8.064,2.018-17.069,9.871l-8.807-10.308a52.81,52.81,0,0,1,23.748-13.085q11.075-2.771,18.94.916a17.916,17.916,0,0,1,10.084,12.559,19.461,19.461,0,0,1-.131,10.888q-1.613,4.975-7.794,12.234-4.206,5.11-5.079,7.441a9.293,9.293,0,0,0-.066,5.559l.807,3.226Zm2.881,18.818q-1.131-4.516.711-7.434t6.464-4.074q4.462-1.117,7.5.637t4.142,6.162a9.265,9.265,0,0,1-.8,7.313,9.651,9.651,0,0,1-6.27,4.169q-4.516,1.13-7.588-.644A9.225,9.225,0,0,1,262.753,163.36Z" transform="translate(-233.608 -86.965)" fill="#4d52d7"/>
                </g>
              </g>
            </g>
            <g id="Grupo_153340" data-name="Grupo 153340" transform="translate(17.043 70.213)">
              <g id="Grupo_153339" data-name="Grupo 153339" transform="translate(0.565 1.198)">
                <g id="Grupo_153338" data-name="Grupo 153338">
                  <g id="Grupo_153337" data-name="Grupo 153337">
                    <path id="Trazado_189593" data-name="Trazado 189593" d="M226.848,198.176l-2.278,13.786a5.1,5.1,0,0,0,4.331,5.813h0a5.1,5.1,0,0,0,5.763-4.411l1.535-11.016Z" transform="translate(-219.212 -183.866)" fill="#e1838e"/>
                    <path id="Trazado_189594" data-name="Trazado 189594" d="M240.4,185.985,243,195.4c1.515,3.854-1.153,9.368-5.28,9.019h0a7.334,7.334,0,0,1-6.432-7.387l.154-10.548C231.746,185.78,238.186,182.27,240.4,185.985Z" transform="translate(-220.765 -180.687)" fill="#e1838e"/>
                    <path id="Trazado_189595" data-name="Trazado 189595" d="M244.33,193.123l2.756,2.653a.952.952,0,0,1,.078,1.313l-1.072.817Z" transform="translate(-223.755 -182.708)" fill="#e1838e"/>
                    <path id="Trazado_189596" data-name="Trazado 189596" d="M226.06,193.756s2.687,5.189-1.854,6.613l-4.227-4.281a10.418,10.418,0,0,1-2.233-7.93c.359-2.128,1.451-3.514,4.027-5.6,6.107-4.939,10.9-2.83,11.876.2l-3.9,7.6Z" transform="translate(-217.637 -179.611)" fill="#040901"/>
                    <path id="Trazado_189597" data-name="Trazado 189597" d="M234.114,185.358s2.548,5-1.888,7.061Z" transform="translate(-220.981 -180.928)" fill="#040901"/>
                    <path id="Trazado_189598" data-name="Trazado 189598" d="M232.854,191.5l.945,3.7-2.646.718.049-3.7Z" transform="translate(-220.735 -182.336)" fill="#040901"/>
                    <path id="Trazado_189599" data-name="Trazado 189599" d="M237.375,209.231s-3.493-1.091-4.615-3.424a9.23,9.23,0,0,0,4.309,5.568Z" transform="translate(-221.103 -185.615)" fill="#040901"/>
                  </g>
                </g>
                <path id="Trazado_189600" data-name="Trazado 189600" d="M230.169,195.8a2.835,2.835,0,1,1-2.816-1.407A2.838,2.838,0,0,1,230.169,195.8Z" transform="translate(-219.296 -182.994)" fill="#e1838e"/>
              </g>
              <path id="Trazado_189601" data-name="Trazado 189601" d="M249.372,181.749a.706.706,0,0,0-.85-.425l-10.985,3.089c-1.31-2.934-4.777-7.475-11.564-6.1-8.478,1.713-9.483,8.033-8.952,11.921.059.431.136.844.225,1.236l31.656-8.78A.706.706,0,0,0,249.372,181.749Z" transform="translate(-216.904 -178.057)" fill="#5945f3"/>
            </g>
          </g>
          <g id="Grupo_153360" data-name="Grupo 153360" transform="translate(201.986 20.692)">
            <g id="Grupo_153345" data-name="Grupo 153345" transform="translate(1.698 53.921)">
              <path id="Trazado_189602" data-name="Trazado 189602" d="M327.206,207.257s-21.617.493-11.685,16.255c3.654,5.8,2.777,9.253,1.175,11.21a.757.757,0,0,0,.8,1.219c5.157-1.783,12.512-6.257,5.576-16.463,0,0-5.1-6.81,5.119-11Z" transform="translate(-312.912 -189.149)" fill="#040901"/>
              <g id="Grupo_153342" data-name="Grupo 153342" transform="translate(11.092 15.191)">
                <path id="Trazado_189603" data-name="Trazado 189603" d="M329.878,203.473c-.158.149-3.948,1.629-2.04,4.856s6.132,1.135,6.132,1.135Z" transform="translate(-327.302 -203.473)" fill="#e28f36"/>
              </g>
              <g id="Grupo_153344" data-name="Grupo 153344" transform="translate(11.716)">
                <path id="Trazado_189604" data-name="Trazado 189604" d="M329.332,201.433a10.974,10.974,0,0,0,14.782,4.729c5.387-2.776,6.862-9.062,4.087-14.45s-8.752-7.835-14.14-5.06A10.974,10.974,0,0,0,329.332,201.433Z" transform="translate(-328.111 -184.162)" fill="#040901"/>
                <g id="Grupo_153343" data-name="Grupo 153343" transform="translate(9.216 13.191)">
                  <path id="Trazado_189605" data-name="Trazado 189605" d="M340.067,203.874l9.283,4.421,1.22,6.734a2.94,2.94,0,0,1-.977,3.545c-1.942,1.771-5.829,2.7-6.835.48Z" transform="translate(-340.067 -201.565)" fill="#e1838e"/>
                  <path id="Trazado_189606" data-name="Trazado 189606" d="M345.622,203.377l-3.133-2.5s.091,12.011,8.141,10.736l-.725-4.006Z" transform="translate(-340.622 -200.878)" fill="#040901"/>
                </g>
                <path id="Trazado_189607" data-name="Trazado 189607" d="M349.4,205.732h0c3.6-1.853,5.422-5.539,3.569-9.136l-4.721-9.163a3.213,3.213,0,0,0-4.314-1.38l-7.386,3.805a3.212,3.212,0,0,0-1.38,4.313l4.2,8.153C341.225,205.921,346.371,207.3,349.4,205.732Z" transform="translate(-329.648 -184.208)" fill="#e1838e"/>
                <path id="Trazado_189608" data-name="Trazado 189608" d="M355.294,195.734l3.072.87a.75.75,0,0,1,.379.91l-1.182,1.995Z" transform="translate(-334.341 -186.508)" fill="#e1838e"/>
                <path id="Trazado_189609" data-name="Trazado 189609" d="M343.75,185.935s3.361,7.424-5.409,12.54c0,0-5.559.535-5.775-2.853s1.1-6.9,3.744-7.772S343.75,185.935,343.75,185.935Z" transform="translate(-329.127 -184.262)" fill="#040901"/>
                <path id="Trazado_189610" data-name="Trazado 189610" d="M346.293,185.966s2.467.127,5,3.384c0,0,1.76-3.3-2.683-5.208s-5.819,4.036-5.819,4.036Z" transform="translate(-331.476 -183.764)" fill="#040901"/>
                <path id="Trazado_189611" data-name="Trazado 189611" d="M335.552,204.562a2.871,2.871,0,1,0,1.237-3.867A2.871,2.871,0,0,0,335.552,204.562Z" transform="translate(-329.743 -187.572)" fill="#e1838e"/>
              </g>
            </g>
            <g id="Grupo_153351" data-name="Grupo 153351" transform="translate(0 117.276)">
              <g id="Grupo_153347" data-name="Grupo 153347" transform="translate(23.505 1.977)">
                <g id="Grupo_153346" data-name="Grupo 153346" transform="translate(6.435 93.117)">
                  <path id="Trazado_189612" data-name="Trazado 189612" d="M350.114,404.938l.9-15.6,7.521-.006-1.623,15.6Z" transform="translate(-349.681 -389.329)" fill="#e1838e"/>
                  <path id="Trazado_189613" data-name="Trazado 189613" d="M349.985,409.576l8.425-.007s9.826-.476,11.47,7.126l-20.328.017Z" transform="translate(-349.552 -393.966)" fill="#1c1c1a"/>
                </g>
                <path id="Trazado_189614" data-name="Trazado 189614" d="M358.261,268.523l4.188,57.771-1.649,43.55H344.719l.98-49.233-4.5-51.226Z" transform="translate(-341.203 -268.523)" fill="#e28f36"/>
              </g>
              <g id="Grupo_153350" data-name="Grupo 153350">
                <g id="Grupo_153348" data-name="Grupo 153348" transform="translate(4.802 95.112)">
                  <path id="Trazado_189615" data-name="Trazado 189615" d="M319.1,404.944l4.211-15.586,7.521-.006L325.9,404.938Z" transform="translate(-317.434 -389.352)" fill="#e1838e"/>
                  <path id="Trazado_189616" data-name="Trazado 189616" d="M318.6,409.576l8.425-.007s9.826-.476,11.47,7.126l-21.56.017Z" transform="translate(-316.939 -393.984)" fill="#1c1c1a"/>
                </g>
                <g id="Grupo_153349" data-name="Grupo 153349">
                  <path id="Trazado_189617" data-name="Trazado 189617" d="M331.252,268.8s-7.784,6.888-6.939,27.4l.532,27.554-14.136,45.079,17.552,1.154,14.159-45.115,5.946-58.915Z" transform="translate(-310.709 -265.958)" fill="#ff9d00"/>
                  <path id="Trazado_189618" data-name="Trazado 189618" d="M346.637,343.912l4.027-14.265,3.679-36.476" transform="translate(-318.944 -272.195)" fill="none" stroke="#1c1c1a" stroke-miterlimit="10" stroke-width="0.912"/>
                </g>
              </g>
            </g>
            <g id="Grupo_153359" data-name="Grupo 153359" transform="translate(15.346)">
              <g id="Grupo_153357" data-name="Grupo 153357" transform="translate(0 40.731)">
                <g id="Grupo_153353" data-name="Grupo 153353" transform="translate(13.967 5.226)">
                  <g id="Grupo_153352" data-name="Grupo 153352" transform="translate(40.977)">
                    <path id="Trazado_189619" data-name="Trazado 189619" d="M404.71,177.235c-.3-.185-1.283-4.256,3.5-3.381s5.753-1.333,7.7.042,1.706,5.861-8.023,4.774Z" transform="translate(-402.479 -173.432)" fill="#e1838e"/>
                    <path id="Trazado_189620" data-name="Trazado 189620" d="M403.848,176.676l-1.947,4.553,3.959,1.965,2.076-5.923Z" transform="translate(-401.901 -174.175)" fill="#e1838e"/>
                  </g>
                  <path id="Trazado_189621" data-name="Trazado 189621" d="M352.777,211.015l25.051-8.049,9.866-22.464,9.2,2.622-9.286,24.028a6.9,6.9,0,0,1-2.218,2.83,69.41,69.41,0,0,1-29.963,12.3,5.794,5.794,0,0,1-6.663-5.22h0A5.816,5.816,0,0,1,352.777,211.015Z" transform="translate(-348.74 -175.052)" fill="#311293"/>
                </g>
                <g id="Grupo_153354" data-name="Grupo 153354" transform="translate(0.18 42.064)">
                  <path id="Trazado_189622" data-name="Trazado 189622" d="M335.147,258.545c-.005-.475-4.295-27.338-4.295-27.338l12.635-9.983,7.594.007s8.369.707,9,8.678l-4.188,27.773Z" transform="translate(-330.852 -221.224)" fill="#311293"/>
                  <path id="Trazado_189623" data-name="Trazado 189623" d="M363.834,226.339s8.176,10.016-1.184,16.9-7.967-4.038-7.967-4.038Z" transform="translate(-336.297 -222.396)" fill="#311293"/>
                </g>
                <g id="Grupo_153356" data-name="Grupo 153356">
                  <g id="Grupo_153355" data-name="Grupo 153355" transform="translate(36.206)">
                    <path id="Trazado_189624" data-name="Trazado 189624" d="M379.273,172.635c-.331-.113-2.21-3.858,2.652-4.084s5.3-2.6,7.514-1.695,2.984,5.326-6.741,6.461Z" transform="translate(-377.831 -166.652)" fill="#e1838e"/>
                    <path id="Trazado_189625" data-name="Trazado 189625" d="M378.462,172.749l-.871,4.875,4.3,1.022.688-6.239Z" transform="translate(-377.591 -167.971)" fill="#e1838e"/>
                  </g>
                  <path id="Trazado_189626" data-name="Trazado 189626" d="M333.793,214.414l23.439-11.955,7.507-25.645,9.5,1.116-6.684,27.1a6.9,6.9,0,0,1-1.735,3.149,69.422,69.422,0,0,1-27.608,16.939,5.8,5.8,0,0,1-7.413-4.087h0A5.817,5.817,0,0,1,333.793,214.414Z" transform="translate(-330.619 -168.981)" fill="#311293"/>
                  <path id="Trazado_189627" data-name="Trazado 189627" d="M372.36,212.36l-1.684,4.863a2.563,2.563,0,0,1-1.189,1.407L350.71,229.658" transform="translate(-335.224 -177.129)" fill="none" stroke="#1c1c1a" stroke-miterlimit="10" stroke-width="0.912"/>
                </g>
              </g>
              <g id="Grupo_153358" data-name="Grupo 153358" transform="translate(13.938)">
                <path id="Trazado_189628" data-name="Trazado 189628" d="M373.447,142.252l3.826-1.227a17.818,17.818,0,0,1,9.314-.651q4.352.942,10.3,5.25,5.62,4.185,8.605,5.138a9.6,9.6,0,0,0,5.984-.009,6.177,6.177,0,0,0,4.323-4.124,12.435,12.435,0,0,0-.465-7.493q-2.488-7.756-10.74-16.057l9.515-9.269a51.734,51.734,0,0,1,14.308,22.382q3.418,10.651.314,18.575a17.553,17.553,0,0,1-11.634,10.661,19.071,19.071,0,0,1-10.653.567q-4.967-1.259-12.458-6.839-5.264-3.785-7.6-4.49a9.1,9.1,0,0,0-5.438.291l-3.1,1Zm-18.213,4.018q4.343-1.393,7.313.22t4.4,6.059a9.632,9.632,0,0,1-.143,7.375q-1.522,3.081-5.76,4.441a9.077,9.077,0,0,1-7.2-.313,9.454,9.454,0,0,1-4.476-5.863q-1.393-4.343.145-7.459A9.038,9.038,0,0,1,355.234,146.27Z" transform="translate(-348.701 -113.81)" fill="#4d52d7"/>
              </g>
            </g>
          </g>
        </g>
      </g>
      <g id="Grupo_153368" data-name="Grupo 153368" transform="translate(45.013 48.348)">
        <g id="Grupo_153363" data-name="Grupo 153363" transform="translate(62.327)">
          <path id="Trazado_189629" data-name="Trazado 189629" d="M155.491,112.054l-1.155-4.382a20.088,20.088,0,0,1-.18-10.528q1.32-4.844,6.525-11.284,5.048-6.08,6.3-9.387a10.823,10.823,0,0,0,.345-6.74,6.966,6.966,0,0,0-4.387-5.113q-3.374-1.264-8.466.079-8.882,2.341-18.722,11.143l-9.874-11.267a58.347,58.347,0,0,1,26.058-14.786q12.2-3.215,20.939.749t11.316,13.736a21.51,21.51,0,0,1,.006,12.031q-1.714,5.519-8.442,13.625-4.575,5.7-5.507,8.292a10.268,10.268,0,0,0,0,6.143l.937,3.553Zm3.444,20.751q-1.311-4.974.683-8.224t7.085-4.591q4.914-1.295,8.3.6t4.66,6.751a10.236,10.236,0,0,1-.78,8.09q-2.014,3.413-6.869,4.693-4.974,1.312-8.392-.605T158.935,132.805Z" transform="translate(-125.873 -48.348)" fill="#e3bb5e"/>
        </g>
        <g id="Grupo_153364" data-name="Grupo 153364" transform="translate(230.128 11.414)">
          <path id="Trazado_189630" data-name="Trazado 189630" d="M347.495,96.151l.569-2.5a11.376,11.376,0,0,1,2.669-5.327,18.62,18.62,0,0,1,6.23-3.95,21.742,21.742,0,0,0,5.619-3.057,6.128,6.128,0,0,0,1.939-3.291,3.941,3.941,0,0,0-.861-3.714,7.934,7.934,0,0,0-4.266-2.179q-5.069-1.154-12.31.681l-2-8.238a33.013,33.013,0,0,1,16.944-.587q6.96,1.584,10.306,5.863a11.2,11.2,0,0,1,2.075,9.855,12.169,12.169,0,0,1-3.15,6.036q-2.305,2.319-7.8,4.621a20.37,20.37,0,0,0-4.936,2.716,5.812,5.812,0,0,0-1.607,3.082l-.462,2.027Zm-3.711,11.31a5.813,5.813,0,0,1,2.5-3.946,6.329,6.329,0,0,1,4.757-.446,6.146,6.146,0,0,1,4,2.475,6.732,6.732,0,0,1-1.943,8.46,6.031,6.031,0,0,1-4.675.553,6.212,6.212,0,0,1-4.051-2.5A5.768,5.768,0,0,1,343.783,107.461Z" transform="translate(-343.572 -63.155)" fill="#e3bb5e"/>
        </g>
        <g id="Grupo_153365" data-name="Grupo 153365" transform="translate(266.553 153.303)">
          <path id="Trazado_189631" data-name="Trazado 189631" d="M399.168,284.489l1.35-2.736a13.527,13.527,0,0,1,4.56-5.426,22.154,22.154,0,0,1,8.3-2.847,25.864,25.864,0,0,0,7.345-1.983,7.287,7.287,0,0,0,3.153-3.271,4.688,4.688,0,0,0,.031-4.535,9.436,9.436,0,0,0-4.333-3.7q-5.544-2.734-14.428-2.613l-.036-10.083a39.264,39.264,0,0,1,19.763,4q7.614,3.755,10.3,9.631a13.324,13.324,0,0,1-.323,11.974,14.473,14.473,0,0,1-5.312,6.112q-3.308,2.045-10.306,3.189a24.2,24.2,0,0,0-6.46,1.777,6.91,6.91,0,0,0-2.711,3.12l-1.095,2.218Zm-7.419,12.058a6.914,6.914,0,0,1,3.98-3.874,7.526,7.526,0,0,1,5.626.8,7.313,7.313,0,0,1,3.948,3.97,8.011,8.011,0,0,1-4.587,9.25,7.179,7.179,0,0,1-5.561-.652,7.4,7.4,0,0,1-3.994-4.015A6.864,6.864,0,0,1,391.749,296.546Z" transform="translate(-390.827 -247.236)" fill="#e3bb5e"/>
        </g>
        <g id="Grupo_153366" data-name="Grupo 153366" transform="translate(0 165.229)">
          <path id="Trazado_189632" data-name="Trazado 189632" d="M49.4,294.967l.661-2.442a11.212,11.212,0,0,1,2.842-5.144,18.377,18.377,0,0,1,6.3-3.644,21.453,21.453,0,0,0,5.658-2.79,6.041,6.041,0,0,0,2.043-3.165,3.889,3.889,0,0,0-.7-3.7,7.825,7.825,0,0,0-4.118-2.318q-4.949-1.339-12.159.182l-1.643-8.2a32.566,32.566,0,0,1,16.723.1q6.8,1.837,9.922,6.189a11.049,11.049,0,0,1,1.653,9.8,12.005,12.005,0,0,1-3.344,5.823q-2.364,2.193-7.876,4.243a20.085,20.085,0,0,0-4.972,2.48,5.742,5.742,0,0,0-1.707,2.974l-.535,1.979Zm-4.108,11a5.731,5.731,0,0,1,2.618-3.789,6.238,6.238,0,0,1,4.706-.25,6.065,6.065,0,0,1,3.848,2.6,6.644,6.644,0,0,1-2.252,8.261,5.953,5.953,0,0,1-4.629.359,6.132,6.132,0,0,1-3.893-2.628A5.692,5.692,0,0,1,45.3,305.966Z" transform="translate(-45.013 -262.708)" fill="#e3bb5e"/>
        </g>
        <g id="Grupo_153367" data-name="Grupo 153367" transform="translate(181.492 160.265)">
          <path id="Trazado_189633" data-name="Trazado 189633" d="M290.155,279.907l-.3-1.67a7.523,7.523,0,0,1,.24-3.938,12.322,12.322,0,0,1,2.765-4.025,14.379,14.379,0,0,0,2.625-3.323,4.053,4.053,0,0,0,.325-2.507,2.61,2.61,0,0,0-1.49-2.038,5.253,5.253,0,0,0-3.165-.217,17.665,17.665,0,0,0-7.317,3.617l-3.36-4.5a21.852,21.852,0,0,1,10.163-4.765,11.543,11.543,0,0,1,7.8.889,7.418,7.418,0,0,1,3.828,5.46,8.055,8.055,0,0,1-.348,4.495,16.338,16.338,0,0,1-3.55,4.844,13.453,13.453,0,0,0-2.3,2.938,3.849,3.849,0,0,0-.177,2.294l.247,1.354Zm.683,7.851a3.844,3.844,0,0,1,.494-3.052,4.188,4.188,0,0,1,2.78-1.509,4.07,4.07,0,0,1,3.082.466,4.459,4.459,0,0,1,1.017,5.656,3.992,3.992,0,0,1-2.7,1.553,4.113,4.113,0,0,1-3.117-.47A3.821,3.821,0,0,1,290.838,287.758Z" transform="translate(-280.473 -256.268)" fill="#e3bb5e"/>
        </g>
      </g>
    </g>
  </g>
</svg>
