<svg xmlns="http://www.w3.org/2000/svg" xmlns:xlink="http://www.w3.org/1999/xlink" width="392.099" height="240.304" viewBox="0 0 392.099 240.304">
  <defs>
    <clipPath id="clip-path">
      <path id="Trazado_189995" data-name="Trazado 189995" d="M204.246,96.736c-1.359,11.506-19.551,27.844-26.384,36.139a48.015,48.015,0,0,1-85.091-30.508c0-26.517,22.682-66.457,49.2-66.457,16.2,0,32.218,22.106,40.914,34.4C188.421,78.132,207.443,69.673,204.246,96.736Z" transform="translate(-92.771 -35.909)" fill="none"/>
    </clipPath>
    <clipPath id="clip-path-2">
      <path id="Trazado_190016" data-name="Trazado 190016" d="M462.9,224.716,469.5,244.61s1.751,5.907,9.119,14.851a61.654,61.654,0,0,0,109.261-39.174c0-34.05-29.125-85.334-63.175-85.334-20.8,0-41.369,28.384-52.535,44.166C465.058,189.17,429.32,154.972,462.9,224.716Z" transform="translate(-448.738 -134.954)" fill="none"/>
    </clipPath>
    <linearGradient id="linear-gradient" x1="1.115" y1="0.842" x2="1.908" y2="0.247" gradientUnits="objectBoundingBox">
      <stop offset="0" stop-color="#304260"/>
      <stop offset="1" stop-color="#272438"/>
    </linearGradient>
    <linearGradient id="linear-gradient-2" x1="1.44" y1="0.934" x2="0.745" y2="-0.229" xlink:href="#linear-gradient"/>
    <linearGradient id="linear-gradient-3" x1="0.089" y1="1.825" x2="0.855" y2="0.206" xlink:href="#linear-gradient"/>
    <linearGradient id="linear-gradient-4" x1="0.354" y1="0.5" x2="1.354" y2="0.5" gradientUnits="objectBoundingBox">
      <stop offset="0" stop-color="#e3e2e6"/>
      <stop offset="0.449" stop-color="#cfd2e4"/>
      <stop offset="1" stop-color="#bbc3e2"/>
    </linearGradient>
    <linearGradient id="linear-gradient-5" x1="-0.931" y1="0.5" x2="0.069" y2="0.5" xlink:href="#linear-gradient-4"/>
    <clipPath id="clip-path-3">
      <circle id="Elipse_4951" data-name="Elipse 4951" cx="51.469" cy="51.469" r="51.469" fill="none"/>
    </clipPath>
  </defs>
  <g id="Grupo_154152" data-name="Grupo 154152" transform="translate(-41.328 -35.909)">
    <g id="Grupo_154131" data-name="Grupo 154131" transform="translate(181.61 61.613)">
      <g id="Grupo_154126" data-name="Grupo 154126">
        <g id="Grupo_154124" data-name="Grupo 154124">
          <path id="Trazado_189955" data-name="Trazado 189955" d="M395.651,293.9l-101.493.676a8.625,8.625,0,0,1-8.682-8.567l-.984-196.675a8.624,8.624,0,0,1,8.567-8.682l101.493-.676a8.624,8.624,0,0,1,8.682,8.567l.985,196.676A8.625,8.625,0,0,1,395.651,293.9Z" transform="translate(-284.492 -79.974)" fill="#b6c8e1"/>
          <path id="Trazado_189956" data-name="Trazado 189956" d="M387.152,425.755a4.4,4.4,0,1,1-4.433-4.374A4.4,4.4,0,0,1,387.152,425.755Z" transform="translate(-323.599 -222.231)" fill="#e7e8eb"/>
          <path id="Trazado_189957" data-name="Trazado 189957" d="M389.471,100.427l-33.209.221a1.36,1.36,0,0,1-1.368-1.35h0a1.36,1.36,0,0,1,1.35-1.368l33.209-.221a1.36,1.36,0,0,1,1.368,1.35h0A1.36,1.36,0,0,1,389.471,100.427Z" transform="translate(-313.826 -87.363)" fill="#cfcfcf" style="mix-blend-mode: multiply;isolation: isolate"/>
        </g>
        <g id="Grupo_154125" data-name="Grupo 154125" transform="translate(4.127 19.488)">
          <path id="Trazado_189958" data-name="Trazado 189958" d="M403.461,286.9l-111.064.74-.83-173.518,111.064-.74Z" transform="translate(-291.567 -113.383)" fill="#fff"/>
        </g>
      </g>
      <g id="Grupo_154127" data-name="Grupo 154127" transform="translate(26.401 37.425)">
        <path id="Trazado_189959" data-name="Trazado 189959" d="M335.76,156.561l56.516-.489a5.969,5.969,0,0,0,5.93-6.009h0a5.969,5.969,0,0,0-6.009-5.929l-56.516.489a5.969,5.969,0,0,0-5.929,6.009h0A5.97,5.97,0,0,0,335.76,156.561Z" transform="translate(-329.751 -144.133)" fill="#ff9d00"/>
      </g>
      <text id="FEEDBACK" transform="translate(40.766 46.561)" fill="#fff" font-size="7" font-family="Poppins-Bold, Poppins" font-weight="700"><tspan x="0" y="0">FEEDBACK</tspan></text>
      <path id="Trazado_189960" data-name="Trazado 189960" d="M321.514,208h0a8.119,8.119,0,0,1-8.119-8.12h0a8.119,8.119,0,0,1,8.119-8.119h0a8.119,8.119,0,0,1,8.119,8.119h0A8.12,8.12,0,0,1,321.514,208Z" transform="translate(-296.535 -126.551)" fill="#00bcd4"/>
      <g id="Grupo_154128" data-name="Grupo 154128" transform="translate(38.766 64.994)">
        <path id="Trazado_189961" data-name="Trazado 189961" d="M353.663,202.345l.839,1.7,1.876.273-1.357,1.323.32,1.868-1.678-.882-1.678.882.32-1.868-1.357-1.323,1.876-.273Z" transform="translate(-350.949 -195.957)" fill="#ff9f3e"/>
        <path id="Trazado_189962" data-name="Trazado 189962" d="M365.947,202.345l.839,1.7,1.876.273L367.3,205.64l.32,1.868-1.678-.882-1.678.882.32-1.868-1.357-1.323,1.876-.273Z" transform="translate(-356.067 -195.957)" fill="#ff9f3e"/>
        <path id="Trazado_189963" data-name="Trazado 189963" d="M378.23,202.345l.839,1.7,1.876.273-1.357,1.323.32,1.868-1.678-.882-1.678.882.32-1.868-1.357-1.323,1.876-.273Z" transform="translate(-361.185 -195.957)" fill="#ff9f3e"/>
        <path id="Trazado_189964" data-name="Trazado 189964" d="M390.514,202.345l.839,1.7,1.876.273-1.357,1.323.32,1.868-1.678-.882-1.678.882.32-1.868-1.357-1.323,1.876-.273Z" transform="translate(-366.303 -195.957)" fill="#c9cdd8"/>
        <path id="Trazado_189965" data-name="Trazado 189965" d="M402.8,202.345l.839,1.7,1.876.273-1.357,1.323.32,1.868-1.678-.882-1.678.882.32-1.868-1.357-1.323,1.876-.273Z" transform="translate(-371.422 -195.957)" fill="#c9cdd8"/>
        <rect id="Rectángulo_45965" data-name="Rectángulo 45965" width="2.859" height="2.832" transform="translate(1.357 15.989)" fill="#c9cdd8"/>
        <rect id="Rectángulo_45966" data-name="Rectángulo 45966" width="43.648" height="2.832" transform="translate(7.637 15.989)" fill="#c9cdd8"/>
        <rect id="Rectángulo_45967" data-name="Rectángulo 45967" width="52.344" height="2.832" transform="translate(7.637 21.989)" fill="#c9cdd8"/>
        <rect id="Rectángulo_45968" data-name="Rectángulo 45968" width="36.494" height="2.832" transform="translate(7.637 27.988)" fill="#c9cdd8"/>
        <rect id="Rectángulo_45969" data-name="Rectángulo 45969" width="18.965" height="1.985" transform="translate(8.156 34.765)" fill="#ff9f3e"/>
        <rect id="Rectángulo_45970" data-name="Rectángulo 45970" width="25.823" height="1.985" transform="translate(31.22 34.765)" fill="#ff9f3e"/>
        <rect id="Rectángulo_45971" data-name="Rectángulo 45971" width="37.539" height="4.203" transform="translate(1.357)" fill="#c9cdd8"/>
      </g>
      <path id="Trazado_189966" data-name="Trazado 189966" d="M321.514,295.922h0A8.119,8.119,0,0,1,313.4,287.8h0a8.119,8.119,0,0,1,8.119-8.119h0a8.119,8.119,0,0,1,8.119,8.119h0A8.119,8.119,0,0,1,321.514,295.922Z" transform="translate(-296.535 -163.189)" fill="#ff9d00"/>
      <g id="Grupo_154129" data-name="Grupo 154129" transform="translate(38.766 116.284)">
        <path id="Trazado_189967" data-name="Trazado 189967" d="M353.663,290.273l.839,1.7,1.876.273-1.357,1.323.32,1.868-1.678-.882-1.678.882.32-1.868-1.357-1.323,1.876-.273Z" transform="translate(-350.949 -283.885)" fill="#ff9f3e"/>
        <path id="Trazado_189968" data-name="Trazado 189968" d="M365.947,290.273l.839,1.7,1.876.273-1.357,1.323.32,1.868-1.678-.882-1.678.882.32-1.868-1.357-1.323,1.876-.273Z" transform="translate(-356.067 -283.885)" fill="#ff9f3e"/>
        <path id="Trazado_189969" data-name="Trazado 189969" d="M378.23,290.273l.839,1.7,1.876.273-1.357,1.323.32,1.868-1.678-.882-1.678.882.32-1.868-1.357-1.323,1.876-.273Z" transform="translate(-361.185 -283.885)" fill="#ff9f3e"/>
        <path id="Trazado_189970" data-name="Trazado 189970" d="M390.514,290.273l.839,1.7,1.876.273-1.357,1.323.32,1.868-1.678-.882-1.678.882.32-1.868-1.357-1.323,1.876-.273Z" transform="translate(-366.303 -283.885)" fill="#ff9f3e"/>
        <path id="Trazado_189971" data-name="Trazado 189971" d="M402.8,290.273l.839,1.7,1.876.273-1.357,1.323.32,1.868-1.678-.882-1.678.882.32-1.868-1.357-1.323,1.876-.273Z" transform="translate(-371.422 -283.885)" fill="#ff9f3e"/>
        <rect id="Rectángulo_45972" data-name="Rectángulo 45972" width="2.859" height="2.832" transform="translate(1.357 15.989)" fill="#c9cdd8"/>
        <rect id="Rectángulo_45973" data-name="Rectángulo 45973" width="43.648" height="2.832" transform="translate(7.637 15.989)" fill="#c9cdd8"/>
        <rect id="Rectángulo_45974" data-name="Rectángulo 45974" width="55.844" height="2.832" transform="translate(7.637 21.989)" fill="#c9cdd8"/>
        <rect id="Rectángulo_45975" data-name="Rectángulo 45975" width="37.539" height="4.203" transform="translate(1.357)" fill="#c9cdd8"/>
      </g>
      <path id="Trazado_189972" data-name="Trazado 189972" d="M321.514,363.332h0a8.119,8.119,0,0,1-8.119-8.119h0a8.119,8.119,0,0,1,8.119-8.119h0a8.119,8.119,0,0,1,8.119,8.119h0A8.119,8.119,0,0,1,321.514,363.332Z" transform="translate(-296.535 -191.277)" fill="#81d4fa"/>
      <g id="Grupo_154130" data-name="Grupo 154130" transform="translate(38.766 155.605)">
        <path id="Trazado_189973" data-name="Trazado 189973" d="M353.663,357.681l.839,1.7,1.876.273-1.357,1.323.32,1.868-1.678-.882-1.678.882.32-1.868-1.357-1.323,1.876-.273Z" transform="translate(-350.949 -351.294)" fill="#ff9f3e"/>
        <path id="Trazado_189974" data-name="Trazado 189974" d="M365.947,357.681l.839,1.7,1.876.273-1.357,1.323.32,1.868-1.678-.882-1.678.882.32-1.868-1.357-1.323,1.876-.273Z" transform="translate(-356.067 -351.294)" fill="#ff9f3e"/>
        <path id="Trazado_189975" data-name="Trazado 189975" d="M378.23,357.681l.839,1.7,1.876.273-1.357,1.323.32,1.868-1.678-.882-1.678.882.32-1.868-1.357-1.323,1.876-.273Z" transform="translate(-361.185 -351.294)" fill="#ff9f3e"/>
        <path id="Trazado_189976" data-name="Trazado 189976" d="M390.514,357.681l.839,1.7,1.876.273-1.357,1.323.32,1.868-1.678-.882-1.678.882.32-1.868-1.357-1.323,1.876-.273Z" transform="translate(-366.303 -351.294)" fill="#ff9f3e"/>
        <path id="Trazado_189977" data-name="Trazado 189977" d="M402.8,357.681l.839,1.7,1.876.273-1.357,1.323.32,1.868-1.678-.882-1.678.882.32-1.868-1.357-1.323,1.876-.273Z" transform="translate(-371.422 -351.294)" fill="#c9cdd8"/>
        <rect id="Rectángulo_45976" data-name="Rectángulo 45976" width="2.859" height="2.832" transform="translate(1.357 15.989)" fill="#c9cdd8"/>
        <rect id="Rectángulo_45977" data-name="Rectángulo 45977" width="43.648" height="2.832" transform="translate(7.637 15.989)" fill="#c9cdd8"/>
        <rect id="Rectángulo_45978" data-name="Rectángulo 45978" width="37.539" height="4.203" transform="translate(1.357)" fill="#c9cdd8"/>
      </g>
    </g>
    <g id="Grupo_154136" data-name="Grupo 154136" transform="translate(69.775 35.909)">
      <g id="Grupo_154135" data-name="Grupo 154135" clip-path="url(#clip-path)">
        <path id="Trazado_190047" data-name="Trazado 190047" d="M48.014,0A48.014,48.014,0,1,1,0,48.014,48.014,48.014,0,0,1,48.014,0Z" transform="translate(-19.888 66.457) rotate(-45)" fill="#ff9d00"/>
        <path id="Trazado_189978" data-name="Trazado 189978" d="M215.357,155.975s9.914,5.5,11.917,6.111,4.366,1.378,7.02,0,8.523-7.509,9.642-11.363l-5.615-3-8.779,7.565L219.2,150.2Z" transform="translate(-143.85 -82.502)" fill="#fec4ad"/>
        <path id="Trazado_189979" data-name="Trazado 189979" d="M186.558,125.741l11.329-4.522s3.369,1.759,6.215,7.079a64.806,64.806,0,0,0,7.955,10.9l-9.333,10.889s-6.514-6.639-9.671-12.268S186.558,125.741,186.558,125.741Z" transform="translate(-131.85 -71.456)" fill="#0e8696"/>
        <path id="Trazado_189980" data-name="Trazado 189980" d="M187.567,58.565a57.139,57.139,0,0,1,.493,13c-.53,4.063-2.4,7.486-5.123,9.167s-7.992-.888-10.569-3.255-3.016-6.1-3.843-9.517a21.748,21.748,0,0,1-.272-7.188s-1.611-5.63,1.187-8.032C180.16,43.542,186.954,55.532,187.567,58.565Z" transform="translate(-124.031 -41.502)" fill="#fec4ad"/>
        <path id="Trazado_189981" data-name="Trazado 189981" d="M181.022,54.067c-2.187-.836-5.7-1.305-11.658-.107-2.917.587-6.024-1.382-6.024-1.382-.024.873,1.646,4.294,1.851,5.187.33,1.435-.944,3.085-.807,4.265.222,1.914-1.844,2.766-1.844,2.766a2,2,0,0,1-.053,2.068c-.712.914-1.378,7.333-1.378,7.333s-3.282-5.215-3.614-6.09-3.375-2.244-5.12-4.987-2.77-14.9,4.68-16c0,0,6.551-7.271,17.709-2C179.05,47.15,181.022,54.067,181.022,54.067Z" transform="translate(-117.085 -38.949)" fill="#613531"/>
        <path id="Trazado_189982" data-name="Trazado 189982" d="M168.105,74.91c-.174-1.416-.276-5.027-3.487-4.821s-1.846,4.94-.623,5.9a23.22,23.22,0,0,1,2.915,3.164A7.151,7.151,0,0,0,168.105,74.91Z" transform="translate(-121.881 -50.148)" fill="#fec4ad"/>
        <path id="Trazado_189983" data-name="Trazado 189983" d="M160.954,83.5s-.728,5.616-1.325,8.474a7.665,7.665,0,0,1-2.286,4.532c-.7.69-8.549,6.011-8.549,6.011s17.135,31.932,22.076,15.3c1.56-5.251,7.943-13.923,7.943-13.923s-5.974-4.68-6.863-7.044-1.387-9.213-1.387-9.213Z" transform="translate(-116.115 -55.737)" fill="#fec4ad"/>
        <g id="Grupo_154132" data-name="Grupo 154132" transform="translate(19.95 43.496)">
          <path id="Trazado_189984" data-name="Trazado 189984" d="M160.567,186.823c8.6-.344,20.717-4.238,19.913-5.041-1.79-1.79-3.983-28.368-4.042-33.493-.167-14.435-3.379-31.547-3.379-31.547l-8.256-6.016a6.96,6.96,0,0,1-6.8,6.265c-14.063,1.134-13.521-6.517-13.521-6.517s-11.193,3.764-14.72,6.67c-4.757,3.919-2.578,8.595.213,27.549,1.151,7.823.981,17.318,1.853,24.5.7,5.81-.463,20.286,3.818,19.938C142.8,186.323,152.617,186.549,160.567,186.823Z" transform="translate(-126.973 -110.475)" fill="#00bcd4"/>
        </g>
        <path id="Trazado_189985" data-name="Trazado 189985" d="M137.408,144.6s9.89,8.079,13.941,10.589c5.837,3.616,6.628,4.862,9.292,4.128S191.4,135.336,191.4,135.336l-1.4-5.287s-11.757,7.808-19.847,12.112c-4.646,2.472-10.6,5.7-10.6,5.7l-10.434-8.923Z" transform="translate(-111.37 -75.135)" fill="#fec4ad"/>
        <path id="Trazado_189986" data-name="Trazado 189986" d="M153.5,141.3s-14.337-14.051-16.171-15.755c-9.479-8.808-13.805-.276-9.086,11.148,1.485,3.594,7.8,12.025,14.438,15.77C146.837,151.051,151.326,144.07,153.5,141.3Z" transform="translate(-106.749 -71.743)" fill="#33a18f"/>
        <path id="Trazado_189987" data-name="Trazado 189987" d="M153.5,141.3s-14.337-14.051-16.171-15.755c-9.479-8.808-13.805-.276-9.086,11.148,1.485,3.594,7.8,12.025,14.438,15.77C146.837,151.051,151.326,144.07,153.5,141.3Z" transform="translate(-106.749 -71.743)" fill="#0e8696"/>
        <g id="Grupo_154133" data-name="Grupo 154133" transform="translate(67.272 39.347)">
          <path id="Trazado_189988" data-name="Trazado 189988" d="M210.793,142.316l16.036,4.633a3.749,3.749,0,0,0,4.277-1.891l15.616-33.365a2.5,2.5,0,0,0-1.654-3.566l-15.895-4.7c-2.9-.283-4.34.281-5.075,1.816L208.447,138.36C207.706,139.909,207.988,140.994,210.793,142.316Z" transform="translate(-208.097 -103.362)" fill="#97a3cc"/>
          <path id="Trazado_189989" data-name="Trazado 189989" d="M212.787,142.734,228.9,147.4a3.764,3.764,0,0,0,4.3-1.893l15.676-33.513a2.506,2.506,0,0,0-1.67-3.579l-15.978-4.71a3.876,3.876,0,0,0-4.458,1.894l-15.783,33.416A2.616,2.616,0,0,0,212.787,142.734Z" transform="translate(-209.185 -103.444)" fill="#cad2ea"/>
        </g>
        <g id="Grupo_154134" data-name="Grupo 154134" transform="translate(92.021 61.891)">
          <path id="Trazado_189990" data-name="Trazado 189990" d="M256.628,150.2l.855-1.965c-1.069-.458-2.536-1.273-3.366-1.652a10.73,10.73,0,0,0-3.145-.938l-.446,1.657a14.085,14.085,0,0,1,3.136,1.179C254.551,148.966,255.794,149.7,256.628,150.2Z" transform="translate(-250.525 -143.524)" fill="#fec4ad"/>
          <path id="Trazado_189991" data-name="Trazado 189991" d="M259.1,146.488c.32-.736.614-1.413.865-1.992a47.4,47.4,0,0,0-4.828-2.486l-.97,1.353s2.348,1.277,3.232,1.928C257.84,145.617,258.525,146.093,259.1,146.488Z" transform="translate(-252.042 -142.01)" fill="#fec4ad"/>
          <path id="Trazado_189992" data-name="Trazado 189992" d="M255.712,154.227l.838-1.921a35.51,35.51,0,0,1-3.788-1.38,17.174,17.174,0,0,0-1.615-.762l-.575,1.51a13.079,13.079,0,0,0,3.368,1.846C254.714,153.8,255.269,154.031,255.712,154.227Z" transform="translate(-250.545 -145.408)" fill="#fec4ad"/>
          <path id="Trazado_189993" data-name="Trazado 189993" d="M255.969,156.658a12.98,12.98,0,0,1-2.917-.807,3.679,3.679,0,0,0-1.3-.539l-.267,1.227s1.718.913,3.7,1.914Z" transform="translate(-250.926 -147.553)" fill="#fec4ad"/>
          <path id="Trazado_189994" data-name="Trazado 189994" d="M255.327,152.166l1.459.745,2.7-1.57,2.136-6.045-1.542-3.285Z" transform="translate(-252.526 -142.01)" fill="#fec4ad"/>
        </g>
      </g>
    </g>
    <g id="Grupo_154141" data-name="Grupo 154141" transform="translate(277.418 93.684)">
      <g id="Grupo_154140" data-name="Grupo 154140" transform="translate(0 0)" clip-path="url(#clip-path-2)">
        <path id="Trazado_190046" data-name="Trazado 190046" d="M61.652,0A61.652,61.652,0,1,1,0,61.652,61.652,61.652,0,0,1,61.652,0Z" transform="translate(-9.702 85.334) rotate(-45)" fill="#81d4fa"/>
        <path id="Trazado_189996" data-name="Trazado 189996" d="M493.9,274.005l16.194-4.39s7.013-15.795,11.68-27.284,9.074-11.889,9.074-11.889c6.92,6.063,2.822,12.607,2.822,12.607L520.8,278.7l-25.2,3.762C495.112,279.631,494.532,276.811,493.9,274.005Z" transform="translate(-467.557 -174.742)" fill="#fec1b2"/>
        <path id="Trazado_189997" data-name="Trazado 189997" d="M547.681,251.927a53.519,53.519,0,0,0-12.462-.535c1.307-3.081,2.613-6.2,3.773-9.061,4.668-11.489,9.074-11.889,9.074-11.889,6.92,6.063,2.821,12.607,2.821,12.607Z" transform="translate(-484.773 -174.742)" fill="#fcfbff"/>
        <g id="Grupo_154137" data-name="Grupo 154137" transform="translate(-0.895 56.644)">
          <path id="Trazado_189998" data-name="Trazado 189998" d="M600.081,343.153s4.476-11.923,4.551-46.453c.053-24.957,4.752-44.5,7.107-54.544a7.772,7.772,0,0,0-5.235-9.185l-2.887-.911H557.869s-19.7,35.237-22.283,47.312-6.193,61.571-6.193,61.571Z" transform="translate(-481.451 -232.06)" fill="#4320af"/>
          <path id="Trazado_189999" data-name="Trazado 189999" d="M592.352,343.153s4.476-11.923,4.55-46.453c.06-28.076,5.569-51.267,7.277-60.551a3.468,3.468,0,0,0-3.423-4.088H550.14s-19.7,35.237-22.283,47.312-6.193,61.571-6.193,61.571Z" transform="translate(-478.23 -232.06)" fill="#7e5ee3"/>
          <path id="Trazado_190000" data-name="Trazado 190000" d="M538.187,350.131l-21.238-1.937s-30.183,13.337-33.493,19.128-10.419,10.815,2.292,31.228c12.988,20.856,17.495,48.626,17.495,48.626l-1.948,2.733q3.28,1.291,6.635,2.334l2.728-2.619s-1.751-18.886-4.01-31.766S502.365,391.1,501.22,381.9c0,0,14.079-5.419,28.659-5.109S543.77,378.8,538.187,350.131Z" transform="translate(-460.231 -280.451)" fill="url(#linear-gradient)"/>
          <path id="Trazado_190001" data-name="Trazado 190001" d="M556.82,354.97l-43.234-9.531s-41.222,1.252-44.531,7.042-3.843,10.737-8.4,26.293c-5.536,18.9-10.693,32.99-13.45,40.129,2.831.4,5.656.86,8.482,1.308,4.615-7.412,9.93-15.958,13.245-21.327,7.166-11.606,11.174-22.576,14.49-33.949,0,0,27.32,12.334,41.9,12.645S562.4,383.642,556.82,354.97Z" transform="translate(-447.204 -279.303)" fill="url(#linear-gradient-2)"/>
          <path id="Trazado_190002" data-name="Trazado 190002" d="M542.143,374.137l-.33-10.108s-1.375-14.6,24.207-16.895c7.438-.666,30.853,8.528,30.853,8.528s3.832,12.984-.451,21.241-27.46-2.91-44.309,1.04Z" transform="translate(-486.62 -279.995)" fill="url(#linear-gradient-3)"/>
        </g>
        <path id="Trazado_190003" data-name="Trazado 190003" d="M580.809,152.538c-1.615-.8-9.209-.969-13.768,2.227-8.715,6.112-3.46,21.119-2.685,24.6s-2.091,10.011-1.787,14.207,1.4,5.658,4.773,9.537a7.787,7.787,0,0,1,1.363,3.176,30.025,30.025,0,0,0,3.47-12.66c.31-7.266,1.946-5.674,5.085-13.823s2.585-20.1,2.585-20.1Z" transform="translate(-495.965 -142.076)" fill="#f28551"/>
        <path id="Trazado_190004" data-name="Trazado 190004" d="M564.691,184.544c-.084-.377-.222-.9-.388-1.52a25.675,25.675,0,0,1,.8-12.679c.286-.789,1.486-4.6,2.619-5.047,2.543-1.013,9.929-.964,12.471-.547l-.016.124s.554,11.956-2.585,20.1-4.774,6.557-5.084,13.823a30.03,30.03,0,0,1-3.47,12.66,7.786,7.786,0,0,0-1.363-3.176c-3.377-3.88-4.469-5.341-4.773-9.537S565.466,188.027,564.691,184.544Z" transform="translate(-496.299 -147.254)" fill="#c65c30"/>
        <path id="Trazado_190005" data-name="Trazado 190005" d="M581.817,158.428l7.216-5.626a11.022,11.022,0,0,1,10.452,4.252c4.073,5.5,3.312,13.867,4.523,20.038s8.36,12.413,8.487,17.062-7.174,10.773-7.174,10.773l-19.394-7.05a56.241,56.241,0,0,0-1.052-20.548A102.044,102.044,0,0,1,581.817,158.428Z" transform="translate(-504.189 -142.341)" fill="#f28551"/>
        <path id="Trazado_190006" data-name="Trazado 190006" d="M570.053,164.808c-.253,2.375-1.664,9.4-1.581,13.84s1.047,11.717,4.1,13.557,8.474-.1,12.41-2.008,4.742-4.8,5.374-7.45-.058-9.542-1.275-14.439-4.867-4.475-8.55-4.94S570.053,164.808,570.053,164.808Z" transform="translate(-498.627 -146.763)" fill="#fec1b2"/>
        <path id="Trazado_190007" data-name="Trazado 190007" d="M583.755,192.48s-.374,11.08,2.253,16.128c1.813,3.483,8.382,4.613,8.382,4.613a36.6,36.6,0,0,1-5.095,19.852c-5.93,9.956-26.048,14.711-26.048,14.711s.356-2.571-2.277-11.4-1.123-21.763-1.123-21.763,4.343-1.625,6.921-2.775c6.261-2.795,4.9-12.932,4.9-12.932Z" transform="translate(-494.855 -158.924)" fill="#fec1b2"/>
        <path id="Trazado_190008" data-name="Trazado 190008" d="M565.3,244.225c11.486,1.252,14.7-15.768,18.5-18.568l9.52,2.052s2.064,21.543.149,31.749c0,0-5.393,15.193,4.5,45.527,0,0-.67,7.133-13.131,3.636-10.726-3.01-13.1-6.217-22.448-8-13.8-2.636-13.783-5.706-13.783-5.706,6.5-11.154,2.93-22.762,2.93-22.762s-8.557-7.264-5.561-15.39c4.326-11.73,6.308-28.313,6.308-28.313l8.619-2.775S551.01,242.667,565.3,244.225Z" transform="translate(-488.989 -172.748)" fill="#fcfbff"/>
        <path id="Trazado_190009" data-name="Trazado 190009" d="M589.154,162.272c1.275.006,2.57,3.629,2.9,6.972s5.5,5.686,3.728,13.189-1.049,14.6-3.534,22.859,5.166,9.166,6.935,11.852a10.556,10.556,0,0,1,.74-7.451,25.914,25.914,0,0,0,3.172-10.826s-1.795-13.719-1.771-18.816.458-12.907-3.861-17.3S589.154,162.272,589.154,162.272Z" transform="translate(-507.246 -145.667)" fill="#f28551"/>
        <path id="Trazado_190010" data-name="Trazado 190010" d="M608.043,218.4c-1.511,1.1-.062,7.555.8,12.94,0,0,6.967-6.012,10.332-9.792,2.23-2.5-7.682-10.675-7.682-10.675Z" transform="translate(-514.843 -166.589)" fill="#f28551"/>
        <path id="Trazado_190011" data-name="Trazado 190011" d="M550.232,280.268c1.28-.184,9.357.5,10.959.19,11.715-2.236,12.713-4.148,19.3-6.846,0,0,3.088-14.976,3.842-21.268,1.255-10.474,6.27-20.9,11.763-19.575,5.985,1.442,6.489,7.356.959,24.729-1.97,6.19-6.016,23.61-7.858,24.5s-18.635,2.7-26.851,2.7l-20.83,1.427C544.141,284.367,547.133,282.015,550.232,280.268Z" transform="translate(-487.397 -175.664)" fill="#fec1b2"/>
        <path id="Trazado_190012" data-name="Trazado 190012" d="M611.876,252.359c2.658-10.467,6.53-24.535,12.055-23.178,5.917,1.454,10.5,5.515,3.4,26.8C621.657,254.775,616.71,253.982,611.876,252.359Z" transform="translate(-516.714 -174.178)" fill="#fcfbff"/>
        <g id="Grupo_154138" data-name="Grupo 154138" transform="translate(6.129 63.264)">
          <path id="Trazado_190013" data-name="Trazado 190013" d="M557.3,288.276H544.476l-12.823-44.868h7.87a2.66,2.66,0,0,1,2.507,1.772Z" transform="translate(-489.416 -243.408)" fill="#cad2ea"/>
          <path id="Trazado_190014" data-name="Trazado 190014" d="M523.448,288.276H473.4L459.37,246.5a2.344,2.344,0,0,1,2.222-3.09h46.536a3.312,3.312,0,0,1,3.184,2.4Z" transform="translate(-459.246 -243.408)" fill="#cad2ea"/>
          <rect id="Rectángulo_45979" data-name="Rectángulo 45979" width="57.411" height="3.347" transform="translate(14.154 43.851)" fill="#aeb5c9"/>
          <rect id="Rectángulo_45980" data-name="Rectángulo 45980" width="28.706" height="3.347" transform="translate(71.565 43.851)" fill="#cad2ea"/>
          <path id="Trazado_190015" data-name="Trazado 190015" d="M514.717,282.4c1.448,3.435.429,7.144-2.277,8.285s-6.074-.718-7.523-4.153-.429-7.144,2.277-8.285S513.269,278.967,514.717,282.4Z" transform="translate(-478.002 -257.786)" fill="#cad2ea" style="mix-blend-mode: multiply;isolation: isolate"/>
        </g>
        <g id="Grupo_154139" data-name="Grupo 154139" transform="translate(-51.376 109.656)">
          <rect id="Rectángulo_45981" data-name="Rectángulo 45981" width="205.669" height="6.493" fill="url(#linear-gradient-4)"/>
          <rect id="Rectángulo_45982" data-name="Rectángulo 45982" width="72.013" height="6.493" transform="translate(136.758)" fill="url(#linear-gradient-5)"/>
        </g>
      </g>
    </g>
    <g id="Grupo_154145" data-name="Grupo 154145" transform="translate(68.291 158.479)">
      <g id="Grupo_154144" data-name="Grupo 154144" transform="translate(0 0)" clip-path="url(#clip-path-3)">
        <rect id="Rectángulo_45983" data-name="Rectángulo 45983" width="117.642" height="117.642" transform="translate(110.29 111.668) rotate(180)" fill="#00bcd4"/>
        <g id="Grupo_154143" data-name="Grupo 154143" transform="translate(24.721 9.536)">
          <path id="Trazado_190017" data-name="Trazado 190017" d="M214.189,384.023c-.162,2.741,1.053,8.511,3.973,8.017s3.912-5.994,3.34-11.364-5.054-8.526-6.411-4.381S214.28,382.472,214.189,384.023Z" transform="translate(-166.586 -309.053)" fill="#342465"/>
          <path id="Trazado_190018" data-name="Trazado 190018" d="M215.338,381.573s4.835-4.633,7.422-7.065c4.061-3.817,9.051-8.3,9.051-8.3l-4.291-3.341s-5.246,2.943-10.917,5.777c-3.55,1.774-4.918,4.212-4.958,7.711C211.6,380.048,214.145,382,215.338,381.573Z" transform="translate(-165.54 -304.25)" fill="#ffd0c5"/>
          <path id="Trazado_190019" data-name="Trazado 190019" d="M195.309,333.075c.04-.664.029-8,.029-8s5.213,2.087,6.971,6.193,3.123,18.639,3.617,21.559l.495,2.92,3.9-1.993s-3.2,8.927-2.78,13.176,1.954,4.563,1.954,4.563-8.29,1.066-9.488-1.228-5.275-12.318-6.394-19.722S195.309,333.075,195.309,333.075Z" transform="translate(-157.916 -288.503)" fill="#342465"/>
          <path id="Trazado_190020" data-name="Trazado 190020" d="M183.924,292.837a10.939,10.939,0,0,1-6.9,3.22c-.912-3.919-2.27-3.544-5.279-9.449-3.463-6.8-4.063-17.235-4.063-17.235l-1.485-6.134c1.331-.841,7.915-1.675,12.164.691,8.125,4.523,4.914,18.037,4.556,21.133A26.6,26.6,0,0,0,183.924,292.837Z" transform="translate(-146.604 -262.381)" fill="#7a3e3a"/>
          <path id="Trazado_190021" data-name="Trazado 190021" d="M168.6,273.767c2.152.366,4.3.769,6.438,1.235a6.294,6.294,0,0,0,4.06-.517c3.32,4.917,3.38,7.945,4.933,14.537-.047.3-.086.573-.111.785a26.6,26.6,0,0,0,1.005,7.775c-1.992,2.847-6.684,5.207-9.1,3.22-.912-3.919-.073-3.544-3.082-9.449-3.463-6.8-4.063-17.235-4.063-17.235Z" transform="translate(-147.604 -267.125)" fill="#562715"/>
          <path id="Trazado_190022" data-name="Trazado 190022" d="M158.04,299.082c-7.2-1.843-10.084-2.082-10.685-10.3-.4-5.479-1.247-15.509,1.8-20.653s9.022-4.315,9.022-4.315l6.779,4.236a89.184,89.184,0,0,1-.95,16.7C163.264,289.688,157.588,295.718,158.04,299.082Z" transform="translate(-138.577 -262.958)" fill="#7a3e3a"/>
          <g id="Grupo_154142" data-name="Grupo 154142" transform="translate(9.858 19.558)">
            <path id="Trazado_190023" data-name="Trazado 190023" d="M157.068,295.91s.706,9.659-1.415,14.154c-1.464,3.1-5.92,4.728-5.92,4.728a24.5,24.5,0,0,0,3.887,16.741c5.516,8.488,23.24,11.95,23.24,11.95s.6-1.073,2.594-8.868-4.373-20.14-4.373-20.14-.232-1.322-2.522-2.239c-5.561-2.225-4.723-11.12-4.723-11.12Z" transform="translate(-149.508 -295.91)" fill="#fec4ad"/>
            <path id="Trazado_190024" data-name="Trazado 190024" d="M170.88,311.169c-6.223,3.72-13.64,4.867-21.224,4.685.064-.68.138-1.062.138-1.062s4.457-1.625,5.92-4.728c2.121-4.5,1.415-14.154,1.415-14.154l10.768,5.206S167.251,308,170.88,311.169Z" transform="translate(-149.57 -295.91)" fill="#e8b09e"/>
          </g>
          <path id="Trazado_190025" data-name="Trazado 190025" d="M175.466,271.407a106.853,106.853,0,0,1,2.276,11.826,28.74,28.74,0,0,1-.871,7.206,8.641,8.641,0,0,1-2.851,5.068c-1.121.845-2.446.764-4.038.634a18.084,18.084,0,0,1-5.2-1.325c-3.593-1.3-4.554-3.742-5.343-5.987s-.811-8.3-.2-12.661a7.715,7.715,0,0,1,6.446-6.967C168.85,268.464,175.466,271.407,175.466,271.407Z" transform="translate(-143.527 -265.173)" fill="#fec4ad"/>
          <path id="Trazado_190026" data-name="Trazado 190026" d="M160.8,290.479s-2.472-2.478-4.01-2.015-1.534,2.8-.265,4.66,5.7,2.746,5.7,2.746Z" transform="translate(-142.187 -273.225)" fill="#fec4ad"/>
          <path id="Trazado_190027" data-name="Trazado 190027" d="M169.644,269.3c2.146.1,4.444,3,8.288,4.931a10.293,10.293,0,0,0,6.631,1.231l-1.929-7.036s-5.14-2.848-8.645-2.373A5.12,5.12,0,0,0,169.644,269.3Z" transform="translate(-148.04 -263.888)" fill="#7a3e3a"/>
          <path id="Trazado_190028" data-name="Trazado 190028" d="M162.2,288.592c.512,5.182.892,8.094,5.57,12.028-4.192.741-10.329-.141-12.359-2.005.033-3.776.01-9.166-.253-11.592-.482-4.427-4.861-11.931,4.83-18.427,4.472-3,6.872,1.572,6.872,1.572C165.749,270.288,161.269,279.206,162.2,288.592Z" transform="translate(-141.418 -264.546)" fill="#7a3e3a"/>
          <path id="Trazado_190029" data-name="Trazado 190029" d="M182.385,386.664a185.836,185.836,0,0,1-42.8.066c1.066-6.513,4.614-20.644,4.8-25.985.316-9.1-7.358-30.692-7.358-30.692l8.923-4.864s7.672,7.691,14.359,7.953c12.117.475,8.114-9.27,8.114-9.27l3.448.7s3.047,12.4,5.444,16.985a18.734,18.734,0,0,1,1.051,13.577C177.689,357.289,180.808,375.533,182.385,386.664Z" transform="translate(-134.449 -288.003)" fill="#7e5ee3"/>
          <path id="Trazado_190030" data-name="Trazado 190030" d="M233.711,363.644l-7.006,1.167c-.654.108-1.074-.372-.938-1.073L229,347.087a1.933,1.933,0,0,1,1.432-1.468l7.006-1.167c.654-.109,2.408.544,2.271,1.246l-4.57,16.478A1.932,1.932,0,0,1,233.711,363.644Z" transform="translate(-171.415 -296.573)" fill="#cad2ea"/>
          <path id="Trazado_190031" data-name="Trazado 190031" d="M235.975,364.594l-7.006,1.167c-.654.109-1.074-.372-.937-1.073l3.236-16.65a1.933,1.933,0,0,1,1.431-1.468l7.006-1.167c.654-.109,1.074.372.938,1.073l-3.236,16.65A1.933,1.933,0,0,1,235.975,364.594Z" transform="translate(-172.358 -296.968)" fill="#97a3cc"/>
          <path id="Trazado_190032" data-name="Trazado 190032" d="M172.543,398.653c.5,1.507,1.843,4.556,3.967,4.348s1.983-5.33,1.625-8.687-.891-5.611-2.618-4.6S172.165,397.519,172.543,398.653Z" transform="translate(-149.225 -315.336)" fill="#342465"/>
          <path id="Trazado_190033" data-name="Trazado 190033" d="M159,382.34a88.791,88.791,0,0,1,8.708-4.377s11.71-1.905,15.329-3.54a40.492,40.492,0,0,0,9.843-7.589,14.686,14.686,0,0,1,5.977-4.261c1.942-.885,3.552-1.791,3.839-1s-.75,1.4-1.675,2.013-3.592,2.456-4.406,3.075a1.478,1.478,0,0,0-.43,1.642s1.225-.038,2.665.047,4.888.067,5.168.972-1.878,1.668-3.422,1.465a8.464,8.464,0,0,0-3.246.364,4.566,4.566,0,0,0,2.959.731c1.9-.11,2.437.144,2.066.789S200.3,374,200.3,374a1,1,0,0,1-.313,1.538,11.636,11.636,0,0,1-5.09,1.478c-1.551-.092-5.625,3-8.173,2.852s-13.747,6.858-19.2,8.871a94.987,94.987,0,0,1-13.765,3.411Z" transform="translate(-141.419 -303.586)" fill="#ffd0c5"/>
          <path id="Trazado_190034" data-name="Trazado 190034" d="M136.527,333.043c-4.038,1.507-4.086,6.86-3.834,12.629.392,8.939,4.808,30.175,6.606,33.617s5.122,2.237,8.706,1.782,11.888-1.743,11.888-1.743-1.466-1.532-1.62-6.433.628-6.856.628-6.856l-10.661,1.542a146.888,146.888,0,0,1-2.023-15.24C145.981,346.793,144.953,329.9,136.527,333.043Z" transform="translate(-132.607 -291.663)" fill="#342465"/>
          <path id="Trazado_190035" data-name="Trazado 190035" d="M246.431,350.179a4.909,4.909,0,0,0-3.827,2.664c-.522,1.3.143,1.343.814,1.271a9.3,9.3,0,0,1,1.336-.032,8.493,8.493,0,0,1-2.562,1.961c-1.369.586-2.2,1.426-1.584,2.352s.847.717,1.759.327c0,0-1.284,1.035-.685,2.183s2.112.013,2.112.013-1.493.8-1.115,1.935,1.329.078,2.346-.195,2.568-2.072,2.51-2.964l-.117-1.786a9.148,9.148,0,0,0,.339-1.981l.065-1.108-.475-1.362S248.216,350.062,246.431,350.179Z" transform="translate(-177.524 -298.963)" fill="#ffd0c5"/>
        </g>
      </g>
    </g>
    <g id="Grupo_154147" data-name="Grupo 154147" transform="translate(39.185 55.995)">
      <path id="Trazado_190037" data-name="Trazado 190037" d="M53.581,70.342H88.739A6.959,6.959,0,0,1,95.7,77.3V87.637A6.959,6.959,0,0,1,88.739,94.6H81.422a29.264,29.264,0,0,0,6.538,7.676.524.524,0,0,1-.5.9c-3.039-1.013-12-3.579-16.3-8.579H53.581a6.959,6.959,0,0,1-6.958-6.958V77.3A6.959,6.959,0,0,1,53.581,70.342Z" transform="translate(-42.952 -70.342)" fill="#0e8696"/>
      <g id="Grupo_154146" data-name="Grupo 154146" transform="translate(14.055 9.778)">
        <path id="Trazado_190038" data-name="Trazado 190038" d="M105.32,89.33a2.226,2.226,0,1,0,2.226-2.225A2.226,2.226,0,0,0,105.32,89.33Z" transform="translate(-81.464 -87.105)" fill="#fff"/>
        <path id="Trazado_190039" data-name="Trazado 190039" d="M84.872,89.33A2.226,2.226,0,1,0,87.1,87.105,2.226,2.226,0,0,0,84.872,89.33Z" transform="translate(-72.944 -87.105)" fill="#fff"/>
        <path id="Trazado_190040" data-name="Trazado 190040" d="M64.424,89.33a2.226,2.226,0,1,0,2.226-2.225A2.226,2.226,0,0,0,64.424,89.33Z" transform="translate(-64.424 -87.105)" fill="#fff"/>
      </g>
    </g>
    <g id="Grupo_154149" data-name="Grupo 154149" transform="translate(37.582 175.347)">
      <path id="Trazado_190042" data-name="Trazado 190042" d="M51.1,274.95H86.971a7.1,7.1,0,0,1,7.1,7.1V292.6a7.1,7.1,0,0,1-7.1,7.1H79.507a29.857,29.857,0,0,0,6.67,7.831.535.535,0,0,1-.509.922c-3.1-1.033-12.241-3.652-16.63-8.753H51.1a7.1,7.1,0,0,1-7.1-7.1V282.05A7.1,7.1,0,0,1,51.1,274.95Z" transform="translate(-40.258 -274.95)" fill="#7e5ee3"/>
      <g id="Grupo_154148" data-name="Grupo 154148" transform="translate(14.339 9.976)">
        <circle id="Elipse_4952" data-name="Elipse 4952" cx="2.271" cy="2.271" r="2.271" transform="translate(24.339)" fill="#fff"/>
        <circle id="Elipse_4953" data-name="Elipse 4953" cx="2.271" cy="2.271" r="2.271" transform="translate(12.169)" fill="#fff"/>
        <circle id="Elipse_4954" data-name="Elipse 4954" cx="2.271" cy="2.271" r="2.271" fill="#fff"/>
      </g>
    </g>
    <g id="Grupo_154151" data-name="Grupo 154151" transform="translate(377.879 78.218)">
      <path id="Trazado_190044" data-name="Trazado 190044" d="M668.631,108.44H628.837a7.876,7.876,0,0,0-7.877,7.877v11.7a7.876,7.876,0,0,0,7.877,7.877h8.281a33.131,33.131,0,0,1-7.4,8.689.593.593,0,0,0,.565,1.023c3.439-1.147,13.58-4.051,18.45-9.711h19.9a7.876,7.876,0,0,0,7.876-7.877v-11.7A7.876,7.876,0,0,0,668.631,108.44Z" transform="translate(-620.96 -108.44)" fill="#81d4fa"/>
      <g id="Grupo_154150" data-name="Grupo 154150" transform="translate(11.753 11.067)">
        <circle id="Elipse_4955" data-name="Elipse 4955" cx="2.519" cy="2.519" r="2.519" fill="#fff"/>
        <path id="Trazado_190045" data-name="Trazado 190045" d="M669.293,129.932a2.519,2.519,0,1,1-2.519-2.519A2.52,2.52,0,0,1,669.293,129.932Z" transform="translate(-650.753 -127.413)" fill="#fff"/>
        <circle id="Elipse_4956" data-name="Elipse 4956" cx="2.519" cy="2.519" r="2.519" transform="translate(27.002)" fill="#fff"/>
      </g>
    </g>
  </g>
</svg>
