<svg xmlns="http://www.w3.org/2000/svg" xmlns:xlink="http://www.w3.org/1999/xlink" width="420" height="263.827" viewBox="0 0 420 263.827">
  <defs>
    <clipPath id="clip-path">
      <path id="Trazado_189931" data-name="Trazado 189931" d="M267.633,291.494s7.59-6.491,9.139-9.279,9.138-18.741,12.7-19.515,14.714,8.054,19.36,10.687,17.812-.449,21.219,3.725,9.448,14.706,15.024,26.168,8.983,23.852,12.236,29.583,7.435,12.081,17.038,25.71,33.145,49.563,33.145,49.563H352.82s-13.785-41.354-21.374-52.351-12.7-10.842-19.051-12.856S290.77,335,282.609,325.8s-11.176-3.63-15.223-12.3c-2.043-4.377,3.727-5.1,1.868-11.337s8.893-6.5,11.955-3.377c1.417,1.444,3.663,3.547,2.246,9.254,0,0,5.53-.271,8.019,2.362a12.092,12.092,0,0,1,5.9.68s7.9-6.566,7.744-13.69-2.173-10.514-13.641-15.953c0,0-4.125,5.42-7.246,5.731A56.439,56.439,0,0,1,278,293.118C275.919,294.528,269.492,296.745,267.633,291.494Z" transform="translate(-266.942 -262.652)" fill="#edb08e"/>
    </clipPath>
    <clipPath id="clip-path-2">
      <path id="Trazado_189953" data-name="Trazado 189953" d="M154.053,246.684a27.9,27.9,0,0,0-15.389,9.058q-.2.23-.382.478c-.252.329-.376.519-.376.519s-5.462.9-7.338,4a12.088,12.088,0,0,0-5.619,1.911,29.116,29.116,0,0,1-6.121-4.515,42.2,42.2,0,0,0-4.477,40.241c.866-.452,1.747-.909,2.646-1.424,5.781-3.311,19.461-12.319,25.492-23.038,4.92-8.745,8.571-7.158,10.9-11.341l0,0c2.6-2.743,3.194-5.151,8.939-8.554C165.427,252.188,161.761,244.953,154.053,246.684Z" transform="translate(-111.173 -246.419)" fill="#edb08e"/>
    </clipPath>
  </defs>
  <g id="Grupo_155995" data-name="Grupo 155995" transform="translate(5871.287 3059.61)">
    <g id="Grupo_153503" data-name="Grupo 153503" transform="translate(-7995.595 -8892.255)">
      <path id="Trazado_144852" data-name="Trazado 144852" d="M2543.17,7547.3H2387.408c-.543-.02-1.1-.034-1.683-.034H2139.032a1.1,1.1,0,0,0-.113-.023h-13.456a1.157,1.157,0,0,0-1.148,1.126s-.007.007-.007.01v.07c0,.007.013.013.013.021a1.153,1.153,0,0,0,1.142,1.092h260.262c.37,0,.725-.008,1.081-.017H2543.17a1.118,1.118,0,0,0,1.138-1.089v-.067A1.118,1.118,0,0,0,2543.17,7547.3Z" transform="translate(0 -1453.088)" fill="#b7bed4"/>
    </g>
    <g id="Grupo_154123" data-name="Grupo 154123" transform="translate(-5813.375 -3131.346)">
      <path id="Trazado_189919" data-name="Trazado 189919" d="M144.418,233.969c-1.411,0-4.246-1.8-7.295-4.182,4.358-1.882,8.481-7.416,6.069-7.416-3.21,0-13.792-9.309-17.486-13.638s-19.6,4.942-23.582,10.7c0,0-4.9,12.329,0,15.394l0,0c-1.038,3.89-1.914,9.636,1.222,11.6,4.9,3.065,15.324-8.888,19.308-12.451s6.436,5.708,11.523,7.753S147.627,233.969,144.418,233.969Z" transform="translate(-38.683 -52.592)" fill="#d89371"/>
      <path id="Trazado_189920" data-name="Trazado 189920" d="M97.176,208.194c-2.1-2.4-14.119-15.163-17.765-15.163-11.267,0-34.168,17.865-36.616,22.665s-6.125,16.371-9.152,28.753-3.737,25.212-5.7,31.5-4.712,13.38-11.217,28.732c-3.6,8.5-32.2,76.509-32.2,76.509H43.934c2.473-19.973,9.926-78.106,14.13-88.3,4.3-10.431,8.556-12.716,13.256-15.168,3.46-13.437,3.46-20.039,4.477-40.241-1.972-1.93-7.105-4.853-7.654-7.687-1.355-7-4.7-13.064,9.395-21.354,0,0,10.28,6.537,13.4,6.18a56.444,56.444,0,0,0,7.344,4.5c2.333.938,9.084,1.746,9.791-3.779C108.069,215.332,99.279,210.592,97.176,208.194Z" transform="translate(0 -46.946)" fill="#edb08e"/>
      <g id="Grupo_154111" data-name="Grupo 154111" transform="translate(87.022 71.736)">
        <rect id="Rectángulo_45948" data-name="Rectángulo 45948" width="132.433" height="188.108" rx="6" transform="translate(0 14.685)" fill="#7e5ee3"/>
        <rect id="Rectángulo_45949" data-name="Rectángulo 45949" width="117.098" height="174.52" transform="translate(7.668 21.479)" fill="#fff"/>
        <rect id="Rectángulo_45950" data-name="Rectángulo 45950" width="71.103" height="5.885" transform="translate(42.005 52.876)" fill="#b3b3b3"/>
        <rect id="Rectángulo_45951" data-name="Rectángulo 45951" width="71.103" height="5.885" transform="translate(42.005 63.572)" fill="#d6d6d6"/>
        <rect id="Rectángulo_45952" data-name="Rectángulo 45952" width="94.395" height="5.885" transform="translate(18.713 74.268)" fill="#d6d6d6"/>
        <path id="Trazado_189921" data-name="Trazado 189921" d="M210.589,106.778a3.027,3.027,0,0,0,3.024,2.964h42.266a3.027,3.027,0,0,0,3.024-2.964Z" transform="translate(-168.53 -85.299)" fill="#d6d6d6"/>
        <path id="Trazado_189922" data-name="Trazado 189922" d="M255.875,78.271h-14.6a6.534,6.534,0,1,0-13.068,0h-14.6a3.031,3.031,0,0,0-3.031,3.031V91.541a3.031,3.031,0,0,0,3.031,3.031h42.266a3.031,3.031,0,0,0,3.031-3.031V81.3A3.031,3.031,0,0,0,255.875,78.271Zm-21.133,2.568a2.568,2.568,0,1,1,2.568-2.568A2.568,2.568,0,0,1,234.742,80.838Z" transform="translate(-168.525 -71.736)" fill="#d6d6d6"/>
        <path id="Trazado_189923" data-name="Trazado 189923" d="M210.578,99.628v2.708a3.031,3.031,0,0,0,3.031,3.031h42.266a3.031,3.031,0,0,0,3.031-3.031V99.628Z" transform="translate(-168.525 -82.531)" fill="#ccc"/>
        <g id="Rectángulo_45953" data-name="Rectángulo 45953" transform="translate(18.713 52.876)" fill="none" stroke="#d6d6d6" stroke-miterlimit="10" stroke-width="5">
          <rect width="17.985" height="16.581" stroke="none"/>
          <rect x="2.5" y="2.5" width="12.985" height="11.581" fill="none"/>
        </g>
        <rect id="Rectángulo_45954" data-name="Rectángulo 45954" width="71.103" height="5.885" transform="translate(42.005 90.044)" fill="#b3b3b3"/>
        <rect id="Rectángulo_45955" data-name="Rectángulo 45955" width="71.103" height="5.885" transform="translate(42.005 100.74)" fill="#d6d6d6"/>
        <rect id="Rectángulo_45956" data-name="Rectángulo 45956" width="94.395" height="5.885" transform="translate(18.713 111.435)" fill="#d6d6d6"/>
        <rect id="Rectángulo_45957" data-name="Rectángulo 45957" width="41.988" height="5.885" transform="translate(18.713 157.872)" fill="#d6d6d6"/>
        <rect id="Rectángulo_45958" data-name="Rectángulo 45958" width="22.986" height="5.885" transform="translate(18.713 168.196)" fill="#d6d6d6"/>
        <rect id="Rectángulo_45959" data-name="Rectángulo 45959" width="41.988" height="5.885" transform="translate(71.296 157.872)" fill="#d6d6d6"/>
        <rect id="Rectángulo_45960" data-name="Rectángulo 45960" width="22.986" height="5.885" transform="translate(71.296 168.196)" fill="#d6d6d6"/>
        <g id="Rectángulo_45961" data-name="Rectángulo 45961" transform="translate(18.713 90.044)" fill="none" stroke="#d6d6d6" stroke-miterlimit="10" stroke-width="5">
          <rect width="17.985" height="16.581" stroke="none"/>
          <rect x="2.5" y="2.5" width="12.985" height="11.581" fill="none"/>
        </g>
        <rect id="Rectángulo_45962" data-name="Rectángulo 45962" width="94.395" height="5.787" transform="translate(18.713 127.211)" fill="#b3b3b3"/>
        <g id="Rectángulo_45963" data-name="Rectángulo 45963" transform="translate(18.713 137.107)" fill="none" stroke="#d6d6d6" stroke-miterlimit="10" stroke-width="5">
          <rect width="42.115" height="16.581" stroke="none"/>
          <rect x="2.5" y="2.5" width="37.115" height="11.581" fill="none"/>
        </g>
        <g id="Rectángulo_45964" data-name="Rectángulo 45964" transform="translate(70.992 137.107)" fill="none" stroke="#d6d6d6" stroke-miterlimit="10" stroke-width="5">
          <rect width="42.115" height="16.581" stroke="none"/>
          <rect x="2.5" y="2.5" width="37.115" height="11.581" fill="none"/>
        </g>
        <path id="Trazado_189924" data-name="Trazado 189924" d="M194.223,158.953l-10.6,10.6-5.529-5.529" transform="translate(-155.952 -105.493)" fill="none" stroke="#ff9d00" stroke-linecap="round" stroke-linejoin="round" stroke-width="3"/>
        <path id="Trazado_189925" data-name="Trazado 189925" d="M194.223,218.637l-10.6,10.6-5.529-5.529" transform="translate(-155.952 -128.593)" fill="none" stroke="#ff9d00" stroke-linecap="round" stroke-linejoin="round" stroke-width="3"/>
      </g>
      <g id="Grupo_154119" data-name="Grupo 154119" transform="translate(149.262 188.759)">
        <g id="Grupo_154118" data-name="Grupo 154118">
          <path id="Trazado_189926" data-name="Trazado 189926" d="M311,291.379v-3.97H298.85c-1.36,2.21-2.133,3.746-2.523,4.447-1.549,2.788-9.138,9.279-9.138,9.279,1.858,5.252,8.286,3.035,10.368,1.624a56.464,56.464,0,0,0,6.228-5.947C303.983,296.793,313.295,290.363,311,291.379Z" transform="translate(-260.417 -272.234)" fill="#d89371"/>
          <path id="Trazado_189927" data-name="Trazado 189927" d="M326.192,293.11v-5.7H315.144c-2.061,3.145-3.138,5.306-3.623,6.177-1.549,2.788-9.139,9.279-9.139,9.279,1.859,5.251,8.287,3.034,10.369,1.624a56.439,56.439,0,0,0,6.227-5.947C319.178,298.523,328.489,292.094,326.192,293.11Z" transform="translate(-266.298 -272.234)" fill="#d89371"/>
          <path id="Trazado_189928" data-name="Trazado 189928" d="M339.692,296.627v-9.218h-7.2a77.19,77.19,0,0,0-5.085,9.7c-1.3,2.788-7.655,9.278-7.655,9.278,1.557,5.252,6.941,3.035,8.685,1.624a52.39,52.39,0,0,0,5.217-5.947C333.816,302.04,341.616,295.612,339.692,296.627Z" transform="translate(-273.019 -272.234)" fill="#d89371"/>
          <g id="Grupo_154113" data-name="Grupo 154113" transform="translate(14.361)">
            <path id="Trazado_189929" data-name="Trazado 189929" d="M267.633,291.494s7.59-6.491,9.139-9.279,9.138-18.741,12.7-19.515,14.714,8.054,19.36,10.687,17.812-.449,21.219,3.725,9.448,14.706,15.024,26.168,8.983,23.852,12.236,29.583,7.435,12.081,17.038,25.71,33.145,49.563,33.145,49.563H352.82s-13.785-41.354-21.374-52.351-12.7-10.842-19.051-12.856S290.77,335,282.609,325.8s-11.176-3.63-15.223-12.3c-2.043-4.377,3.727-5.1,1.868-11.337s8.893-6.5,11.955-3.377c1.417,1.444,3.663,3.547,2.246,9.254,0,0,5.53-.271,8.019,2.362a12.092,12.092,0,0,1,5.9.68s7.9-6.566,7.744-13.69-2.173-10.514-13.641-15.953c0,0-4.125,5.42-7.246,5.731A56.439,56.439,0,0,1,278,293.118C275.919,294.528,269.492,296.745,267.633,291.494Z" transform="translate(-266.942 -262.652)" fill="#edb08e"/>
            <g id="Grupo_154112" data-name="Grupo 154112" clip-path="url(#clip-path)">
              <path id="Trazado_189930" data-name="Trazado 189930" d="M334.11,334.479l-4.816-1.531c-.018-.066-.039-.13-.059-.194s-.043-.123-.064-.184c-.032-.088-.062-.175-.1-.261-.027-.065-.058-.127-.088-.191s-.071-.158-.111-.233q-.1-.2-.222-.381c-.036-.055-.075-.105-.113-.159-.053-.074-.1-.149-.161-.22-.042-.053-.087-.1-.131-.152-.058-.067-.116-.132-.178-.2-.047-.047-.094-.092-.143-.137q-.1-.091-.2-.177c-.05-.04-.1-.08-.151-.119-.074-.056-.15-.108-.228-.159-.051-.033-.1-.067-.153-.1-.088-.052-.181-.1-.273-.145-.046-.023-.091-.048-.137-.069a4.088,4.088,0,0,0-.439-.169L291.712,318.7a.863.863,0,0,0-.531-.9l-2.136-.723a.879.879,0,0,0-1.013.458l-38.389-12.2a.774.774,0,0,0-.466-.834l-1.727-.585a.829.829,0,0,0-1,.6l-.254.749-6.319-1.123a2.81,2.81,0,0,0-2.3.019,1.727,1.727,0,0,0-.4.344l-1.8-.321c-.45-.143-.856-.125-1.036.4s.132.791.577.951l1.627.842c.066.981.868,1.548,1.919,1.927l5.7,2.948-.254.75a.829.829,0,0,0,.426,1.083l1.727.585a.781.781,0,0,0,.886-.376l37.893,13.639a.881.881,0,0,0,.526.98l2.135.723a.864.864,0,0,0,.972-.4l34.192,12.307a4.578,4.578,0,0,0,4.315-.782l1.363.491h0l3.392,1.22a3.736,3.736,0,0,0,2.37-7Z" transform="translate(-254.305 -278.606)" opacity="0.1"/>
            </g>
          </g>
          <g id="Grupo_154116" data-name="Grupo 154116" transform="translate(34.307 67.214)">
            <g id="Grupo_154115" data-name="Grupo 154115">
              <g id="Grupo_154114" data-name="Grupo 154114" opacity="0.1">
                <path id="Trazado_189932" data-name="Trazado 189932" d="M327.478,381.912c-3.712-1.269-16.026-5.6-28-9.6,8.432,6.888,20.148,11.364,25.508,13.063,6.35,2.014,11.462,1.858,19.051,12.856s21.374,52.351,21.374,52.351h4.009s-15.3-42.955-22.894-54.809S333.829,384.083,327.478,381.912Z" transform="translate(-299.481 -372.308)"/>
              </g>
            </g>
          </g>
          <g id="Grupo_154117" data-name="Grupo 154117" transform="translate(0 25.738)">
            <path id="Trazado_189933" data-name="Trazado 189933" d="M394.041,349.279l7.321,2.118a3.736,3.736,0,0,0,1.918-7.132l-7.395-1.84Z" transform="translate(-301.773 -319.265)" fill="#7f7f7f"/>
            <path id="Trazado_189934" data-name="Trazado 189934" d="M394.041,349.279l7.321,2.118a3.736,3.736,0,0,0,1.918-7.132l-7.395-1.84Z" transform="translate(-301.773 -319.265)" fill="#7f7f7f"/>
            <path id="Trazado_189935" data-name="Trazado 189935" d="M394.041,349.279l7.321,2.118a3.736,3.736,0,0,0,1.918-7.132l-7.395-1.84Z" transform="translate(-301.773 -319.265)" fill="#7f7f7f"/>
            <path id="Trazado_189936" data-name="Trazado 189936" d="M399.9,347.179a6.36,6.36,0,0,0-.118-3.786l-3.9-.97-1.844,6.855,3.857,1.116A6.357,6.357,0,0,0,399.9,347.179Z" transform="translate(-301.773 -319.265)" fill="#666"/>
            <path id="Trazado_189937" data-name="Trazado 189937" d="M244.183,307.725l2.142.94.554-2.061-2.325-.262c-.458-.114-.863-.069-1.008.47S243.729,307.593,244.183,307.725Z" transform="translate(-243.512 -305.28)" fill="#7f7f7f"/>
            <path id="Trazado_189938" data-name="Trazado 189938" d="M249.366,309.986l6.585,2.889,1.7-6.335-7.146-.8c-1.409-.351-2.652-.215-3.1,1.445S247.971,309.582,249.366,309.986Z" transform="translate(-244.98 -305.004)" fill="#7f7f7f"/>
            <path id="Trazado_189939" data-name="Trazado 189939" d="M256.719,310.1l.958-3.564-7.146-.8c-1.409-.351-2.652-.215-3.1,1.445a3.02,3.02,0,0,0-.071.406Z" transform="translate(-245.002 -305.004)" fill="#666"/>
            <path id="Trazado_189940" data-name="Trazado 189940" d="M263.338,314.424l78.326,22.659c2.6.751,5.4-1.163,6.232-4.249s-.637-6.15-3.26-6.8l-79.125-19.688Z" transform="translate(-251.186 -305.3)" fill="#7f7f7f"/>
            <path id="Trazado_189941" data-name="Trazado 189941" d="M349,331.6c.2-2.631-1.2-5.005-3.469-5.571L266.4,306.344l-.763,2.839Z" transform="translate(-252.076 -305.3)" fill="#666"/>
            <path id="Trazado_189942" data-name="Trazado 189942" d="M348.757,334.756a1.464,1.464,0,0,0,1.006,1.786l25.513,7.381a1.988,1.988,0,0,0,1.021-3.795l-25.773-6.413a1.464,1.464,0,0,0-1.767,1.04Z" transform="translate(-284.227 -315.877)" fill="#fbb03b"/>
            <path id="Trazado_189943" data-name="Trazado 189943" d="M331.678,321.759l2.178.586a.924.924,0,0,1,.552,1.174l-2.458,9.139a.924.924,0,0,1-1.066.739l-2.177-.585a.924.924,0,0,1-.552-1.175l2.457-9.139A.925.925,0,0,1,331.678,321.759Z" transform="translate(-276.257 -311.257)" fill="#fbb03b"/>
            <path id="Trazado_189944" data-name="Trazado 189944" d="M262.91,304.663l1.762.474a.829.829,0,0,1,.495,1.054l-2.054,7.639a.829.829,0,0,1-.957.663l-1.761-.474a.829.829,0,0,1-.5-1.054l2.055-7.638A.83.83,0,0,1,262.91,304.663Z" transform="translate(-249.841 -304.641)" fill="#fbb03b"/>
          </g>
          <path id="Trazado_189945" data-name="Trazado 189945" d="M284.837,329.647c-.827-.046-1.381-.022-1.381-.022,1.417-5.707-.829-7.81-2.246-9.254-3.062-3.12-13.814-2.861-11.955,3.377s-3.911,6.96-1.868,11.337c4.047,8.67,7.062,3.1,15.223,12.3.692.781,1.442,1.534,2.227,2.266Z" transform="translate(-252.58 -284.234)" fill="#edb08e"/>
          <path id="Trazado_189946" data-name="Trazado 189946" d="M285.273,270.794c-3.39,5.16-7.043,12.732-8.065,14.572-1.549,2.788-9.139,9.279-9.139,9.279,1.859,5.251,8.287,3.034,10.369,1.624a56.437,56.437,0,0,0,6.227-5.947,3.408,3.408,0,0,0,.608-.126Z" transform="translate(-253.017 -265.803)" fill="#edb08e"/>
          <path id="Trazado_189947" data-name="Trazado 189947" d="M328.107,275.545h0c.142.1,5,4.3,16.311,9.027s-.854-4.91-.854-4.91h0c-4.293-.08-8.736.031-11.057-1.284C331.364,277.73,329.826,276.707,328.107,275.545Z" transform="translate(-276.254 -267.642)" opacity="0.1"/>
          <path id="Trazado_189948" data-name="Trazado 189948" d="M305.705,291.251A7.015,7.015,0,0,1,303.766,288s-.355,3.414.726,4.7Z" transform="translate(-266.811 -272.462)" opacity="0.1"/>
          <path id="Trazado_189949" data-name="Trazado 189949" d="M267.667,342.845s1.7-4.469,5.731-4.377c0,0-4.9,2.516-5.314,5.228Z" transform="translate(-252.861 -291.996)" opacity="0.1"/>
        </g>
      </g>
      <g id="Grupo_154121" data-name="Grupo 154121" transform="translate(68.144 178.809)">
        <path id="Trazado_189950" data-name="Trazado 189950" d="M154.053,246.684a27.9,27.9,0,0,0-15.389,9.058q-.2.23-.382.478c-.252.329-.376.519-.376.519s-5.462.9-7.338,4a12.088,12.088,0,0,0-5.619,1.911,29.116,29.116,0,0,1-6.121-4.515,42.2,42.2,0,0,0-4.477,40.241c.866-.452,1.747-.909,2.646-1.424,5.781-3.311,19.461-12.319,25.492-23.038,4.92-8.745,8.571-7.158,10.9-11.341l0,0c2.6-2.743,3.194-5.151,8.939-8.554C165.427,252.188,161.761,244.953,154.053,246.684Z" transform="translate(-111.173 -246.419)" fill="#edb08e"/>
        <g id="Grupo_154120" data-name="Grupo 154120" clip-path="url(#clip-path-2)">
          <path id="Trazado_189951" data-name="Trazado 189951" d="M183.48,251.837c-3.922,1.147-8.052,4.38-7.218,5.311s4.706,4.514,5.726,3.445,6.488-3.29,5.062-5.779S184.61,251.506,183.48,251.837Z" transform="translate(-136.323 -248.489)" fill="#fff" opacity="0.1"/>
          <path id="Trazado_189952" data-name="Trazado 189952" d="M169.672,269.988A24.146,24.146,0,0,1,176.4,274.5" transform="translate(-133.814 -255.541)" fill="none" stroke="#000" stroke-miterlimit="10" stroke-width="2" opacity="0.1"/>
        </g>
      </g>
      <g id="Grupo_154122" data-name="Grupo 154122" transform="translate(36.573 221.009)">
        <path id="Trazado_189954" data-name="Trazado 189954" d="M69.27,368.785c-2.633,19.259-7.6,47.955-9.6,59.715h7.361c2.473-19.973,9.926-78.106,14.131-88.3,4.3-10.431,8.556-12.716,13.256-15.168.866-.452,1.747-.909,2.646-1.424a97.645,97.645,0,0,0,12.153-8.338c-14.045,5.306-23.691,9.46-28.5,14.221C77.893,332.276,72.539,344.88,69.27,368.785Z" transform="translate(-59.667 -315.266)" opacity="0.1"/>
      </g>
    </g>
  </g>
</svg>
