<svg xmlns="http://www.w3.org/2000/svg" width="420" height="246.28" viewBox="0 0 420 246.28">
  <g id="Grupo_154110" data-name="Grupo 154110" transform="translate(-370 -9256.2)">
    <g id="Grupo_153502" data-name="Grupo 153502" transform="translate(-1754.308 3403.745)">
      <path id="Trazado_144852" data-name="Trazado 144852" d="M2543.17,7547.3H2387.408c-.543-.02-1.1-.034-1.683-.034H2139.032a1.1,1.1,0,0,0-.113-.023h-13.456a1.157,1.157,0,0,0-1.148,1.126s-.007.007-.007.01v.07c0,.007.013.013.013.021a1.153,1.153,0,0,0,1.142,1.092h260.262c.37,0,.725-.008,1.081-.017H2543.17a1.118,1.118,0,0,0,1.138-1.089v-.067A1.118,1.118,0,0,0,2543.17,7547.3Z" transform="translate(0 -1453.088)" fill="#b7bed4"/>
    </g>
    <g id="Grupo_154109" data-name="Grupo 154109">
      <g id="Grupo_154107" data-name="Grupo 154107" transform="translate(215.677 9152.115)">
        <g id="Grupo_154106" data-name="Grupo 154106" transform="translate(259.323 104.085)">
          <g id="Grupo_154104" data-name="Grupo 154104" transform="translate(0)">
            <rect id="Rectángulo_45941" data-name="Rectángulo 45941" width="164.243" height="219.177" transform="translate(0 24.917) rotate(-0.329)" fill="#00bcd4"/>
            <path id="Trazado_189910" data-name="Trazado 189910" d="M308.381,420.714l2.458-.014,145.066,3.667-4.984-207.255-6.73,1.978Z" transform="translate(-294.924 -186.109)" opacity="0.26"/>
            <rect id="Rectángulo_45942" data-name="Rectángulo 45942" width="147.677" height="202.781" transform="translate(8.323 31.85) rotate(-0.329)" fill="#fffff1"/>
            <path id="Trazado_189911" data-name="Trazado 189911" d="M286.721,215.779l106.217-.609L287.059,305.2Z" transform="translate(-279.206 -184.7)" opacity="0.05"/>
            <g id="Grupo_154103" data-name="Grupo 154103" transform="translate(50.047)">
              <rect id="Rectángulo_45943" data-name="Rectángulo 45943" width="64.137" height="6.021" transform="translate(0.039 30.539) rotate(-0.329)" opacity="0.12"/>
              <g id="Grupo_154102" data-name="Grupo 154102">
                <path id="Trazado_189912" data-name="Trazado 189912" d="M492.7,116.12l-1,.006,0-.671c-.036-6.321-5.951-11.411-13.211-11.37l-9.563.055c-7.26.042-13.116,5.2-13.08,11.521l0,.671-.995.006c-7.26.042-13.116,5.2-13.08,11.521l.073,12.787,64.136-.368-.073-12.787C505.88,121.169,499.965,116.079,492.7,116.12Zm-10.472.323-16.9.1a3.14,3.14,0,0,1-.036-6.281l16.9-.1a3.14,3.14,0,0,1,.036,6.281Z" transform="translate(-441.78 -104.085)" fill="#c4d3d3"/>
              </g>
            </g>
          </g>
          <g id="Grupo_154105" data-name="Grupo 154105" transform="translate(27.104 88.294)" opacity="0.47">
            <path id="Trazado_189913" data-name="Trazado 189913" d="M380.94,425.978l-21.681.124a1.146,1.146,0,0,0-1.123,1.136q.063,10.841.125,21.681a1.146,1.146,0,0,0,1.136,1.123l21.681-.125a1.042,1.042,0,0,0,.762-.306c.013-.012.025-.024.038-.036l.021-.023a1.041,1.041,0,0,0,.3-.771l-.124-21.681A1.146,1.146,0,0,0,380.94,425.978Zm-1,21.688-19.423.111q-.056-9.711-.111-19.423l19.423-.111Q379.879,437.955,379.935,447.666Z" transform="translate(-358.136 -425.978)" fill="#8c9498"/>
            <path id="Trazado_189914" data-name="Trazado 189914" d="M381.779,572.126l-21.681.125a1.146,1.146,0,0,0-1.123,1.136q.062,10.841.124,21.681a1.146,1.146,0,0,0,1.136,1.123l21.681-.124a1.042,1.042,0,0,0,.762-.306c.013-.011.025-.024.038-.036l.021-.023a1.041,1.041,0,0,0,.3-.771q-.063-10.841-.125-21.681A1.146,1.146,0,0,0,381.779,572.126Zm-1.005,21.688-19.423.111q-.056-9.712-.111-19.423l19.423-.111Q380.719,584.1,380.774,593.814Z" transform="translate(-358.745 -532.038)" fill="#8c9498"/>
            <path id="Trazado_189915" data-name="Trazado 189915" d="M382.617,718.275l-21.681.124a1.146,1.146,0,0,0-1.123,1.136q.062,10.841.125,21.681a1.146,1.146,0,0,0,1.136,1.123l21.681-.125a1.042,1.042,0,0,0,.762-.306c.013-.011.025-.024.038-.036l.021-.023a1.041,1.041,0,0,0,.3-.771q-.062-10.841-.124-21.681A1.146,1.146,0,0,0,382.617,718.275Zm-1,21.688-19.423.111q-.056-9.711-.111-19.423l19.423-.111Q381.557,730.252,381.612,739.963Z" transform="translate(-359.353 -638.099)" fill="#8c9498"/>
          </g>
          <path id="Trazado_189916" data-name="Trazado 189916" d="M389.024,419.084l4.974-1.69,2.8,4.967,23.71-17.3,2.772.538-27.554,22.86Z" transform="translate(-353.447 -322.504)" fill="#ff9d00"/>
          <path id="Trazado_189917" data-name="Trazado 189917" d="M383.3,568.976l4.974-1.69,2.8,4.967,23.71-17.3,2.772.538-27.554,22.86Z" transform="translate(-349.291 -431.281)" fill="#ff9d00"/>
          <path id="Trazado_189918" data-name="Trazado 189918" d="M382.443,707.312l4.974-1.69,2.8,4.967,23.71-17.3,2.772.538-27.554,22.86Z" transform="translate(-348.672 -531.672)" fill="#ff9d00"/>
          <rect id="Rectángulo_45944" data-name="Rectángulo 45944" width="76.488" height="10.841" transform="matrix(1, -0.006, 0.006, 1, 64.346, 177.198)" fill="#8c9498" opacity="0.32"/>
          <rect id="Rectángulo_45945" data-name="Rectángulo 45945" width="76.488" height="10.841" transform="matrix(1, -0.006, 0.006, 1, 64.102, 134.738)" fill="#8c9498" opacity="0.32"/>
          <rect id="Rectángulo_45946" data-name="Rectángulo 45946" width="76.488" height="10.841" transform="translate(63.859 92.279) rotate(-0.329)" fill="#8c9498" opacity="0.32"/>
        </g>
        <rect id="Rectángulo_45947" data-name="Rectángulo 45947" width="123.611" height="3.562" transform="translate(280.159 200.664)" fill="#7e5ee3"/>
      </g>
      <g id="Grupo_154108" data-name="Grupo 154108" transform="translate(633.159 9378.748) rotate(-19)">
        <path id="Trazado_189402" data-name="Trazado 189402" d="M538.744,579.044s.391-6.541,1.056-6.232,2,6,2,6l-1.428,2.3Z" transform="translate(-534.702 -572.801)" fill="#7e5ee3"/>
        <path id="Trazado_189403" data-name="Trazado 189403" d="M601.743,1709.667l.193,2.153a6.909,6.909,0,0,1-6.263,7.5l-.554.05a6.909,6.909,0,0,1-7.5-6.263l-.193-2.153Z" transform="translate(-578.06 -1585.31)" fill="#ee6f57"/>
        <rect id="Rectángulo_45881" data-name="Rectángulo 45881" width="14.373" height="104.66" transform="translate(0.002 21.403) rotate(-5.134)" fill="#ff9d00"/>
        <path id="Trazado_189404" data-name="Trazado 189404" d="M589.963,1578.688l-14.312,1.286-.376-4.2-.263-2.918-.809-8.97,14.316-1.286.805,8.97.263,2.918Z" transform="translate(-566.282 -1454.33)" fill="#102048"/>
        <rect id="Rectángulo_45883" data-name="Rectángulo 45883" width="14.37" height="2.93" transform="translate(8.73 118.526) rotate(-5.136)" fill="#fbc343"/>
        <path id="Trazado_189405" data-name="Trazado 189405" d="M501.793,635.3l3.977-15.937a3.418,3.418,0,0,0,3.037-.419l7.3,15.07Z" transform="translate(-501.793 -613.894)" fill="#81d4fa"/>
      </g>
    </g>
  </g>
</svg>
