<svg id="Grupo_151349" data-name="Grupo 151349" xmlns="http://www.w3.org/2000/svg" width="267.356" height="379.663" viewBox="0 0 267.356 379.663">
  <g id="Grupo_151166" data-name="Grupo 151166" transform="translate(0 160.87)">
    <path id="Trazado_188221" data-name="Trazado 188221" d="M162.644,275.277s25.948,7.366,30.773,27.463c4.569,19.037,13.933,60.992,13.933,60.992s-36.465-1.857-50.76-6.751Z" transform="translate(60.006 -264.886)" fill="#81d4fa"/>
    <g id="Grupo_151161" data-name="Grupo 151161" transform="translate(0)">
      <g id="Grupo_151160" data-name="Grupo 151160">
        <g id="Grupo_151156" data-name="Grupo 151156" transform="translate(99.199)">
          <path id="Trazado_188222" data-name="Trazado 188222" d="M237.843,270.193c1.388-.892,19.813-4.725,19.813-4.725l44.429,1.158L318,269.562s2.948,49.368,2.506,50.259-20.991,17.832-21.86,18.723-43.318-13.373-43.318-13.373l-28-50.223Z" transform="translate(-227.33 -265.468)" fill="#ffbf9d"/>
        </g>
        <g id="Grupo_151158" data-name="Grupo 151158" transform="translate(0 22.566)">
          <g id="Grupo_151157" data-name="Grupo 151157">
            <path id="Trazado_188223" data-name="Trazado 188223" d="M324.211,404.065a24.757,24.757,0,0,1-.745-24.43c6.773-13.43,68.517-92.865,68.517-92.865s23.471,19.211,22.18,41.491l-9.894,24.717-40.087,38.688Z" transform="translate(-320.611 -286.77)" fill="#ffbf9d"/>
          </g>
        </g>
        <g id="Grupo_151159" data-name="Grupo 151159" transform="translate(30.326 2.292)">
          <path id="Trazado_188224" data-name="Trazado 188224" d="M263.075,268.1c-2.229,0-31.988,6.582-42.075,15.144-10.69,9.074-42.514,48.611-42.514,48.611l46.84,33.248,4.942-6.622,7.912,49.683s-20.4,55.017-23.075,75.969l177.216-.376s-15.35-45.905-21.714-60.776c-1.248-2.915,12.061-48.454,12-60.451-.1-19.295-5.609-57.514-5.609-57.514l-6.185-29.284-42.55-8.1S322.616,291.674,299,291.674C271.218,291.674,263.075,268.1,263.075,268.1Z" transform="translate(-178.486 -267.632)" fill="#81d4fa"/>
        </g>
      </g>
    </g>
    <g id="Grupo_151162" data-name="Grupo 151162" transform="translate(68.549 188.122)" opacity="0.3">
      <path id="Trazado_188225" data-name="Trazado 188225" d="M293.028,463.406q.294-3.817.589-7.636l30.124-12.716H347.3a6,6,0,0,1-3.262,4.769,17.977,17.977,0,0,1-5.762,1.715,17.181,17.181,0,0,0-5.746,1.76,15.1,15.1,0,0,1,4.177,2.84c-3.164,2.771-8,1.869-12.1,2.815-6.611,1.526-11.062,7.846-17.352,10.389a16.511,16.511,0,0,1-11.414.31,4.161,4.161,0,0,1-2.61-1.918A4.7,4.7,0,0,1,293.028,463.406Z" transform="translate(-292.982 -443.054)"/>
    </g>
    <g id="Grupo_151163" data-name="Grupo 151163" transform="translate(81.72 50.923)">
      <path id="Trazado_188226" data-name="Trazado 188226" d="M331.108,313.539a3.6,3.6,0,0,0-.219.692l-.528,2.014c-.234.874-.494,1.949-.735,3.211s-.575,2.688-.808,4.288q-.192,1.2-.4,2.507c-.129.873-.225,1.786-.343,2.73-.26,1.886-.4,3.913-.584,6.045-.276,4.268-.4,8.973-.261,13.907a175.219,175.219,0,0,0,2.685,25.106c.571,3.181,1.1,5.744,1.506,7.5l.478,2.024a3.556,3.556,0,0,0,.2.7,3.7,3.7,0,0,0-.094-.721c-.1-.522-.221-1.2-.376-2.045-.346-1.771-.811-4.342-1.333-7.525a194.5,194.5,0,0,1-2.518-25.057c-.136-4.916-.032-9.6.216-13.856.169-2.124.291-4.146.531-6.027.109-.941.193-1.853.31-2.725s.25-1.7.366-2.5c.208-1.6.5-3.028.725-4.289s.442-2.343.642-3.224c.176-.839.318-1.514.426-2.034A3.5,3.5,0,0,0,331.108,313.539Z" transform="translate(-327.171 -313.539)" fill="#263238"/>
    </g>
    <g id="Grupo_151164" data-name="Grupo 151164" transform="translate(222.639 54.619)">
      <path id="Trazado_188227" data-name="Trazado 188227" d="M199.029,317.028a3.545,3.545,0,0,0-.123.711c-.064.524-.145,1.206-.247,2.051-.213,1.782-.457,4.366-.732,7.562-.541,6.393-.99,15.248-1.286,25.027S195.959,371,195.517,377.4c-.232,3.147-.421,5.717-.556,7.57-.059.85-.107,1.533-.144,2.06a3.554,3.554,0,0,0-.013.721,3.481,3.481,0,0,0,.124-.711c.063-.524.144-1.206.246-2.051.213-1.781.458-4.364.732-7.56.541-6.393.99-15.249,1.287-25.031s.682-18.621,1.124-25.016c.231-3.147.419-5.716.556-7.57.059-.85.107-1.533.143-2.06A3.456,3.456,0,0,0,199.029,317.028Z" transform="translate(-194.793 -317.028)" fill="#263238"/>
    </g>
    <g id="Grupo_151165" data-name="Grupo 151165" transform="translate(119.888 150.313)">
      <path id="Trazado_188228" data-name="Trazado 188228" d="M231.723,407.366a3.229,3.229,0,0,0,.664.211l1.931.5c1.678.431,4.123.989,7.156,1.621a235.051,235.051,0,0,0,48.106,4.838c3.1-.014,5.6-.074,7.334-.162l1.993-.106a3.274,3.274,0,0,0,.693-.074,3.327,3.327,0,0,0-.7-.036h-1.994c-1.73.022-4.234.023-7.327-.013-6.185-.066-14.732-.4-24.126-1.338s-17.831-2.326-23.9-3.494c-3.038-.58-5.493-1.081-7.184-1.446l-1.953-.4A3.416,3.416,0,0,0,231.723,407.366Z" transform="translate(-231.723 -407.362)" fill="#263238"/>
    </g>
  </g>
  <g id="Grupo_151339" data-name="Grupo 151339" transform="translate(31.943 0)">
    <g id="Grupo_151338" data-name="Grupo 151338" transform="translate(0)">
      <g id="Grupo_151168" data-name="Grupo 151168" transform="translate(3.099 3.843)">
        <g id="Grupo_151167" data-name="Grupo 151167">
          <path id="Trazado_188229" data-name="Trazado 188229" d="M260.929,140.758c-7.7-5.842-23.288-1.844-26.168,3.48a12.248,12.248,0,0,0-14.786,8.177l-16.1,6.8c-2.747,1.159-5.614,2.41-7.456,4.754s-2.2,6.142.046,8.1c-5.627,2.639-6.306,11.877-1.125,15.311a6.472,6.472,0,0,0,2.66,9.031,64.851,64.851,0,0,0-7.333,20.712c-.519,3.036-.771,6.36.81,9s5.68,3.9,7.805,1.674a7.575,7.575,0,0,0,1.148,8.107c-2.828.6-2.856,5.147-.52,6.849s5.548,1.326,8.375.731,5.878-1.316,8.513-.128a2.623,2.623,0,0,1-.591,1.975c-4.14,4.874-4.25,11.964.359,16.4.427.41.825.789,1.176,1.131,2.082,2.028,6.551,3.409,9.331,4.257,7.047,2.153,10.753.806,18.116.506-1.094,4.988,12.458,13.062,23.909.512,27.92,2.189,47.593,1.331,75.137-3.726,3.931-.721,8.553-2.132,9.64-5.978,3.341.25,6.505-1.87,8.428-4.614s2.839-6.051,3.72-9.284a17.408,17.408,0,0,0,9.445-17.716,21.513,21.513,0,0,0,5.176-16.53c6.238-3.248,8.284-12.509,3.995-18.084a76.15,76.15,0,0,0-12.488-21.655c4.322-1.814,4.886-8.2,2.248-12.076s-7.242-5.824-11.59-7.574c3.534.269,5.681-4.506,4.247-7.748s-4.918-5.012-8.239-6.249a64.468,64.468,0,0,0-15.116-3.624c-2.707-5.63-11.539-10.968-17.58-12.561-24.363-6.422-40.55-6.179-65.188,20.036" transform="translate(-190.267 -117.236)" fill="#263238"/>
        </g>
      </g>
      <g id="Grupo_151170" data-name="Grupo 151170" transform="translate(58.968 31.267)">
        <g id="Grupo_151169" data-name="Grupo 151169" transform="translate(0)">
          <path id="Trazado_188230" data-name="Trazado 188230" d="M316.557,170.276c-4.657-15.083-19.331-31.426-34.2-26.135l-44.745,23.528a9.237,9.237,0,0,0-5.839,11.042l26.215,101.7a28.8,28.8,0,0,0,29.353,21.575h0a28.806,28.806,0,0,0,26.8-34.3c-1.383-7.07-2.407-12.384-2.4-12.351,0,0,18.782-7.964,16.682-34.468C327.385,207.691,321.73,187.03,316.557,170.276Z" transform="translate(-231.469 -143.124)" fill="#ffbf9d"/>
        </g>
      </g>
      <g id="Grupo_151291" data-name="Grupo 151291" transform="translate(90.021 56.081)">
        <g id="Grupo_151262" data-name="Grupo 151262" transform="translate(4.664 12.094)">
          <g id="Grupo_151261" data-name="Grupo 151261" transform="translate(0)">
            <g id="Grupo_151260" data-name="Grupo 151260" transform="translate(0)">
              <g id="Grupo_151200" data-name="Grupo 151200" transform="translate(34.47)">
                <g id="Grupo_151184" data-name="Grupo 151184" transform="translate(2.721 12.84)">
                  <g id="Grupo_151183" data-name="Grupo 151183" transform="translate(0)">
                    <g id="Grupo_151182" data-name="Grupo 151182" transform="translate(0)">
                      <g id="Grupo_151181" data-name="Grupo 151181">
                        <g id="Grupo_151180" data-name="Grupo 151180">
                          <g id="Grupo_151179" data-name="Grupo 151179">
                            <g id="Grupo_151178" data-name="Grupo 151178">
                              <g id="Grupo_151177" data-name="Grupo 151177">
                                <g id="Grupo_151176" data-name="Grupo 151176">
                                  <g id="Grupo_151175" data-name="Grupo 151175">
                                    <g id="Grupo_151174" data-name="Grupo 151174">
                                      <g id="Grupo_151173" data-name="Grupo 151173">
                                        <g id="Grupo_151172" data-name="Grupo 151172">
                                          <g id="Grupo_151171" data-name="Grupo 151171">
                                            <path id="Trazado_188231" data-name="Trazado 188231" d="M254.588,192.373a3.367,3.367,0,0,1-2.361,4.064,3.221,3.221,0,0,1-4.086-2.139,3.369,3.369,0,0,1,2.357-4.065A3.224,3.224,0,0,1,254.588,192.373Z" transform="translate(-248.026 -190.086)" fill="#263238"/>
                                          </g>
                                        </g>
                                      </g>
                                    </g>
                                  </g>
                                </g>
                              </g>
                            </g>
                          </g>
                        </g>
                      </g>
                    </g>
                  </g>
                </g>
                <g id="Grupo_151199" data-name="Grupo 151199" transform="translate(0)">
                  <g id="Grupo_151198" data-name="Grupo 151198" transform="translate(0)">
                    <g id="Grupo_151197" data-name="Grupo 151197">
                      <g id="Grupo_151196" data-name="Grupo 151196">
                        <g id="Grupo_151195" data-name="Grupo 151195">
                          <g id="Grupo_151194" data-name="Grupo 151194">
                            <g id="Grupo_151193" data-name="Grupo 151193">
                              <g id="Grupo_151192" data-name="Grupo 151192">
                                <g id="Grupo_151191" data-name="Grupo 151191">
                                  <g id="Grupo_151190" data-name="Grupo 151190">
                                    <g id="Grupo_151189" data-name="Grupo 151189">
                                      <g id="Grupo_151188" data-name="Grupo 151188">
                                        <g id="Grupo_151187" data-name="Grupo 151187">
                                          <g id="Grupo_151186" data-name="Grupo 151186">
                                            <g id="Grupo_151185" data-name="Grupo 151185">
                                              <path id="Trazado_188232" data-name="Trazado 188232" d="M257.6,180.124c-.3.524-3.226-.713-6.746.145-3.53.807-5.678,3.243-6.164,2.9-.234-.146-.005-1.016.923-2.107a9.246,9.246,0,0,1,4.806-2.853,8.883,8.883,0,0,1,5.5.418C257.2,179.2,257.755,179.884,257.6,180.124Z" transform="translate(-244.605 -177.965)" fill="#263238"/>
                                            </g>
                                          </g>
                                        </g>
                                      </g>
                                    </g>
                                  </g>
                                </g>
                              </g>
                            </g>
                          </g>
                        </g>
                      </g>
                    </g>
                  </g>
                </g>
              </g>
              <g id="Grupo_151230" data-name="Grupo 151230" transform="translate(0 9.004)">
                <g id="Grupo_151214" data-name="Grupo 151214" transform="translate(4.836 11.953)">
                  <g id="Grupo_151213" data-name="Grupo 151213" transform="translate(0)">
                    <g id="Grupo_151212" data-name="Grupo 151212" transform="translate(0)">
                      <g id="Grupo_151211" data-name="Grupo 151211">
                        <g id="Grupo_151210" data-name="Grupo 151210">
                          <g id="Grupo_151209" data-name="Grupo 151209">
                            <g id="Grupo_151208" data-name="Grupo 151208">
                              <g id="Grupo_151207" data-name="Grupo 151207">
                                <g id="Grupo_151206" data-name="Grupo 151206">
                                  <g id="Grupo_151205" data-name="Grupo 151205">
                                    <g id="Grupo_151204" data-name="Grupo 151204">
                                      <g id="Grupo_151203" data-name="Grupo 151203">
                                        <g id="Grupo_151202" data-name="Grupo 151202">
                                          <g id="Grupo_151201" data-name="Grupo 151201">
                                            <path id="Trazado_188233" data-name="Trazado 188233" d="M285.129,200.034a3.366,3.366,0,0,1-2.36,4.064,3.221,3.221,0,0,1-4.086-2.138,3.368,3.368,0,0,1,2.357-4.065A3.222,3.222,0,0,1,285.129,200.034Z" transform="translate(-278.568 -197.748)" fill="#263238"/>
                                          </g>
                                        </g>
                                      </g>
                                    </g>
                                  </g>
                                </g>
                              </g>
                            </g>
                          </g>
                        </g>
                      </g>
                    </g>
                  </g>
                </g>
                <g id="Grupo_151229" data-name="Grupo 151229">
                  <g id="Grupo_151228" data-name="Grupo 151228">
                    <g id="Grupo_151227" data-name="Grupo 151227">
                      <g id="Grupo_151226" data-name="Grupo 151226">
                        <g id="Grupo_151225" data-name="Grupo 151225">
                          <g id="Grupo_151224" data-name="Grupo 151224">
                            <g id="Grupo_151223" data-name="Grupo 151223">
                              <g id="Grupo_151222" data-name="Grupo 151222">
                                <g id="Grupo_151221" data-name="Grupo 151221">
                                  <g id="Grupo_151220" data-name="Grupo 151220">
                                    <g id="Grupo_151219" data-name="Grupo 151219">
                                      <g id="Grupo_151218" data-name="Grupo 151218">
                                        <g id="Grupo_151217" data-name="Grupo 151217">
                                          <g id="Grupo_151216" data-name="Grupo 151216">
                                            <g id="Grupo_151215" data-name="Grupo 151215">
                                              <path id="Trazado_188234" data-name="Trazado 188234" d="M290.14,188.623c-.3.525-3.23-.711-6.748.147-3.529.806-5.678,3.242-6.163,2.9-.233-.146-.01-1.015.923-2.107a9.235,9.235,0,0,1,4.806-2.853,8.881,8.881,0,0,1,5.5.417C289.737,187.7,290.293,188.384,290.14,188.623Z" transform="translate(-277.144 -186.465)" fill="#263238"/>
                                            </g>
                                          </g>
                                        </g>
                                      </g>
                                    </g>
                                  </g>
                                </g>
                              </g>
                            </g>
                          </g>
                        </g>
                      </g>
                    </g>
                  </g>
                </g>
              </g>
              <g id="Grupo_151245" data-name="Grupo 151245" transform="translate(23.372 5.237)">
                <g id="Grupo_151244" data-name="Grupo 151244" transform="translate(0)">
                  <g id="Grupo_151243" data-name="Grupo 151243" transform="translate(0)">
                    <g id="Grupo_151242" data-name="Grupo 151242">
                      <g id="Grupo_151241" data-name="Grupo 151241">
                        <g id="Grupo_151240" data-name="Grupo 151240">
                          <g id="Grupo_151239" data-name="Grupo 151239">
                            <g id="Grupo_151238" data-name="Grupo 151238">
                              <g id="Grupo_151237" data-name="Grupo 151237">
                                <g id="Grupo_151236" data-name="Grupo 151236">
                                  <g id="Grupo_151235" data-name="Grupo 151235">
                                    <g id="Grupo_151234" data-name="Grupo 151234">
                                      <g id="Grupo_151233" data-name="Grupo 151233">
                                        <g id="Grupo_151232" data-name="Grupo 151232">
                                          <g id="Grupo_151231" data-name="Grupo 151231">
                                            <path id="Trazado_188235" data-name="Trazado 188235" d="M259.882,211.878c-.065-.2,2.034-1.1,5.474-2.412.877-.309,1.685-.693,1.689-1.343A4.7,4.7,0,0,0,265.8,205.6q-2.056-2.959-4.311-6.209c-6.044-8.861-10.652-16.236-10.294-16.477s5.551,6.748,11.6,15.61q2.2,3.286,4.21,6.277c.587.94,1.452,1.959,1.318,3.418a2.326,2.326,0,0,1-1.163,1.672,6.253,6.253,0,0,1-1.477.581C262.155,211.526,259.944,212.076,259.882,211.878Z" transform="translate(-251.177 -182.909)" fill="#263238"/>
                                          </g>
                                        </g>
                                      </g>
                                    </g>
                                  </g>
                                </g>
                              </g>
                            </g>
                          </g>
                        </g>
                      </g>
                    </g>
                  </g>
                </g>
              </g>
              <g id="Grupo_151259" data-name="Grupo 151259" transform="translate(8.174 74.428)">
                <g id="Grupo_151258" data-name="Grupo 151258" transform="translate(0)">
                  <g id="Grupo_151257" data-name="Grupo 151257" transform="translate(0)">
                    <g id="Grupo_151256" data-name="Grupo 151256">
                      <g id="Grupo_151255" data-name="Grupo 151255">
                        <g id="Grupo_151254" data-name="Grupo 151254">
                          <g id="Grupo_151253" data-name="Grupo 151253">
                            <g id="Grupo_151252" data-name="Grupo 151252">
                              <g id="Grupo_151251" data-name="Grupo 151251">
                                <g id="Grupo_151250" data-name="Grupo 151250">
                                  <g id="Grupo_151249" data-name="Grupo 151249">
                                    <g id="Grupo_151248" data-name="Grupo 151248">
                                      <g id="Grupo_151247" data-name="Grupo 151247">
                                        <g id="Grupo_151246" data-name="Grupo 151246">
                                          <path id="Trazado_188236" data-name="Trazado 188236" d="M282.71,249.1a66.808,66.808,0,0,1-36.385-.879s12.52,15.536,37.494,6.989Z" transform="translate(-246.325 -248.225)" fill="#ff9a6c"/>
                                        </g>
                                      </g>
                                    </g>
                                  </g>
                                </g>
                              </g>
                            </g>
                          </g>
                        </g>
                      </g>
                    </g>
                  </g>
                </g>
              </g>
            </g>
          </g>
        </g>
        <g id="Grupo_151276" data-name="Grupo 151276" transform="translate(0 6.966)">
          <g id="Grupo_151275" data-name="Grupo 151275" transform="translate(0)">
            <g id="Grupo_151274" data-name="Grupo 151274">
              <g id="Grupo_151273" data-name="Grupo 151273">
                <g id="Grupo_151272" data-name="Grupo 151272">
                  <g id="Grupo_151271" data-name="Grupo 151271">
                    <g id="Grupo_151270" data-name="Grupo 151270">
                      <g id="Grupo_151269" data-name="Grupo 151269">
                        <g id="Grupo_151268" data-name="Grupo 151268">
                          <g id="Grupo_151267" data-name="Grupo 151267">
                            <g id="Grupo_151266" data-name="Grupo 151266">
                              <g id="Grupo_151265" data-name="Grupo 151265">
                                <g id="Grupo_151264" data-name="Grupo 151264">
                                  <g id="Grupo_151263" data-name="Grupo 151263">
                                    <path id="Trazado_188237" data-name="Trazado 188237" d="M294.718,174.537c-.117,1.041-3.744,1.434-7.755,2.929-4.045,1.414-7.085,3.427-7.841,2.7-.343-.353.02-1.393,1.144-2.645a14.415,14.415,0,0,1,11.882-4.289C293.812,173.478,294.757,174.046,294.718,174.537Z" transform="translate(-278.997 -173.124)" fill="#263238"/>
                                  </g>
                                </g>
                              </g>
                            </g>
                          </g>
                        </g>
                      </g>
                    </g>
                  </g>
                </g>
              </g>
            </g>
          </g>
        </g>
        <g id="Grupo_151290" data-name="Grupo 151290" transform="translate(35.793)">
          <g id="Grupo_151289" data-name="Grupo 151289" transform="translate(0)">
            <g id="Grupo_151288" data-name="Grupo 151288" transform="translate(0)">
              <g id="Grupo_151287" data-name="Grupo 151287">
                <g id="Grupo_151286" data-name="Grupo 151286">
                  <g id="Grupo_151285" data-name="Grupo 151285">
                    <g id="Grupo_151284" data-name="Grupo 151284">
                      <g id="Grupo_151283" data-name="Grupo 151283">
                        <g id="Grupo_151282" data-name="Grupo 151282">
                          <g id="Grupo_151281" data-name="Grupo 151281">
                            <g id="Grupo_151280" data-name="Grupo 151280">
                              <g id="Grupo_151279" data-name="Grupo 151279">
                                <g id="Grupo_151278" data-name="Grupo 151278">
                                  <g id="Grupo_151277" data-name="Grupo 151277">
                                    <path id="Trazado_188238" data-name="Trazado 188238" d="M260.7,168.977c-.427.949-3.054.7-5.982,1.368-2.95.563-5.26,1.837-6.03,1.138-.347-.346-.151-1.243.746-2.26a8.884,8.884,0,0,1,9.678-2.018C260.342,167.778,260.879,168.52,260.7,168.977Z" transform="translate(-248.526 -166.548)" fill="#263238"/>
                                  </g>
                                </g>
                              </g>
                            </g>
                          </g>
                        </g>
                      </g>
                    </g>
                  </g>
                </g>
              </g>
            </g>
          </g>
        </g>
      </g>
      <g id="Grupo_151293" data-name="Grupo 151293" transform="translate(78.691 24.853)">
        <g id="Grupo_151292" data-name="Grupo 151292">
          <path id="Trazado_188239" data-name="Trazado 188239" d="M307.833,180.761c-1.029-3.988-3.091-7.846-6.428-10.261-1.827-1.323-3.984-2.181-5.669-3.683-3.638-3.245-4.254-8.61-6.383-13a19.827,19.827,0,0,0-14.593-10.747c-5.168-.786-10.6.51-15.6-1.016-3.7-1.127-6.846-3.718-10.6-4.625-7.316-1.766-14.441,3.2-20.054,8.21-.28,5.285,3.757,9.028,7.644,12.619a18.356,18.356,0,0,0,14.653,4.646c4.071-.538,8.592-2.36,11.979-.039,3.563,2.441,3.442,7.985,6.56,10.973,4.457,4.269,12.046.841,17.869,2.885,4.5,1.578,7.134,6.081,9.985,9.9s7.223,7.531,11.853,6.4A53.71,53.71,0,0,0,307.833,180.761Z" transform="translate(-228.489 -137.069)" fill="#263238"/>
        </g>
      </g>
      <g id="Grupo_151295" data-name="Grupo 151295" transform="translate(49.181 40.653)">
        <g id="Grupo_151294" data-name="Grupo 151294" transform="translate(0)">
          <path id="Trazado_188240" data-name="Trazado 188240" d="M334.6,151.984a93.056,93.056,0,0,0-33.286,12.926c-3.016,1.909-6.077,4.184-7.361,7.516-1.129,2.928-.7,6.209-.061,9.282,1.988,9.626,8.167,20.68,13.58,28.886l13.449,4.87c8.852-4,1.479-19.189-.531-27.131a19.315,19.315,0,0,0,7.822-18.893A21.377,21.377,0,0,0,334.6,151.984Z" transform="translate(-293.253 -151.984)" fill="#263238"/>
        </g>
      </g>
      <g id="Grupo_151302" data-name="Grupo 151302" transform="translate(60.599 96.512)">
        <g id="Grupo_151301" data-name="Grupo 151301" transform="translate(0)">
          <g id="Grupo_151300" data-name="Grupo 151300">
            <g id="Grupo_151299" data-name="Grupo 151299">
              <g id="Grupo_151298" data-name="Grupo 151298">
                <g id="Grupo_151297" data-name="Grupo 151297">
                  <g id="Grupo_151296" data-name="Grupo 151296">
                    <path id="Trazado_188241" data-name="Trazado 188241" d="M318.936,208.9c-1.438-5.446-8.421-5.2-12.609-1.435-2.3,2.067-3.66,5.534-2.185,11.326,3.932,15.447,18.629,8.313,18.544,7.863C322.631,226.375,320.619,215.278,318.936,208.9Z" transform="translate(-303.528 -204.714)" fill="#ffbf9d"/>
                  </g>
                </g>
              </g>
            </g>
          </g>
        </g>
      </g>
      <g id="Grupo_151310" data-name="Grupo 151310" transform="translate(64.887 102.246)">
        <g id="Grupo_151309" data-name="Grupo 151309" transform="translate(0)">
          <g id="Grupo_151308" data-name="Grupo 151308" transform="translate(0)">
            <g id="Grupo_151307" data-name="Grupo 151307">
              <g id="Grupo_151306" data-name="Grupo 151306">
                <g id="Grupo_151305" data-name="Grupo 151305">
                  <g id="Grupo_151304" data-name="Grupo 151304">
                    <g id="Grupo_151303" data-name="Grupo 151303">
                      <path id="Trazado_188242" data-name="Trazado 188242" d="M318.02,221.682c-.081-.032-.221.257-.623.582a2.777,2.777,0,0,1-2,.554c-1.784-.184-3.818-2.425-4.6-5.19a9.183,9.183,0,0,1-.227-4.045,3.208,3.208,0,0,1,1.5-2.582,1.414,1.414,0,0,1,1.775.334c.317.379.3.713.387.718.053.028.265-.343-.021-.949a1.777,1.777,0,0,0-.854-.814,2.091,2.091,0,0,0-1.589-.014,3.9,3.9,0,0,0-2.2,3.109,9.43,9.43,0,0,0,.163,4.543c.892,3.088,3.227,5.594,5.624,5.672a2.979,2.979,0,0,0,2.357-1.035C318.088,222.062,318.082,221.7,318.02,221.682Z" transform="translate(-309.359 -210.128)" fill="#ff9a6c"/>
                    </g>
                  </g>
                </g>
              </g>
            </g>
          </g>
        </g>
      </g>
      <g id="Grupo_151312" data-name="Grupo 151312" transform="translate(43.143 40.45)">
        <g id="Grupo_151311" data-name="Grupo 151311">
          <path id="Trazado_188243" data-name="Trazado 188243" d="M319.107,236.431a13.277,13.277,0,0,1-2.538.324,9.347,9.347,0,0,1-2.9-.3l.169-.129a7.916,7.916,0,0,1-11.413,7.341l.256-.1a3.277,3.277,0,0,1-1.782,1.765,4.531,4.531,0,0,1-2.571.281,4.165,4.165,0,0,1-2.357-1.256,5.552,5.552,0,0,1-1.293-2.418,8.14,8.14,0,0,1,.688-5.541,23.881,23.881,0,0,1,3.338-4.81l.1.356a5.612,5.612,0,0,1-3.2-3.22,8.165,8.165,0,0,1-.45-4.694,12.6,12.6,0,0,1,1.976-4.429,38,38,0,0,1,3.088-3.848l.044.356a5.972,5.972,0,0,1-2.422-4.233,8.619,8.619,0,0,1,.863-4.983c1.511-2.95,4.154-4.939,6.584-6.8l-.072.292a10.564,10.564,0,0,1,8.776-15l-.189.315a9.114,9.114,0,0,1,.635-8.013,8.983,8.983,0,0,1,5.968-4.525l-.157.234a8.937,8.937,0,0,1,2.22-7.5,8.743,8.743,0,0,1,6.179-3.074l-.149.188a8.768,8.768,0,0,1,.489-4.254,11.244,11.244,0,0,1,1.814-3.327,9.129,9.129,0,0,1,4.893-3.343l.578-.155c.191-.033.379-.043.559-.065a8,8,0,0,1,1.011-.078,10.93,10.93,0,0,1,1.574.13l.944.2a1.683,1.683,0,0,1,.316.084,1.938,1.938,0,0,1-.325-.04l-.947-.16a11.762,11.762,0,0,0-1.559-.088,8.3,8.3,0,0,0-.993.1c-.177.024-.361.038-.548.073l-.566.161A9,9,0,0,0,331,155.588a11.034,11.034,0,0,0-1.743,3.269,8.5,8.5,0,0,0-.446,4.1l.03.181-.179.006a8.421,8.421,0,0,0-5.918,3,8.571,8.571,0,0,0-2.1,7.184l.04.2-.2.038a8.579,8.579,0,0,0-5.672,4.344,8.685,8.685,0,0,0-.594,7.623l.127.29-.316.024a10.105,10.105,0,0,0-8.375,14.344l.082.176-.154.118c-2.431,1.858-5.006,3.818-6.443,6.635a8.134,8.134,0,0,0-.816,4.7,5.493,5.493,0,0,0,2.214,3.9l.226.151-.181.2c-2.167,2.447-4.328,5-4.965,8.053a7.707,7.707,0,0,0,.416,4.423,5.15,5.15,0,0,0,2.925,2.974l.3.107-.207.249a23.572,23.572,0,0,0-3.291,4.711,7.708,7.708,0,0,0-.678,5.251,4.272,4.272,0,0,0,3.316,3.388,3.5,3.5,0,0,0,3.938-1.793l.074-.189.182.09a7.7,7.7,0,0,0,8.015-.785,7.8,7.8,0,0,0,2.969-6.214l-.005-.181.174.051a9.2,9.2,0,0,0,2.815.314,13.232,13.232,0,0,0,2.5-.289,9.755,9.755,0,0,0,3.667-1.471,3.679,3.679,0,0,0,1.51-1.882c.155-.531.138-.835.168-.831a1.046,1.046,0,0,1-.005.216,2.171,2.171,0,0,1-.094.636,3.681,3.681,0,0,1-1.5,1.975" transform="translate(-294.464 -151.793)" fill="#455a64"/>
        </g>
      </g>
      <g id="Grupo_151314" data-name="Grupo 151314" transform="translate(7.849 34.114)">
        <g id="Grupo_151313" data-name="Grupo 151313" transform="translate(0)">
          <path id="Trazado_188244" data-name="Trazado 188244" d="M301.226,227.227a5.359,5.359,0,0,1-.771-.829,8.162,8.162,0,0,1-1.428-2.931,8.015,8.015,0,0,1,.328-5.15,8.449,8.449,0,0,1,4.961-4.7l-.1.213a10.9,10.9,0,0,1-.085-7.984A10.632,10.632,0,0,1,306.563,202a25.22,25.22,0,0,1,3.881-2.841,8.761,8.761,0,0,0,1.811-1.613,5.417,5.417,0,0,0,1.053-2.2c.4-1.632.283-3.446.847-5.229a9.675,9.675,0,0,1,8.6-6.566l-.218.317a12.751,12.751,0,0,1,11.112-16.878l-.21.308a11.2,11.2,0,0,1,15.1-13.59l-.247.073a15.3,15.3,0,0,1,4.81-4.39,22.961,22.961,0,0,1,5.357-2.376,26.723,26.723,0,0,1,9.386-1.172,18.987,18.987,0,0,1,5.946,1.218,11.14,11.14,0,0,1,1.449.676c.321.166.479.266.479.266-.02.038-.672-.334-1.971-.827a19.617,19.617,0,0,0-5.915-1.1,26.835,26.835,0,0,0-9.276,1.252,22.748,22.748,0,0,0-5.261,2.376,14.992,14.992,0,0,0-4.67,4.3l-.092.139-.155-.066A10.762,10.762,0,0,0,333.9,167.16l.087.287-.3.021a12.285,12.285,0,0,0-10.7,16.247l.1.3-.322.013a9.222,9.222,0,0,0-8.181,6.228c-.541,1.669-.43,3.472-.854,5.194a5.856,5.856,0,0,1-1.145,2.365,9.156,9.156,0,0,1-1.9,1.686,25.123,25.123,0,0,0-3.84,2.78,10.262,10.262,0,0,0-2.359,3.692,10.594,10.594,0,0,0,.026,7.729l.065.158-.161.055a8.207,8.207,0,0,0-4.833,4.495,7.885,7.885,0,0,0-.39,5.011,8.408,8.408,0,0,0,1.332,2.921C300.961,226.941,301.244,227.21,301.226,227.227Z" transform="translate(-298.75 -145.811)" fill="#455a64"/>
        </g>
      </g>
      <g id="Grupo_151316" data-name="Grupo 151316" transform="translate(89.692 29.549)">
        <g id="Grupo_151315" data-name="Grupo 151315" transform="translate(0)">
          <path id="Trazado_188245" data-name="Trazado 188245" d="M292.494,202.766a1.564,1.564,0,0,1-.308-1.27,3.084,3.084,0,0,1,.663-1.47,5.393,5.393,0,0,1,1.742-1.345,9.335,9.335,0,0,0,2.242-1.492,4.935,4.935,0,0,0,1.273-2.849,9.679,9.679,0,0,0-.3-3.653c-.305-1.279-.771-2.6-1.055-4.067-.6-2.958.069-6.209.2-9.621a13.181,13.181,0,0,0-.785-5.178,6.369,6.369,0,0,0-3.684-3.845c-1.779-.668-3.8-.582-5.837-.8a9.6,9.6,0,0,1-3.052-.761,6.4,6.4,0,0,1-2.454-2.088A30.88,30.88,0,0,1,278.3,158.5a10.625,10.625,0,0,0-1.657-2.753,4.861,4.861,0,0,0-2.695-1.572,17.756,17.756,0,0,0-4.437.247,6.886,6.886,0,0,1-2.3-.125,4.378,4.378,0,0,1-2.01-1.124,15.478,15.478,0,0,1-2.41-3.674,9.772,9.772,0,0,0-2.644-3.146,9.592,9.592,0,0,0-7.434-1.935,9.859,9.859,0,0,0-6.167,3.686l-.172.227-.164-.231a15.155,15.155,0,0,0-10.832-6.213,13.976,13.976,0,0,0-5.308.56,12.751,12.751,0,0,0-4.061,2.026,11.176,11.176,0,0,0-3.75,5.079,10.956,10.956,0,0,0-.492,1.62c-.044.172-.08.308-.11.422a.557.557,0,0,1-.049.141.509.509,0,0,1,.016-.146c.021-.117.048-.255.079-.43a9.541,9.541,0,0,1,.434-1.649,11.12,11.12,0,0,1,3.723-5.229,12.919,12.919,0,0,1,4.123-2.114,14.2,14.2,0,0,1,5.425-.619,15.483,15.483,0,0,1,11.141,6.31l-.336,0a10.274,10.274,0,0,1,6.426-3.875,10.037,10.037,0,0,1,7.795,2,10.283,10.283,0,0,1,2.77,3.281,15.243,15.243,0,0,0,2.328,3.561,4.66,4.66,0,0,0,3.934,1.114,17.925,17.925,0,0,1,4.564-.242,5.352,5.352,0,0,1,2.97,1.728,11.026,11.026,0,0,1,1.734,2.876,30.843,30.843,0,0,0,2.778,5.747A5.945,5.945,0,0,0,283.79,166a9.178,9.178,0,0,0,2.9.725c1.989.218,4.049.124,5.945.837a6.123,6.123,0,0,1,2.444,1.656,8.056,8.056,0,0,1,1.48,2.452,13.591,13.591,0,0,1,.789,5.345c-.153,3.469-.831,6.67-.262,9.547.265,1.429.72,2.758,1.018,4.058a9.929,9.929,0,0,1,.268,3.761A5.152,5.152,0,0,1,297,197.35a9.382,9.382,0,0,1-2.316,1.5,5.322,5.322,0,0,0-1.72,1.27,3.025,3.025,0,0,0-.678,1.4A1.958,1.958,0,0,0,292.494,202.766Z" transform="translate(-221.609 -141.502)" fill="#455a64"/>
        </g>
      </g>
      <g id="Grupo_151318" data-name="Grupo 151318" transform="translate(85.44 17.629)">
        <g id="Grupo_151317" data-name="Grupo 151317" transform="translate(0)">
          <path id="Trazado_188246" data-name="Trazado 188246" d="M303.807,173.358a1.712,1.712,0,0,1-.218-.261l-.6-.793c-.536-.726-1.3-1.757-2.268-3.075-.992-1.329-2.139-3.011-3.661-4.8a14.183,14.183,0,0,0-6.319-4.594c-1.4-.441-2.946-.61-4.538-.978a10.051,10.051,0,0,1-2.377-.835,5.487,5.487,0,0,1-1.988-1.73c-1.055-1.479-1.433-3.313-2.35-4.875a4.5,4.5,0,0,0-1.918-1.843,8.537,8.537,0,0,0-2.736-.676,16.3,16.3,0,0,1-2.968-.523,5.127,5.127,0,0,1-2.564-1.8c-1.305-1.717-1.732-3.855-2.511-5.8a7.647,7.647,0,0,0-1.593-2.665,3.977,3.977,0,0,0-2.8-1.152c-2.138-.03-4.207,1.115-6.564,1.2a5.608,5.608,0,0,1-3.316-1.01,14.526,14.526,0,0,1-2.466-2.313,30.522,30.522,0,0,0-2.238-2.361,6.14,6.14,0,0,0-2.678-1.521c-2.027-.5-4.05.376-5.892,1.194a14.025,14.025,0,0,1-5.835,1.664,16.169,16.169,0,0,1-5.618-1.35A27.251,27.251,0,0,0,222.7,130.8a16.413,16.413,0,0,0-9.328,1.5,17.619,17.619,0,0,0-6.182,4.868,19.634,19.634,0,0,0-2.921,5.22,22.322,22.322,0,0,0-.971,3.675c-.078.409-.14.731-.186.976a1.713,1.713,0,0,1-.081.331,1.713,1.713,0,0,1,.031-.337c.035-.247.082-.572.14-.985a20.364,20.364,0,0,1,.89-3.723A19.477,19.477,0,0,1,206.98,137a17.8,17.8,0,0,1,6.246-5.009,16.717,16.717,0,0,1,9.542-1.587,27.579,27.579,0,0,1,5.179,1.661,15.789,15.789,0,0,0,5.468,1.3,13.644,13.644,0,0,0,5.645-1.641,19.887,19.887,0,0,1,2.94-1.121,6.076,6.076,0,0,1,6.137,1.513,30.562,30.562,0,0,1,2.278,2.4,14.118,14.118,0,0,0,2.38,2.234,5.117,5.117,0,0,0,3.032.926c2.2-.06,4.266-1.21,6.587-1.2a4.465,4.465,0,0,1,3.12,1.291,8.093,8.093,0,0,1,1.7,2.834c.786,2,1.221,4.1,2.434,5.693A4.657,4.657,0,0,0,272,147.945a16.029,16.029,0,0,0,2.885.514,8.923,8.923,0,0,1,2.872.727,4.931,4.931,0,0,1,2.093,2.018c.952,1.656,1.32,3.472,2.31,4.859a6.509,6.509,0,0,0,4.124,2.433c1.559.372,3.119.552,4.555,1.016a14.389,14.389,0,0,1,6.423,4.745c1.516,1.82,2.64,3.516,3.608,4.862l2.194,3.129.56.821A1.815,1.815,0,0,1,303.807,173.358Z" transform="translate(-203.03 -130.249)" fill="#455a64"/>
        </g>
      </g>
      <g id="Grupo_151320" data-name="Grupo 151320" transform="translate(150.928 47.462)">
        <g id="Grupo_151319" data-name="Grupo 151319" transform="translate(0)">
          <path id="Trazado_188247" data-name="Trazado 188247" d="M223.9,158.56a1.213,1.213,0,0,1,.276-.1,1.767,1.767,0,0,1,.867.023,3.415,3.415,0,0,1,2.092,2.467,8.411,8.411,0,0,1,.119,2.4,9.815,9.815,0,0,0,.121,2.783,6.127,6.127,0,0,0,1.66,2.673c.788.825,1.741,1.6,2.581,2.6a4.565,4.565,0,0,1,1.153,3.857c-.24,1.428-.992,2.728-1.2,4.172a5.933,5.933,0,0,0,1.261,4.218c.885,1.31,2.022,2.525,2.927,4a7.19,7.19,0,0,1,.994,2.44,6.5,6.5,0,0,1-.091,2.7,30.875,30.875,0,0,1-2.108,5.031,7.324,7.324,0,0,0-.691,5.268c.551,1.766,1.886,3.22,2.912,4.906a8.292,8.292,0,0,1,1.138,2.76,6.583,6.583,0,0,1-.189,2.951,24.322,24.322,0,0,1-2.513,5.073,12.9,12.9,0,0,0-1.874,4.952,38.918,38.918,0,0,1-.678,5.178,5.764,5.764,0,0,1-1.2,2.285,7.363,7.363,0,0,1-2,1.494,19.728,19.728,0,0,0-2.016,1.192,7.879,7.879,0,0,0-1.568,1.579,16.2,16.2,0,0,0-1.911,3.84c-.493,1.3-.938,2.576-1.486,3.747A10.9,10.9,0,0,1,217.8,248.1a11.731,11.731,0,0,1-5.009,1.479,10.44,10.44,0,0,1-3.291-.307,8.049,8.049,0,0,1-1.09-.374,12.084,12.084,0,0,0,4.368.493,11.69,11.69,0,0,0,4.889-1.525,10.659,10.659,0,0,0,4.489-4.969c.53-1.154.961-2.42,1.446-3.733a16.524,16.524,0,0,1,1.938-3.946,8.3,8.3,0,0,1,1.646-1.676,20.073,20.073,0,0,1,2.053-1.23,6.957,6.957,0,0,0,1.886-1.412,5.333,5.333,0,0,0,1.1-2.117,39.3,39.3,0,0,0,.649-5.12,13.369,13.369,0,0,1,1.918-5.124,24.033,24.033,0,0,0,2.462-4.968,6.088,6.088,0,0,0,.176-2.736,7.822,7.822,0,0,0-1.074-2.592c-.99-1.638-2.357-3.107-2.959-5.014a6.071,6.071,0,0,1-.166-2.909,11.709,11.709,0,0,1,.883-2.7,30.91,30.91,0,0,0,2.091-4.946,6.037,6.037,0,0,0,.094-2.508,6.743,6.743,0,0,0-.929-2.293c-.864-1.421-1.993-2.64-2.9-3.991a6.339,6.339,0,0,1-1.305-4.513c.245-1.548,1-2.838,1.232-4.178a4.206,4.206,0,0,0-1.049-3.577c-.8-.969-1.743-1.755-2.539-2.6a6.379,6.379,0,0,1-1.7-2.82,9.9,9.9,0,0,1-.088-2.86,8.35,8.35,0,0,0-.072-2.342,3.341,3.341,0,0,0-1.936-2.42A2.044,2.044,0,0,0,223.9,158.56Z" transform="translate(-208.414 -158.412)" fill="#455a64"/>
        </g>
      </g>
      <g id="Grupo_151322" data-name="Grupo 151322" transform="translate(0 21.098)">
        <g id="Grupo_151321" data-name="Grupo 151321">
          <path id="Trazado_188248" data-name="Trazado 188248" d="M318.85,227.369a5.947,5.947,0,0,1-1.262.12,8.7,8.7,0,0,1-3.566-.772,8.487,8.487,0,0,1-4.19-3.962,8.946,8.946,0,0,1-.164-7.624,22.477,22.477,0,0,1,2.5-3.819,10.707,10.707,0,0,0,2.2-4.283,7.015,7.015,0,0,0-1.21-4.916c-.925-1.559-2.158-3.014-3.093-4.757a15.612,15.612,0,0,1,7.732-21.76l-.07.394a7.931,7.931,0,0,1-2.02-3.149,9.992,9.992,0,0,1-.493-3.763,10.94,10.94,0,0,1,.9-3.741,12.971,12.971,0,0,1,2.114-3.264,24.636,24.636,0,0,1,9.466-6.161,37.331,37.331,0,0,1,10.416-2.505l-.209.27a11.31,11.31,0,0,1,4.4-10.833,11.516,11.516,0,0,1,5.282-2.128,18.6,18.6,0,0,1,5.389.352,10.459,10.459,0,0,0,2.518.086,6.436,6.436,0,0,0,2.3-.707,19.485,19.485,0,0,0,3.74-2.819,17.09,17.09,0,0,1,3.6-2.577,13.818,13.818,0,0,1,3.844-1.3,13.378,13.378,0,0,1,6.833.5,13.8,13.8,0,0,1,4.445,2.556,13.165,13.165,0,0,1,2.167,2.369,7.206,7.206,0,0,1,.589.941c-.02.012-.212-.317-.655-.893a14.066,14.066,0,0,0-2.2-2.3,13.871,13.871,0,0,0-4.417-2.461,13.218,13.218,0,0,0-6.706-.429,13.6,13.6,0,0,0-3.751,1.3,16.775,16.775,0,0,0-3.512,2.554,19.8,19.8,0,0,1-3.8,2.89,6.817,6.817,0,0,1-2.433.757,10.893,10.893,0,0,1-2.611-.075,18.322,18.322,0,0,0-5.282-.333,11.111,11.111,0,0,0-5.078,2.065,10.872,10.872,0,0,0-4.2,10.4l.04.247-.249.023a36.979,36.979,0,0,0-10.281,2.486,24.24,24.24,0,0,0-9.28,6.034,12.545,12.545,0,0,0-2.036,3.141,10.5,10.5,0,0,0-.859,3.573,9.507,9.507,0,0,0,.465,3.578,7.439,7.439,0,0,0,1.89,2.957l.267.253-.337.141a15.183,15.183,0,0,0-7.547,21.126c.9,1.694,2.123,3.154,3.064,4.751a7.388,7.388,0,0,1,1.234,5.183,11.032,11.032,0,0,1-2.288,4.421,22.37,22.37,0,0,0-2.488,3.745,8.7,8.7,0,0,0,.1,7.387,8.35,8.35,0,0,0,4.04,3.917,8.915,8.915,0,0,0,3.5.838C318.417,227.42,318.848,227.343,318.85,227.369Z" transform="translate(-308.233 -133.524)" fill="#263238"/>
        </g>
      </g>
      <g id="Grupo_151324" data-name="Grupo 151324" transform="translate(76.811)">
        <g id="Grupo_151323" data-name="Grupo 151323" transform="translate(0)">
          <path id="Trazado_188249" data-name="Trazado 188249" d="M311.517,149.407a1.427,1.427,0,0,1-.1-.289l-.255-.861c-.23-.787-.555-1.9-.969-3.313-.438-1.432-.992-3.18-1.787-5.149a30.723,30.723,0,0,0-3.378-6.339,20.4,20.4,0,0,0-6.311-5.874,15.092,15.092,0,0,0-4.488-1.691,43.353,43.353,0,0,0-5.13-.453,14.428,14.428,0,0,1-5.354-1.225,22.729,22.729,0,0,1-4.753-3.185c-1.5-1.226-2.95-2.545-4.567-3.678a16.207,16.207,0,0,0-5.364-2.549,28.722,28.722,0,0,0-11.755-.2,74.924,74.924,0,0,0-10.778,2.557,56.718,56.718,0,0,0-16.7,8.372,40.237,40.237,0,0,0-8.835,8.984c-.418.619-.814,1.155-1.119,1.643q-.429.734-.735,1.258c-.192.32-.344.574-.461.77a1.456,1.456,0,0,1-.173.254,1.456,1.456,0,0,1,.128-.278l.42-.794.7-1.286c.293-.5.677-1.044,1.087-1.675a39.2,39.2,0,0,1,8.783-9.151,56.361,56.361,0,0,1,16.772-8.523,74.592,74.592,0,0,1,10.842-2.6,29.061,29.061,0,0,1,11.955.2,16.668,16.668,0,0,1,5.516,2.622c1.647,1.158,3.106,2.486,4.59,3.706a22.41,22.41,0,0,0,4.647,3.132,14.013,14.013,0,0,0,5.191,1.2,43.242,43.242,0,0,1,5.18.481,15.446,15.446,0,0,1,4.607,1.76,20.665,20.665,0,0,1,6.391,6.025,30.571,30.571,0,0,1,3.351,6.435c.775,1.992,1.305,3.754,1.716,5.2s.693,2.574.882,3.34l.209.875A1.481,1.481,0,0,1,311.517,149.407Z" transform="translate(-218.496 -113.608)" fill="#263238"/>
        </g>
      </g>
      <g id="Grupo_151326" data-name="Grupo 151326" transform="translate(112.848 106.923)">
        <g id="Grupo_151325" data-name="Grupo 151325" transform="translate(0)">
          <path id="Trazado_188250" data-name="Trazado 188250" d="M262.645,220.946a5.945,5.945,0,0,1,2.521-5.568,5.249,5.249,0,0,1,6.014.23,4.716,4.716,0,0,1,1.272,5.517,5.148,5.148,0,0,1-1.885,2.364,6.52,6.52,0,0,1-3.726,1.073,4.444,4.444,0,0,1-3-1.006A4.172,4.172,0,0,1,262.645,220.946Z" transform="translate(-262.608 -214.543)" fill="#ff9a6c"/>
        </g>
      </g>
      <g id="Grupo_151337" data-name="Grupo 151337" transform="translate(113.088 105.351)">
        <g id="Grupo_151336" data-name="Grupo 151336" transform="translate(0)">
          <g id="Grupo_151335" data-name="Grupo 151335" transform="translate(0)">
            <g id="Grupo_151334" data-name="Grupo 151334">
              <g id="Grupo_151333" data-name="Grupo 151333">
                <g id="Grupo_151332" data-name="Grupo 151332">
                  <g id="Grupo_151331" data-name="Grupo 151331">
                    <g id="Grupo_151330" data-name="Grupo 151330">
                      <g id="Grupo_151329" data-name="Grupo 151329">
                        <g id="Grupo_151328" data-name="Grupo 151328">
                          <g id="Grupo_151327" data-name="Grupo 151327">
                            <path id="Trazado_188251" data-name="Trazado 188251" d="M260.217,213.06c.592-.089.966,3.887,4.63,6.4s7.858,1.683,7.941,2.236c.077.245-.874.859-2.659,1.073a9.953,9.953,0,0,1-6.608-1.642,8.663,8.663,0,0,1-3.627-5.387C259.588,214.088,259.942,213.062,260.217,213.06Z" transform="translate(-259.776 -213.059)" fill="#263238"/>
                          </g>
                        </g>
                      </g>
                    </g>
                  </g>
                </g>
              </g>
            </g>
          </g>
        </g>
      </g>
    </g>
  </g>
  <g id="Grupo_151344" data-name="Grupo 151344" transform="translate(121.203 124.583)">
    <g id="Grupo_151340" data-name="Grupo 151340" transform="translate(26.468 56.36)" opacity="0.3">
      <path id="Trazado_188252" data-name="Trazado 188252" d="M273.6,417.855c-10.52.8-20.439-6.046-26.3-14.821s-8.426-19.272-10.892-29.53L223.271,318.83c-2.041-8.49-4.755-17.912-12.35-22.222-2.393-1.358-5.163-2.12-7.212-3.956s-2.989-5.406-.948-7.251c1.811-1.637,4.66-.932,6.939-.057,7.018,2.694,13.916,6.249,18.946,11.835s7.922,13.527,5.973,20.787" transform="translate(-201.622 -284.417)"/>
    </g>
    <path id="Trazado_188253" data-name="Trazado 188253" d="M203.545,311.711s11.742,23.268,22.554,46.044l23.634,3.2s1.527,46.547-19.953,54.618c-23.711,8.91-35.868-19.295-43.479-40.452-5.929-16.485-16.226-52.049-18.762-62.011Z" transform="translate(-115.204 -226.437)" fill="#ffbf9d"/>
    <g id="Grupo_151341" data-name="Grupo 151341" transform="translate(104.982 119.972)">
      <path id="Trazado_188254" data-name="Trazado 188254" d="M181.186,344.466a6.34,6.34,0,0,0,.552,1.218c.386.768.965,1.867,1.692,3.219,1.452,2.7,3.509,6.412,5.69,10.55s4.018,7.954,5.229,10.769c.612,1.4,1.084,2.551,1.4,3.347a6.336,6.336,0,0,0,.548,1.219,6.072,6.072,0,0,0-.345-1.292c-.254-.822-.672-2-1.24-3.425a114.7,114.7,0,0,0-5.1-10.875c-2.186-4.148-4.3-7.828-5.837-10.484-.735-1.247-1.353-2.3-1.845-3.132A6.112,6.112,0,0,0,181.186,344.466Z" transform="translate(-181.183 -344.465)" fill="#ff9a6c"/>
    </g>
    <g id="Grupo_151343" data-name="Grupo 151343">
      <path id="Trazado_188255" data-name="Trazado 188255" d="M265.73,328.5c-2.536-9.963-7.607-26.989-10.687-30.249s-21.917-11.23-23.909-14.672a4.336,4.336,0,0,1,.543-5.611,29.154,29.154,0,0,1-.906-5.256c-.543-4.347,2.355-5.614,2.355-5.614l-1.087-3.261c-1.449-6.159,4.166-5.253,3.623-6.521s-21.374-7.245-22.823-7.969a3.975,3.975,0,0,1-.906-6.34c2.536-2.716,21.555,2.9,28.438,5.253s18.657,8.513,19.925,5.8.543-13.585,1.448-17.389,3.8-5.8,5.978-5.072.725,6.884.725,10.144a42.787,42.787,0,0,0,4.529,18.294c3.984,8.332,5.252,19.2,5.252,19.2l21.038,38.024" transform="translate(-210.455 -231.199)" fill="#ffbf9d"/>
      <g id="Grupo_151342" data-name="Grupo 151342">
        <path id="Trazado_188256" data-name="Trazado 188256" d="M299.531,317.273s-.109-.236-.346-.683-.6-1.122-1.064-1.981l-4.14-7.59-15.317-27.865.023.072a79.846,79.846,0,0,0-2-10.14,56.616,56.616,0,0,0-3.863-10.5,46.007,46.007,0,0,1-3.411-11.358,32.946,32.946,0,0,1-.432-6.174c.11-2.089.472-4.212.453-6.417a8.459,8.459,0,0,0-.173-1.672,2.188,2.188,0,0,0-.995-1.5,3.645,3.645,0,0,0-3.4.423,8.018,8.018,0,0,0-3.309,5.869c-.524,4.551-.234,9.2-.723,13.855a14.262,14.262,0,0,1-.3,1.7,3.432,3.432,0,0,1-.285.737.913.913,0,0,1-.582.35,7.958,7.958,0,0,1-3.381-.411,68.128,68.128,0,0,1-6.768-2.478c-2.249-.92-4.5-1.886-6.81-2.778s-4.692-1.623-7.082-2.359a125.605,125.605,0,0,0-16.6-4.022,25.465,25.465,0,0,0-4.2-.325,6.143,6.143,0,0,0-2.132.357,2.138,2.138,0,0,0-.9.707,4.978,4.978,0,0,0-.609.9,4.035,4.035,0,0,0,.27,4.16,4.191,4.191,0,0,0,1.576,1.465c.672.282,1.294.465,1.941.682,5.124,1.638,10.157,3.147,15,4.791,1.209.412,2.4.833,3.573,1.288a18.365,18.365,0,0,1,1.7.746,2.717,2.717,0,0,1,.361.222c.073.043.067.067.094.078a.154.154,0,0,1,.024.074c.025.052-.3.248-.562.344a8.71,8.71,0,0,0-1.713.834,3.531,3.531,0,0,0-1.264,1.492,6.024,6.024,0,0,0-.106,3.737l0,.01,0,.013,1.09,3.258.133-.3a4.606,4.606,0,0,0-2.1,2.355,6.517,6.517,0,0,0-.429,3.034c.085,1.007.239,1.958.38,2.924a22.2,22.2,0,0,0,.586,2.869l.065-.262a4.422,4.422,0,0,0-1.365,3.55,5.044,5.044,0,0,0,1.644,3.321,36.9,36.9,0,0,0,5.9,3.859c3.983,2.232,7.853,4.153,11.4,6.107a45.066,45.066,0,0,1,5,3.043,6.352,6.352,0,0,1,1.762,2.046,12.976,12.976,0,0,1,.644,1.177c.21.392.4.789.574,1.19a95.929,95.929,0,0,1,3.426,8.97c1.837,5.505,3.084,9.886,3.932,12.869.411,1.482.728,2.622.946,3.41.212.772.339,1.166.339,1.166s-.081-.406-.269-1.184c-.2-.792-.5-1.939-.881-3.429-.805-3-2.012-7.391-3.813-12.915a94.706,94.706,0,0,0-3.386-9.021c-.174-.4-.363-.806-.573-1.2a13.124,13.124,0,0,0-.65-1.2,6.71,6.71,0,0,0-1.838-2.15,45.159,45.159,0,0,0-5.03-3.094c-3.55-1.972-7.414-3.908-11.377-6.145a36.938,36.938,0,0,1-5.805-3.816,4.61,4.61,0,0,1-1.495-3.033,3.977,3.977,0,0,1,1.215-3.162l.107-.1-.042-.16a39.7,39.7,0,0,1-.922-5.654,6.047,6.047,0,0,1,.4-2.814,4.149,4.149,0,0,1,1.854-2.094l.2-.1-.066-.2-1.084-3.261.005.021a5.558,5.558,0,0,1,.083-3.419,3.018,3.018,0,0,1,1.09-1.28,8.384,8.384,0,0,1,1.624-.782,3.865,3.865,0,0,0,.452-.216.778.778,0,0,0,.418-.524.629.629,0,0,0-.072-.374.865.865,0,0,0-.234-.251,3.038,3.038,0,0,0-.435-.271,18.249,18.249,0,0,0-1.751-.774c-1.181-.463-2.382-.887-3.594-1.3-4.849-1.655-9.885-3.172-15-4.81-.627-.21-1.3-.415-1.872-.657a3.673,3.673,0,0,1-1.358-1.276,3.485,3.485,0,0,1-.24-3.613,2.985,2.985,0,0,1,1.243-1.353,5.627,5.627,0,0,1,1.936-.313,24.912,24.912,0,0,1,4.11.321,125.429,125.429,0,0,1,16.518,4.008c2.381.733,4.755,1.463,7.044,2.345s4.547,1.85,6.8,2.77a68.643,68.643,0,0,0,6.829,2.5,16.636,16.636,0,0,0,1.779.4,4.825,4.825,0,0,0,1.882.01,1.447,1.447,0,0,0,.892-.565,1.554,1.554,0,0,0,.216-.46,4.7,4.7,0,0,0,.148-.447,14.658,14.658,0,0,0,.315-1.782c.489-4.724.2-9.38.709-13.848a7.5,7.5,0,0,1,3.063-5.5,3.156,3.156,0,0,1,2.889-.4,1.7,1.7,0,0,1,.732,1.158,7.869,7.869,0,0,1,.161,1.565c.024,2.135-.332,4.254-.441,6.382a33.3,33.3,0,0,0,.449,6.274,46.4,46.4,0,0,0,3.47,11.468,56.31,56.31,0,0,1,3.871,10.422,79.911,79.911,0,0,1,2.024,10.075l.005.04.018.032,15.471,27.78,4.231,7.539,1.112,1.954C299.388,317.056,299.531,317.273,299.531,317.273Z" transform="translate(-210.719 -231.213)" fill="#ff9a6c"/>
      </g>
    </g>
  </g>
  <g id="Grupo_151348" data-name="Grupo 151348" transform="translate(3.6 277.191)">
    <g id="Grupo_151346" data-name="Grupo 151346" transform="translate(0)">
      <path id="Trazado_188257" data-name="Trazado 188257" d="M365,438.325c-.452,0,18.254-15.985,24.134-17.04s16.432,1.809,16.432,1.809-1.206,5.344-5.277,5.611a86.873,86.873,0,0,1-8.894,0l-6.633,4.79,3.987-1.794a7.087,7.087,0,0,1,4.241-.5c4.527.867,14.541,2.779,15.459,2.9,1.189.15,5.711.9,2.7,7.387,0,0,4.522,5.427-4.372,6.784s-17.6,2.111-17.6,2.111l-6.827,3.467s15.83-.151,18.392.6,2.262,2.864,1.056,4.071-17.941.451-20.805,2.412-12.513,9.2-17.789,8.592-11.91-5.427-12.815-5.879-58.063-64.833-58.063-64.833l34.813-23.54s31.231,58.016,33.454,61.417C362.931,440.271,365,438.325,365,438.325Z" transform="translate(-292.324 -375.274)" fill="#ffbf9d"/>
      <g id="Grupo_151345" data-name="Grupo 151345" transform="translate(83.798 62.783)">
        <path id="Trazado_188258" data-name="Trazado 188258" d="M293.409,440.537a7.382,7.382,0,0,0,1.344-.5l3.594-1.516c1.518-.637,3.324-1.4,5.353-2.175,1.013-.386,2.086-.783,3.206-1.091a12.451,12.451,0,0,1,3.56-.072c4.981.477,9.461,1.346,12.7,1.907l3.84.689a7.411,7.411,0,0,0,1.422.194,6.857,6.857,0,0,0-1.377-.4c-.9-.221-2.2-.522-3.809-.861a118.137,118.137,0,0,0-12.732-2.074,12.544,12.544,0,0,0-3.743.1,33.615,33.615,0,0,0-3.252,1.139c-2.031.808-3.824,1.609-5.325,2.292s-2.7,1.265-3.528,1.678A6.922,6.922,0,0,0,293.409,440.537Z" transform="translate(-293.409 -434.54)" fill="#ff9a6c"/>
      </g>
    </g>
    <g id="Grupo_151347" data-name="Grupo 151347" transform="translate(17.411 4.42)">
      <path id="Trazado_188259" data-name="Trazado 188259" d="M366.147,380.251c.021.1,1.485-.234,3.881-.338a27.192,27.192,0,0,1,4.2.156,27.037,27.037,0,0,1,9.754,3.073,27.262,27.262,0,0,1,3.531,2.279c1.9,1.46,2.91,2.574,2.986,2.5a3.873,3.873,0,0,0-.657-.826,9.846,9.846,0,0,0-.862-.889c-.355-.327-.742-.722-1.226-1.092a23.963,23.963,0,0,0-3.528-2.418,25.4,25.4,0,0,0-9.945-3.133,24.059,24.059,0,0,0-4.277-.04,16.235,16.235,0,0,0-1.63.194,9.543,9.543,0,0,0-1.215.233A3.875,3.875,0,0,0,366.147,380.251Z" transform="translate(-366.147 -379.446)" fill="#ff9a6c"/>
    </g>
  </g>
</svg>
