<svg xmlns="http://www.w3.org/2000/svg" xmlns:xlink="http://www.w3.org/1999/xlink" width="294.643" height="175.34" viewBox="0 0 294.643 175.34">
  <defs>
    <clipPath id="clip-path">
      <path id="Trazado_147647" data-name="Trazado 147647" d="M308.386,116.416l-150.332.078c-5.533,0-9.638,7.324-8.424,15.027l22.158,140.591c.369,2.343,1.827,4.007,3.51,4.006l160.664-.083c2.3,0,4.013-3.05,3.508-6.257L316.816,126.036C315.93,120.411,312.427,116.414,308.386,116.416Z" transform="translate(-149.416 -116.416)" fill="none"/>
    </clipPath>
  </defs>
  <g id="Grupo_155986" data-name="Grupo 155986" transform="translate(-420.787 -5449)">
    <g id="Grupo_75707" data-name="Grupo 75707" transform="translate(381.416 5351.432)">
      <path id="Trazado_147593" data-name="Trazado 147593" d="M333.808,296.931c4.377-47.557-61.891-45.179-84.306-64.854-25.418-22.31-20.055-57.443-47.232-86.3C172.257,113.9,106.79,123.735,85.6,183.3c-9.547,26.832-24.836,30.127-38.261,47.29-15.939,20.376-7.461,66.217,21.026,65.961Z" transform="translate(0 -24.023)" fill="#d9eff8"/>
      <g id="Grupo_75657" data-name="Grupo 75657" transform="translate(52.776 97.569)">
        <g id="Grupo_75622" data-name="Grupo 75622" transform="translate(0 83.342)">
          <g id="Grupo_75614" data-name="Grupo 75614" transform="translate(0 35.023)">
            <path id="Trazado_147595" data-name="Trazado 147595" d="M157.183,387.159c-14.32-.2-35.145.953-49.115-2.2s-27.616-9.508-37.111-20.228c-4.889-5.52-8.706-13.016-6.684-20.107,1.508-5.287,6.077-9.3,11.181-11.341,10.837-4.343,23.551-.652,32.9,6.341s16.053,16.859,22.749,26.423,13.594,7.7,23.411,14.024Z" transform="translate(-63.719 -331.414)" fill="#f7c45d"/>
            <g id="Grupo_75611" data-name="Grupo 75611" transform="translate(16.521 17.385)">
              <path id="Trazado_147596" data-name="Trazado 147596" d="M160.466,400.024c-3.131,0-6.919-1.128-11.32-3.376-14.52-7.421-52.937-30.764-55.042-32.137a.826.826,0,0,1,.9-1.384c2.1,1.37,40.413,24.65,54.892,32.05,6.032,3.082,10.9,3.948,14.064,2.506a5.853,5.853,0,0,0,3.238-3.614.826.826,0,0,1,1.606.385,7.518,7.518,0,0,1-4.119,4.714A9.969,9.969,0,0,1,160.466,400.024Z" transform="translate(-93.729 -362.992)" fill="#fff"/>
            </g>
            <g id="Grupo_75612" data-name="Grupo 75612" transform="translate(30.6 14.202)">
              <path id="Trazado_147597" data-name="Trazado 147597" d="M124.758,372.419a.827.827,0,0,1-.782-.559L119.347,358.3a.826.826,0,0,1,1.563-.534l4.629,13.556a.826.826,0,0,1-.781,1.093Z" transform="translate(-119.302 -357.211)" fill="#fff"/>
            </g>
            <g id="Grupo_75613" data-name="Grupo 75613" transform="translate(32.914 36.5)">
              <path id="Trazado_147598" data-name="Trazado 147598" d="M138.1,399.523l-13.782-.158a.826.826,0,0,1-.816-.835.814.814,0,0,1,.835-.816l13.773.158a.826.826,0,0,1-.009,1.652Z" transform="translate(-123.505 -397.714)" fill="#fff"/>
            </g>
          </g>
          <g id="Grupo_75621" data-name="Grupo 75621" transform="translate(24.848 0)">
            <g id="Grupo_75616" data-name="Grupo 75616">
              <path id="Trazado_147599" data-name="Trazado 147599" d="M178.144,359.249c-26.847-10.754-42.323-25.923-58.908-49.617-3.616-5.166-6.961-10.695-8.307-16.856s-.415-13.1,3.74-17.847c6.589-7.521,19.083-6.943,27.446-1.461s13.58,14.527,18.49,23.237c12.73,22.58,21.176,35,25.111,60.618Z" transform="translate(-109.529 -268.481)" fill="#fff"/>
              <g id="Grupo_75615" data-name="Grupo 75615">
                <path id="Trazado_147600" data-name="Trazado 147600" d="M177.689,357.77a122.968,122.968,0,0,1-20.531-10.446,107.763,107.763,0,0,1-16.671-13.209,148.8,148.8,0,0,1-14.625-16.572q-3.694-4.81-7.142-9.808a53.416,53.416,0,0,1-6.523-11.92c-2.677-7.4-2.555-16.794,3.761-22.369,5.319-4.695,13.3-4.807,19.7-2.584,7.591,2.635,13.188,8.981,17.522,15.492,2.332,3.5,4.392,7.178,6.462,10.841,2.117,3.745,4.265,7.473,6.387,11.216a205.321,205.321,0,0,1,10.257,19.933,111.133,111.133,0,0,1,6.811,22.034c.434,2.151.811,4.314,1.146,6.483.162,1.047,1.753.6,1.593-.439a119.15,119.15,0,0,0-6.178-24.12,158.018,158.018,0,0,0-9.821-20.483c-2.038-3.675-4.135-7.318-6.218-10.968-2.2-3.85-4.325-7.744-6.617-11.539-4.277-7.08-9.494-14.294-16.938-18.3-6.323-3.407-14.375-4.43-21.055-1.447a16.523,16.523,0,0,0-7.911,7.488,21.874,21.874,0,0,0-2.154,11.88c.794,9.129,6.294,16.9,11.5,24.1a179.093,179.093,0,0,0,14.757,18.1,110.95,110.95,0,0,0,36.442,25.862q2.775,1.246,5.6,2.375c.987.4,1.415-1.2.439-1.592Z" transform="translate(-108.854 -267.798)" fill="#f7b75d"/>
              </g>
            </g>
            <g id="Grupo_75617" data-name="Grupo 75617" transform="translate(53.804 56.832)">
              <path id="Trazado_147601" data-name="Trazado 147601" d="M209.331,383.172a.825.825,0,0,1-.811-.677L206.6,372a.826.826,0,1,1,1.625-.3l1.922,10.492a.826.826,0,0,1-.664.961A.814.814,0,0,1,209.331,383.172Z" transform="translate(-206.584 -371.028)" fill="#b8b9f1"/>
            </g>
            <g id="Grupo_75618" data-name="Grupo 75618" transform="translate(30.974 24.832)">
              <path id="Trazado_147602" data-name="Trazado 147602" d="M167.955,329.077a.827.827,0,0,1-.817-.712l-2.015-14.522a.826.826,0,1,1,1.636-.227l2.015,14.522a.826.826,0,0,1-.7.932A.8.8,0,0,1,167.955,329.077Z" transform="translate(-165.116 -312.903)" fill="#fff"/>
            </g>
            <g id="Grupo_75619" data-name="Grupo 75619" transform="translate(24.534 41.927)">
              <path id="Trazado_147603" data-name="Trazado 147603" d="M169.706,352.169a.825.825,0,0,1-.322-.066l-15.462-6.563a.826.826,0,0,1,.645-1.521l15.462,6.564a.826.826,0,0,1-.323,1.586Z" transform="translate(-153.418 -343.954)" fill="#f7b75d"/>
            </g>
            <g id="Grupo_75620" data-name="Grupo 75620" transform="translate(17.433 17.359)">
              <path id="Trazado_147604" data-name="Trazado 147604" d="M194.16,366.209a.821.821,0,0,1-.509-.177c-17.844-14.011-51.561-63.321-52.987-65.413a.826.826,0,1,1,1.364-.931c.348.511,35,51.192,52.643,65.045a.826.826,0,0,1-.51,1.475Z" transform="translate(-140.52 -299.328)" fill="#f7b75d"/>
            </g>
          </g>
        </g>
        <g id="Grupo_75626" data-name="Grupo 75626" transform="translate(47.179 71.749)">
          <rect id="Rectángulo_33023" data-name="Rectángulo 33023" width="108.049" height="8.205" rx="4.102" transform="translate(21.774 95.376)" fill="#b8b9f1"/>
          <rect id="Rectángulo_33024" data-name="Rectángulo 33024" width="106.24" height="8.205" rx="4.102" transform="translate(124.097 95.376)" fill="#566cd2"/>
          <g id="Grupo_75623" data-name="Grupo 75623">
            <path id="Trazado_147605" data-name="Trazado 147605" d="M173.71,341.581a.309.309,0,0,1-.3-.242L154.532,257.4a4.6,4.6,0,0,1,4.491-5.615l128.053-.047a4.579,4.579,0,0,1,4.493,3.594l19.3,85.817a.311.311,0,0,1-.3.379Z" transform="translate(-151.665 -248.988)" fill="#566cd2"/>
            <path id="Trazado_147606" data-name="Trazado 147606" d="M284.829,252.246a1.841,1.841,0,0,1,1.807,1.446l18.627,82.84-131.848.048-18.445-82.029a1.852,1.852,0,0,1,1.806-2.258l128.05-.047Zm0-5.505-128.055.047a7.357,7.357,0,0,0-7.176,8.972L168.472,339.7a3.064,3.064,0,0,0,2.989,2.391l136.854-.05A3.064,3.064,0,0,0,311.3,338.3l-19.3-85.816a7.358,7.358,0,0,0-7.178-5.744Z" transform="translate(-149.416 -246.741)" fill="#b8b9f1"/>
          </g>
          <path id="Trazado_147607" data-name="Trazado 147607" d="M197.176,426.029a1.539,1.539,0,1,1-1.539-1.539A1.539,1.539,0,0,1,197.176,426.029Z" transform="translate(-169.498 -326.632)" fill="#566cd2"/>
          <path id="Rectángulo_33025" data-name="Rectángulo 33025" d="M1.164,0H5.981A1.164,1.164,0,0,1,7.145,1.164v.014A1.165,1.165,0,0,1,5.981,2.343H1.164A1.164,1.164,0,0,1,0,1.178V1.164A1.164,1.164,0,0,1,1.164,0Z" transform="translate(61.693 98.226)" fill="#566cd2"/>
          <path id="Rectángulo_33026" data-name="Rectángulo 33026" d="M1.164,0H5.981A1.165,1.165,0,0,1,7.145,1.165v.013A1.165,1.165,0,0,1,5.981,2.343H1.164A1.164,1.164,0,0,1,0,1.178V1.164A1.164,1.164,0,0,1,1.164,0Z" transform="translate(76.63 98.226)" fill="#566cd2"/>
          <g id="Grupo_75624" data-name="Grupo 75624" transform="translate(23.964 102.302)">
            <path id="Trazado_147608" data-name="Trazado 147608" d="M193.3,433.828a.358.358,0,0,1,0-.716l101.468-.551a.358.358,0,0,1,0,.716l-101.468.551Z" transform="translate(-192.945 -432.562)" fill="#566cd2"/>
          </g>
          <g id="Grupo_75625" data-name="Grupo 75625" transform="translate(24.023 94.825)">
            <path id="Trazado_147609" data-name="Trazado 147609" d="M395.806,420.082H193.6a.551.551,0,1,1,0-1.1h202.2a.551.551,0,0,1,0,1.1Z" transform="translate(-193.051 -418.981)" fill="#fff"/>
          </g>
        </g>
        <g id="Grupo_75656" data-name="Grupo 75656" transform="translate(47.18)">
          <g id="Grupo_75655" data-name="Grupo 75655" clip-path="url(#clip-path)">
            <g id="Grupo_75654" data-name="Grupo 75654" transform="translate(33.071 16.256)">
              <g id="Grupo_75629" data-name="Grupo 75629" transform="translate(58.86 42.429)">
                <path id="Trazado_147610" data-name="Trazado 147610" d="M328.589,223.011c8,3.216,12.09,7.192,14.807,15.373.747,2.247,1.533,7.194,2.128,10.12,1.311,6.443,4.225,10.062,9.274,12.836,10.358,5.692,27.669,6.038,27.669,6.038l.608,8.86s-39.985,17.517-52.905,2.55c-30.035-34.793-1.581-55.778-1.581-55.778Z" transform="translate(-316.399 -223.011)" fill="#fff"/>
                <path id="Trazado_147611" data-name="Trazado 147611" d="M433.692,315.93c.106.158,5.427-.685,6.27-3.952s-5.8-6.965-5.743-7.012S433.692,315.93,433.692,315.93Z" transform="translate(-369.117 -259.846)" fill="#f698b3"/>
                <g id="Grupo_75627" data-name="Grupo 75627" transform="translate(49.963 13.643)">
                  <rect id="Rectángulo_33027" data-name="Rectángulo 33027" width="2.139" height="6.378" rx="1.07" transform="translate(27.825) rotate(19.727)" fill="#b8b9f1"/>
                  <rect id="Rectángulo_33028" data-name="Rectángulo 33028" width="66.975" height="3.125" rx="1.44" transform="translate(0 66.554) rotate(-70.067)" fill="#fff"/>
                  <rect id="Rectángulo_33029" data-name="Rectángulo 33029" width="68.63" height="4.911" rx="1.391" transform="translate(1.433 68.243) rotate(-70.068)" fill="#121f54"/>
                </g>
                <path id="Trazado_147612" data-name="Trazado 147612" d="M436.511,305.394c-1.133,0-3.085.805-2.007,2.143-1.347.481-1.592,1.74-.191,2.353-1.838.977,1.564,2.746,3.432,3.593a1.049,1.049,0,0,0,1.4-.554l.124-.295c1.561.375,1.948-1.062,1.743-2.138,1.375-.018,2.379-1.788,1.113-2.746,1.758-1.533-.244-2.649-2.081-3.684C438.633,303.271,434.855,303.357,436.511,305.394Z" transform="translate(-368.973 -259.232)" fill="#f698b3"/>
                <g id="Grupo_75628" data-name="Grupo 75628" transform="translate(50.124 17.439)">
                  <path id="Trazado_147613" data-name="Trazado 147613" d="M409.01,318.319l-1-.366a.874.874,0,0,1-.52-1.112L429.4,255.466a1.168,1.168,0,0,1,1.45-.725l1.082.335-.163.526-1.082-.335a.62.62,0,0,0-.768.384l-21.906,61.376a.323.323,0,0,0,.192.41l1,.366Z" transform="translate(-407.444 -254.687)" fill="#b8b9f1"/>
                </g>
              </g>
              <g id="Grupo_75630" data-name="Grupo 75630" transform="translate(4.331 118.937)">
                <path id="Trazado_147614" data-name="Trazado 147614" d="M242.76,701.427l21.383-4.839s-1.184-5-7.932-4.269c-4.68.5-4.665.634-4.665.634l-8.211,1.374S241.306,699.315,242.76,701.427Z" transform="translate(-228.536 -510.421)" fill="#566cd2"/>
                <path id="Trazado_147615" data-name="Trazado 147615" d="M245.436,362.09c-9.536,1.165-10.71,3.308-20.276,3.53-2.935,7.362-7.52,15.433-7.515,24.6.007,15.975-1.894,19.829,3.9,48.079,2.279,11.1,8.162,14.446,4.426,23.549-7.486,18.246,2.13,53.826,5.978,84.043l10.924-1.714s15.958-108.249,24.56-162.637c.787-4.974-2.725-10.49-4.354-15.734C256.215,365.579,252.4,361.239,245.436,362.09Z" transform="translate(-217.352 -361.979)" fill="#121f54"/>
              </g>
              <g id="Grupo_75632" data-name="Grupo 75632" transform="translate(27.24 122.568)">
                <path id="Trazado_147616" data-name="Trazado 147616" d="M320.95,688.657l21.9-3.031s-1.166-5-8.122-4.278c-4.824.5-4.81.63-4.81.63l-8.468,1.369S319.474,686.541,320.95,688.657Z" transform="translate(-286.578 -509.122)" fill="#566cd2"/>
                <path id="Trazado_147617" data-name="Trazado 147617" d="M295.868,368.953c-11.7.325-23.062-1.178-34.76.251-.716.088-1.429.182-2.143.274.135,1.315.314,2.658.579,4.057,4.338,22.86,7.412,54.779,14.642,66.767,4.073,6.753,9.138,12.154,11.181,14.976a4.281,4.281,0,0,1,.475,4.657c-10.487,17.019,3.417,51.264,8.06,82.856l10.021-1.677,8.447-82.923a39.283,39.283,0,0,0-.173-8.042c-1.249-11.441-8.413-41.4-10.556-54.2-2.1-12.558-5.055-18.9-4.235-27.174A9.389,9.389,0,0,1,295.868,368.953Z" transform="translate(-258.965 -368.576)" fill="#121f54"/>
                <g id="Grupo_75631" data-name="Grupo 75631" transform="translate(3.28 29.473)">
                  <path id="Trazado_147618" data-name="Trazado 147618" d="M265.129,564.5l-.029,0a.206.206,0,0,1-.175-.234c.714-4.965,17.511-121.674,19.3-127.5a19.282,19.282,0,0,1,3.472-6.521,42.055,42.055,0,0,0,4.78-8.017.207.207,0,1,1,.374.175,43,43,0,0,1-4.821,8.086,18.935,18.935,0,0,0-3.411,6.4c-1.778,5.793-19.11,126.221-19.285,127.437A.207.207,0,0,1,265.129,564.5Z" transform="translate(-264.923 -422.111)" fill="#fff"/>
                </g>
              </g>
              <g id="Grupo_75641" data-name="Grupo 75641" transform="translate(0 36.724)">
                <g id="Grupo_75633" data-name="Grupo 75633" transform="translate(12.19 1.36)">
                  <path id="Trazado_147619" data-name="Trazado 147619" d="M234.564,228.777c-1.15-9.955,29.9-18.929,55.548-9.982,24.3,8.475-1.458,89.014-1.458,89.014l-4.771.652c-21.327,5.681-52.256-8.542-52.256-8.542A241.32,241.32,0,0,0,234.564,228.777Z" transform="translate(-231.628 -215.12)" fill="#b8b9f1"/>
                  <path id="Trazado_147620" data-name="Trazado 147620" d="M286.34,308.895l-1.583-32.478L282.6,262.84c4.4,12.265,28.85,24.977,28.85,24.977l-.032,2.43s4.346,40.376-2,44.736-26.294,8.985-26.294,8.985Z" transform="translate(-254.538 -236.568)" fill="#b8b9f1" opacity="0.5" style="mix-blend-mode: multiply;isolation: isolate"/>
                  <path id="Trazado_147621" data-name="Trazado 147621" d="M312.5,235.7s5.26,24.8,4.825,40.315c-.383,13.647-.929,21.245-.929,21.245l-3.514,6.485-2.927-9.161s.551-34.179-.061-40.51-1.991-17.381-1.991-17.381Z" transform="translate(-265.909 -224.368)" fill="#121f54"/>
                  <path id="Trazado_147622" data-name="Trazado 147622" d="M303.484,224.955l3.95-3.653,3.82,3.565s.012,4.186-1.35,5.075a6.93,6.93,0,0,1-3.759.629S302.992,225.989,303.484,224.955Z" transform="translate(-263.901 -217.898)" fill="#121f54"/>
                </g>
                <g id="Grupo_75636" data-name="Grupo 75636">
                  <path id="Trazado_147623" data-name="Trazado 147623" d="M250.447,212.649s7.294,54.467,1.432,90-4.173,75.539-4.173,75.539-34.042,2.911-36.5-2.252c0,0-4.792-11.611,1.614-56.28,2.42-16.872,8.02-22.921,9.656-31.052,3.1-15.4-5.909-40.1-.493-59.774,1.8-6.518,5.519-10.118,13.465-12.36C245.953,213.508,250.447,212.649,250.447,212.649Z" transform="translate(-209.486 -212.649)" fill="#fff"/>
                  <g id="Grupo_75634" data-name="Grupo 75634" transform="translate(34.449 69.905)">
                    <path id="Trazado_147624" data-name="Trazado 147624" d="M272.845,432.727a.413.413,0,0,1-.412-.387c-.382-6.106-.8-33.893.575-40.22.976-4.475,2.2-15.583,3.1-23.694.339-3.064.631-5.71.844-7.388.761-6.023,2.074-20.887,2.088-21.037a.413.413,0,0,1,.823.073c-.013.149-1.328,15.029-2.091,21.068-.211,1.673-.5,4.315-.842,7.376-.9,8.129-2.131,19.262-3.115,23.778-1.365,6.262-.938,33.912-.558,39.993a.412.412,0,0,1-.386.437Z" transform="translate(-272.06 -339.625)" fill="#b8b9f1"/>
                  </g>
                  <g id="Grupo_75635" data-name="Grupo 75635" transform="translate(33.93 0.409)">
                    <path id="Trazado_147625" data-name="Trazado 147625" d="M281.194,260.194a.206.206,0,0,1-.2-.15l-7.628-27.033,2.1-5.24-4.346-6.589,3.166-7.662a.206.206,0,1,1,.382.157l-3.083,7.46,4.345,6.587-2.123,5.311,7.59,26.9a.207.207,0,0,1-.143.255A.221.221,0,0,1,281.194,260.194Z" transform="translate(-271.116 -213.392)" fill="#b8b9f1"/>
                  </g>
                </g>
                <g id="Grupo_75640" data-name="Grupo 75640" transform="translate(63.442 2.473)">
                  <path id="Trazado_147626" data-name="Trazado 147626" d="M330.691,219.274l-5.969-2.133s10.755,36.616,2.8,71.4c-7.44,32.539,5.58,86.049,5.58,86.049l15.9-2.661s-7.945-27.884-10.518-47.271c-1.23-9.276-2.62-23.822-.928-33.025,2.615-14.223,8.171-30.867,7.943-39.1-.242-8.742.924-14.55-1.25-21.8C343.052,226.737,337.68,221.4,330.691,219.274Z" transform="translate(-324.722 -217.141)" fill="#fff"/>
                  <g id="Grupo_75637" data-name="Grupo 75637" transform="translate(11.881 27.895)">
                    <path id="Trazado_147627" data-name="Trazado 147627" d="M346.716,319.015a.441.441,0,0,1-.06,0,.413.413,0,0,1-.35-.468c.01-.064.96-6.553,3.038-15.705.515-2.268,1.154-4.729,1.832-7.334a121.736,121.736,0,0,0,3.05-13.7c1.318-10.47.627-13.451.62-13.479a.413.413,0,0,1,.8-.2c.031.121.746,3.083-.6,13.787a122.2,122.2,0,0,1-3.07,13.8c-.675,2.6-1.314,5.054-1.826,7.31-2.07,9.118-3.016,15.577-3.026,15.641A.413.413,0,0,1,346.716,319.015Z" transform="translate(-346.302 -267.81)" fill="#b8b9f1"/>
                  </g>
                  <g id="Grupo_75638" data-name="Grupo 75638" transform="translate(4.651 2.113)">
                    <path id="Trazado_147628" data-name="Trazado 147628" d="M335.5,266.858a.207.207,0,0,1-.2-.257c1.352-5.317,3.352-24.1,3.49-25.41l-4.54-7.312,3.289-3.046-4.347-9.562a.207.207,0,0,1,.376-.171l4.47,9.834-3.258,3.017,4.435,7.143-.008.07c-.021.2-2.106,20.028-3.507,25.538A.207.207,0,0,1,335.5,266.858Z" transform="translate(-333.17 -220.979)" fill="#b8b9f1"/>
                  </g>
                  <g id="Grupo_75639" data-name="Grupo 75639" transform="translate(5.762 1.927)">
                    <path id="Trazado_147629" data-name="Trazado 147629" d="M344.315,283.205a.214.214,0,0,1-.061-.009.207.207,0,0,1-.137-.258c.07-.228,7.013-22.942,5.929-35.9a47.416,47.416,0,0,0-1.12-12.4c-1.487-6.3-13.516-13.542-13.637-13.615a.206.206,0,1,1,.212-.354c.5.3,12.3,7.407,13.827,13.874a47.71,47.71,0,0,1,1.13,12.491c1.091,13.007-5.875,35.8-5.946,36.025A.206.206,0,0,1,344.315,283.205Z" transform="translate(-335.188 -220.641)" fill="#b8b9f1"/>
                  </g>
                </g>
              </g>
              <g id="Grupo_75648" data-name="Grupo 75648" transform="translate(10.544 44.59)">
                <path id="Trazado_147630" data-name="Trazado 147630" d="M369.73,324.844a5.781,5.781,0,0,0,2.23-1.684c.316-.624,2.482-3.181,3.5-3.39s1.974-.579,1.781.421-3.6,5.516-3.6,5.516l-3.876-.529Z" transform="translate(-292.053 -268.552)" fill="#f698b3"/>
                <g id="Grupo_75644" data-name="Grupo 75644" transform="translate(67.742 41.757)">
                  <rect id="Rectángulo_33030" data-name="Rectángulo 33030" width="1.199" height="2.717" rx="0.599" transform="translate(26.057 21.762) rotate(-52.277)" fill="#b8b9f1"/>
                  <rect id="Rectángulo_33031" data-name="Rectángulo 33031" width="3.03" height="33.595" rx="1.515" transform="matrix(0.612, -0.791, 0.791, 0.612, 0, 2.76)" fill="#121f54"/>
                  <g id="Grupo_75642" data-name="Grupo 75642" transform="translate(0.271 0.582)">
                    <path id="Trazado_147631" data-name="Trazado 147631" d="M364.813,311.8l-2.217,2.866-9.984-7.724a1.123,1.123,0,0,1-.2-1.576l.842-1.089a1.123,1.123,0,0,1,1.575-.2Z" transform="translate(-352.176 -303.84)" fill="#b8b9f1"/>
                    <path id="Trazado_147632" data-name="Trazado 147632" d="M354.142,303.84a1.121,1.121,0,0,0-.889.436l-.842,1.089a1.123,1.123,0,0,0,.2,1.576l9.984,7.724,2.217-2.866-9.984-7.724a1.12,1.12,0,0,0-.687-.235Z" transform="translate(-352.176 -303.84)" fill="#566cd2"/>
                  </g>
                  <g id="Grupo_75643" data-name="Grupo 75643" transform="translate(2.389)">
                    <path id="Trazado_147633" data-name="Trazado 147633" d="M363.592,308.226a.272.272,0,0,1-.165-.055l-6.282-4.73-.631.8a.275.275,0,0,1-.433-.34l.8-1.017a.275.275,0,0,1,.382-.05l6.5,4.892a.275.275,0,0,1-.166.495Z" transform="translate(-356.022 -302.783)" fill="#566cd2"/>
                  </g>
                </g>
                <g id="Grupo_75647" data-name="Grupo 75647">
                  <path id="Trazado_147634" data-name="Trazado 147634" d="M357.708,327.12a6.422,6.422,0,0,1,3.31-.624c.189.015,2.039,1.1,3.634.42a9.227,9.227,0,0,1,3.322-2.087c1.072-.323,1.579-1.1,2.959-1.467,1.056-.28,1.753,1,2.509,1.472.5.314,1.484.639,1.829,1.149a5.985,5.985,0,0,1,.423,1.448,12.343,12.343,0,0,1,.526,1.751c.064.491-1.06,1.627-1.125,2.077a20.42,20.42,0,0,1-.457,2.2c-.656,1.893-1.729,1.032-6.845,1.266-3.654.166-12.117,1.21-12.117,1.21Z" transform="translate(-285.737 -270.258)" fill="#f698b3"/>
                  <path id="Trazado_147635" data-name="Trazado 147635" d="M306.53,291.807c-32.456,4.682-51.038.024-59.759-9.75-11.3-12.667-19.521-24.484-17.936-44.25.265-3.3,4.4-8.8,5.779-9.479,7.019-3.461,12.96-.487,15.672,9.1,3.468,12.26,13.438,27.823,18.542,32.289,3.853,3.372,12.8,5.376,37.662,11.914Z" transform="translate(-228.638 -226.936)" fill="#fff"/>
                  <g id="Grupo_75645" data-name="Grupo 75645" transform="translate(21.234 10.079)">
                    <path id="Trazado_147636" data-name="Trazado 147636" d="M323.824,290.271a.438.438,0,0,1-.08-.008c-1.371-.268-33.646-6.654-39.958-14.153-8.644-10.268-15.839-28.143-16.558-30.325a.413.413,0,1,1,.784-.259c.714,2.164,7.844,19.882,16.406,30.053,6.127,7.278,39.152,13.809,39.485,13.874a.413.413,0,0,1-.079.818Z" transform="translate(-267.207 -245.243)" fill="#b8b9f1"/>
                  </g>
                  <g id="Grupo_75646" data-name="Grupo 75646" transform="translate(6.108 37.884)">
                    <path id="Trazado_147637" data-name="Trazado 147637" d="M287.032,325.3c-10.5,0-21.887-1.42-28.7-6.559-9.487-7.155-14.622-11.4-18.574-22.442a.413.413,0,0,1,.777-.279c3.872,10.818,8.935,15,18.293,22.061,14.621,11.027,52.236,4.316,52.614,4.247a.413.413,0,0,1,.148.813A151.586,151.586,0,0,1,287.032,325.3Z" transform="translate(-239.733 -295.748)" fill="#b8b9f1"/>
                  </g>
                </g>
              </g>
              <g id="Grupo_75653" data-name="Grupo 75653" transform="translate(38.666)">
                <g id="Grupo_75652" data-name="Grupo 75652">
                  <path id="Trazado_147638" data-name="Trazado 147638" d="M289.468,192.808s7.207-17.243,8.8-20.253,14.552-3.079,13.14,2.009-4.627,23.373-4.627,23.373S297,204.182,289.468,192.808Z" transform="translate(-284.1 -156.971)" fill="#ea759c"/>
                  <g id="Grupo_75649" data-name="Grupo 75649" transform="translate(7.933 3.911)">
                    <path id="Trazado_147639" data-name="Trazado 147639" d="M308.38,186.926a6.575,6.575,0,0,0,7.854-2.54c1.325-2,2.915-9.77,4.087-15.01s-1.039-10.59-4.064-13.824-13.531-3.428-16.873-.056A19.2,19.2,0,0,0,294.2,170.05a16.9,16.9,0,0,0,5.356,11.551C301.744,183.782,305.519,185.637,308.38,186.926Z" transform="translate(-294.128 -153.046)" fill="#f698b3"/>
                  </g>
                  <g id="Grupo_75650" data-name="Grupo 75650" transform="translate(16.954 38.797)">
                    <path id="Trazado_147640" data-name="Trazado 147640" d="M311.705,220.373s5.526-1.46,6.464-2.931l3,1.865s-2.98,8.068-4.169,9.253Z" transform="translate(-311.049 -216.876)" fill="#b8b9f1"/>
                    <path id="Trazado_147641" data-name="Trazado 147641" d="M316.395,228.751l-5.882-9.094.551-.145c2.077-.549,5.6-1.782,6.221-2.753l.22-.344,3.634,2.258-.117.315c-.308.835-3.047,8.188-4.265,9.4Zm-4.574-8.593,4.671,7.223a67.019,67.019,0,0,0,3.637-8.364l-2.409-1.5C316.533,218.716,313.194,219.765,311.821,220.158Z" transform="translate(-310.513 -216.414)" fill="#fff"/>
                  </g>
                  <g id="Grupo_75651" data-name="Grupo 75651" transform="translate(0 35.401)">
                    <path id="Trazado_147642" data-name="Trazado 147642" d="M297.406,217.69s-8.473-1.279-11.667-6.511l-4.819,1.948,10.591,13.613Z" transform="translate(-280.258 -210.665)" fill="#b8b9f1"/>
                    <path id="Trazado_147643" data-name="Trazado 147643" d="M291,227.031l-11.283-14.5,5.651-2.284.182.3c3.055,5,11.294,6.305,11.376,6.317l.634.1Zm-9.959-14.146,9.9,12.725,5.239-8.044c-2.011-.4-8.269-1.964-11.145-6.295Z" transform="translate(-279.718 -210.245)" fill="#fff"/>
                  </g>
                  <path id="Trazado_147644" data-name="Trazado 147644" d="M293.159,157.523a8.978,8.978,0,0,1,3.624-5.38,22.056,22.056,0,0,1,2.613-1.134c1.167-.56,1.254-1.982,2.16-2.907,1.44-1.468,3.648-1.8,5.691-2.038,1.429-.166,3-.29,4.177.543a2.45,2.45,0,0,1,.907,2.3.507.507,0,0,0,.653.6,11.65,11.65,0,0,1,5.153-.855c2.308.253,4.629,2.016,4.664,4.338a7.287,7.287,0,0,0,.026,1.834c.259.94,1.191,1.495,1.974,2.077s1.544,1.507,1.245,2.434c-.318.984-1.582,1.248-2.614,1.207s-2.2-.179-2.975.5a1.337,1.337,0,0,1,.134,1.729c-1.61,2.229-11.169,1.991-15.935-.581a1.966,1.966,0,0,0-2.906,1.587c-.013.211-.032.422-.057.631-.229,1.909-1.42,3.356-2.106,5.152-2.5,1.879-2.96.7-5.05,3.027C292.25,166.6,290.941,164.872,293.159,157.523Z" transform="translate(-285.245 -145.943)" fill="#121f54"/>
                  <path id="Trazado_147645" data-name="Trazado 147645" d="M297.437,182.179a1.579,1.579,0,0,1,.911-1.039,1.657,1.657,0,0,1,1.495.4,5.113,5.113,0,0,1,1.729,4.561,9.653,9.653,0,0,0-.783,1.6,1.329,1.329,0,0,1-.374.647,1.248,1.248,0,0,1-1.148.156,2,2,0,0,1-.845-.639A5.643,5.643,0,0,1,297.437,182.179Z" transform="translate(-287.517 -161.737)" fill="#f698b3"/>
                </g>
                <path id="Trazado_147646" data-name="Trazado 147646" d="M321.332,189.659a41.848,41.848,0,0,0-6.448-1.391c-3.923-.629-8.354-.855-9.495-1.919s-.59-1.816-.368-3.858.422-3,.422-3l-2.246,3.87s-1.65,4.213-2.394,5.7c-1.083,2.166-.079,3.19,1.831,4.691s5.732,5.913,11.737,6.065S321.332,189.659,321.332,189.659Z" transform="translate(-288.994 -161.023)" fill="#121f54"/>
              </g>
            </g>
          </g>
        </g>
      </g>
    </g>
  </g>
</svg>
